G04*
G04 #@! TF.GenerationSoftware,Altium Limited,Altium Designer,20.1.11 (218)*
G04*
G04 Layer_Physical_Order=2*
G04 Layer_Color=8388736*
%FSLAX24Y24*%
%MOIN*%
G70*
G04*
G04 #@! TF.SameCoordinates,C20E3654-7A5B-4E15-AF0D-48D46733EB80*
G04*
G04*
G04 #@! TF.FilePolarity,Negative*
G04*
G01*
G75*
%ADD199C,0.0118*%
%ADD263C,0.0157*%
%ADD264C,0.1000*%
%ADD265C,0.0400*%
%ADD266C,0.0551*%
%ADD267C,0.1339*%
%ADD268C,0.0689*%
G04:AMPARAMS|DCode=269|XSize=124.961mil|YSize=124.961mil|CornerRadius=0mil|HoleSize=0mil|Usage=FLASHONLY|Rotation=0.000|XOffset=0mil|YOffset=0mil|HoleType=Round|Shape=Relief|Width=20mil|Gap=10mil|Entries=4|*
%AMTHD269*
7,0,0,0.1250,0.1050,0.0200,45*
%
%ADD269THD269*%
G04:AMPARAMS|DCode=270|XSize=178.11mil|YSize=178.11mil|CornerRadius=0mil|HoleSize=0mil|Usage=FLASHONLY|Rotation=0.000|XOffset=0mil|YOffset=0mil|HoleType=Round|Shape=Relief|Width=20mil|Gap=10mil|Entries=4|*
%AMTHD270*
7,0,0,0.1781,0.1581,0.0200,45*
%
%ADD270THD270*%
%ADD271C,0.1239*%
G04:AMPARAMS|DCode=272|XSize=133mil|YSize=133mil|CornerRadius=0mil|HoleSize=0mil|Usage=FLASHONLY|Rotation=0.000|XOffset=0mil|YOffset=0mil|HoleType=Round|Shape=Relief|Width=20mil|Gap=10mil|Entries=4|*
%AMTHD272*
7,0,0,0.1330,0.1130,0.0200,45*
%
%ADD272THD272*%
%ADD273C,0.0769*%
G04:AMPARAMS|DCode=274|XSize=73.779mil|YSize=73.779mil|CornerRadius=0mil|HoleSize=0mil|Usage=FLASHONLY|Rotation=0.000|XOffset=0mil|YOffset=0mil|HoleType=Round|Shape=Relief|Width=20mil|Gap=10mil|Entries=4|*
%AMTHD274*
7,0,0,0.0738,0.0538,0.0200,45*
%
%ADD274THD274*%
%ADD275O,0.0492X0.0236*%
%ADD276O,0.0256X0.0374*%
%ADD277C,0.0389*%
%ADD278C,0.1319*%
%ADD279C,0.0099*%
D199*
X60791Y6240D02*
D03*
X60358D02*
D03*
X60791Y6673D02*
D03*
X60358D02*
D03*
D263*
X42864Y13511D02*
D03*
X42306Y14433D02*
D03*
X42842Y14423D02*
D03*
X52325Y6091D02*
D03*
X54978Y8505D02*
D03*
X55801Y8449D02*
D03*
X59464Y6888D02*
D03*
X60638Y5351D02*
D03*
X60605Y7621D02*
D03*
X59487Y6465D02*
D03*
X52881Y4355D02*
D03*
X52741Y8436D02*
D03*
X56012Y4387D02*
D03*
X60056Y5278D02*
D03*
X61651Y6455D02*
D03*
X52772Y56452D02*
D03*
X52426Y56449D02*
D03*
X53055Y56470D02*
D03*
X62015Y28443D02*
D03*
X63707Y32588D02*
D03*
X63297Y30261D02*
D03*
X61667Y39441D02*
D03*
X53062Y42310D02*
D03*
X53165Y37106D02*
D03*
X56068Y30125D02*
D03*
X56621Y30132D02*
D03*
X55895Y30526D02*
D03*
X56351Y30533D02*
D03*
X56862Y30530D02*
D03*
X57183Y32343D02*
D03*
X57183Y31861D02*
D03*
X57984Y31330D02*
D03*
X57904Y30355D02*
D03*
X58900Y27899D02*
D03*
X43726Y19953D02*
D03*
X48425Y58268D02*
D03*
X48032Y55906D02*
D03*
X47244Y59055D02*
D03*
Y55906D02*
D03*
X46457Y59055D02*
D03*
X46851Y58268D02*
D03*
X46063D02*
D03*
X45669Y57480D02*
D03*
Y55906D02*
D03*
X44882Y59055D02*
D03*
X45276Y58268D02*
D03*
Y56693D02*
D03*
Y55118D02*
D03*
X44095Y59055D02*
D03*
X44488Y58268D02*
D03*
Y56693D02*
D03*
X44095Y55906D02*
D03*
X44488Y55118D02*
D03*
X43701Y58268D02*
D03*
X43307Y57480D02*
D03*
X43701Y18898D02*
D03*
X43307Y18110D02*
D03*
X42914Y58268D02*
D03*
Y56693D02*
D03*
X42520Y55906D02*
D03*
X42914Y55118D02*
D03*
X41732Y60630D02*
D03*
X42126Y59843D02*
D03*
Y58268D02*
D03*
X40945Y60630D02*
D03*
Y59055D02*
D03*
X41339Y58268D02*
D03*
X40551Y59843D02*
D03*
X40158Y59055D02*
D03*
X39370Y60630D02*
D03*
X39764Y59843D02*
D03*
X38583Y60630D02*
D03*
X38977Y59843D02*
D03*
X38583Y59055D02*
D03*
X38977Y58268D02*
D03*
X37795Y60630D02*
D03*
X38189Y59843D02*
D03*
Y58268D02*
D03*
X37402D02*
D03*
X36221Y60630D02*
D03*
X36614Y58268D02*
D03*
X35433Y60630D02*
D03*
X35827Y59843D02*
D03*
X34646Y60630D02*
D03*
X35040Y59843D02*
D03*
X34252D02*
D03*
X33071Y60630D02*
D03*
Y59055D02*
D03*
X32284Y60630D02*
D03*
X32677Y59843D02*
D03*
X32284Y59055D02*
D03*
X31496Y60630D02*
D03*
X31890Y59843D02*
D03*
X31496Y59055D02*
D03*
X30709Y60630D02*
D03*
X31102Y59843D02*
D03*
X30709Y59055D02*
D03*
X30315Y59843D02*
D03*
X29921Y59055D02*
D03*
X29134D02*
D03*
X28347D02*
D03*
X26772D02*
D03*
X22071Y22669D02*
D03*
X5118Y42520D02*
D03*
X3937Y44882D02*
D03*
X4331Y44095D02*
D03*
Y42520D02*
D03*
X3150Y44882D02*
D03*
X3543Y44095D02*
D03*
X1575Y44882D02*
D03*
X1969Y44095D02*
D03*
X21321Y22736D02*
D03*
X21468Y21451D02*
D03*
X58360Y63603D02*
D03*
X58463Y63206D02*
D03*
X31429Y7211D02*
D03*
X31922Y7139D02*
D03*
X36267Y10524D02*
D03*
X35416D02*
D03*
X31605Y15010D02*
D03*
X31295Y15027D02*
D03*
X31662Y15404D02*
D03*
X31275Y15400D02*
D03*
X28867Y15697D02*
D03*
X28387Y15549D02*
D03*
X25130Y13778D02*
D03*
X26590Y9359D02*
D03*
X27203Y9649D02*
D03*
X28440Y7510D02*
D03*
X19890Y58651D02*
D03*
X38539Y31943D02*
D03*
X37972Y30683D02*
D03*
X36892Y37017D02*
D03*
X46063Y31496D02*
D03*
X45669Y30709D02*
D03*
X45276Y31496D02*
D03*
X44488D02*
D03*
X44095Y30709D02*
D03*
X43701Y31496D02*
D03*
X43307Y30709D02*
D03*
X42780Y29072D02*
D03*
X42793Y29433D02*
D03*
X42783Y29733D02*
D03*
X38722Y29165D02*
D03*
X39160Y27820D02*
D03*
X48491Y24438D02*
D03*
X48474Y24889D02*
D03*
X48203Y25016D02*
D03*
X47889Y25011D02*
D03*
X51038Y13916D02*
D03*
X51598Y13462D02*
D03*
X51969Y11811D02*
D03*
X52362Y11024D02*
D03*
X51575Y12599D02*
D03*
X51181Y11811D02*
D03*
X50788Y11024D02*
D03*
X49213Y21260D02*
D03*
Y19685D02*
D03*
X48425Y21260D02*
D03*
X48032Y20473D02*
D03*
X48425Y19685D02*
D03*
X48032Y18898D02*
D03*
X47638Y19685D02*
D03*
X54360Y18950D02*
D03*
X62396Y18227D02*
D03*
X61143Y20404D02*
D03*
X56133Y18093D02*
D03*
X57315Y18089D02*
D03*
X57980Y18542D02*
D03*
X58084Y19199D02*
D03*
X58092Y20342D02*
D03*
X56957Y22298D02*
D03*
X57780Y21049D02*
D03*
X55912Y21576D02*
D03*
X57109Y24161D02*
D03*
Y24874D02*
D03*
X33071Y33071D02*
D03*
X33465Y32284D02*
D03*
X33071Y31496D02*
D03*
X33465Y30709D02*
D03*
X33071Y29921D02*
D03*
X32284Y33071D02*
D03*
X32677Y32284D02*
D03*
X32284Y29921D02*
D03*
X31890Y32284D02*
D03*
Y30709D02*
D03*
X30709Y33071D02*
D03*
X29921D02*
D03*
X30315Y32284D02*
D03*
X29134Y33071D02*
D03*
X29528Y32284D02*
D03*
X4507Y37625D02*
D03*
X21824Y13539D02*
D03*
X21831Y14359D02*
D03*
X21811Y15185D02*
D03*
X21828Y16011D02*
D03*
X20127Y15334D02*
D03*
X18360Y14885D02*
D03*
X16495Y15421D02*
D03*
X15412Y15428D02*
D03*
X19319Y5154D02*
D03*
X19129Y9096D02*
D03*
X19549Y58759D02*
D03*
X19620Y60573D02*
D03*
X19694Y61938D02*
D03*
X21156Y63401D02*
D03*
X28347Y64567D02*
D03*
X28740Y63780D02*
D03*
X27559Y64567D02*
D03*
X27953Y63780D02*
D03*
X26772Y64567D02*
D03*
X27165Y63780D02*
D03*
X26772Y62992D02*
D03*
X25984Y64567D02*
D03*
X26378Y63780D02*
D03*
X25197Y64567D02*
D03*
X24410D02*
D03*
X24803Y63780D02*
D03*
X24410Y62992D02*
D03*
X23622Y64567D02*
D03*
X24016Y63780D02*
D03*
X48032Y59055D02*
D03*
Y57480D02*
D03*
X47638Y58268D02*
D03*
X47244Y57480D02*
D03*
X47638Y56693D02*
D03*
X46457Y57480D02*
D03*
X46851Y56693D02*
D03*
X45669Y59055D02*
D03*
X46063Y56693D02*
D03*
X44882Y57480D02*
D03*
Y55906D02*
D03*
X44095Y57480D02*
D03*
X43307Y59055D02*
D03*
X43701Y56693D02*
D03*
X42520Y59055D02*
D03*
Y57480D02*
D03*
X41732Y59055D02*
D03*
X41339Y59843D02*
D03*
X40158Y60630D02*
D03*
X40551Y58268D02*
D03*
X39370Y59055D02*
D03*
X39764Y58268D02*
D03*
X37795Y59055D02*
D03*
X36221D02*
D03*
X8264Y48947D02*
D03*
X9522Y42800D02*
D03*
X12983Y43776D02*
D03*
X13032Y42943D02*
D03*
X21546Y19302D02*
D03*
X19388Y41566D02*
D03*
X17910Y43794D02*
D03*
X18898Y41732D02*
D03*
Y40158D02*
D03*
X18110D02*
D03*
X17323D02*
D03*
X16536Y43307D02*
D03*
Y41732D02*
D03*
X16929Y40945D02*
D03*
X16536Y40158D02*
D03*
X15748Y43307D02*
D03*
X16142Y42520D02*
D03*
X15748Y41732D02*
D03*
X16142Y40945D02*
D03*
X15354Y42520D02*
D03*
X14961Y41732D02*
D03*
X20789Y49254D02*
D03*
X19711Y49274D02*
D03*
X20225D02*
D03*
X19172Y49254D02*
D03*
X5485Y39940D02*
D03*
X6061Y38233D02*
D03*
X3000Y38475D02*
D03*
X3018Y38791D02*
D03*
X3348Y38782D02*
D03*
X2231Y36052D02*
D03*
X2820Y32957D02*
D03*
X2892Y34188D02*
D03*
X3332Y36561D02*
D03*
X58966Y65239D02*
D03*
X59572Y65239D02*
D03*
X57001Y64807D02*
D03*
Y65065D02*
D03*
X57012Y65323D02*
D03*
X45212Y24816D02*
D03*
Y24149D02*
D03*
X45126Y24508D02*
D03*
X44783Y24515D02*
D03*
X31291Y12096D02*
D03*
X31536Y12070D02*
D03*
X30931Y12104D02*
D03*
X30677D02*
D03*
X41893Y11522D02*
D03*
X42200D02*
D03*
X42507D02*
D03*
Y10845D02*
D03*
X42200D02*
D03*
X41893D02*
D03*
D264*
X60358Y25962D02*
X66949D01*
X60358Y36738D02*
X66898D01*
X60358Y25962D02*
Y36738D01*
X63366Y39723D02*
X66930D01*
X62052Y41036D02*
X63366Y39723D01*
X62052Y41036D02*
Y41907D01*
X61557Y42403D02*
X62052Y41907D01*
X60753Y42403D02*
X61557D01*
X60203Y41854D02*
X60753Y42403D01*
X60203Y39723D02*
Y41854D01*
X59734Y39254D02*
X60203Y39723D01*
X55433Y39254D02*
X59734D01*
X55433D02*
Y45539D01*
X57269Y47374D01*
X66890D01*
D265*
X0Y0D02*
X66929D01*
Y70866D01*
X0D02*
X66929D01*
X0Y0D02*
Y70866D01*
D266*
X64881Y61667D02*
D03*
Y63636D02*
D03*
Y65604D02*
D03*
Y67573D02*
D03*
D267*
X5906Y68898D02*
D03*
X61024D02*
D03*
Y1969D02*
D03*
X5906D02*
D03*
D268*
X65052Y2895D02*
D03*
Y9794D02*
D03*
Y23593D02*
D03*
Y16694D02*
D03*
D269*
X64052Y3895D02*
D03*
X66052D02*
D03*
Y1895D02*
D03*
X64052D02*
D03*
Y10794D02*
D03*
X66052D02*
D03*
Y8794D02*
D03*
X64052D02*
D03*
Y24593D02*
D03*
X66052D02*
D03*
Y22593D02*
D03*
X64052D02*
D03*
Y15694D02*
D03*
X66052D02*
D03*
Y17694D02*
D03*
X64052D02*
D03*
D270*
X15205Y23312D02*
D03*
X28985Y37092D02*
D03*
D271*
X64104Y52933D02*
D03*
Y56240D02*
D03*
D272*
X59065Y52933D02*
D03*
Y54587D02*
D03*
Y56240D02*
D03*
D273*
X61230Y52933D02*
D03*
Y54587D02*
D03*
Y56240D02*
D03*
D274*
X50498Y43496D02*
D03*
X50077D02*
D03*
X49656D02*
D03*
X50498Y43917D02*
D03*
X50077D02*
D03*
X49656D02*
D03*
X50498Y44338D02*
D03*
X50077D02*
D03*
X49656D02*
D03*
D275*
X66146Y31699D02*
D03*
Y34455D02*
D03*
D276*
X65083Y32093D02*
D03*
Y34062D02*
D03*
D277*
X61122Y45134D02*
D03*
Y40634D02*
D03*
Y41534D02*
D03*
Y46034D02*
D03*
X63022Y41934D02*
D03*
Y42734D02*
D03*
Y43534D02*
D03*
Y44334D02*
D03*
X63722Y42334D02*
D03*
Y43134D02*
D03*
Y43934D02*
D03*
Y44734D02*
D03*
D278*
X64722Y40834D02*
D03*
Y45834D02*
D03*
D279*
X7170Y33434D02*
D03*
Y33185D02*
D03*
Y32936D02*
D03*
X9218Y33621D02*
D03*
X8969D02*
D03*
X8720D02*
D03*
X7197Y28685D02*
D03*
Y28436D02*
D03*
Y28187D02*
D03*
X7194Y29882D02*
D03*
Y29633D02*
D03*
Y29385D02*
D03*
X7180Y30972D02*
D03*
Y30723D02*
D03*
Y30474D02*
D03*
X7177Y32234D02*
D03*
Y31986D02*
D03*
Y31737D02*
D03*
X6844Y34187D02*
D03*
X6595D02*
D03*
X6346D02*
D03*
X6848Y34883D02*
D03*
X6599D02*
D03*
X6350D02*
D03*
X6832Y35495D02*
D03*
X6583D02*
D03*
X6334D02*
D03*
X6836Y36347D02*
D03*
X6587D02*
D03*
X6338D02*
D03*
X6832Y37297D02*
D03*
X6583D02*
D03*
X6334D02*
D03*
X10274Y29459D02*
D03*
X11604Y29219D02*
D03*
Y29849D02*
D03*
X26880Y25868D02*
D03*
X19793Y25474D02*
D03*
X8429Y28274D02*
D03*
Y28589D02*
D03*
Y28904D02*
D03*
X17824Y28230D02*
D03*
X17431D02*
D03*
X9402Y28349D02*
D03*
Y28199D02*
D03*
X17506Y26258D02*
D03*
X17356D02*
D03*
X18218Y29411D02*
D03*
X17824D02*
D03*
X9059Y31739D02*
D03*
Y32054D02*
D03*
X9059Y32369D02*
D03*
X8744Y32684D02*
D03*
Y31739D02*
D03*
Y32054D02*
D03*
Y32369D02*
D03*
X8740Y31428D02*
D03*
X11434Y29849D02*
D03*
X11264D02*
D03*
X8429Y30794D02*
D03*
X8744D02*
D03*
X9059Y29849D02*
D03*
X8744D02*
D03*
X9064Y29225D02*
D03*
X9046Y28591D02*
D03*
X8750Y29225D02*
D03*
X9059Y27645D02*
D03*
X8429Y29849D02*
D03*
X8744Y27959D02*
D03*
X8436Y32369D02*
D03*
Y31739D02*
D03*
X8096D02*
D03*
X8266D02*
D03*
Y32369D02*
D03*
X8096D02*
D03*
X11264Y28274D02*
D03*
X11434D02*
D03*
X11264Y29219D02*
D03*
X11434D02*
D03*
X10274Y29609D02*
D03*
X10634Y28589D02*
D03*
Y28904D02*
D03*
X10949Y28589D02*
D03*
Y29219D02*
D03*
X10935Y29863D02*
D03*
X10949Y29534D02*
D03*
X10949Y32684D02*
D03*
X9465Y30404D02*
D03*
Y30554D02*
D03*
X10634Y30794D02*
D03*
X11259Y30781D02*
D03*
X10949Y30794D02*
D03*
X10634Y31109D02*
D03*
X10949Y31739D02*
D03*
X10634Y32054D02*
D03*
X10634Y31424D02*
D03*
X10949Y32054D02*
D03*
X10634Y31739D02*
D03*
X10949Y31424D02*
D03*
X11604Y32369D02*
D03*
X11434Y31739D02*
D03*
X11604D02*
D03*
X11264D02*
D03*
Y32369D02*
D03*
X10634Y30479D02*
D03*
X9064Y29539D02*
D03*
X10949Y27959D02*
D03*
X20974Y34530D02*
D03*
X24517Y34923D02*
D03*
X50162Y41917D02*
D03*
X17037Y26262D02*
D03*
X17399Y28598D02*
D03*
X17431Y25474D02*
D03*
X17037Y28624D02*
D03*
Y29018D02*
D03*
X19006Y33349D02*
D03*
X19399Y30593D02*
D03*
X19793Y30986D02*
D03*
X20187Y26656D02*
D03*
Y25868D02*
D03*
X21368Y32955D02*
D03*
X26880Y32561D02*
D03*
X25698Y25868D02*
D03*
X25305Y26262D02*
D03*
X24124Y27049D02*
D03*
Y27443D02*
D03*
X23336Y29411D02*
D03*
X17037Y28230D02*
D03*
X19006Y30986D02*
D03*
X20187Y27049D02*
D03*
X20974D02*
D03*
X21368Y31380D02*
D03*
Y27443D02*
D03*
X22943Y34923D02*
D03*
X26514Y34424D02*
D03*
X23730Y25868D02*
D03*
X23336Y28624D02*
D03*
X22943Y25868D02*
D03*
Y29805D02*
D03*
X18218Y33349D02*
D03*
X17824Y33742D02*
D03*
X22549Y26656D02*
D03*
X23730Y31774D02*
D03*
Y34136D02*
D03*
X17824Y31380D02*
D03*
X17431Y29018D02*
D03*
X19006Y32955D02*
D03*
X19399Y34530D02*
D03*
X20187Y29411D02*
D03*
X20580Y32167D02*
D03*
Y29805D02*
D03*
Y27049D02*
D03*
X24911Y25474D02*
D03*
X22943Y30986D02*
D03*
X17824Y29805D02*
D03*
X17822Y26277D02*
D03*
X19006Y34530D02*
D03*
Y29805D02*
D03*
X19399Y34923D02*
D03*
Y29805D02*
D03*
X19793Y30593D02*
D03*
X20187Y34136D02*
D03*
Y30593D02*
D03*
X21368D02*
D03*
X24517Y25868D02*
D03*
X23336Y30593D02*
D03*
X22943Y28624D02*
D03*
X20580Y25868D02*
D03*
X20974Y31774D02*
D03*
X21368Y27049D02*
D03*
Y25868D02*
D03*
X22549Y32561D02*
D03*
Y29411D02*
D03*
X26092Y29805D02*
D03*
X25017Y32926D02*
D03*
X23730Y27837D02*
D03*
X17824Y26656D02*
D03*
X17038Y29785D02*
D03*
X19006Y32167D02*
D03*
Y27049D02*
D03*
Y26262D02*
D03*
X19399Y30986D02*
D03*
X20585Y30594D02*
D03*
X21368Y26262D02*
D03*
X26880Y34136D02*
D03*
X25305Y33742D02*
D03*
X23730Y29018D02*
D03*
X23336Y27049D02*
D03*
X22943Y29018D02*
D03*
X18612Y34530D02*
D03*
X19006Y28624D02*
D03*
X20187Y31774D02*
D03*
X20974Y29018D02*
D03*
X22549Y28230D02*
D03*
X26880Y27837D02*
D03*
X24911Y30986D02*
D03*
X23336Y26262D02*
D03*
X18612Y32955D02*
D03*
X17824Y30593D02*
D03*
Y35317D02*
D03*
X20580Y28624D02*
D03*
Y26656D02*
D03*
X21761Y29805D02*
D03*
Y29018D02*
D03*
Y26656D02*
D03*
X22549Y28624D02*
D03*
X26092Y31774D02*
D03*
X23336Y27837D02*
D03*
X18218Y31380D02*
D03*
X17824Y29018D02*
D03*
X17431Y27443D02*
D03*
Y32561D02*
D03*
X17037Y27443D02*
D03*
X19006Y25868D02*
D03*
X19793Y29805D02*
D03*
Y25868D02*
D03*
X20187Y26262D02*
D03*
X20580Y30986D02*
D03*
X21368Y28624D02*
D03*
X21761Y33742D02*
D03*
X24517Y27049D02*
D03*
X24124Y32167D02*
D03*
X23730Y27443D02*
D03*
X18218Y27837D02*
D03*
X17824Y34923D02*
D03*
X17037Y27049D02*
D03*
Y27837D02*
D03*
X20187Y29805D02*
D03*
X20974Y26262D02*
D03*
X22943Y32955D02*
D03*
X26880Y29412D02*
D03*
X26092Y27837D02*
D03*
X25305Y32167D02*
D03*
Y33349D02*
D03*
X24124Y25868D02*
D03*
Y32955D02*
D03*
X18218Y30593D02*
D03*
X17824Y27443D02*
D03*
X17431Y27837D02*
D03*
X18612Y29805D02*
D03*
X20580Y31380D02*
D03*
X20974Y27837D02*
D03*
Y25868D02*
D03*
X21368Y25474D02*
D03*
X21761Y28624D02*
D03*
X25698Y31380D02*
D03*
X24911Y26262D02*
D03*
X23730D02*
D03*
X23336Y27443D02*
D03*
X22943Y28230D02*
D03*
X19006Y27837D02*
D03*
X20187Y32167D02*
D03*
X20580Y32955D02*
D03*
X21761Y31774D02*
D03*
Y25868D02*
D03*
X22549Y31380D02*
D03*
Y30593D02*
D03*
X26092Y26656D02*
D03*
X23336Y25868D02*
D03*
Y28230D02*
D03*
X18612Y31380D02*
D03*
X17824Y25868D02*
D03*
Y27837D02*
D03*
X17431Y34136D02*
D03*
X20974Y30986D02*
D03*
X21761D02*
D03*
X22549Y27837D02*
D03*
Y27443D02*
D03*
Y27049D02*
D03*
Y26262D02*
D03*
X17037Y29411D02*
D03*
X18612Y30593D02*
D03*
X20974Y26656D02*
D03*
X21368Y29411D02*
D03*
Y27837D02*
D03*
X21761Y28230D02*
D03*
X26880Y30986D02*
D03*
X26092Y33349D02*
D03*
X25698Y34530D02*
D03*
X25305Y27049D02*
D03*
Y28230D02*
D03*
X24124Y26656D02*
D03*
X22943Y27443D02*
D03*
X20187Y28230D02*
D03*
X20580Y27443D02*
D03*
X20974Y28230D02*
D03*
X24517Y27443D02*
D03*
X23730Y26656D02*
D03*
X23336Y31380D02*
D03*
X18218Y28230D02*
D03*
Y31774D02*
D03*
Y33742D02*
D03*
X17431Y30986D02*
D03*
X19399Y29018D02*
D03*
X20187Y30986D02*
D03*
X20580Y26262D02*
D03*
X20974Y29805D02*
D03*
X21368Y28230D02*
D03*
X24911Y25868D02*
D03*
X24124Y28624D02*
D03*
X23730Y27049D02*
D03*
X23336Y25474D02*
D03*
X17431Y27049D02*
D03*
Y29411D02*
D03*
X19006Y30593D02*
D03*
X21761Y27837D02*
D03*
Y27443D02*
D03*
Y27049D02*
D03*
X25305Y25868D02*
D03*
X24517Y26262D02*
D03*
X24124D02*
D03*
X23730Y30986D02*
D03*
X22943Y26656D02*
D03*
X18218Y29805D02*
D03*
X17037Y25868D02*
D03*
X10634Y29849D02*
D03*
X8741Y28274D02*
D03*
X10949Y27645D02*
D03*
X10634D02*
D03*
Y28274D02*
D03*
X10949D02*
D03*
X9059Y28904D02*
D03*
X9374Y30794D02*
D03*
X8744Y27645D02*
D03*
X11261Y27653D02*
D03*
X10949Y32369D02*
D03*
X10634D02*
D03*
Y32684D02*
D03*
X47384Y43164D02*
D03*
X53011Y45137D02*
D03*
X53019Y43164D02*
D03*
X51934Y43997D02*
D03*
X52223Y46526D02*
D03*
Y46299D02*
D03*
X52342Y45424D02*
D03*
X50497Y45885D02*
D03*
X50522Y42473D02*
D03*
X58131Y42901D02*
D03*
Y45401D02*
D03*
X53155Y42901D02*
D03*
X53153Y45403D02*
D03*
X52191Y41959D02*
D03*
X52916Y40808D02*
D03*
X51419Y41207D02*
D03*
X49170Y44879D02*
D03*
X48942D02*
D03*
X48496Y44803D02*
D03*
Y45102D02*
D03*
X59352Y42437D02*
D03*
X58993Y42433D02*
D03*
X58634Y42433D02*
D03*
X58275D02*
D03*
X51306Y43680D02*
D03*
X51476D02*
D03*
M02*
