M48
;Layer_Color=9474304
;FILE_FORMAT=2:4
INCH,LZ
;TYPE=PLATED
T1F00S00C0.0060
T2F00S00C0.0079
T3F00S00C0.0100
T4F00S00C0.0118
T5F00S00C0.0120
T6F00S00C0.0138
T9F00S00C0.0350
T10F00S00C0.0512
T11F00S00C0.0650
T12F00S00C0.0730
T13F00S00C0.1181
T14F00S00C0.1280
T15F00S00C0.1299
;TYPE=NON_PLATED
T16F00S00C0.1200
%
T01
X007197Y028187
Y028436
Y028685
X007194Y029385
Y029633
Y029882
X00718Y030474
Y030723
Y030972
X007177Y031737
Y031986
Y032234
X00717Y032936
Y033185
Y033434
X006844Y034187
X006595
X006346
X00872Y033621
X008969
X009218
X00907Y032654
X009059Y032369
X009059Y032054
Y031739
X009367Y031733
X008744Y031739
X008436Y031739
X008266
X008096
X0081Y031402
X008275Y031399
X008436Y031394
X00874Y031428
X008744Y032054
X008436Y032054
Y032369
X008266
X008096
X008072Y032684
X008251
X008429
X008744Y032684
Y032369
Y030794
X008429
X008081Y031014
X008744Y030479
Y029849
X009059
X009064Y029539
Y029225
X00875
X008744Y029534
X008429Y029534
Y029219
X008429Y028904
Y028589
Y028274
X008741Y028274
X008744Y027959
X008429
Y027645
X008744Y027645
X009059Y027645
X009416Y028046
X009402Y028199
Y028349
X009046Y028591
X008744Y028589
Y028904
X009059
X010115Y029344
X010274Y029459
Y029609
X010634Y029849
X010935Y029863
X011264Y029849
X011434
X011604
X011596Y02953
X011442Y029534
X011264
Y029219
X011434
X011604
X011621Y028904
X011442
X011264
X01125Y028603
X010949Y028589
X010949Y028274
X011264Y028274
X011434
X011442Y027959
X011264
X011261Y027653
X010949Y027645
X010949Y027959
X010634
X010634Y027645
Y028274
X010634Y028589
Y028904
X010949
Y029219
X010949Y029534
Y030479
Y030794
X010634Y030794
X010634Y031109
Y031424
Y031739
X010949
Y031424
X011271Y031424
X011264Y031739
X011434
X011604
X011628Y031424
X012175
X011604Y032369
X011621Y032684
X011264
X010949
Y032369
X011264
Y032054
X010949Y032054
X010634
X010634Y032369
Y032684
Y030479
X011259Y030781
X009592Y030679
X009465Y030554
Y030404
X009374Y030794
X008429Y029849
X017038Y029785
X017037Y029411
Y029018
Y028624
X017399Y028598
X017431Y02823
X017824
X017818Y028603
X017824Y029018
Y029411
X018218
Y029805
X018612
X017824
X017431
Y029411
Y029018
X017037Y02823
Y027837
Y027443
Y027049
X017431Y027049
Y027443
X017824
X018218
Y027837
Y02823
X017824Y027837
X017431
Y026656
X017824
X017822Y026277
X017506Y026258
X017356
X017037Y026262
Y025868
X017431Y025474
X017037Y025081
X017824Y025868
X018612Y029018
Y030593
X018218
X017824Y030593
Y03138
X018218
X018612
Y030986
X018218Y031774
Y032561
X018612Y032955
X018218Y033349
Y033742
Y034136
X017824Y033742
X017431Y034136
Y033349
Y032561
Y031774
Y030986
X019006
X019399
Y030593
X019793
X020187
Y030986
X019793
X02058
X020974
X021368
Y03138
X021761
Y031774
X020974
Y03138
X02058Y03138
X02058Y032167
X020187
X019793
X020187Y031774
X020974Y032561
X021368Y032955
X02058
X020974Y033742
X021761
X022943
Y032955
X022549Y032561
Y03138
Y030986
X022943
Y030593
X023336
Y030986
Y03138
Y031774
X02373
X024124Y032167
X024517
X025305
X025017Y032926
X025305Y033349
Y033742
X025698
X026092Y033349
Y032561
Y031774
X025698Y03138
Y030986
X024911
X02373
X022943Y03138
X022549Y030593
X021761
X021368
X020974
X020585Y030594
X02058Y029805
X020187
X019793
X019399
X019006
Y030593
Y032167
Y032955
Y033349
X019399Y033742
X020187Y034136
X02373
X024517Y033349
X024124Y032955
X02688Y032561
Y031774
Y030986
Y029805
Y029412
X026092Y029805
X024517
X023336
Y029411
Y029018
Y028624
X022943
Y029018
X022549
Y029411
X022943
Y029805
X022549
X021761
X021368
Y029411
Y029018
X020974
Y028624
X02058
X021368
X021761
Y029018
Y029411
X020974
Y029805
X020187Y029411
X019793
X019399Y029018
X019006Y028624
Y027837
X019399Y027443
X019006Y027049
Y026262
Y025868
Y025474
X019793
Y025868
X020187
X02058
X020974
X021368
Y026262
Y026656
Y027049
X020974
X02058
X020187
Y026656
Y026262
X019793
X02058
Y026656
X020974
Y026262
Y027443
X021368
Y027837
Y02823
X021761
Y027837
Y027443
Y027049
Y026656
Y025868
X021368Y025474
X02058
Y027443
X020974Y027837
Y02823
X020187
X022549
Y027837
X022943
Y02823
X023336
Y027837
X02373
Y027443
X024124
X024517
Y027049
X024124
Y026656
Y026262
X024517
Y025868
X024124
X02373
Y026262
Y026656
X023336
Y026262
Y025868
X022943
Y026656
X022549
Y026262
Y027049
Y027443
X022943
X023336
Y027049
X02373
X025305
Y026262
X024911
Y026656
Y025868
Y025474
X024124
X023336
X022549
Y028624
X02373Y029018
X024124Y028624
X024911Y027837
X025305Y02823
Y029018
X026092Y027837
Y027443
Y026656
X02688
Y025868
X025698
Y025474
Y025081
X025305Y025868
X027273Y025081
X02688Y027837
Y02823
Y033349
Y034136
X021761Y030986
X050162Y041917
X050522Y042473
X051059Y042776
X051366
X051674
X05122Y043029
X050944
X051306Y04368
X051476
X051496Y044118
X051934Y043997
X051863Y044786
X05186Y045015
X052342Y045424
X053153Y045403
X053011Y045137
X053014Y044314
X053016Y043987
X053019Y043164
X053155Y042901
X05281Y041698
X052191Y041959
X05187Y041985
X051869Y041718
X051502Y041459
X051419Y041207
X051502Y042235
X052916Y040808
X054135Y040719
Y041032
Y041344
X054448
X05476
Y039782
X054448
X054135
Y040094
Y040407
X056187Y041516
X056631
X057076
X05752
X057076Y041072
Y040627
Y040183
X058275Y042433
X058634
X058993Y042433
X059352Y042437
X060174Y043255
X060174Y044228
X060169Y045097
X060169Y04607
X058131Y045401
Y042901
X057406Y048138
Y048413
Y048688
Y048963
X057131Y048138
X056856
X056581
X056306
X056031
Y048413
Y048688
Y048963
X052223Y046526
Y046299
X051293
Y046526
X050869Y045881
X050497Y045885
X048679Y04585
Y046149
Y046448
X04838Y04585
X048081
X047783
X048496Y045102
Y044803
X048942Y044879
X04917
X048874Y045138
X047384Y043164
X027273Y035317
X026514Y034424
X025698Y03453
X025305Y034923
X024517
X022943
X023336Y03453
X021761Y034923
X020974Y03453
X020187Y034923
X019399
Y03453
X019006
X018612
Y034923
X017824
Y035317
X017037
X006832Y035495
X006583
X006334
X00635Y034883
X006599
X006848
X006836Y036347
X006587
X006338
X006334Y037297
X006583
X006832
X006105Y037655
X006046Y037832
X005488Y037212
X005239
Y036963
X00499Y037212
X004985Y038919
X005234
Y039168
X061222Y059803
Y060078
Y060353
Y060628
X061497
X061772
X062047
X062322
X062597
Y060353
Y060078
Y059803
X065177Y059926
X065452
Y058551
X065177
X062613Y064506
X062338
X062063
X061788
X061513
X061237
Y064781
Y065056
Y065331
X062613
Y065056
Y064781
X065727Y059926
X066002
Y059651
Y059376
Y059101
Y058826
Y058551
X065727
X06091Y065829
Y066104
Y06638
Y066655
Y06693
Y067205
X060635
X06036
X060085
Y065829
X06036
X060635
T02
X053544Y005523
Y005956
Y00639
Y006823
Y007256
X053977
Y006823
Y00639
Y005956
Y005523
X05441
Y005956
Y00639
Y006823
Y007256
X054843
Y006823
Y00639
Y005956
Y005523
X055276
Y005956
Y00639
Y006823
Y007256
X060358Y006673
Y00624
X060791
Y006673
X03167Y00912
Y009553
Y009986
Y010419
Y010852
X031237
Y010419
Y009986
Y009553
Y00912
X030804
Y009553
Y009986
Y010419
Y010852
X030371
Y010419
Y009986
Y009553
Y00912
X029938
Y009553
Y009986
Y010419
Y010852
X045851Y024056
X046245
Y02445
Y024844
X045851
Y02445
X055565Y020633
Y0202
X055998
Y020633
X056432
Y0202
X056865
X057298
Y020633
X056865
Y019767
X057298
Y019334
X056865
Y018901
X057298
X056432
Y019334
Y019767
X055998
Y019334
Y018901
X055565
Y019334
Y019767
X005246Y037655
X005472Y038029
X005019
X005246Y038403
X054996Y062952
Y063385
Y063818
Y064251
Y064684
Y065117
Y06555
X055429
X055862
Y065117
X055429
Y064684
X055862
Y064251
X055429
Y063818
X055862
Y063385
X055429
Y062952
X055862
Y065984
Y066417
X055429
X054996
Y065984
X055429
T03
X049224Y051745
X049824
X049524Y052045
X049224Y052345
X049824
X049524Y052645
X049224Y052945
X049824
X049524Y053245
X049224Y053545
X049824
X049524Y053845
X049224Y054145
X049824
X049524Y054445
X049224Y054745
X049824
X050124Y054445
Y053845
X050424Y053545
Y052945
Y052345
Y051745
X051024
X050724Y052045
X051024Y052345
X050724Y052645
X051024Y052945
X050724Y053245
X051024Y053545
X050724Y053845
X050424Y054145
Y054745
X051024
Y054145
X050724Y054445
X050124Y053245
Y052645
Y052045
T04
X05082Y005714
X052328Y00584
X052325Y006091
X052422Y008047
X052741Y008436
X054641Y008505
X054978
X055801Y008449
X05617Y008399
X056502Y007935
X056458Y00691
X056468Y006271
X056592Y005885
X056454Y004792
X056303Y004359
X056012Y004387
X052881Y004355
X052537Y00424
X052362Y011024
X051969Y011811
X051181
X051575Y012599
X051598Y013462
X051038Y013916
X050788Y011024
X055881Y017453
X056133Y018093
X057315Y018089
X057612Y0175
X058004Y018303
X05798Y018542
X062399Y018612
X062396Y018227
X062391Y008184
X062807Y006712
X063172Y006703
X063152Y006242
X062797Y006247
X061651Y006455
X060638Y005351
X060056Y005278
X060126Y004383
X060482Y004393
X060865Y004381
X059741Y004366
X059487Y006465
X059464Y006888
X058514Y006839
X058493Y007188
X058487Y00643
X058496Y005661
X060605Y007621
X060762Y008514
X06034Y008509
X059866Y008516
X062345Y004708
X047244Y009449
X046457
X046851Y010236
X047638
X046063
X042507Y010845
X0422
X041893
Y011522
X0422
X042507
X042864Y013511
X043543Y013512
X042842Y014423
X042306Y014433
X04341Y015039
X045775Y01498
X046133
X046491
X04817Y014822
Y015215
X048563
Y014822
Y014428
X048957
Y014822
Y015215
X04817Y014428
X043307Y01811
X04049Y010501
X036267Y010524
X035416
X03626Y009383
X033698Y009241
X033463Y008685
X033381Y010285
Y010875
Y011466
X034112Y011169
X032555Y012701
X031458Y01269
X031397Y012386
X031291Y012096
X031536Y01207
X030931Y012104
X030677
X030408Y012174
X02989Y012746
X029548Y012866
X029019Y011914
X028274Y011991
X027269Y012743
X027203Y009649
X02659Y009359
X025433Y009375
X027761Y009056
X028586Y008229
X028444Y007864
X02844Y00751
X029083Y007211
X029133Y006514
X030951Y006057
X031564Y005584
X031429Y007211
X031501Y007598
X031872Y007591
X031922Y007139
X030822Y007328
X030964Y007587
X030434Y007882
X031924Y013875
X032941Y013764
X033573Y014409
X031605Y01501
X031295Y015027
X031275Y0154
X031662Y015404
X029454Y015646
X028867Y015697
X028387Y015549
X028108Y016166
X02513Y013778
X021824Y013539
X021831Y014359
X021811Y015185
X021828Y016011
X020127Y015334
X019331Y01352
X019129Y009096
X019319Y005154
X018101Y006502
X016458Y006988
X015249Y007053
X015371Y011235
X01644Y011241
X018342Y010756
X01836Y014885
X016495Y015421
X015412Y015428
X00282Y032957
X002867Y033296
X002883Y033658
X002892Y034188
X006102Y033071
X005906Y032677
X006102Y032284
Y031496
X005906Y031102
X006102Y030709
X005906Y030315
Y029528
X006102Y029134
X005906Y02874
X006102Y028347
X005906Y027953
X021321Y022736
X022071Y022669
X021468Y021801
Y021451
X021546Y019302
X021912Y019304
X031115Y030424
X03189Y030709
X032284Y029921
X033071
X033465Y030709
X033071Y031496
X033465Y032284
X032677
X03189
X032284Y033071
X033071
X030709
X029921
X029134
X029528Y032284
X030315
X035066Y030692
X037972Y030683
X038539Y031943
X038722Y029165
X03916Y02782
X039699Y027011
X042014Y029735
X042783Y029733
X042793Y029433
X04278Y029072
X043796Y028166
X044095Y030709
X043307
X043701Y031496
X044488
X045276
X046063
X045669Y030709
X044095Y033071
X043307
X043701Y033858
X044488
X044783Y024515
X045126Y024508
X045212Y024816
Y024149
X048469Y023997
X048491Y024438
X048474Y024889
X048203Y025016
X047889Y025011
X048425Y02126
X049213
Y019685
X048425
X047638
X048032Y020473
Y018898
X043701
X043726Y019953
X042911Y019606
X051052Y019972
X051067Y021253
X053708Y018955
X05436Y01895
X058084Y019199
X058093Y019548
X058106Y020095
X058092Y020342
X05778Y021049
X05795Y021704
X056957Y022298
X056337Y022548
X055647Y021999
X055912Y021576
X057109Y024161
Y024874
X058281Y024343
X058269Y023232
X061265Y021055
X061143Y020404
X06112Y020078
X060491Y018841
X0589Y027899
X058775Y028196
X058915Y029403
X057904Y030355
X05799Y030894
X057984Y03133
X057183Y031861
X057183Y032343
X056862Y03053
X056351Y030533
X055895Y030526
X056068Y030125
X056621Y030132
X05653Y028822
X054661Y027689
X054291Y027679
X062015Y028443
X061969Y028872
X063297Y030261
X063707Y032588
X064272Y032159
X06421Y033898
X057948Y033834
X059007Y034888
X059015Y035283
X058976Y03573
X061694Y035798
X061726Y035266
X061685Y034925
X061667Y039441
X054209Y037118
X053165Y037106
X053062Y04231
X043307Y034646
X03899Y03696
X036892Y037017
X032965Y037002
X032449Y036385
X031878Y035832
X018898Y040158
Y041732
X019388Y041566
X019698Y041206
X019693Y045226
Y045514
Y045803
X019982Y046091
X02027
X020559Y045803
Y045514
Y045226
X02027
X019982
X020225Y049274
X019711
X019172Y049254
X020789
X018504Y049606
X017717
X016929
X016142
X015354
X014567
X01378
X012992
X012205
X011417
X011811Y048819
X012599
X013386
X014173
X014961
X015748
X016142Y048032
X015354
X014567
X01378
X012992
X012205
X011417
X01063
X009843
X010236Y048819
X011024
Y047244
X011811
X012599
X012992Y046457
X012205
X011417
X01063
X009843
X010236Y047244
X009449
Y048819
X008264Y048947
X005118Y048819
X004331
X003543
X003937Y048032
X004725
X005118Y047244
X004331
X003543
X003937Y046457
X004725
X00315
Y048032
Y044882
X003937
X004331Y044095
X003543
X004331Y04252
X005118
X006248Y042571
X005485Y03994
X006061Y038233
X007815Y0384
X007806Y038759
X007803Y039179
X007793Y039632
X007874Y036811
Y03563
X008169Y035039
X00876
X00935
X009941
X010531
X011122
X011713
X012303
X012008Y034449
X011417
X010827
X009055
X007579Y035039
X004507Y037625
X003332Y036561
X003348Y038782
X009522Y0428
X013032Y042943
X012983Y043776
X015748Y043307
X016536
X016142Y04252
X015354
X015748Y041732
X016536
X016929Y040945
X016142
X016536Y040158
X017323
X01811
X01791Y043794
X017887Y044201
X017849Y044925
X017717Y046457
X016929
X016142
X015354
X014567
X014961Y047244
X015748
X016536
X017323
X01811
X018504Y048032
X017717
X01811Y048819
X014961Y041732
X002408Y042166
X001969Y044095
X001575Y044882
X003018Y038791
X003Y038475
X002231Y036052
X001963Y034909
X00247Y034851
X002724Y034597
X001579Y034712
X019549Y058759
X01989Y058651
X020398Y059239
X019612Y060211
X01962Y060573
X01985Y061141
X019683Y06151
X019694Y061938
X021166Y061292
X022047Y06063
X02441
X025197
X025591Y061417
X024803
X024016
X02441Y062992
X024803Y06378
X024016
X02441Y064567
X025197
X025984
X026772
X027559
X028347
X02874Y06378
X027953
X027165
X026378
X026772Y062992
X026275Y060502
X026772Y059055
X028347
X029134
X029921
X030709
X031496
X032284
X033071
X032677Y059843
X03189
X031102
X030315
X030709Y06063
X031496
X032284
X033071
X034252Y059843
X033576Y057627
X033607Y062628
X023622Y064567
X021156Y063401
X036346Y063339
X036325Y062907
X037631Y062897
X037674Y063361
X037795Y06063
X038583
X03937
X040158
X040945
X041732
X042126Y059843
X041339
X040551
X039764
X038977
X038189
X038583Y059055
X03937
X040158
X040945
X041732
X04252
X043307
X044095
X044882
X045669
X046457
X047244
X048032
X048425Y058268
X047638
X046851
X046063
X045276
X044488
X043701
X042914
X042126
X041339
X040551
X039764
X038977
X038189
X037402
X036614
X036221Y059055
X035827Y059843
X03504
X035433Y06063
X036221
X034646
X037795Y059055
X04252Y05748
X043307
X044095
X044882
X045669
X046457
X047244
X048032
X047638Y056693
X046851
X046063
X045276
X044488
X043701
X042914
X04252Y055906
X042914Y055118
X042907Y05369
X042934Y052944
X043945Y052982
X043908Y05368
X044488Y055118
X045276
X045669Y055906
X044882
X044095
X047244
X048032
X049397Y05764
X046994Y05368
X046962Y052961
X045951Y052955
Y053663
X041046Y053116
X046644Y063891
X047348
X047277Y06525
X046687Y065234
X053804Y06496
X053399Y062476
X055592Y06096
X057123Y062312
X058463Y063206
X05836Y063603
X059101Y064033
X059572Y064878
Y065239
X058966Y065239
X057012Y065323
X057001Y065065
Y064807
Y064549
X05108Y058489
X050834Y05851
X050819Y057132
X05108Y057116
X050004Y056991
X052426Y056449
X052772Y056452
X053055Y05647
X053108Y0535
X053945Y066794
X05691Y068378
T05
X044682Y019495
Y019888
Y020282
X045076
X04547
Y019888
X045076
Y019495
X04547
T06
X050077Y043496
X050498
Y043917
X050077
Y044338
X050498
X049656
Y043917
Y043496
T09
X061122Y040634
Y041534
X063022Y041934
Y042734
Y043534
Y044334
X063722Y043934
Y043134
Y042334
Y044734
X061122Y045134
Y046034
T10
X064881Y061667
Y063636
Y065604
Y067573
T11
X064052Y001895
X065052Y002895
X066052Y001895
Y003895
Y008794
Y010794
Y015694
Y017694
X064052
Y015694
X065052Y016694
Y009794
X064052Y010794
Y008794
Y003895
Y022593
X065052Y023593
X064052Y024593
X066052
Y022593
T12
X059065Y052933
Y054587
Y05624
X06123
Y054587
Y052933
T13
X015205Y023312
X028985Y037092
T14
X064722Y040834
Y045834
T15
X005906Y001969
X061024
Y068898
X005906
T16
X064104Y052933
Y05624
M30
