G04*
G04 #@! TF.GenerationSoftware,Altium Limited,Altium Designer,20.1.11 (218)*
G04*
G04 Layer_Color=16711935*
%FSLAX24Y24*%
%MOIN*%
G70*
G04*
G04 #@! TF.SameCoordinates,C20E3654-7A5B-4E15-AF0D-48D46733EB80*
G04*
G04*
G04 #@! TF.FilePolarity,Positive*
G04*
G01*
G75*
%ADD11C,0.0079*%
%ADD13C,0.0200*%
%ADD16C,0.0050*%
%ADD18C,0.0039*%
%ADD23C,0.0030*%
%ADD297C,0.0020*%
%ADD299C,0.0010*%
D11*
X2695Y43587D02*
G03*
X2695Y43587I-39J0D01*
G01*
X17823Y46774D02*
G03*
X17823Y46774I-39J0D01*
G01*
X31336Y31754D02*
G03*
X31336Y31754I-39J0D01*
G01*
X43431Y56650D02*
G03*
X43431Y56650I-39J0D01*
G01*
X46472D02*
G03*
X46472Y56650I-39J0D01*
G01*
X23213Y64106D02*
G03*
X23213Y64106I-39J0D01*
G01*
D13*
X62130Y56240D02*
G03*
X62130Y56240I-150J0D01*
G01*
D16*
X1317Y44989D02*
X1813Y44493D01*
X3420D01*
X3916Y44989D01*
Y47091D01*
X1317D02*
X3916D01*
X1317Y44989D02*
Y47091D01*
X21721Y42404D02*
Y46735D01*
X18177Y42404D02*
X21721D01*
X18177D02*
Y46735D01*
X21721D01*
X29958Y33156D02*
X30454Y32660D01*
X32061D01*
X32557Y33156D01*
Y35258D01*
X29958D02*
X32557D01*
X29958Y33156D02*
Y35258D01*
X44730Y53146D02*
Y55248D01*
X42132Y53146D02*
X44730D01*
X42132D02*
Y55248D01*
X42628Y55745D01*
X44234D01*
X44730Y55248D01*
X47771Y53146D02*
Y55248D01*
X45173Y53146D02*
X47771D01*
X45173D02*
Y55248D01*
X45669Y55745D01*
X47275D01*
X47771Y55248D01*
X24016Y63201D02*
X24512Y62705D01*
X22410Y63201D02*
X24016D01*
X21914Y62705D02*
X22410Y63201D01*
X21914Y60602D02*
Y62705D01*
Y60602D02*
X24512D01*
Y62705D01*
D18*
X61205Y6023D02*
G03*
X61205Y6023I-197J0D01*
G01*
X53160Y4943D02*
G03*
X53160Y4943I-197J0D01*
G01*
X66262Y2895D02*
G03*
X66262Y2895I-1211J0D01*
G01*
X65302D02*
G03*
X65302Y2895I-250J0D01*
G01*
X66193Y1645D02*
G03*
X66301Y1754I-1142J1250D01*
G01*
X66302Y4037D02*
G03*
X66193Y4145I-1250J-1142D01*
G01*
X63910Y4145D02*
G03*
X63802Y4037I1142J-1250D01*
G01*
X63802Y1754D02*
G03*
X63910Y1646I1250J1142D01*
G01*
X66213Y2895D02*
G03*
X66213Y2895I-1161J0D01*
G01*
X65859D02*
G03*
X65859Y2895I-807J0D01*
G01*
X66262Y9794D02*
G03*
X66262Y9794I-1211J0D01*
G01*
X65302D02*
G03*
X65302Y9794I-250J0D01*
G01*
X66193Y8544D02*
G03*
X66301Y8653I-1142J1250D01*
G01*
X66302Y10936D02*
G03*
X66193Y11044I-1250J-1142D01*
G01*
X63910Y11044D02*
G03*
X63802Y10936I1142J-1250D01*
G01*
X63802Y8653D02*
G03*
X63910Y8545I1250J1142D01*
G01*
X66213Y9794D02*
G03*
X66213Y9794I-1161J0D01*
G01*
X65859D02*
G03*
X65859Y9794I-807J0D01*
G01*
X54915Y45863D02*
G03*
X54915Y45863I-197J0D01*
G01*
X66262Y23593D02*
G03*
X66262Y23593I-1211J0D01*
G01*
X65302D02*
G03*
X65302Y23593I-250J0D01*
G01*
X66193Y22343D02*
G03*
X66301Y22451I-1142J1250D01*
G01*
X66302Y24734D02*
G03*
X66193Y24842I-1250J-1142D01*
G01*
X63910Y24843D02*
G03*
X63802Y24734I1142J-1250D01*
G01*
X63802Y22451D02*
G03*
X63910Y22343I1250J1142D01*
G01*
X66213Y23593D02*
G03*
X66213Y23593I-1161J0D01*
G01*
X65859D02*
G03*
X65859Y23593I-807J0D01*
G01*
Y16694D02*
G03*
X65859Y16694I-807J0D01*
G01*
X66213D02*
G03*
X66213Y16694I-1161J0D01*
G01*
X63802Y15552D02*
G03*
X63910Y15444I1250J1142D01*
G01*
X63910Y17943D02*
G03*
X63802Y17835I1142J-1250D01*
G01*
X66302Y17835D02*
G03*
X66193Y17943I-1250J-1142D01*
G01*
X66193Y15444D02*
G03*
X66301Y15552I-1142J1250D01*
G01*
X65302Y16694D02*
G03*
X65302Y16694I-250J0D01*
G01*
X66262D02*
G03*
X66262Y16694I-1211J0D01*
G01*
X56157Y63110D02*
G03*
X56157Y63110I-197J0D01*
G01*
X57672Y20810D02*
G03*
X57672Y20810I-197J0D01*
G01*
X29554Y8539D02*
G03*
X29554Y8539I-197J0D01*
G01*
X62217Y19583D02*
G03*
X62217Y19583I-197J0D01*
G01*
X62912Y60447D02*
Y68793D01*
X66456Y60447D02*
Y68793D01*
X62912D02*
X66456D01*
X62912Y60447D02*
X66456D01*
X61362Y5669D02*
Y7244D01*
X59787Y5669D02*
Y7244D01*
Y5669D02*
X61362D01*
X59787Y7244D02*
X61362D01*
X52609Y4588D02*
X56211D01*
X52609Y8191D02*
X56211D01*
X52609Y4588D02*
Y8191D01*
X56211Y4588D02*
Y8191D01*
X63855Y4092D02*
X64248D01*
X63855Y3699D02*
Y4092D01*
Y3699D02*
X64248D01*
Y4092D01*
X63855Y2092D02*
X64248D01*
Y1699D02*
Y2092D01*
X63855Y1699D02*
X64248D01*
X63855D02*
Y2092D01*
X65855Y1699D02*
Y2092D01*
X66248D01*
Y1699D02*
Y2092D01*
X65855Y1699D02*
X66248D01*
X65855Y3699D02*
X66248D01*
X65855D02*
Y4092D01*
X66248D01*
Y3699D02*
Y4092D01*
X66302Y1754D02*
Y4039D01*
X63910Y4145D02*
X66195D01*
X63910Y1645D02*
X66193D01*
X63802Y1754D02*
Y4037D01*
X66302Y1754D02*
X66341Y1754D01*
X66439Y1852D01*
X67817D01*
X68024Y1645D01*
X69107D01*
X69313Y1852D01*
X69609D01*
X69628Y1872D01*
Y1960D01*
Y3830D02*
Y3919D01*
X69609Y3939D02*
X69628Y3919D01*
X69313Y3939D02*
X69609D01*
X69107Y4145D02*
X69313Y3939D01*
X68024Y4145D02*
X69107D01*
X67817Y3939D02*
X68024Y4145D01*
X66439Y3939D02*
X67817D01*
X66341Y4037D02*
X66439Y3939D01*
X66302Y4037D02*
X66341Y4037D01*
X69628Y1960D02*
Y3830D01*
X69313Y1852D02*
Y3939D01*
X69107Y1645D02*
Y4145D01*
X68024Y1645D02*
Y4145D01*
X67817Y1852D02*
Y3939D01*
X66439Y1852D02*
Y3939D01*
X63855Y10991D02*
X64248D01*
X63855Y10598D02*
Y10991D01*
Y10598D02*
X64248D01*
Y10991D01*
X63855Y8991D02*
X64248D01*
Y8598D02*
Y8991D01*
X63855Y8598D02*
X64248D01*
X63855D02*
Y8991D01*
X65855Y8598D02*
Y8991D01*
X66248D01*
Y8598D02*
Y8991D01*
X65855Y8598D02*
X66248D01*
X65855Y10598D02*
X66248D01*
X65855D02*
Y10991D01*
X66248D01*
Y10598D02*
Y10991D01*
X66302Y8653D02*
Y10938D01*
X63910Y11044D02*
X66195D01*
X63910Y8544D02*
X66193D01*
X63802Y8653D02*
Y10936D01*
X66302Y8653D02*
X66341Y8653D01*
X66439Y8751D01*
X67817D01*
X68024Y8544D01*
X69107D01*
X69313Y8751D01*
X69609D01*
X69628Y8771D01*
Y8859D01*
Y10729D02*
Y10818D01*
X69609Y10838D02*
X69628Y10818D01*
X69313Y10838D02*
X69609D01*
X69107Y11044D02*
X69313Y10838D01*
X68024Y11044D02*
X69107D01*
X67817Y10838D02*
X68024Y11044D01*
X66439Y10838D02*
X67817D01*
X66341Y10936D02*
X66439Y10838D01*
X66302Y10936D02*
X66341Y10936D01*
X69628Y8859D02*
Y10729D01*
X69313Y8751D02*
Y10838D01*
X69107Y8544D02*
Y11044D01*
X68024Y8544D02*
Y11044D01*
X67817Y8751D02*
Y10838D01*
X66439Y8751D02*
Y10838D01*
X54226Y41670D02*
Y46631D01*
X57060Y41670D02*
Y46631D01*
X54226D02*
X57060D01*
X54226Y41670D02*
X57060D01*
X63855Y24789D02*
X64248D01*
X63855Y24396D02*
Y24789D01*
Y24396D02*
X64248D01*
Y24789D01*
X63855Y22789D02*
X64248D01*
Y22396D02*
Y22789D01*
X63855Y22396D02*
X64248D01*
X63855D02*
Y22789D01*
X65855Y22396D02*
Y22789D01*
X66248D01*
Y22396D02*
Y22789D01*
X65855Y22396D02*
X66248D01*
X65855Y24396D02*
X66248D01*
X65855D02*
Y24789D01*
X66248D01*
Y24396D02*
Y24789D01*
X66302Y22451D02*
Y24736D01*
X63910Y24843D02*
X66195D01*
X63910Y22343D02*
X66193D01*
X63802Y22451D02*
Y24734D01*
X66302Y22451D02*
X66341Y22451D01*
X66439Y22549D01*
X67817D01*
X68024Y22343D01*
X69107D01*
X69313Y22549D01*
X69609D01*
X69628Y22569D01*
Y22658D01*
Y24528D02*
Y24616D01*
X69609Y24636D02*
X69628Y24616D01*
X69313Y24636D02*
X69609D01*
X69107Y24843D02*
X69313Y24636D01*
X68024Y24843D02*
X69107D01*
X67817Y24636D02*
X68024Y24843D01*
X66439Y24636D02*
X67817D01*
X66341Y24734D02*
X66439Y24636D01*
X66302Y24734D02*
X66341Y24734D01*
X69628Y22658D02*
Y24528D01*
X69313Y22549D02*
Y24636D01*
X69107Y22343D02*
Y24843D01*
X68024Y22343D02*
Y24843D01*
X67817Y22549D02*
Y24636D01*
X66439Y22549D02*
Y24636D01*
Y15650D02*
Y17737D01*
X67817Y15650D02*
Y17737D01*
X68024Y15444D02*
Y17944D01*
X69107Y15444D02*
Y17944D01*
X69313Y15650D02*
Y17737D01*
X69628Y15759D02*
Y17629D01*
X66302Y17835D02*
X66341Y17835D01*
X66439Y17737D01*
X67817D01*
X68024Y17944D01*
X69107D01*
X69313Y17737D01*
X69609D01*
X69628Y17717D01*
Y17629D02*
Y17717D01*
Y15670D02*
Y15759D01*
X69609Y15650D02*
X69628Y15670D01*
X69313Y15650D02*
X69609D01*
X69107Y15444D02*
X69313Y15650D01*
X68024Y15444D02*
X69107D01*
X67817Y15650D02*
X68024Y15444D01*
X66439Y15650D02*
X67817D01*
X66341Y15552D02*
X66439Y15650D01*
X66302Y15552D02*
X66341Y15552D01*
X63802Y15552D02*
Y17835D01*
X63910Y15444D02*
X66193D01*
X63910Y17944D02*
X66195D01*
X66302Y15552D02*
Y17837D01*
X66248Y17497D02*
Y17890D01*
X65855D02*
X66248D01*
X65855Y17497D02*
Y17890D01*
Y17497D02*
X66248D01*
X65855Y15497D02*
X66248D01*
Y15890D01*
X65855D02*
X66248D01*
X65855Y15497D02*
Y15890D01*
X63855Y15497D02*
Y15890D01*
Y15497D02*
X64248D01*
Y15890D01*
X63855D02*
X64248D01*
Y17497D02*
Y17890D01*
X63855Y17497D02*
X64248D01*
X63855D02*
Y17890D01*
X64248D01*
X52852Y53665D02*
Y54532D01*
X53352Y53665D02*
Y54532D01*
X52852Y53665D02*
X53352D01*
X52852Y54532D02*
X53352D01*
X54543Y66613D02*
X56315D01*
X54543Y62755D02*
X56315D01*
X54543D02*
Y66613D01*
X56315Y62755D02*
Y66613D01*
X40877Y54869D02*
X41377D01*
X40877Y55735D02*
X41377D01*
X40877Y54869D02*
Y55735D01*
X41377Y54869D02*
Y55735D01*
X22089Y15773D02*
Y16273D01*
X22955Y15773D02*
Y16273D01*
X22089D02*
X22955D01*
X22089Y15773D02*
X22955D01*
X22089Y14951D02*
Y15451D01*
X22955Y14951D02*
Y15451D01*
X22089D02*
X22955D01*
X22089Y14951D02*
X22955D01*
X22089Y13307D02*
Y13807D01*
X22955Y13307D02*
Y13807D01*
X22089D02*
X22955D01*
X22089Y13307D02*
X22955D01*
X22089Y14129D02*
Y14629D01*
X22955Y14129D02*
Y14629D01*
X22089D02*
X22955D01*
X22089Y14129D02*
X22955D01*
X55034Y21165D02*
X57829D01*
X55034Y18369D02*
X57829D01*
Y21165D01*
X55034Y18369D02*
Y21165D01*
X32605Y8185D02*
Y11787D01*
X29003Y8185D02*
Y11787D01*
X32605D01*
X29003Y8185D02*
X32605D01*
X51963Y14966D02*
X52463D01*
X51963Y14100D02*
X52463D01*
Y14966D01*
X51963Y14100D02*
Y14966D01*
X43642Y14844D02*
X44142D01*
X43642Y15710D02*
X44142D01*
X43642Y14844D02*
Y15710D01*
X44142Y14844D02*
Y15710D01*
X48458Y18208D02*
Y19074D01*
X48958Y18208D02*
Y19074D01*
X48458Y18208D02*
X48958D01*
X48458Y19074D02*
X48958D01*
X61115Y19938D02*
X62374D01*
X61115Y18678D02*
X62374D01*
Y19938D01*
X61115Y18678D02*
Y19938D01*
X60722Y40034D02*
X66722D01*
X60722Y46684D02*
X66722D01*
Y40034D02*
Y46684D01*
X60722Y40034D02*
Y46684D01*
X48813Y23866D02*
Y24732D01*
X49313Y23866D02*
Y24732D01*
X48813Y23866D02*
X49313D01*
X48813Y24732D02*
X49313D01*
X20907Y62334D02*
Y63200D01*
X21407Y62334D02*
Y63200D01*
X20907Y62334D02*
X21407D01*
X20907Y63200D02*
X21407D01*
D23*
X52824Y40405D02*
X52491Y40738D01*
X52824D02*
X52491Y40405D01*
X52824Y40571D02*
X52491D01*
X52657Y40738D02*
Y40405D01*
X49557Y40755D02*
X49890Y40422D01*
X49557D02*
X49890Y40755D01*
X49557Y40589D02*
X49890D01*
X49723Y40422D02*
Y40755D01*
X54813Y57532D02*
X55146Y57199D01*
X54813D02*
X55146Y57532D01*
X54813Y57366D02*
X55146D01*
X54979Y57199D02*
Y57532D01*
D297*
X66341Y1754D02*
Y4037D01*
Y8653D02*
Y10936D01*
Y22451D02*
Y24734D01*
Y15552D02*
Y17835D01*
D299*
X56110Y55305D02*
X56460D01*
Y56455D01*
X56110D02*
X56460D01*
X56110Y55305D02*
Y56455D01*
X54307Y55305D02*
X54657D01*
Y56455D01*
X54307D02*
X54657D01*
X54307Y55305D02*
Y56455D01*
X55559Y55305D02*
Y55705D01*
X55209D02*
X55559D01*
X55209Y55305D02*
Y55705D01*
X54059Y55305D02*
X56709D01*
X54059Y52355D02*
Y55305D01*
Y52355D02*
X56709D01*
Y55305D01*
X58553Y57302D02*
X66703D01*
Y51872D02*
Y57302D01*
X58553Y51872D02*
X66703D01*
X58553D02*
Y57302D01*
X52799Y40306D02*
Y40837D01*
X51677Y40306D02*
X52799D01*
X51677D02*
Y40837D01*
X52799D01*
X52666D02*
X52799Y40704D01*
X52666Y40306D02*
X52799Y40439D01*
X51480Y40463D02*
X51677D01*
X51480D02*
Y40680D01*
X51677D01*
Y40463D02*
Y40680D01*
X52799D02*
X52996D01*
Y40463D02*
Y40680D01*
X52799Y40463D02*
X52996D01*
X52799D02*
Y40680D01*
X49582Y40323D02*
Y40855D01*
X50704D01*
Y40323D02*
Y40855D01*
X49582Y40323D02*
X50704D01*
X49582Y40456D02*
X49715Y40323D01*
X49582Y40722D02*
X49715Y40855D01*
X50704Y40697D02*
X50901D01*
Y40481D02*
Y40697D01*
X50704Y40481D02*
X50901D01*
X50704D02*
Y40697D01*
X49385Y40481D02*
X49582D01*
X49385D02*
Y40697D01*
X49582D01*
Y40481D02*
Y40697D01*
X54838Y57100D02*
Y57631D01*
X55960D01*
Y57100D02*
Y57631D01*
X54838Y57100D02*
X55960D01*
X54838Y57233D02*
X54971Y57100D01*
X54838Y57499D02*
X54971Y57631D01*
X55960Y57474D02*
X56157D01*
Y57257D02*
Y57474D01*
X55960Y57257D02*
X56157D01*
X55960D02*
Y57474D01*
X54641Y57257D02*
X54838D01*
X54641D02*
Y57474D01*
X54838D01*
Y57257D02*
Y57474D01*
M02*
