G04*
G04 #@! TF.GenerationSoftware,Altium Limited,Altium Designer,20.1.11 (218)*
G04*
G04 Layer_Physical_Order=12*
G04 Layer_Color=16440176*
%FSLAX24Y24*%
%MOIN*%
G70*
G04*
G04 #@! TF.SameCoordinates,C20E3654-7A5B-4E15-AF0D-48D46733EB80*
G04*
G04*
G04 #@! TF.FilePolarity,Positive*
G04*
G01*
G75*
%ADD236C,0.0040*%
%ADD239C,0.0045*%
%ADD260C,0.0120*%
D236*
X16919Y31936D02*
G03*
X16847Y31864I0J-72D01*
G01*
X16775Y31571D02*
G03*
X16847Y31643I0J72D01*
G01*
X16607D02*
G03*
X16679Y31571I72J0D01*
G01*
X16607Y31864D02*
G03*
X16535Y31936I-72J0D01*
G01*
X13244Y33265D02*
G03*
X13316Y33193I72J0D01*
G01*
X13244Y33394D02*
G03*
X13172Y33466I-72J0D01*
G01*
X13076D02*
G03*
X13004Y33394I0J-72D01*
G01*
X12932Y33193D02*
G03*
X13004Y33265I0J72D01*
G01*
X12764D02*
G03*
X12836Y33193I72J0D01*
G01*
X12764Y33399D02*
G03*
X12692Y33471I-72J0D01*
G01*
X12596D02*
G03*
X12524Y33399I0J-72D01*
G01*
X12452Y33193D02*
G03*
X12524Y33265I0J72D01*
G01*
X15122Y32237D02*
G03*
X15194Y32165I72J0D01*
G01*
X15122Y32479D02*
G03*
X15050Y32551I-72J0D01*
G01*
X14954D02*
G03*
X14882Y32479I0J-72D01*
G01*
X14810Y32161D02*
G03*
X14882Y32233I0J72D01*
G01*
X14642D02*
G03*
X14714Y32161I72J0D01*
G01*
X14642Y32504D02*
G03*
X14570Y32576I-72J0D01*
G01*
X14474D02*
G03*
X14402Y32504I0J-72D01*
G01*
X14330Y32161D02*
G03*
X14402Y32233I0J72D01*
G01*
X14162D02*
G03*
X14234Y32161I72J0D01*
G01*
X14162Y32504D02*
G03*
X14090Y32576I-72J0D01*
G01*
X13994D02*
G03*
X13922Y32504I0J-72D01*
G01*
X13850Y32161D02*
G03*
X13922Y32233I0J72D01*
G01*
X13682D02*
G03*
X13754Y32161I72J0D01*
G01*
X13682Y32504D02*
G03*
X13610Y32576I-72J0D01*
G01*
X13514D02*
G03*
X13442Y32504I0J-72D01*
G01*
X13370Y32161D02*
G03*
X13442Y32233I0J72D01*
G01*
X13202D02*
G03*
X13274Y32161I72J0D01*
G01*
X13202Y32504D02*
G03*
X13130Y32576I-72J0D01*
G01*
X13034D02*
G03*
X12962Y32504I0J-72D01*
G01*
X12890Y32161D02*
G03*
X12962Y32233I0J72D01*
G01*
X12722D02*
G03*
X12794Y32161I72J0D01*
G01*
X12722Y32504D02*
G03*
X12650Y32576I-72J0D01*
G01*
X12554D02*
G03*
X12482Y32504I0J-72D01*
G01*
X12410Y32165D02*
G03*
X12482Y32237I0J72D01*
G01*
X14737Y31210D02*
G03*
X14665Y31138I0J-72D01*
G01*
X14593Y30965D02*
G03*
X14665Y31037I0J72D01*
G01*
X14425D02*
G03*
X14497Y30965I72J0D01*
G01*
X14425Y31388D02*
G03*
X14353Y31460I-72J0D01*
G01*
X14257D02*
G03*
X14185Y31388I0J-72D01*
G01*
X14113Y30960D02*
G03*
X14185Y31032I0J72D01*
G01*
X13945D02*
G03*
X14017Y30960I72J0D01*
G01*
X13945Y31388D02*
G03*
X13873Y31460I-72J0D01*
G01*
X13777D02*
G03*
X13705Y31388I0J-72D01*
G01*
X13633Y30960D02*
G03*
X13705Y31032I0J72D01*
G01*
X13465D02*
G03*
X13537Y30960I72J0D01*
G01*
X13465Y31388D02*
G03*
X13393Y31460I-72J0D01*
G01*
X13297D02*
G03*
X13225Y31388I0J-72D01*
G01*
X13153Y30960D02*
G03*
X13225Y31032I0J72D01*
G01*
X12985D02*
G03*
X13057Y30960I72J0D01*
G01*
X12985Y31388D02*
G03*
X12913Y31460I-72J0D01*
G01*
X12817D02*
G03*
X12745Y31388I0J-72D01*
G01*
X12673Y31210D02*
G03*
X12745Y31282I0J72D01*
G01*
X15325Y30259D02*
G03*
X15397Y30187I72J0D01*
G01*
X15325Y30259D02*
G03*
X15253Y30331I-72J0D01*
G01*
X15157D02*
G03*
X15085Y30259I0J-72D01*
G01*
X15013Y30057D02*
G03*
X15085Y30129I0J72D01*
G01*
X14845D02*
G03*
X14917Y30057I72J0D01*
G01*
X14845Y30420D02*
G03*
X14773Y30492I-72J0D01*
G01*
X14677D02*
G03*
X14605Y30420I0J-72D01*
G01*
X14533Y30021D02*
G03*
X14605Y30093I0J72D01*
G01*
X14365D02*
G03*
X14437Y30021I72J0D01*
G01*
X14365Y30420D02*
G03*
X14293Y30492I-72J0D01*
G01*
X14197D02*
G03*
X14125Y30420I0J-72D01*
G01*
X14053Y30021D02*
G03*
X14125Y30093I0J72D01*
G01*
X13885D02*
G03*
X13957Y30021I72J0D01*
G01*
X13885Y30420D02*
G03*
X13813Y30492I-72J0D01*
G01*
X13717D02*
G03*
X13645Y30420I0J-72D01*
G01*
X13573Y30021D02*
G03*
X13645Y30093I0J72D01*
G01*
X13405D02*
G03*
X13477Y30021I72J0D01*
G01*
X13405Y30420D02*
G03*
X13333Y30492I-72J0D01*
G01*
X13237D02*
G03*
X13165Y30420I0J-72D01*
G01*
X13093Y30187D02*
G03*
X13165Y30259I0J72D01*
G01*
X14087Y28076D02*
G03*
X14159Y28004I72J0D01*
G01*
X14087Y28155D02*
G03*
X14015Y28227I-72J0D01*
G01*
X13919D02*
G03*
X13847Y28155I0J-72D01*
G01*
X13775Y27843D02*
G03*
X13847Y27915I0J72D01*
G01*
X13607D02*
G03*
X13679Y27843I72J0D01*
G01*
X13607Y28244D02*
G03*
X13535Y28316I-72J0D01*
G01*
X13439D02*
G03*
X13367Y28244I0J-72D01*
G01*
X13295Y27843D02*
G03*
X13367Y27915I0J72D01*
G01*
X13127D02*
G03*
X13199Y27843I72J0D01*
G01*
X13127Y28244D02*
G03*
X13055Y28316I-72J0D01*
G01*
X12959D02*
G03*
X12887Y28244I0J-72D01*
G01*
X12815Y28004D02*
G03*
X12887Y28076I0J72D01*
G01*
X16066Y28484D02*
G03*
X15994Y28412I0J-72D01*
G01*
X15922Y28340D02*
G03*
X15994Y28412I0J72D01*
G01*
X15754D02*
G03*
X15826Y28340I72J0D01*
G01*
X15754Y28561D02*
G03*
X15682Y28633I-72J0D01*
G01*
X15586D02*
G03*
X15514Y28561I0J-72D01*
G01*
X15442Y28146D02*
G03*
X15514Y28218I0J72D01*
G01*
X15274D02*
G03*
X15346Y28146I72J0D01*
G01*
X15274Y28587D02*
G03*
X15202Y28659I-72J0D01*
G01*
X15106D02*
G03*
X15034Y28587I0J-72D01*
G01*
X14962Y28146D02*
G03*
X15034Y28218I0J72D01*
G01*
X14794D02*
G03*
X14866Y28146I72J0D01*
G01*
X14794Y28587D02*
G03*
X14722Y28659I-72J0D01*
G01*
X14626D02*
G03*
X14554Y28587I0J-72D01*
G01*
X14482Y28484D02*
G03*
X14554Y28556I0J72D01*
G01*
X15055Y27182D02*
G03*
X15127Y27110I72J0D01*
G01*
X15055Y27219D02*
G03*
X14983Y27291I-72J0D01*
G01*
X14887D02*
G03*
X14815Y27219I0J-72D01*
G01*
X14743Y27036D02*
G03*
X14815Y27108I0J72D01*
G01*
X14575D02*
G03*
X14647Y27036I72J0D01*
G01*
X14575Y27346D02*
G03*
X14503Y27418I-72J0D01*
G01*
X14407D02*
G03*
X14335Y27346I0J-72D01*
G01*
X14263Y27036D02*
G03*
X14335Y27108I0J72D01*
G01*
X14095D02*
G03*
X14167Y27036I72J0D01*
G01*
X14095Y27346D02*
G03*
X14023Y27418I-72J0D01*
G01*
X13927D02*
G03*
X13855Y27346I0J-72D01*
G01*
X13783Y27036D02*
G03*
X13855Y27108I0J72D01*
G01*
X13615D02*
G03*
X13687Y27036I72J0D01*
G01*
X13615Y27346D02*
G03*
X13543Y27418I-72J0D01*
G01*
X13447D02*
G03*
X13375Y27346I0J-72D01*
G01*
X13303Y27036D02*
G03*
X13375Y27108I0J72D01*
G01*
X13135D02*
G03*
X13207Y27036I72J0D01*
G01*
X13135Y27346D02*
G03*
X13063Y27418I-72J0D01*
G01*
X12967D02*
G03*
X12895Y27346I0J-72D01*
G01*
X12823Y27108D02*
G03*
X12895Y27180I-0J72D01*
G01*
X14711Y26647D02*
G03*
X14639Y26575I0J-72D01*
G01*
X14567Y26348D02*
G03*
X14639Y26420I0J72D01*
G01*
X14399D02*
G03*
X14471Y26348I72J0D01*
G01*
X14399Y26604D02*
G03*
X14327Y26676I-72J0D01*
G01*
X14231D02*
G03*
X14159Y26604I0J-72D01*
G01*
X14087Y26324D02*
G03*
X14159Y26396I0J72D01*
G01*
X13919D02*
G03*
X13991Y26324I72J0D01*
G01*
X13919Y26604D02*
G03*
X13847Y26676I-72J0D01*
G01*
X13751D02*
G03*
X13679Y26604I0J-72D01*
G01*
X13607Y26324D02*
G03*
X13679Y26396I0J72D01*
G01*
X13439D02*
G03*
X13511Y26324I72J0D01*
G01*
X13439Y26604D02*
G03*
X13367Y26676I-72J0D01*
G01*
X13271D02*
G03*
X13199Y26604I0J-72D01*
G01*
X13127Y26324D02*
G03*
X13199Y26396I0J72D01*
G01*
X12959D02*
G03*
X13031Y26324I72J0D01*
G01*
X12959Y26604D02*
G03*
X12887Y26676I-72J0D01*
G01*
X12791D02*
G03*
X12719Y26604I0J-72D01*
G01*
X12647Y26324D02*
G03*
X12719Y26396I0J72D01*
G01*
X12479D02*
G03*
X12551Y26324I72J0D01*
G01*
X12479Y26575D02*
G03*
X12407Y26647I-72J0D01*
G01*
X14432Y25837D02*
G03*
X14360Y25909I-72J0D01*
G01*
X14432Y25837D02*
G03*
X14504Y25765I72J0D01*
G01*
X14600D02*
G03*
X14672Y25837I0J72D01*
G01*
X14744Y26017D02*
G03*
X14672Y25945I0J-72D01*
G01*
X14912D02*
G03*
X14840Y26017I-72J0D01*
G01*
X14912Y25758D02*
G03*
X14984Y25686I72J0D01*
G01*
X15080D02*
G03*
X15152Y25758I0J72D01*
G01*
X15224Y26093D02*
G03*
X15152Y26021I0J-72D01*
G01*
X15392D02*
G03*
X15320Y26093I-72J0D01*
G01*
X15392Y25758D02*
G03*
X15464Y25686I72J0D01*
G01*
X15560D02*
G03*
X15632Y25758I0J72D01*
G01*
X15704Y26093D02*
G03*
X15632Y26021I0J-72D01*
G01*
X15872D02*
G03*
X15800Y26093I-72J0D01*
G01*
X15872Y25758D02*
G03*
X15944Y25686I72J0D01*
G01*
X16040D02*
G03*
X16112Y25758I0J72D01*
G01*
X16184Y26093D02*
G03*
X16112Y26021I0J-72D01*
G01*
X16352D02*
G03*
X16280Y26093I-72J0D01*
G01*
X16352Y25758D02*
G03*
X16424Y25686I72J0D01*
G01*
X16520D02*
G03*
X16592Y25758I0J72D01*
G01*
X16664Y25909D02*
G03*
X16592Y25837I0J-72D01*
G01*
X10124Y30122D02*
G03*
X10226Y30020I102J0D01*
G01*
X10124Y30137D02*
G03*
X10022Y30239I-102J0D01*
G01*
X9886D02*
G03*
X9784Y30137I0J-102D01*
G01*
X9682Y29647D02*
G03*
X9784Y29749I0J102D01*
G01*
X9444D02*
G03*
X9546Y29647I102J0D01*
G01*
X9444Y30168D02*
G03*
X9342Y30270I-102J0D01*
G01*
X9206D02*
G03*
X9104Y30168I0J-102D01*
G01*
X9002Y30020D02*
G03*
X9104Y30122I0J102D01*
G01*
X10209Y31573D02*
G03*
X10107Y31471I0J-102D01*
G01*
X10005Y31105D02*
G03*
X10107Y31207I0J102D01*
G01*
X9767D02*
G03*
X9869Y31105I102J0D01*
G01*
X9767Y31471D02*
G03*
X9665Y31573I-102J0D01*
G01*
X9718Y27453D02*
G03*
X9718Y27309I72J-72D01*
G01*
X9751Y27486D02*
G03*
X9751Y27630I-72J72D01*
G01*
X9655Y27726D02*
G03*
X9510Y27726I-72J-72D01*
G01*
X9334Y27694D02*
G03*
X9478Y27694I72J72D01*
G01*
X12291Y27921D02*
Y28482D01*
X11679Y29093D02*
X12291Y28482D01*
X9851Y29093D02*
X11679D01*
X9662Y28904D02*
X9851Y29093D01*
X17341Y31648D02*
X17739Y31251D01*
X17053Y31936D02*
X17341Y31648D01*
X16919Y31936D02*
X17053D01*
X16847Y31643D02*
Y31864D01*
X16679Y31571D02*
X16775D01*
X16607Y31643D02*
Y31864D01*
X16275Y31936D02*
X16535D01*
X10865D02*
X16275D01*
X13316Y33193D02*
X14762D01*
X13244Y33265D02*
Y33394D01*
X13076Y33466D02*
X13172D01*
X13004Y33265D02*
Y33394D01*
X12836Y33193D02*
X12932D01*
X12764Y33265D02*
Y33399D01*
X12596Y33471D02*
X12692D01*
X12524Y33265D02*
Y33399D01*
X12432Y33193D02*
X12452D01*
X15194Y32165D02*
X17534D01*
X15122Y32237D02*
Y32479D01*
X14954Y32551D02*
X15050D01*
X14882Y32233D02*
Y32479D01*
X14714Y32161D02*
X14810D01*
X14642Y32233D02*
Y32504D01*
X14474Y32576D02*
X14570D01*
X14402Y32233D02*
Y32504D01*
X14234Y32161D02*
X14330D01*
X14162Y32233D02*
Y32504D01*
X13994Y32576D02*
X14090D01*
X13922Y32233D02*
Y32504D01*
X13754Y32161D02*
X13850D01*
X13682Y32233D02*
Y32504D01*
X13514Y32576D02*
X13610D01*
X13442Y32233D02*
Y32504D01*
X13274Y32161D02*
X13370D01*
X13202Y32233D02*
Y32504D01*
X13034Y32576D02*
X13130D01*
X12962Y32233D02*
Y32504D01*
X12794Y32161D02*
X12890D01*
X12722Y32233D02*
Y32504D01*
X12554Y32576D02*
X12650D01*
X12482Y32237D02*
Y32504D01*
X12390Y32165D02*
X12410D01*
X14737Y31210D02*
X16091D01*
X14665Y31037D02*
Y31138D01*
X14497Y30965D02*
X14593D01*
X14425Y31037D02*
Y31388D01*
X14257Y31460D02*
X14353D01*
X14185Y31032D02*
Y31388D01*
X14017Y30960D02*
X14113D01*
X13945Y31032D02*
Y31388D01*
X13777Y31460D02*
X13873D01*
X13705Y31032D02*
Y31388D01*
X13537Y30960D02*
X13633D01*
X13465Y31032D02*
Y31388D01*
X13297Y31460D02*
X13393D01*
X13225Y31032D02*
Y31388D01*
X13057Y30960D02*
X13153D01*
X12985Y31032D02*
Y31388D01*
X12817Y31460D02*
X12913D01*
X12745Y31282D02*
Y31388D01*
X12653Y31210D02*
X12673D01*
X15397Y30187D02*
X16547D01*
X15325Y30259D02*
Y30259D01*
X15157Y30331D02*
X15253D01*
X15085Y30129D02*
Y30259D01*
X14917Y30057D02*
X15013D01*
X14845Y30129D02*
Y30420D01*
X14677Y30492D02*
X14773D01*
X14605Y30093D02*
Y30420D01*
X14437Y30021D02*
X14533D01*
X14365Y30093D02*
Y30420D01*
X14197Y30492D02*
X14293D01*
X14125Y30093D02*
Y30420D01*
X13957Y30021D02*
X14053D01*
X13885Y30093D02*
Y30420D01*
X13717Y30492D02*
X13813D01*
X13645Y30093D02*
Y30420D01*
X13477Y30021D02*
X13573D01*
X13405Y30093D02*
Y30420D01*
X13237Y30492D02*
X13333D01*
X13165Y30259D02*
Y30420D01*
X13073Y30187D02*
X13093D01*
X14159Y28004D02*
X14887D01*
X14087Y28076D02*
Y28155D01*
X13919Y28227D02*
X14015D01*
X13847Y27915D02*
Y28155D01*
X13679Y27843D02*
X13775D01*
X13607Y27915D02*
Y28244D01*
X13439Y28316D02*
X13535D01*
X13367Y27915D02*
Y28244D01*
X13199Y27843D02*
X13295D01*
X13127Y27915D02*
Y28244D01*
X12959Y28316D02*
X13055D01*
X12887Y28076D02*
Y28244D01*
X12795Y28004D02*
X12815D01*
X16066Y28484D02*
X16898D01*
X15994Y28412D02*
Y28412D01*
X15826Y28340D02*
X15922D01*
X15754Y28412D02*
Y28561D01*
X15586Y28633D02*
X15682D01*
X15514Y28218D02*
Y28561D01*
X15346Y28146D02*
X15442D01*
X15274Y28218D02*
Y28587D01*
X15106Y28659D02*
X15202D01*
X15034Y28218D02*
Y28587D01*
X14866Y28146D02*
X14962D01*
X14794Y28218D02*
Y28587D01*
X14626Y28659D02*
X14722D01*
X14554Y28556D02*
Y28587D01*
X14462Y28484D02*
X14482D01*
X16447Y27112D02*
X16467Y27112D01*
X15127Y27110D02*
X16447Y27112D01*
X15055Y27182D02*
Y27219D01*
X14887Y27291D02*
X14983D01*
X14815Y27108D02*
Y27219D01*
X14647Y27036D02*
X14743D01*
X14575Y27108D02*
Y27346D01*
X14407Y27418D02*
X14503D01*
X14335Y27108D02*
Y27346D01*
X14167Y27036D02*
X14263D01*
X14095Y27108D02*
Y27346D01*
X13927Y27418D02*
X14023D01*
X13855Y27108D02*
Y27346D01*
X13687Y27036D02*
X13783D01*
X13615Y27108D02*
Y27346D01*
X13447Y27418D02*
X13543D01*
X13375Y27108D02*
Y27346D01*
X13207Y27036D02*
X13303D01*
X13135Y27108D02*
Y27346D01*
X12967Y27418D02*
X13063D01*
X12895Y27180D02*
Y27346D01*
X12823Y27108D02*
X12823D01*
X12803Y27108D02*
X12823Y27108D01*
X14711Y26647D02*
X16635D01*
X14639Y26420D02*
Y26575D01*
X14471Y26348D02*
X14567D01*
X14399Y26420D02*
Y26604D01*
X14231Y26676D02*
X14327D01*
X14159Y26396D02*
Y26604D01*
X13991Y26324D02*
X14087D01*
X13919Y26396D02*
Y26604D01*
X13751Y26676D02*
X13847D01*
X13679Y26396D02*
Y26604D01*
X13511Y26324D02*
X13607D01*
X13439Y26396D02*
Y26604D01*
X13271Y26676D02*
X13367D01*
X13199Y26396D02*
Y26604D01*
X13031Y26324D02*
X13127D01*
X12959Y26396D02*
Y26604D01*
X12791Y26676D02*
X12887D01*
X12719Y26396D02*
Y26604D01*
X12551Y26324D02*
X12647D01*
X12479Y26396D02*
Y26575D01*
X12147Y26647D02*
X12407D01*
X12059Y25909D02*
X14360D01*
X14432Y25837D02*
Y25837D01*
X14504Y25765D02*
X14600D01*
X14672Y25837D02*
Y25945D01*
X14744Y26017D02*
X14840D01*
X14912Y25758D02*
Y25945D01*
X14984Y25686D02*
X15080D01*
X15152Y25758D02*
Y26021D01*
X15224Y26093D02*
X15320D01*
X15392Y25758D02*
Y26021D01*
X15464Y25686D02*
X15560D01*
X15632Y25758D02*
Y26021D01*
X15704Y26093D02*
X15800D01*
X15872Y25758D02*
Y26021D01*
X15944Y25686D02*
X16040D01*
X16112Y25758D02*
Y26021D01*
X16184Y26093D02*
X16280D01*
X16352Y25758D02*
Y26021D01*
X16424Y25686D02*
X16520D01*
X16592Y25758D02*
Y25837D01*
X16664Y25909D02*
X16684D01*
X10226Y30020D02*
X10575D01*
X10124Y30122D02*
Y30137D01*
X9886Y30239D02*
X10022D01*
X9784Y29749D02*
Y30137D01*
X9546Y29647D02*
X9682D01*
X9444Y29749D02*
Y30168D01*
X9206Y30270D02*
X9342D01*
X9104Y30122D02*
Y30168D01*
X8982Y30020D02*
X9002D01*
X11615D02*
X12702Y28933D01*
X16952D02*
X17037Y29018D01*
X12702Y28933D02*
X16952D01*
X14762Y33193D02*
X18988D01*
X21178Y31003D01*
X11795Y32556D02*
X12432Y33193D01*
X17534Y32165D02*
X17621D01*
X9263D02*
X12390D01*
X10209Y31573D02*
X10359D01*
X10107Y31207D02*
Y31471D01*
X9869Y31105D02*
X10005D01*
X9767Y31207D02*
Y31471D01*
X9305Y31573D02*
X9665D01*
X10359D02*
X10642D01*
X9225D02*
X9305D01*
X10642D02*
X11000Y31216D01*
X16091Y31210D02*
X16172D01*
X12159D02*
X12653D01*
X16506Y30876D02*
X19116D01*
X16172Y31210D02*
X16506Y30876D01*
X16167Y31624D02*
X16694Y31096D01*
X14033Y31624D02*
X16167D01*
X16694Y31096D02*
X20077D01*
X10906Y31624D02*
X14033D01*
X11828Y31541D02*
X12159Y31210D01*
X11000Y31216D02*
X11947D01*
X12423Y30740D02*
X18678D01*
X11947Y31216D02*
X12423Y30740D01*
X10832Y31541D02*
X11828D01*
X11831Y31073D02*
X12717Y30187D01*
X13073D01*
X10985Y31073D02*
X11831D01*
X10775Y30935D02*
X11755D01*
X12809Y29881D02*
X16651D01*
X11755Y30935D02*
X12809Y29881D01*
X11259Y30781D02*
X11718D01*
X12766Y29733D02*
X16717D01*
X11718Y30781D02*
X12766Y29733D01*
X12719Y29553D02*
X16775D01*
X11637Y30635D02*
X12719Y29553D01*
X10595Y30635D02*
X11637D01*
X10759Y30354D02*
X11711D01*
X12670Y29395D02*
X16816D01*
X11711Y30354D02*
X12670Y29395D01*
X10462Y30187D02*
X11680D01*
X12643Y29224D02*
X19391D01*
X11680Y30187D02*
X12643Y29224D01*
X11087Y29397D02*
X11606D01*
X12456Y28131D02*
Y28547D01*
X11606Y29397D02*
X12456Y28547D01*
X10575Y30020D02*
X11615D01*
X10794Y29690D02*
X11662D01*
X12868Y28484D02*
X14462D01*
X11662Y29690D02*
X12868Y28484D01*
X10634Y31739D02*
X10832Y31541D01*
X10598Y31933D02*
X10906Y31624D01*
X19116Y30876D02*
X19399Y30593D01*
X18678Y30740D02*
X19111Y30307D01*
X19443D01*
X19549Y30414D01*
Y30742D01*
X19434Y30030D02*
X19675Y30272D01*
Y30659D02*
X19734Y30719D01*
X19675Y30272D02*
Y30659D01*
X19734Y30719D02*
X19889D01*
X16801Y30030D02*
X19434D01*
X16651Y29881D02*
X16801Y30030D01*
X19334Y29521D02*
X19793Y29980D01*
Y30593D01*
X10747Y32054D02*
X10865Y31936D01*
X17621Y32165D02*
X17824Y31962D01*
X11136Y32556D02*
X11795D01*
X10949Y32369D02*
X11136Y32556D01*
X9059Y32369D02*
X9263Y32165D01*
X17739Y31251D02*
X20641D01*
X10634Y32054D02*
X10747D01*
X19549Y30742D02*
X19793Y30986D01*
X16547Y30187D02*
X18514D01*
X18612Y30285D02*
Y30593D01*
X18514Y30187D02*
X18612Y30285D01*
X16717Y29733D02*
X16899Y29915D01*
X18657D01*
X18767Y29805D02*
X19006D01*
X18657Y29915D02*
X18767Y29805D01*
X18452Y29646D02*
X18612Y29805D01*
X16775Y29553D02*
X16867Y29646D01*
X18452D01*
X16816Y29395D02*
X16943Y29521D01*
X19334D01*
X9374Y30794D02*
X9855D01*
X10462Y30187D01*
X17824Y31380D02*
Y31962D01*
X20187Y29650D02*
X20847Y30310D01*
Y31044D01*
X20641Y31251D02*
X20847Y31044D01*
X8915Y30020D02*
X8982D01*
X8744Y29849D02*
X8915Y30020D01*
X14887Y28004D02*
X17523D01*
X12582D02*
X12795D01*
X16898Y28484D02*
X17104D01*
X17638Y29018D01*
X17824D01*
X10634Y29849D02*
X10794Y29690D01*
X10949Y29534D02*
X11087Y29397D01*
X12456Y28131D02*
X12582Y28004D01*
X17523D02*
X17613Y28094D01*
X17399Y28598D02*
X17613Y28384D01*
Y28094D02*
Y28384D01*
X10183Y26844D02*
X11460Y25568D01*
X16964D02*
X17057Y25474D01*
X11460Y25568D02*
X16964D01*
X10949Y26879D02*
Y27645D01*
X11919Y25909D02*
X12059D01*
X16684D02*
X17037Y26262D01*
X10949Y26879D02*
X11919Y25909D01*
X9718Y27309D02*
X9830Y27197D01*
X9718Y27453D02*
X9751Y27486D01*
X9751Y27630D02*
X9751Y27630D01*
X9655Y27726D02*
X9751Y27630D01*
X9655Y27726D02*
X9655Y27726D01*
X9510D02*
X9510D01*
X9478Y27694D02*
X9510Y27726D01*
X9320Y27708D02*
X9334Y27694D01*
X9830Y27197D02*
X10183Y26844D01*
X8754Y28274D02*
X9320Y27708D01*
X10183Y26844D02*
Y26844D01*
X12291Y27921D02*
X12496Y27716D01*
X17704D01*
X17824Y27837D01*
X12133Y27856D02*
X12411Y27579D01*
X17828D02*
X18034Y27784D01*
X12411Y27579D02*
X17828D01*
X11738Y28748D02*
X12133Y28353D01*
Y27856D02*
Y28353D01*
X16467Y27112D02*
X16798Y27443D01*
X12644Y27108D02*
X12803D01*
X16798Y27443D02*
X17037D01*
X12002Y27751D02*
X12644Y27108D01*
X12002Y27751D02*
Y28168D01*
X11760Y28409D02*
X12002Y28168D01*
X12073Y27230D02*
X12384Y26919D01*
X16573D02*
X16884Y27230D01*
X12384Y26919D02*
X16573D01*
X16884Y27230D02*
X17938D01*
X11683Y28150D02*
X11798Y28034D01*
Y27505D02*
X12073Y27230D01*
X11798Y27505D02*
Y28034D01*
X11085Y28150D02*
X11683D01*
X12073Y27230D02*
X12073D01*
X17938D02*
X18072Y27096D01*
X11995Y26647D02*
X12147D01*
X11371Y27271D02*
Y27699D01*
Y27271D02*
X11995Y26647D01*
X10815Y27826D02*
X11243D01*
X11371Y27699D01*
X10634Y27645D02*
X10815Y27826D01*
X16635Y26647D02*
X17037Y27049D01*
X12153Y26200D02*
X16581D01*
X11152Y27201D02*
Y27607D01*
Y27201D02*
X12153Y26200D01*
X16581D02*
X17431Y27049D01*
X11002Y27756D02*
X11152Y27607D01*
X10492Y27509D02*
X10498D01*
X9538Y28462D02*
X10492Y27509D01*
X10498D02*
X10658D01*
X9410Y28591D02*
X9538Y28462D01*
X10906Y27756D02*
X11002D01*
X10839Y27689D02*
Y27690D01*
X10658Y27509D02*
X10839Y27689D01*
X10904Y27755D02*
X10906Y27756D01*
X10839Y27690D02*
X10903Y27755D01*
X10904D01*
X10960Y28274D02*
X11085Y28150D01*
X18072Y26320D02*
Y27096D01*
X17037Y25868D02*
X17620D01*
X18072Y26320D01*
X9046Y28591D02*
X9410D01*
X8741Y28274D02*
X8754D01*
X11191Y25344D02*
X17542D01*
X9059Y27476D02*
Y27645D01*
Y27476D02*
X11191Y25344D01*
X17542D02*
X17824Y25627D01*
Y25868D01*
X17057Y25474D02*
X17431D01*
X20077Y31096D02*
X20187Y30986D01*
X8429Y30794D02*
X8874Y31238D01*
Y31796D01*
X9010Y31933D01*
X10598D01*
X10634Y31424D02*
X10985Y31073D01*
X10634Y30794D02*
X10775Y30935D01*
X20187Y29411D02*
Y29650D01*
X19793Y29805D02*
X19991Y30003D01*
Y30616D01*
X19889Y30719D02*
X19991Y30616D01*
X20443Y30276D02*
Y30849D01*
X19391Y29224D02*
X20443Y30276D01*
X9059Y31739D02*
X9225Y31573D01*
X10769Y28409D02*
X11760D01*
X10634Y28589D02*
X10793Y28748D01*
X11738D01*
X18034Y28046D02*
X18218Y28230D01*
X18034Y27784D02*
Y28046D01*
X10482Y30945D02*
X10634Y31097D01*
X10482Y30748D02*
X10595Y30635D01*
X10482Y30748D02*
Y30945D01*
X10634Y31097D02*
Y31109D01*
X10634Y30479D02*
X10759Y30354D01*
X20443Y30849D02*
X20580Y30986D01*
X9059Y28904D02*
X9662D01*
X20580Y29805D02*
X21178Y30403D01*
Y31003D01*
X10949Y28274D02*
X10960D01*
X10634Y27645D02*
X10634D01*
X10634Y28274D02*
X10634D01*
X10769Y28409D01*
D239*
X17399Y32860D02*
X18038Y32221D01*
X11861Y32254D02*
X12467Y32860D01*
X17399D01*
X18038Y31560D02*
X18218Y31380D01*
X18038Y31560D02*
Y32221D01*
X10905Y32254D02*
X11861D01*
X10790Y32368D02*
X10905Y32254D01*
X10790Y32368D02*
Y32525D01*
X10949Y32684D01*
D260*
X9059Y31739D02*
D03*
X9059Y32369D02*
D03*
X8429Y30794D02*
D03*
X8744Y29849D02*
D03*
X9046Y28591D02*
D03*
X9059Y27645D02*
D03*
X10634Y28589D02*
D03*
X10949Y29534D02*
D03*
X10949Y32684D02*
D03*
X10634Y30794D02*
D03*
X11259Y30781D02*
D03*
X10634Y31109D02*
D03*
X10634Y32054D02*
D03*
X10634Y31424D02*
D03*
Y31739D02*
D03*
X10634Y30479D02*
D03*
X17037Y26262D02*
D03*
X17399Y28598D02*
D03*
X17431Y25474D02*
D03*
X17037Y29018D02*
D03*
X19399Y30593D02*
D03*
X19793Y30986D02*
D03*
X17824Y31380D02*
D03*
X20187Y29411D02*
D03*
X20580Y29805D02*
D03*
X19006D02*
D03*
X19793Y30593D02*
D03*
X18218Y31380D02*
D03*
X17824Y29018D02*
D03*
X17037Y27443D02*
D03*
X19793Y29805D02*
D03*
X20580Y30986D02*
D03*
X17037Y27049D02*
D03*
X18612Y29805D02*
D03*
X17824Y25868D02*
D03*
Y27837D02*
D03*
X18612Y30593D02*
D03*
X18218Y28230D02*
D03*
X20187Y30986D02*
D03*
X17431Y27049D02*
D03*
X17037Y25868D02*
D03*
X10634Y29849D02*
D03*
X8741Y28274D02*
D03*
X10949Y27645D02*
D03*
X10634D02*
D03*
Y28274D02*
D03*
X10949D02*
D03*
X9059Y28904D02*
D03*
X9374Y30794D02*
D03*
X10949Y32369D02*
D03*
M02*
