G04*
G04 #@! TF.GenerationSoftware,Altium Limited,Altium Designer,20.1.11 (218)*
G04*
G04 Layer_Color=1265191*
%FSLAX24Y24*%
%MOIN*%
G70*
G04*
G04 #@! TF.SameCoordinates,C20E3654-7A5B-4E15-AF0D-48D46733EB80*
G04*
G04*
G04 #@! TF.FilePolarity,Positive*
G04*
G01*
G75*
%ADD16C,0.0050*%
%ADD18C,0.0039*%
%ADD297C,0.0020*%
D16*
X7244Y68898D02*
G03*
X7244Y68898I-1339J0D01*
G01*
X62362D02*
G03*
X62362Y68898I-1339J0D01*
G01*
Y1969D02*
G03*
X62362Y1969I-1339J0D01*
G01*
X7244D02*
G03*
X7244Y1969I-1339J0D01*
G01*
X5906Y68698D02*
Y69098D01*
X5706Y68898D02*
X6106D01*
X61024Y68698D02*
Y69098D01*
X60824Y68898D02*
X61224D01*
X61024Y1769D02*
Y2168D01*
X60824Y1969D02*
X61224D01*
X5906Y1769D02*
Y2168D01*
X5706Y1969D02*
X6106D01*
X2787Y63249D02*
Y64649D01*
X4187Y63249D02*
Y64649D01*
X3487Y63749D02*
Y64149D01*
X3287Y63949D02*
X3687D01*
X2787Y63249D02*
X4187D01*
X2787Y64649D02*
X4187D01*
X38672Y68043D02*
Y69443D01*
X40072Y68043D02*
Y69443D01*
X39372Y68543D02*
Y68943D01*
X39172Y68743D02*
X39572D01*
X38672Y68043D02*
X40072D01*
X38672Y69443D02*
X40072D01*
X1300Y1300D02*
Y2700D01*
X2700Y1300D02*
Y2700D01*
X2000Y1800D02*
Y2200D01*
X1800Y2000D02*
X2200D01*
X1300Y1300D02*
X2700D01*
X1300Y2700D02*
X2700D01*
D18*
X5246Y37832D02*
Y38225D01*
X5049Y38029D02*
X5442D01*
D297*
X4417Y37320D02*
X6074D01*
X4417Y38737D02*
X6074D01*
X4417Y37320D02*
Y38737D01*
X6074Y37320D02*
Y38737D01*
M02*
