G04*
G04 #@! TF.GenerationSoftware,Altium Limited,Altium Designer,20.1.11 (218)*
G04*
G04 Layer_Physical_Order=3*
G04 Layer_Color=36540*
%FSLAX24Y24*%
%MOIN*%
G70*
G04*
G04 #@! TF.SameCoordinates,C20E3654-7A5B-4E15-AF0D-48D46733EB80*
G04*
G04*
G04 #@! TF.FilePolarity,Positive*
G04*
G01*
G75*
%ADD15C,0.0100*%
%ADD17C,0.0060*%
%ADD22C,0.0120*%
%ADD236C,0.0040*%
%ADD257C,0.0600*%
%ADD260C,0.0120*%
D15*
X63694Y43134D02*
X63722D01*
X63390Y43438D02*
X63694Y43134D01*
X63118Y43438D02*
X63390D01*
X63022Y43534D02*
X63118Y43438D01*
X61397Y43534D02*
X63022D01*
X61180Y43750D02*
X61397Y43534D01*
X59691Y43750D02*
X61180D01*
X58993Y42433D02*
Y43053D01*
X59691Y43750D01*
X59752Y42437D02*
X60335Y43020D01*
X61936D02*
X63022Y41934D01*
X60335Y43020D02*
X61936D01*
X63022Y41934D02*
X63050D01*
X63354Y42238D01*
X63626D01*
X63722Y42334D01*
X59352Y42437D02*
X59752D01*
X58634Y42433D02*
Y44898D01*
X58131Y45401D02*
X58634Y44898D01*
X58275Y42433D02*
Y42751D01*
X58131Y42895D02*
X58275Y42751D01*
X58131Y42895D02*
Y42901D01*
D17*
X50522Y42473D02*
X51677D01*
X52191Y41959D02*
X52191D01*
X51677Y42473D02*
X52191Y41959D01*
D22*
X53019Y43037D02*
Y43164D01*
Y43037D02*
X53155Y42901D01*
X53011Y45137D02*
Y45261D01*
X53153Y45403D01*
D236*
X9738Y32684D02*
G03*
X9636Y32582I0J-102D01*
G01*
X9534Y32366D02*
G03*
X9636Y32468I0J102D01*
G01*
X9296D02*
G03*
X9398Y32366I102J0D01*
G01*
X9296Y32832D02*
G03*
X9194Y32934I-102J0D01*
G01*
X9058D02*
G03*
X8956Y32832I0J-102D01*
G01*
X8854Y32684D02*
G03*
X8956Y32786I0J102D01*
G01*
X16915Y26844D02*
G03*
X16843Y26772I0J-72D01*
G01*
X16771Y26700D02*
G03*
X16843Y26772I0J72D01*
G01*
X16603D02*
G03*
X16675Y26700I72J0D01*
G01*
X16603Y26975D02*
G03*
X16531Y27047I-72J0D01*
G01*
X16435D02*
G03*
X16363Y26975I0J-72D01*
G01*
X16291Y26844D02*
G03*
X16363Y26916I0J72D01*
G01*
X10851Y27122D02*
G03*
X10923Y27194I0J72D01*
G01*
X10995Y27391D02*
G03*
X10923Y27319I0J-72D01*
G01*
X11163D02*
G03*
X11091Y27391I-72J0D01*
G01*
X11163Y27160D02*
G03*
X11235Y27088I72J0D01*
G01*
X11331D02*
G03*
X11403Y27160I0J72D01*
G01*
X11475Y27391D02*
G03*
X11403Y27319I0J-72D01*
G01*
X11643D02*
G03*
X11571Y27391I-72J0D01*
G01*
X11643Y27160D02*
G03*
X11715Y27088I72J0D01*
G01*
X11811D02*
G03*
X11883Y27160I0J72D01*
G01*
X11955Y27391D02*
G03*
X11883Y27319I0J-72D01*
G01*
X12123D02*
G03*
X12051Y27391I-72J0D01*
G01*
X12123Y27194D02*
G03*
X12195Y27122I72J0D01*
G01*
X10609Y26447D02*
G03*
X10567Y26405I0J-42D01*
G01*
X10425Y26154D02*
G03*
X10567Y26296I0J142D01*
G01*
X10227D02*
G03*
X10369Y26154I142J0D01*
G01*
X10227Y26640D02*
G03*
X10185Y26682I-42J0D01*
G01*
X10129D02*
G03*
X10087Y26640I0J-42D01*
G01*
X9945Y26447D02*
G03*
X10087Y26589I0J142D01*
G01*
X10609Y26547D02*
G03*
X10467Y26405I0J-142D01*
G01*
X10425Y26254D02*
G03*
X10467Y26296I0J42D01*
G01*
X10327D02*
G03*
X10369Y26254I42J0D01*
G01*
X10327Y26640D02*
G03*
X10185Y26782I-142J0D01*
G01*
X10129D02*
G03*
X9987Y26640I0J-142D01*
G01*
X9945Y26547D02*
G03*
X9987Y26589I0J42D01*
G01*
X14733Y33091D02*
G03*
X14661Y33019I0J-72D01*
G01*
X14589Y32450D02*
G03*
X14661Y32522I0J72D01*
G01*
X14421D02*
G03*
X14493Y32450I72J0D01*
G01*
X14421Y33034D02*
G03*
X14349Y33106I-72J0D01*
G01*
X14253D02*
G03*
X14181Y33034I0J-72D01*
G01*
X14109Y32431D02*
G03*
X14181Y32503I0J72D01*
G01*
X13941D02*
G03*
X14013Y32431I72J0D01*
G01*
X13941Y33034D02*
G03*
X13869Y33106I-72J0D01*
G01*
X13773D02*
G03*
X13701Y33034I0J-72D01*
G01*
X13629Y32431D02*
G03*
X13701Y32503I0J72D01*
G01*
X13461D02*
G03*
X13533Y32431I72J0D01*
G01*
X13461Y33034D02*
G03*
X13389Y33106I-72J0D01*
G01*
X13293D02*
G03*
X13221Y33034I0J-72D01*
G01*
X13149Y32431D02*
G03*
X13221Y32503I0J72D01*
G01*
X12981D02*
G03*
X13053Y32431I72J0D01*
G01*
X12981Y33019D02*
G03*
X12909Y33091I-72J0D01*
G01*
X15832Y32277D02*
G03*
X15904Y32205I72J0D01*
G01*
X15832Y32766D02*
G03*
X15760Y32838I-72J0D01*
G01*
X15664D02*
G03*
X15592Y32766I0J-72D01*
G01*
X15520Y32182D02*
G03*
X15592Y32254I0J72D01*
G01*
X15352D02*
G03*
X15424Y32182I72J0D01*
G01*
X15352Y32809D02*
G03*
X15280Y32881I-72J0D01*
G01*
X15184D02*
G03*
X15112Y32809I0J-72D01*
G01*
X15040Y32205D02*
G03*
X15112Y32277I0J72D01*
G01*
X13910Y28317D02*
G03*
X13838Y28245I0J-72D01*
G01*
X13766Y28173D02*
G03*
X13838Y28245I0J72D01*
G01*
X13598D02*
G03*
X13670Y28173I72J0D01*
G01*
X13598Y28377D02*
G03*
X13526Y28449I-72J0D01*
G01*
X13430D02*
G03*
X13358Y28377I0J-72D01*
G01*
X13286Y28152D02*
G03*
X13358Y28224I0J72D01*
G01*
X13118D02*
G03*
X13190Y28152I72J0D01*
G01*
X13118Y28426D02*
G03*
X13046Y28498I-72J0D01*
G01*
X12950D02*
G03*
X12878Y28426I0J-72D01*
G01*
X12806Y28152D02*
G03*
X12878Y28224I0J72D01*
G01*
X12638D02*
G03*
X12710Y28152I72J0D01*
G01*
X12638Y28426D02*
G03*
X12566Y28498I-72J0D01*
G01*
X12470D02*
G03*
X12398Y28426I0J-72D01*
G01*
X12326Y28317D02*
G03*
X12398Y28389I0J72D01*
G01*
X13659Y27514D02*
G03*
X13731Y27442I72J0D01*
G01*
X13659Y27514D02*
G03*
X13587Y27586I-72J0D01*
G01*
X13491D02*
G03*
X13419Y27514I0J-72D01*
G01*
X13347Y27370D02*
G03*
X13419Y27442I0J72D01*
G01*
X13179D02*
G03*
X13251Y27370I72J0D01*
G01*
X13179Y27556D02*
G03*
X13107Y27628I-72J0D01*
G01*
X13011D02*
G03*
X12939Y27556I0J-72D01*
G01*
X12867Y27336D02*
G03*
X12939Y27408I0J72D01*
G01*
X12699D02*
G03*
X12771Y27336I72J0D01*
G01*
X12699Y27591D02*
G03*
X12627Y27663I-72J0D01*
G01*
X12531D02*
G03*
X12459Y27591I0J-72D01*
G01*
X12387Y27442D02*
G03*
X12459Y27514I0J72D01*
G01*
X12902Y30710D02*
G03*
X12830Y30782I-72J0D01*
G01*
X12902Y30710D02*
G03*
X12974Y30638I72J0D01*
G01*
X13070D02*
G03*
X13142Y30710I0J72D01*
G01*
X13214Y30996D02*
G03*
X13142Y30924I0J-72D01*
G01*
X13382D02*
G03*
X13310Y30996I-72J0D01*
G01*
X13382Y30616D02*
G03*
X13454Y30544I72J0D01*
G01*
X13550D02*
G03*
X13622Y30616I0J72D01*
G01*
X13694Y31000D02*
G03*
X13622Y30928I0J-72D01*
G01*
X13862D02*
G03*
X13790Y31000I-72J0D01*
G01*
X13862Y30616D02*
G03*
X13934Y30544I72J0D01*
G01*
X14030D02*
G03*
X14102Y30616I0J72D01*
G01*
X14174Y31000D02*
G03*
X14102Y30928I0J-72D01*
G01*
X14342D02*
G03*
X14270Y31000I-72J0D01*
G01*
X14342Y30616D02*
G03*
X14414Y30544I72J0D01*
G01*
X14510D02*
G03*
X14582Y30616I0J72D01*
G01*
X14654Y31000D02*
G03*
X14582Y30928I0J-72D01*
G01*
X14822D02*
G03*
X14750Y31000I-72J0D01*
G01*
X14822Y30616D02*
G03*
X14894Y30544I72J0D01*
G01*
X14990D02*
G03*
X15062Y30616I0J72D01*
G01*
X15134Y31000D02*
G03*
X15062Y30928I0J-72D01*
G01*
X15302D02*
G03*
X15230Y31000I-72J0D01*
G01*
X15302Y30616D02*
G03*
X15374Y30544I72J0D01*
G01*
X15470D02*
G03*
X15542Y30616I0J72D01*
G01*
X15614Y31000D02*
G03*
X15542Y30928I0J-72D01*
G01*
X15782D02*
G03*
X15710Y31000I-72J0D01*
G01*
X15782Y30616D02*
G03*
X15854Y30544I72J0D01*
G01*
X15950D02*
G03*
X16022Y30616I0J72D01*
G01*
X16094Y30782D02*
G03*
X16022Y30710I0J-72D01*
G01*
X15755Y31683D02*
G03*
X15683Y31611I0J-72D01*
G01*
X15611Y31251D02*
G03*
X15683Y31323I0J72D01*
G01*
X15443D02*
G03*
X15515Y31251I72J0D01*
G01*
X15443Y31628D02*
G03*
X15371Y31700I-72J0D01*
G01*
X15275D02*
G03*
X15203Y31628I0J-72D01*
G01*
X15131Y31227D02*
G03*
X15203Y31299I0J72D01*
G01*
X14963D02*
G03*
X15035Y31227I72J0D01*
G01*
X14963Y31628D02*
G03*
X14891Y31700I-72J0D01*
G01*
X14795D02*
G03*
X14723Y31628I0J-72D01*
G01*
X14651Y31227D02*
G03*
X14723Y31299I0J72D01*
G01*
X14483D02*
G03*
X14555Y31227I72J0D01*
G01*
X14483Y31628D02*
G03*
X14411Y31700I-72J0D01*
G01*
X14315D02*
G03*
X14243Y31628I0J-72D01*
G01*
X14171Y31227D02*
G03*
X14243Y31299I0J72D01*
G01*
X14003D02*
G03*
X14075Y31227I72J0D01*
G01*
X14003Y31628D02*
G03*
X13931Y31700I-72J0D01*
G01*
X13835D02*
G03*
X13763Y31628I0J-72D01*
G01*
X13691Y31227D02*
G03*
X13763Y31299I0J72D01*
G01*
X13523D02*
G03*
X13595Y31227I72J0D01*
G01*
X13523Y31628D02*
G03*
X13451Y31700I-72J0D01*
G01*
X13355D02*
G03*
X13283Y31628I0J-72D01*
G01*
X13211Y31227D02*
G03*
X13283Y31299I0J72D01*
G01*
X13043D02*
G03*
X13115Y31227I72J0D01*
G01*
X13043Y31611D02*
G03*
X12971Y31683I-72J0D01*
G01*
X19122Y30065D02*
G03*
X19194Y29993I72J0D01*
G01*
X19122Y30250D02*
G03*
X19050Y30322I-72J0D01*
G01*
X18954D02*
G03*
X18882Y30250I0J-72D01*
G01*
X18810Y29915D02*
G03*
X18882Y29987I0J72D01*
G01*
X18642D02*
G03*
X18714Y29915I72J0D01*
G01*
X18642Y30279D02*
G03*
X18570Y30351I-72J0D01*
G01*
X18474D02*
G03*
X18402Y30279I0J-72D01*
G01*
X18330Y29993D02*
G03*
X18402Y30065I0J72D01*
G01*
X15721Y27989D02*
G03*
X15793Y27917I72J0D01*
G01*
X15721Y28149D02*
G03*
X15649Y28221I-72J0D01*
G01*
X15553D02*
G03*
X15481Y28149I0J-72D01*
G01*
X15409Y27648D02*
G03*
X15481Y27720I0J72D01*
G01*
X15241D02*
G03*
X15313Y27648I72J0D01*
G01*
X15241Y28258D02*
G03*
X15169Y28330I-72J0D01*
G01*
X15073D02*
G03*
X15001Y28258I0J-72D01*
G01*
X14929Y27648D02*
G03*
X15001Y27720I0J72D01*
G01*
X14761D02*
G03*
X14833Y27648I72J0D01*
G01*
X14761Y28258D02*
G03*
X14689Y28330I-72J0D01*
G01*
X14593D02*
G03*
X14521Y28258I0J-72D01*
G01*
X14449Y27917D02*
G03*
X14521Y27989I0J72D01*
G01*
X11988Y33310D02*
G03*
X11916Y33238I0J-72D01*
G01*
X11844Y32944D02*
G03*
X11916Y33016I0J72D01*
G01*
X11676D02*
G03*
X11748Y32944I72J0D01*
G01*
X11676Y33249D02*
G03*
X11604Y33321I-72J0D01*
G01*
X11508D02*
G03*
X11436Y33249I0J-72D01*
G01*
X11364Y32845D02*
G03*
X11436Y32917I0J72D01*
G01*
X11196D02*
G03*
X11268Y32845I72J0D01*
G01*
X11196Y33238D02*
G03*
X11124Y33310I-72J0D01*
G01*
X10686Y33532D02*
G03*
X10614Y33460I0J-72D01*
G01*
X10542Y33021D02*
G03*
X10614Y33093I0J72D01*
G01*
X10374D02*
G03*
X10446Y33021I72J0D01*
G01*
X10374Y33474D02*
G03*
X10302Y33546I-72J0D01*
G01*
X10206D02*
G03*
X10134Y33474I0J-72D01*
G01*
X10062Y33021D02*
G03*
X10134Y33093I0J72D01*
G01*
X9894D02*
G03*
X9966Y33021I72J0D01*
G01*
X9894Y33460D02*
G03*
X9822Y33532I-72J0D01*
G01*
X14580Y30167D02*
G03*
X14508Y30095I0J-72D01*
G01*
X14436Y29750D02*
G03*
X14508Y29822I0J72D01*
G01*
X14268D02*
G03*
X14340Y29750I72J0D01*
G01*
X14268Y30305D02*
G03*
X14196Y30377I-72J0D01*
G01*
X14100D02*
G03*
X14028Y30305I0J-72D01*
G01*
X13956Y29731D02*
G03*
X14028Y29803I0J72D01*
G01*
X13788D02*
G03*
X13860Y29731I72J0D01*
G01*
X13788Y30305D02*
G03*
X13716Y30377I-72J0D01*
G01*
X13620D02*
G03*
X13548Y30305I0J-72D01*
G01*
X13476Y29731D02*
G03*
X13548Y29803I0J72D01*
G01*
X13308D02*
G03*
X13380Y29731I72J0D01*
G01*
X13308Y30305D02*
G03*
X13236Y30377I-72J0D01*
G01*
X13140D02*
G03*
X13068Y30305I0J-72D01*
G01*
X12996Y30167D02*
G03*
X13068Y30239I0J72D01*
G01*
X14852Y29521D02*
G03*
X14924Y29593I0J72D01*
G01*
X14996Y29956D02*
G03*
X14924Y29884I0J-72D01*
G01*
X15164D02*
G03*
X15092Y29956I-72J0D01*
G01*
X15164Y29587D02*
G03*
X15236Y29515I72J0D01*
G01*
X15332D02*
G03*
X15404Y29587I0J72D01*
G01*
X15476Y29988D02*
G03*
X15404Y29916I0J-72D01*
G01*
X15644D02*
G03*
X15572Y29988I-72J0D01*
G01*
X15644Y29587D02*
G03*
X15716Y29515I72J0D01*
G01*
X15812D02*
G03*
X15884Y29587I0J72D01*
G01*
X15956Y29988D02*
G03*
X15884Y29916I0J-72D01*
G01*
X16124D02*
G03*
X16052Y29988I-72J0D01*
G01*
X16124Y29587D02*
G03*
X16196Y29515I72J0D01*
G01*
X16292D02*
G03*
X16364Y29587I0J72D01*
G01*
X16436Y29988D02*
G03*
X16364Y29916I0J-72D01*
G01*
X16604D02*
G03*
X16532Y29988I-72J0D01*
G01*
X16604Y29593D02*
G03*
X16676Y29521I72J0D01*
G01*
X17152Y30974D02*
G03*
X17152Y30872I51J-51D01*
G01*
X17380Y31202D02*
G03*
X17380Y31303I-51J51D01*
G01*
X17312Y31371D02*
G03*
X17210Y31371I-51J-51D01*
G01*
X16849Y31112D02*
G03*
X16951Y31112I51J51D01*
G01*
X16781Y31281D02*
G03*
X16781Y31180I51J-51D01*
G01*
X17041Y31541D02*
G03*
X17041Y31643I-51J51D01*
G01*
X16973Y31711D02*
G03*
X16871Y31711I-51J-51D01*
G01*
X16509Y31451D02*
G03*
X16611Y31451I51J51D01*
G01*
X16441Y31621D02*
G03*
X16441Y31519I51J-51D01*
G01*
X16701Y31880D02*
G03*
X16701Y31982I-51J51D01*
G01*
X16633Y32050D02*
G03*
X16531Y32050I-51J-51D01*
G01*
X16201Y31822D02*
G03*
X16303Y31822I51J51D01*
G01*
X9830Y31230D02*
G03*
X9932Y31128I102J0D01*
G01*
X9830Y31868D02*
G03*
X9728Y31970I-102J0D01*
G01*
X9592D02*
G03*
X9490Y31868I0J-102D01*
G01*
X9388Y31128D02*
G03*
X9490Y31230I0J102D01*
G01*
X18106Y32186D02*
G03*
X17961Y32186I-72J-72D01*
G01*
X17788Y32157D02*
G03*
X17932Y32157I72J72D01*
G01*
X17692Y32397D02*
G03*
X17692Y32253I72J-72D01*
G01*
X17721Y32426D02*
G03*
X17721Y32571I-72J72D01*
G01*
X9803Y29584D02*
G03*
X9845Y29626I0J42D01*
G01*
X9887Y29869D02*
G03*
X9845Y29827I0J-42D01*
G01*
X9985D02*
G03*
X9943Y29869I-42J0D01*
G01*
X9985Y29626D02*
G03*
X10027Y29584I42J0D01*
G01*
X16745Y29333D02*
G03*
X16787Y29291I42J0D01*
G01*
X16745Y29368D02*
G03*
X16703Y29410I-42J0D01*
G01*
X16647D02*
G03*
X16605Y29368I0J-42D01*
G01*
X16563Y29291D02*
G03*
X16605Y29333I0J42D01*
G01*
X9566Y27940D02*
G03*
X9608Y27982I0J42D01*
G01*
X9531Y27940D02*
G03*
X9489Y27898I0J-42D01*
G01*
Y27842D02*
G03*
X9531Y27800I42J0D01*
G01*
X9608Y27758D02*
G03*
X9566Y27800I-42J0D01*
G01*
X10386Y32684D02*
X10550Y32520D01*
X9738Y32684D02*
X10386D01*
X9636Y32468D02*
Y32582D01*
X9398Y32366D02*
X9534D01*
X9296Y32468D02*
Y32684D01*
Y32832D01*
X9058Y32934D02*
X9194D01*
X8956Y32786D02*
Y32832D01*
X8786Y32684D02*
X8854D01*
X8744D02*
X8786D01*
X10259Y29475D02*
X10274Y29459D01*
X9527Y29093D02*
X11679D01*
X9220Y29400D02*
X9527Y29093D01*
X11776Y28016D02*
Y28997D01*
X11679Y29093D02*
X11776Y28997D01*
X16915Y26844D02*
X17022D01*
X16843Y26772D02*
Y26772D01*
X16675Y26700D02*
X16771D01*
X16603Y26772D02*
Y26975D01*
X16435Y27047D02*
X16531D01*
X16363Y26916D02*
Y26975D01*
X16271Y26844D02*
X16291D01*
X10597D02*
X16271D01*
X17022D02*
X17063D01*
X10084Y27358D02*
X10597Y26844D01*
X17063D02*
X17240Y27022D01*
X10739Y27122D02*
X10851D01*
X10923Y27194D02*
Y27319D01*
X10995Y27391D02*
X11091D01*
X11163Y27160D02*
Y27319D01*
X11235Y27088D02*
X11331D01*
X11403Y27160D02*
Y27319D01*
X11475Y27391D02*
X11571D01*
X11643Y27160D02*
Y27319D01*
X11715Y27088D02*
X11811D01*
X11883Y27160D02*
Y27319D01*
X11955Y27391D02*
X12051D01*
X12123Y27194D02*
Y27319D01*
X12195Y27122D02*
X12455D01*
X10690D02*
X10739D01*
X10408Y27404D02*
Y28678D01*
Y27404D02*
X10690Y27122D01*
X10084Y27358D02*
Y28205D01*
X9064Y29225D02*
X10084Y28205D01*
X10863Y26447D02*
X17321D01*
X10863Y26547D02*
X17362D01*
X10609Y26447D02*
X10863D01*
X10567Y26296D02*
Y26405D01*
X10369Y26154D02*
X10425D01*
X10227Y26296D02*
Y26640D01*
X10129Y26682D02*
X10185D01*
X10087Y26589D02*
Y26640D01*
X9875Y26447D02*
X9945D01*
X10609Y26547D02*
X10863D01*
X10467Y26296D02*
Y26405D01*
X10369Y26254D02*
X10425D01*
X10327Y26296D02*
Y26640D01*
X10129Y26782D02*
X10185D01*
X9987Y26589D02*
Y26640D01*
X9875Y26547D02*
X9945D01*
X9710Y26447D02*
X9875D01*
X9752Y26547D02*
X9875D01*
X10464Y32854D02*
X10634Y32684D01*
X9537Y33002D02*
X9685Y32854D01*
X10464D01*
X9537Y33002D02*
Y33433D01*
X10134Y33118D02*
Y33474D01*
X9894Y33118D02*
Y33460D01*
Y33093D02*
Y33118D01*
X10134Y33093D02*
Y33118D01*
X10946Y32559D02*
X12016D01*
X12548Y33091D02*
X12649D01*
X12016Y32559D02*
X12548Y33091D01*
X14733D02*
X15461D01*
X14661Y32522D02*
Y33019D01*
X14493Y32450D02*
X14589D01*
X14421Y32522D02*
Y33034D01*
X14253Y33106D02*
X14349D01*
X14181Y32503D02*
Y33034D01*
X14013Y32431D02*
X14109D01*
X13941Y32503D02*
Y33034D01*
X13773Y33106D02*
X13869D01*
X13701Y32503D02*
Y33034D01*
X13533Y32431D02*
X13629D01*
X13461Y32503D02*
Y33034D01*
X13293Y33106D02*
X13389D01*
X13221Y32503D02*
Y33034D01*
X13053Y32431D02*
X13149D01*
X12981Y32503D02*
Y33019D01*
X12649Y33091D02*
X12909D01*
X15461D02*
X16280D01*
X9210Y32205D02*
X15020D01*
X16007D02*
X16027D01*
X15904D02*
X16007D01*
X15832Y32277D02*
Y32766D01*
X15664Y32838D02*
X15760D01*
X15592Y32254D02*
Y32766D01*
X15424Y32182D02*
X15520D01*
X15352Y32254D02*
Y32809D01*
X15184Y32881D02*
X15280D01*
X15112Y32277D02*
Y32809D01*
X15020Y32205D02*
X15040D01*
X16027D02*
X16789Y32205D01*
X13910Y28317D02*
X14038D01*
X13838Y28245D02*
Y28245D01*
X13670Y28173D02*
X13766D01*
X13598Y28245D02*
Y28377D01*
X13430Y28449D02*
X13526D01*
X13358Y28224D02*
Y28377D01*
X13190Y28152D02*
X13286D01*
X13118Y28224D02*
Y28426D01*
X12950Y28498D02*
X13046D01*
X12878Y28224D02*
Y28426D01*
X12710Y28152D02*
X12806D01*
X12638Y28224D02*
Y28426D01*
X12470Y28498D02*
X12566D01*
X12398Y28389D02*
Y28426D01*
X12306Y28317D02*
X12326D01*
X14038D02*
X14268Y28547D01*
X13731Y27442D02*
X14582D01*
X13659Y27514D02*
Y27514D01*
X13491Y27586D02*
X13587D01*
X13419Y27442D02*
Y27514D01*
X13251Y27370D02*
X13347D01*
X13179Y27442D02*
Y27556D01*
X13011Y27628D02*
X13107D01*
X12939Y27408D02*
Y27556D01*
X12771Y27336D02*
X12867D01*
X12699Y27408D02*
Y27591D01*
X12531Y27663D02*
X12627D01*
X12459Y27514D02*
Y27591D01*
X12367Y27442D02*
X12387D01*
X12701Y30782D02*
X12830D01*
X12902Y30710D02*
Y30710D01*
X12974Y30638D02*
X13070D01*
X13142Y30710D02*
Y30924D01*
X13214Y30996D02*
X13310D01*
X13382Y30616D02*
Y30924D01*
X13454Y30544D02*
X13550D01*
X13622Y30616D02*
Y30928D01*
X13694Y31000D02*
X13790D01*
X13862Y30616D02*
Y30928D01*
X13934Y30544D02*
X14030D01*
X14102Y30616D02*
Y30928D01*
X14174Y31000D02*
X14270D01*
X14342Y30616D02*
Y30928D01*
X14414Y30544D02*
X14510D01*
X14582Y30616D02*
Y30928D01*
X14654Y31000D02*
X14750D01*
X14822Y30616D02*
Y30928D01*
X14894Y30544D02*
X14990D01*
X15062Y30616D02*
Y30928D01*
X15134Y31000D02*
X15230D01*
X15302Y30616D02*
Y30928D01*
X15374Y30544D02*
X15470D01*
X15542Y30616D02*
Y30928D01*
X15614Y31000D02*
X15710D01*
X15782Y30616D02*
Y30928D01*
X15854Y30544D02*
X15950D01*
X16022Y30616D02*
Y30710D01*
X16094Y30782D02*
X16114D01*
X12666D02*
X12701D01*
X16114D02*
X16276D01*
X17429Y29629D01*
X12375Y31073D02*
X12666Y30782D01*
X11171Y31073D02*
X12375D01*
X10981Y31263D02*
X11171Y31073D01*
X15755Y31683D02*
X15947D01*
X15683Y31323D02*
Y31611D01*
X15515Y31251D02*
X15611D01*
X15443Y31323D02*
Y31628D01*
X15275Y31700D02*
X15371D01*
X15203Y31299D02*
Y31628D01*
X15035Y31227D02*
X15131D01*
X14963Y31299D02*
Y31628D01*
X14795Y31700D02*
X14891D01*
X14723Y31299D02*
Y31628D01*
X14555Y31227D02*
X14651D01*
X14483Y31299D02*
Y31628D01*
X14315Y31700D02*
X14411D01*
X14243Y31299D02*
Y31628D01*
X14075Y31227D02*
X14171D01*
X14003Y31299D02*
Y31628D01*
X13835Y31700D02*
X13931D01*
X13763Y31299D02*
Y31628D01*
X13595Y31227D02*
X13691D01*
X13523Y31299D02*
Y31628D01*
X13355Y31700D02*
X13451D01*
X13283Y31299D02*
Y31628D01*
X13115Y31227D02*
X13211D01*
X13043Y31299D02*
Y31611D01*
X12711Y31683D02*
X12971D01*
X12685D02*
X12711D01*
X15947D02*
X17824Y29805D01*
X19194Y29993D02*
X19319D01*
X19122Y30065D02*
Y30250D01*
X18954Y30322D02*
X19050D01*
X18882Y29987D02*
Y30250D01*
X18714Y29915D02*
X18810D01*
X18642Y29987D02*
Y30279D01*
X18474Y30351D02*
X18570D01*
X18402Y30065D02*
Y30279D01*
X18310Y29993D02*
X18330D01*
X11258Y31233D02*
X12235D01*
X19319Y29993D02*
X19357D01*
X18030D02*
X18310D01*
X12268Y27917D02*
X14429D01*
X16197D02*
X16505Y28225D01*
X15793Y27917D02*
X16197D01*
X15721Y27989D02*
Y28149D01*
X15553Y28221D02*
X15649D01*
X15481Y27720D02*
Y28149D01*
X15313Y27648D02*
X15409D01*
X15241Y27720D02*
Y28258D01*
X15073Y28330D02*
X15169D01*
X15001Y27720D02*
Y28258D01*
X14833Y27648D02*
X14929D01*
X14761Y27720D02*
Y28258D01*
X14593Y28330D02*
X14689D01*
X14521Y27989D02*
Y28258D01*
X14429Y27917D02*
X14449D01*
X16505Y28225D02*
X16630Y28350D01*
X16280Y33091D02*
X18022Y31349D01*
X12191Y33310D02*
X16444D01*
X11988D02*
X12191D01*
X11916Y33016D02*
Y33238D01*
X11748Y32944D02*
X11844D01*
X11676Y33016D02*
Y33249D01*
X11508Y33321D02*
X11604D01*
X11436Y32917D02*
Y33249D01*
X11268Y32845D02*
X11364D01*
X11196Y32917D02*
Y33238D01*
X10948Y33310D02*
X11124D01*
X10900Y33262D02*
X10948Y33310D01*
X10792Y33155D02*
X10900Y33262D01*
X16444Y33310D02*
X18430Y31324D01*
X10792Y32594D02*
Y33155D01*
X10718Y32520D02*
X10792Y32594D01*
X10686Y33532D02*
X10825D01*
X10614Y33093D02*
Y33460D01*
X10446Y33021D02*
X10542D01*
X10374Y33093D02*
Y33474D01*
X10206Y33546D02*
X10302D01*
X9966Y33021D02*
X10062D01*
X9636Y33532D02*
X9822D01*
X9598Y33495D02*
X9636Y33532D01*
X10825D02*
X16760D01*
X9537Y33433D02*
X9598Y33495D01*
X19357Y29993D02*
X19399Y29951D01*
X14775Y30167D02*
X16656D01*
X14580D02*
X14775D01*
X14508Y29822D02*
Y30095D01*
X14340Y29750D02*
X14436D01*
X14268Y29822D02*
Y30305D01*
X14100Y30377D02*
X14196D01*
X14028Y29803D02*
Y30305D01*
X13860Y29731D02*
X13956D01*
X13788Y29803D02*
Y30305D01*
X13620Y30377D02*
X13716D01*
X13548Y29803D02*
Y30305D01*
X13380Y29731D02*
X13476D01*
X13308Y29803D02*
Y30305D01*
X13140Y30377D02*
X13236D01*
X13068Y30239D02*
Y30305D01*
X12976Y30167D02*
X12996D01*
X13250Y29521D02*
X14664D01*
X14852D01*
X14924Y29593D02*
Y29884D01*
X14996Y29956D02*
X15092D01*
X15164Y29587D02*
Y29884D01*
X15236Y29515D02*
X15332D01*
X15404Y29587D02*
Y29916D01*
X15476Y29988D02*
X15572D01*
X15644Y29587D02*
Y29916D01*
X15716Y29515D02*
X15812D01*
X15884Y29587D02*
Y29916D01*
X15956Y29988D02*
X16052D01*
X16124Y29587D02*
Y29916D01*
X16196Y29515D02*
X16292D01*
X16364Y29587D02*
Y29916D01*
X16436Y29988D02*
X16532D01*
X16604Y29593D02*
Y29916D01*
X16676Y29521D02*
X16928D01*
X16936Y29513D01*
X17037Y29411D01*
X12915Y30167D02*
X12976D01*
X12127Y30955D02*
X12915Y30167D01*
X16656D02*
X17038Y29785D01*
X12140Y30630D02*
X13250Y29521D01*
X17152Y30872D02*
X17258Y30766D01*
X17152Y30872D02*
X17152Y30872D01*
Y30974D02*
X17380Y31202D01*
X17380Y31303D02*
X17380Y31303D01*
X17312Y31371D02*
X17380Y31303D01*
X17312Y31371D02*
X17312Y31371D01*
X17210D02*
X17210D01*
X16951Y31112D02*
X17210Y31371D01*
X16781Y31180D02*
X16849Y31112D01*
X16781Y31281D02*
X16781D01*
X17041Y31541D01*
X17041Y31643D02*
X17041Y31643D01*
X16973Y31711D02*
X17041Y31643D01*
X16973Y31711D02*
X16973Y31711D01*
X16871D02*
X16871D01*
X16611Y31451D02*
X16871Y31711D01*
X16441Y31519D02*
X16509Y31451D01*
X16441Y31621D02*
X16441D01*
X16701Y31880D01*
X16701Y31982D02*
X16701Y31982D01*
X16633Y32050D02*
X16701Y31982D01*
X16633Y32050D02*
X16633Y32050D01*
X16531D02*
X16531D01*
X16303Y31822D02*
X16531Y32050D01*
X16201Y31822D02*
X16201Y31822D01*
X16187Y31836D02*
X16201Y31822D01*
X17258Y30766D02*
X18030Y29993D01*
X17824Y29805D02*
X17824D01*
X12235Y31233D02*
X12685Y31683D01*
X17429Y29413D02*
Y29629D01*
X19399Y29805D02*
Y29951D01*
X16085Y31939D02*
X16187Y31836D01*
X11149Y31939D02*
X16085D01*
X10949Y31739D02*
X11149Y31939D01*
X17629Y30591D02*
Y31364D01*
X16789Y32205D02*
X17629Y31364D01*
Y30591D02*
X17747Y30473D01*
X17824Y30593D02*
X18022Y30790D01*
Y31349D01*
X18430Y31119D02*
Y31324D01*
X18218Y30907D02*
X18430Y31119D01*
X10771Y32384D02*
X10946Y32559D01*
X10550Y32520D02*
X10718D01*
X9007Y30934D02*
X9945D01*
X8584Y31357D02*
Y31734D01*
Y31357D02*
X9007Y30934D01*
X9355Y31128D02*
X9368D01*
X8744Y31739D02*
X9355Y31128D01*
X10150D02*
X10356D01*
X9932D02*
X10150D01*
X9830Y31230D02*
Y31868D01*
X9592Y31970D02*
X9728D01*
X9490Y31230D02*
Y31868D01*
X9368Y31128D02*
X9388D01*
X9645Y33750D02*
X16850D01*
X20008Y30593D02*
X20187D01*
X16850Y33750D02*
X20008Y30593D01*
X8588Y32693D02*
X9645Y33750D01*
X8588Y32210D02*
X8744Y32054D01*
X8588Y32210D02*
Y32693D01*
X10530Y30955D02*
X12127D01*
X10248Y30630D02*
X12140D01*
X10221Y30336D02*
X12114D01*
X13158Y29291D02*
X16543D01*
X12114Y30336D02*
X13158Y29291D01*
X10179Y30236D02*
X12072D01*
X13117Y29191D02*
X17949D01*
X12072Y30236D02*
X13117Y29191D01*
X14268Y28547D02*
X16960D01*
X12095Y28528D02*
Y29351D01*
Y28528D02*
X12306Y28317D01*
X16960Y28547D02*
X17037Y28624D01*
X14582Y27442D02*
X16076D01*
X12351D02*
X12367D01*
X11776Y28016D02*
X12351Y27442D01*
X11951Y28233D02*
Y29077D01*
Y28233D02*
X12268Y27917D01*
X17438Y28773D02*
X17578Y28634D01*
X12997Y28773D02*
X17438D01*
X12622Y29148D02*
X12997Y28773D01*
X10947Y29688D02*
X11757D01*
X12095Y29351D01*
X13038Y28873D02*
X17479D01*
X12722Y29189D02*
Y29189D01*
X10154Y30079D02*
X11833D01*
X12722Y29189D01*
Y29189D02*
X13038Y28873D01*
X10112Y29979D02*
X11791D01*
X12622Y29148D01*
Y29148D02*
Y29148D01*
X18218Y30593D02*
Y30907D01*
X18106Y32186D02*
X18320Y31971D01*
X18106Y32186D02*
X18106Y32186D01*
X17932Y32157D02*
X17961Y32186D01*
X17692Y32253D02*
X17788Y32157D01*
X17692Y32397D02*
X17721Y32426D01*
X17721Y32571D02*
X17721Y32571D01*
X17466Y32825D02*
X17721Y32571D01*
X18320Y31971D02*
X19006Y31286D01*
X16760Y33532D02*
X17466Y32825D01*
X19006Y30986D02*
Y31286D01*
X10356Y31128D02*
X10530Y30955D01*
X9421Y29858D02*
X9695Y29584D01*
X9421Y29858D02*
Y30067D01*
X9548Y30194D01*
X9321Y29817D02*
X9488Y29650D01*
X9321Y30108D02*
X9507Y30294D01*
X9321Y29817D02*
Y30108D01*
X9548Y30194D02*
X9897D01*
X9507Y30294D02*
X9938D01*
X9897Y30194D02*
X10112Y29979D01*
X9938Y30294D02*
X10154Y30079D01*
X11638Y29390D02*
X11951Y29077D01*
X16076Y27442D02*
X16865Y28230D01*
X11119Y29390D02*
X11638D01*
X16630Y28350D02*
X17113D01*
X16865Y28230D02*
X17037D01*
X12455Y27122D02*
X16057Y27125D01*
X10408Y28678D02*
X10634Y28904D01*
X16963Y28031D02*
X17039D01*
X16057Y27125D02*
X16963Y28031D01*
X9695Y29584D02*
X9803D01*
X9845Y29626D02*
Y29827D01*
X9887Y29869D02*
X9943D01*
X9985Y29626D02*
Y29827D01*
X10027Y29584D02*
X10187D01*
X10210D01*
X9488Y29650D02*
Y29650D01*
Y29650D02*
X9654Y29484D01*
X9424Y26875D02*
Y27154D01*
X16787Y29291D02*
X16996D01*
X16745Y29333D02*
Y29368D01*
X16647Y29410D02*
X16703D01*
X16605Y29333D02*
Y29368D01*
X16543Y29291D02*
X16563D01*
X16996D02*
X17908D01*
X17479Y28873D02*
X17678Y28675D01*
X17701Y28230D02*
X17824D01*
X17678Y28254D02*
Y28675D01*
Y28254D02*
X17701Y28230D01*
X17578Y28254D02*
Y28634D01*
X17554Y28230D02*
X17578Y28254D01*
X17431Y28230D02*
X17554D01*
X10259Y29594D02*
X10274Y29609D01*
X10220Y29594D02*
X10259D01*
X10210Y29584D02*
X10220Y29594D01*
X9654Y29484D02*
X10210D01*
X10220Y29475D01*
X10259D01*
X9608Y27982D02*
Y28129D01*
X9531Y27940D02*
X9566D01*
X9489Y27842D02*
Y27898D01*
X9531Y27800D02*
X9566D01*
X9608Y27738D02*
Y27758D01*
Y27480D02*
Y27738D01*
X9424Y26875D02*
X9752Y26547D01*
X17321Y26447D02*
X17381Y26387D01*
X9324Y26833D02*
X9710Y26447D01*
X9324Y26833D02*
Y27196D01*
X9608Y27480D01*
X9424Y27154D02*
X9708Y27439D01*
Y28170D01*
X17362Y26547D02*
X17481Y26428D01*
X9512Y28224D02*
X9608Y28129D01*
X17037Y27837D02*
X17240Y27634D01*
Y27022D02*
Y27634D01*
X9805Y26054D02*
X17853D01*
X8904Y26954D02*
Y27799D01*
Y26954D02*
X9805Y26054D01*
X9456Y28334D02*
X9466Y28324D01*
X9418Y28334D02*
X9456D01*
X9466Y28324D02*
X9554D01*
X9402Y28349D02*
X9418Y28334D01*
X9554Y28324D02*
X9708Y28170D01*
X9466Y28224D02*
X9512D01*
X9456Y28215D02*
X9466Y28224D01*
X9418Y28215D02*
X9456D01*
X9402Y28199D02*
X9418Y28215D01*
X17371Y26274D02*
Y26312D01*
X17381Y26322D02*
Y26387D01*
X17490Y26274D02*
Y26312D01*
X17481Y26322D02*
X17490Y26312D01*
X17481Y26322D02*
Y26428D01*
X17371Y26312D02*
X17381Y26322D01*
X17490Y26274D02*
X17506Y26258D01*
X17356D02*
X17371Y26274D01*
X17824Y26656D02*
X17993Y26487D01*
Y26193D02*
Y26487D01*
X17853Y26054D02*
X17993Y26193D01*
X17039Y28031D02*
X17628Y27443D01*
X8744Y27959D02*
X8904Y27799D01*
X18095Y29411D02*
X18218D01*
X9986Y30429D02*
X10179Y30236D01*
X9529Y30429D02*
X9986D01*
X18071Y29388D02*
X18095Y29411D01*
X18071Y29313D02*
Y29388D01*
X17949Y29191D02*
X18071Y29313D01*
X17948Y29411D02*
X17971Y29388D01*
X10027Y30529D02*
X10221Y30336D01*
X17824Y29411D02*
X17948D01*
X17971Y29355D02*
Y29388D01*
X17908Y29291D02*
X17971Y29355D01*
X9529Y30529D02*
X10027D01*
X8889Y32038D02*
Y32225D01*
X8584Y31734D02*
X8634Y31784D01*
X8699Y31849D02*
X8889Y32038D01*
X8699Y31849D02*
X8699D01*
X8634Y31785D02*
X8699Y31849D01*
X8634Y31784D02*
Y31785D01*
X8744Y32369D02*
X8889Y32225D01*
X9059Y32054D02*
X9210Y32205D01*
X9059Y29849D02*
X9708Y29200D01*
X10460D02*
X10550Y29290D01*
X9708Y29200D02*
X10460D01*
X9059Y29849D02*
X9059D01*
X8925Y29400D02*
X9220D01*
X8750Y29225D02*
X8925Y29400D01*
X10649Y32384D02*
X10771D01*
X11067Y31424D02*
X11258Y31233D01*
X10949Y29219D02*
X11119Y29390D01*
X10549Y29290D02*
X10839Y29580D01*
X10903Y29644D02*
X10903D01*
X10839Y29580D02*
Y29580D01*
X10903Y29644D01*
X10903D02*
X10947Y29688D01*
X10508Y31263D02*
X10981D01*
X9945Y30934D02*
X10248Y30630D01*
X10949Y31424D02*
X11067D01*
X10379Y31392D02*
Y31750D01*
Y31392D02*
X10508Y31263D01*
X10379Y31750D02*
X10534Y31905D01*
X10800Y31905D02*
X10949Y32054D01*
X10534Y31905D02*
X10800Y31905D01*
X17747Y30473D02*
X18281D01*
X18531Y30724D01*
X18875D02*
X19006Y30593D01*
X18531Y30724D02*
X18875D01*
X17113Y28350D02*
X17246Y28217D01*
Y28021D02*
Y28217D01*
Y28021D02*
X17431Y27837D01*
X10634Y32369D02*
X10649Y32384D01*
X17628Y27443D02*
X17824D01*
X17429Y29413D02*
X17431Y29411D01*
D257*
X63022Y41934D02*
D03*
Y43534D02*
D03*
X63722Y42334D02*
D03*
Y43134D02*
D03*
D260*
X10274Y29459D02*
D03*
X17824Y28230D02*
D03*
X17431D02*
D03*
X9402Y28349D02*
D03*
Y28199D02*
D03*
X17506Y26258D02*
D03*
X17356D02*
D03*
X18218Y29411D02*
D03*
X17824D02*
D03*
X9059Y32054D02*
D03*
X8744Y32684D02*
D03*
Y31739D02*
D03*
Y32054D02*
D03*
Y32369D02*
D03*
X9059Y29849D02*
D03*
X9064Y29225D02*
D03*
X8750D02*
D03*
X8744Y27959D02*
D03*
X10274Y29609D02*
D03*
X10634Y28904D02*
D03*
X10949Y29219D02*
D03*
X9465Y30404D02*
D03*
Y30554D02*
D03*
X10949Y31739D02*
D03*
Y32054D02*
D03*
Y31424D02*
D03*
X17037Y28624D02*
D03*
Y28230D02*
D03*
X19006Y30986D02*
D03*
X17824Y29805D02*
D03*
X19399D02*
D03*
X20187Y30593D02*
D03*
X17824Y26656D02*
D03*
X17038Y29785D02*
D03*
X17824Y30593D02*
D03*
X17037Y27837D02*
D03*
X18218Y30593D02*
D03*
X17824Y27443D02*
D03*
X17431Y27837D02*
D03*
X17037Y29411D02*
D03*
X17431D02*
D03*
X19006Y30593D02*
D03*
X10634Y32369D02*
D03*
Y32684D02*
D03*
X53011Y45137D02*
D03*
X53019Y43164D02*
D03*
X50522Y42473D02*
D03*
X58131Y42901D02*
D03*
Y45401D02*
D03*
X53155Y42901D02*
D03*
X53153Y45403D02*
D03*
X52191Y41959D02*
D03*
X59352Y42437D02*
D03*
X58993Y42433D02*
D03*
X58634Y42433D02*
D03*
X58275D02*
D03*
M02*
