G04*
G04 #@! TF.GenerationSoftware,Altium Limited,Altium Designer,20.1.11 (218)*
G04*
G04 Layer_Color=7058166*
%FSLAX24Y24*%
%MOIN*%
G70*
G04*
G04 #@! TF.SameCoordinates,C20E3654-7A5B-4E15-AF0D-48D46733EB80*
G04*
G04*
G04 #@! TF.FilePolarity,Positive*
G04*
G01*
G75*
%ADD10C,0.0098*%
%ADD11C,0.0079*%
%ADD15C,0.0100*%
%ADD16C,0.0050*%
%ADD17C,0.0060*%
%ADD18C,0.0039*%
%ADD20C,0.0069*%
%ADD236C,0.0040*%
%ADD298C,0.0026*%
D10*
X57666Y63112D02*
G03*
X57666Y63112I-16J0D01*
G01*
X19979Y14520D02*
G03*
X19979Y14520I-16J0D01*
G01*
D11*
X27410Y24887D02*
Y35517D01*
X16780D02*
X27410D01*
X16780Y24887D02*
Y35517D01*
Y24887D02*
X27410D01*
X22095Y29808D02*
Y30596D01*
X21701Y30202D02*
X22489D01*
D15*
X39090Y37336D02*
G03*
X39090Y37336I-320J0D01*
G01*
X10348Y49389D02*
G03*
X10348Y49389I-320J0D01*
G01*
X52055Y45955D02*
G03*
X52055Y45955I-31J0D01*
G01*
X41558Y9668D02*
G03*
X41558Y9668I-39J0D01*
G01*
X49473Y13965D02*
G03*
X49473Y13965I-14J0D01*
G01*
X33682Y58406D02*
G03*
X33682Y58406I-320J0D01*
G01*
X39570Y30711D02*
Y38161D01*
X33370Y30711D02*
X39570D01*
X33370D02*
Y38161D01*
X39570D01*
X10827Y42764D02*
Y50214D01*
X4627Y42764D02*
X10827D01*
X4627D02*
Y50214D01*
X10827D01*
X34187Y57606D02*
Y63806D01*
X26737D02*
X34187D01*
X26737Y57606D02*
Y63806D01*
Y57606D02*
X34187D01*
D16*
X6555Y68898D02*
G03*
X6555Y68898I-650J0D01*
G01*
X7126D02*
G03*
X7126Y68898I-1220J0D01*
G01*
X61673D02*
G03*
X61673Y68898I-650J0D01*
G01*
X62244D02*
G03*
X62244Y68898I-1220J0D01*
G01*
X61673Y1969D02*
G03*
X61673Y1969I-650J0D01*
G01*
X62244D02*
G03*
X62244Y1969I-1220J0D01*
G01*
X6555D02*
G03*
X6555Y1969I-650J0D01*
G01*
X7126D02*
G03*
X7126Y1969I-1220J0D01*
G01*
X61667Y30406D02*
G03*
X61667Y30406I-197J0D01*
G01*
X20070Y59963D02*
G03*
X20070Y59963I-88J0D01*
G01*
X2689Y34870D02*
G03*
X2689Y34870I-88J0D01*
G01*
X54618Y35979D02*
G03*
X54618Y35979I-197J0D01*
G01*
X45956Y19229D02*
G03*
X45956Y19229I-191J0D01*
G01*
X64069Y32948D02*
G03*
X64069Y32948I-72J0D01*
G01*
X4078Y63949D02*
G03*
X4078Y63949I-591J0D01*
G01*
X39962Y68743D02*
G03*
X39962Y68743I-591J0D01*
G01*
X2591Y2000D02*
G03*
X2591Y2000I-591J0D01*
G01*
X27150Y14805D02*
G03*
X27150Y14805I-167J0D01*
G01*
X62213Y65734D02*
Y67285D01*
X60343Y65734D02*
Y67285D01*
Y65734D02*
X62213D01*
X60343Y67285D02*
X62213D01*
X61142Y60061D02*
Y61931D01*
X62693Y60061D02*
Y61931D01*
X61142Y60061D02*
X62693D01*
X61142Y61931D02*
X62693D01*
X62693Y63203D02*
Y65073D01*
X61142Y63203D02*
Y65073D01*
X62693D01*
X61142Y63203D02*
X62693D01*
X63506Y58455D02*
X65376D01*
X63506Y60006D02*
X65376D01*
Y58455D02*
Y60006D01*
X63506Y58455D02*
Y60006D01*
X61854Y30032D02*
Y34166D01*
X58861D02*
X61854D01*
X58861Y30032D02*
Y34166D01*
Y30032D02*
X61854D01*
X49093Y44901D02*
X51061D01*
X49093Y42933D02*
Y44901D01*
Y42933D02*
X51061D01*
Y43179D01*
X50963Y43228D02*
X51061Y43179D01*
X50963Y43228D02*
X51061Y43277D01*
Y44901D01*
X55935Y50634D02*
X57486D01*
X55935Y48764D02*
X57486D01*
Y50634D01*
X55935Y48764D02*
Y50634D01*
X58149Y49528D02*
X61989D01*
X58149D02*
Y51508D01*
X61989D01*
Y49528D02*
Y51508D01*
X53043Y30664D02*
Y34207D01*
X49500D02*
X53043D01*
X49500Y30664D02*
Y34207D01*
Y30664D02*
X53043D01*
X46791Y36668D02*
X55161Y36668D01*
Y36668D02*
X55752Y36077D01*
Y28203D02*
Y36077D01*
X46791Y28203D02*
Y36668D01*
Y28203D02*
X55752D01*
X14690Y5061D02*
X17053D01*
X14690Y7423D02*
X17053D01*
X14690Y5061D02*
Y7423D01*
X17053Y5061D02*
Y7423D01*
X41294Y9459D02*
Y13081D01*
Y9459D02*
X45704D01*
Y13081D01*
X41294D02*
X45704D01*
X44043Y18855D02*
Y20922D01*
Y18855D02*
X46110D01*
X44043Y20922D02*
X46110D01*
Y18855D02*
Y20922D01*
X47550Y13808D02*
X49577D01*
Y15835D01*
X47550D02*
X49577D01*
X47550Y13808D02*
Y15835D01*
X63843Y32802D02*
X64512D01*
X63843Y33314D02*
X64512D01*
X63843Y32802D02*
Y33314D01*
X64512Y32802D02*
Y33314D01*
X66717Y34662D02*
Y34770D01*
Y31385D02*
Y31493D01*
Y31503D02*
Y34652D01*
Y31493D02*
Y31503D01*
X65008Y31493D02*
X66717D01*
X65008D02*
Y34652D01*
X66717D01*
X3487Y63358D02*
Y64540D01*
X2897Y63949D02*
X4078D01*
X39372Y68152D02*
Y69333D01*
X38781Y68743D02*
X39962D01*
X2000Y1409D02*
Y2591D01*
X1409Y2000D02*
X2591D01*
X45458Y23859D02*
X46639D01*
Y25041D01*
X45458D02*
X46639D01*
X45458Y23859D02*
Y25041D01*
X14718Y13487D02*
Y15849D01*
X17080Y13487D02*
Y15849D01*
X14718Y13487D02*
X17080D01*
X14718Y15849D02*
X17080D01*
X17082Y9308D02*
Y11671D01*
X14720Y9308D02*
Y11671D01*
X17082D01*
X14720Y9308D02*
X17082D01*
X26573Y15182D02*
X28573D01*
X26573Y12382D02*
X28573D01*
Y15182D01*
X26573Y12382D02*
Y15182D01*
X66841Y31936D02*
X67091D01*
Y32061D01*
X67049Y32102D01*
X67007D01*
X66966Y32061D01*
Y31936D01*
Y32061D01*
X66924Y32102D01*
X66882D01*
X66841Y32061D01*
Y31936D01*
X67091Y32227D02*
Y32311D01*
X67049Y32352D01*
X66966D01*
X66924Y32311D01*
Y32227D01*
X66966Y32186D01*
X67049D01*
X67091Y32227D01*
X66924Y32477D02*
Y32561D01*
X66966Y32602D01*
X67091D01*
Y32477D01*
X67049Y32436D01*
X67007Y32477D01*
Y32602D01*
X66924Y32685D02*
X67091D01*
X67007D01*
X66966Y32727D01*
X66924Y32769D01*
Y32810D01*
X66841Y33102D02*
X67091D01*
Y32977D01*
X67049Y32935D01*
X66966D01*
X66924Y32977D01*
Y33102D01*
X66841Y33602D02*
Y33435D01*
X67091D01*
Y33602D01*
X66966Y33435D02*
Y33519D01*
X66841Y33852D02*
X67091D01*
Y33727D01*
X67049Y33685D01*
X66966D01*
X66924Y33727D01*
Y33852D01*
X67174Y34018D02*
Y34060D01*
X67132Y34102D01*
X66924D01*
Y33977D01*
X66966Y33935D01*
X67049D01*
X67091Y33977D01*
Y34102D01*
Y34310D02*
Y34227D01*
X67049Y34185D01*
X66966D01*
X66924Y34227D01*
Y34310D01*
X66966Y34352D01*
X67007D01*
Y34185D01*
D17*
X52201Y45315D02*
Y46123D01*
X51197Y45315D02*
Y46123D01*
X52201D01*
X51197Y45315D02*
X52201D01*
D18*
X40571Y28769D02*
G03*
X40571Y28769I-197J0D01*
G01*
X61070Y28015D02*
G03*
X61070Y28015I-197J0D01*
G01*
X45826Y24790D02*
G03*
X45826Y24790I-118J0D01*
G01*
X40020Y26997D02*
X42146D01*
Y29123D01*
X40020Y26997D02*
Y29123D01*
X42146D01*
X20996Y59766D02*
Y60455D01*
X19795Y59766D02*
Y60455D01*
X20996D01*
X19795Y59766D02*
X20996D01*
X1587Y34378D02*
Y35067D01*
X2788Y34378D02*
Y35067D01*
X1587Y34378D02*
X2788D01*
X1587Y35067D02*
X2788D01*
X57514Y62094D02*
Y63291D01*
X58065Y62094D02*
Y63291D01*
X57514D02*
X58065D01*
X57514Y62094D02*
X58065D01*
X19827Y13501D02*
Y14698D01*
X20378Y13501D02*
Y14698D01*
X19827D02*
X20378D01*
X19827Y13501D02*
X20378D01*
X61227Y27661D02*
Y29629D01*
X59652Y27661D02*
Y29629D01*
Y27661D02*
X61227D01*
X59652Y29629D02*
X61227D01*
X45458Y23859D02*
Y25041D01*
X46639D01*
Y23859D02*
Y25041D01*
X45458Y23859D02*
X46639D01*
D20*
X52024Y54845D02*
G03*
X52024Y54845I-300J0D01*
G01*
X48124Y51245D02*
X52124D01*
X48124D02*
Y55245D01*
X52124D01*
Y51245D02*
Y55245D01*
D236*
X66678Y60762D02*
Y60845D01*
Y60803D01*
X66928D01*
Y60762D01*
Y60845D01*
Y60970D02*
X66678D01*
X66928Y61136D01*
X66678D01*
X66720Y61386D02*
X66678Y61345D01*
Y61261D01*
X66720Y61220D01*
X66761D01*
X66803Y61261D01*
Y61345D01*
X66845Y61386D01*
X66886D01*
X66928Y61345D01*
Y61261D01*
X66886Y61220D01*
X66678Y61636D02*
Y61470D01*
X66928D01*
Y61636D01*
X66803Y61470D02*
Y61553D01*
X66928Y61720D02*
X66678D01*
Y61845D01*
X66720Y61886D01*
X66803D01*
X66845Y61845D01*
Y61720D01*
Y61803D02*
X66928Y61886D01*
X66678Y61969D02*
Y62136D01*
Y62053D01*
X66928D01*
X66678Y62469D02*
X66928D01*
X66845Y62553D01*
X66928Y62636D01*
X66678D01*
Y62719D02*
Y62803D01*
Y62761D01*
X66928D01*
Y62719D01*
Y62803D01*
Y62927D02*
X66678D01*
Y63052D01*
X66720Y63094D01*
X66803D01*
X66845Y63052D01*
Y62927D01*
Y63011D02*
X66928Y63094D01*
X66678Y63344D02*
Y63177D01*
X66928D01*
Y63344D01*
X66803Y63177D02*
Y63261D01*
X66720Y63594D02*
X66678Y63552D01*
Y63469D01*
X66720Y63427D01*
X66761D01*
X66803Y63469D01*
Y63552D01*
X66845Y63594D01*
X66886D01*
X66928Y63552D01*
Y63469D01*
X66886Y63427D01*
X66678Y64052D02*
Y63969D01*
X66720Y63927D01*
X66886D01*
X66928Y63969D01*
Y64052D01*
X66886Y64094D01*
X66720D01*
X66678Y64052D01*
X66928Y64177D02*
X66678D01*
X66928Y64344D01*
X66678D01*
Y64677D02*
Y64844D01*
Y64760D01*
X66928D01*
X66678Y64927D02*
X66928D01*
X66803D01*
Y65093D01*
X66678D01*
X66928D01*
X66678Y65177D02*
Y65260D01*
Y65218D01*
X66928D01*
Y65177D01*
Y65260D01*
X66720Y65552D02*
X66678Y65510D01*
Y65427D01*
X66720Y65385D01*
X66761D01*
X66803Y65427D01*
Y65510D01*
X66845Y65552D01*
X66886D01*
X66928Y65510D01*
Y65427D01*
X66886Y65385D01*
X66720Y66051D02*
X66678Y66010D01*
Y65927D01*
X66720Y65885D01*
X66761D01*
X66803Y65927D01*
Y66010D01*
X66845Y66051D01*
X66886D01*
X66928Y66010D01*
Y65927D01*
X66886Y65885D01*
X66678Y66135D02*
Y66218D01*
Y66176D01*
X66928D01*
Y66135D01*
Y66218D01*
X66678Y66343D02*
X66928D01*
Y66468D01*
X66886Y66510D01*
X66720D01*
X66678Y66468D01*
Y66343D01*
Y66760D02*
Y66593D01*
X66928D01*
Y66760D01*
X66803Y66593D02*
Y66676D01*
D298*
X63114Y2526D02*
Y2959D01*
X62838Y2526D02*
Y2959D01*
X63114D01*
X62838Y2526D02*
X63114D01*
X62805Y10179D02*
X63081D01*
X62805Y9746D02*
X63081D01*
Y10179D01*
X62805Y9746D02*
Y10179D01*
X60553Y43176D02*
Y43609D01*
X60277Y43176D02*
Y43609D01*
X60553D01*
X60277Y43176D02*
X60553D01*
X60277Y43873D02*
Y44306D01*
X60553Y43873D02*
Y44306D01*
X60277Y43873D02*
X60553D01*
X60277Y44306D02*
X60553D01*
X60272Y45019D02*
X60548D01*
X60272Y45452D02*
X60548D01*
X60272Y45019D02*
Y45452D01*
X60548Y45019D02*
Y45452D01*
X60272Y46149D02*
X60548D01*
X60272Y45716D02*
X60548D01*
Y46149D01*
X60272Y45716D02*
Y46149D01*
X63098Y23809D02*
X63374D01*
X63098Y23376D02*
X63374D01*
Y23809D01*
X63098Y23376D02*
Y23809D01*
X63098Y15213D02*
X63374D01*
X63098Y15646D02*
X63374D01*
X63098Y15213D02*
Y15646D01*
X63374Y15213D02*
Y15646D01*
M02*
