G04*
G04 #@! TF.GenerationSoftware,Altium Limited,Altium Designer,20.1.11 (218)*
G04*
G04 Layer_Color=6740479*
%FSLAX24Y24*%
%MOIN*%
G70*
G04*
G04 #@! TF.SameCoordinates,C20E3654-7A5B-4E15-AF0D-48D46733EB80*
G04*
G04*
G04 #@! TF.FilePolarity,Positive*
G04*
G01*
G75*
%ADD16C,0.0050*%
%ADD18C,0.0039*%
D16*
X6555Y68898D02*
G03*
X6555Y68898I-650J0D01*
G01*
X7126D02*
G03*
X7126Y68898I-1220J0D01*
G01*
X61673D02*
G03*
X61673Y68898I-650J0D01*
G01*
X62244D02*
G03*
X62244Y68898I-1220J0D01*
G01*
X61673Y1969D02*
G03*
X61673Y1969I-650J0D01*
G01*
X62244D02*
G03*
X62244Y1969I-1220J0D01*
G01*
X6555D02*
G03*
X6555Y1969I-650J0D01*
G01*
X7126D02*
G03*
X7126Y1969I-1220J0D01*
G01*
X4078Y63949D02*
G03*
X4078Y63949I-591J0D01*
G01*
X39962Y68743D02*
G03*
X39962Y68743I-591J0D01*
G01*
X2591Y2000D02*
G03*
X2591Y2000I-591J0D01*
G01*
X2897Y63949D02*
X4078D01*
X3487Y63358D02*
Y64540D01*
X38781Y68743D02*
X39962D01*
X39372Y68152D02*
Y69333D01*
X1409Y2000D02*
X2591D01*
X2000Y1409D02*
Y2591D01*
D18*
X5757Y38422D02*
G03*
X5757Y38422I-118J0D01*
G01*
X4635Y37418D02*
X5856D01*
X4635Y38639D02*
X5856D01*
X4635Y37418D02*
Y38639D01*
X5856Y37418D02*
Y38639D01*
M02*
