G04*
G04 #@! TF.GenerationSoftware,Altium Limited,Altium Designer,20.1.11 (218)*
G04*
G04 Layer_Color=32896*
%FSLAX24Y24*%
%MOIN*%
G70*
G04*
G04 #@! TF.SameCoordinates,C20E3654-7A5B-4E15-AF0D-48D46733EB80*
G04*
G04*
G04 #@! TF.FilePolarity,Positive*
G04*
G01*
G75*
%ADD11C,0.0079*%
%ADD13C,0.0200*%
%ADD15C,0.0100*%
%ADD16C,0.0050*%
%ADD17C,0.0060*%
%ADD19C,0.0079*%
%ADD23C,0.0030*%
D11*
X22508Y21081D02*
G03*
X22508Y21081I-28J0D01*
G01*
X22347Y19212D02*
G03*
X22347Y19212I-28J0D01*
G01*
X22658Y21839D02*
Y22213D01*
X21476D02*
X22658D01*
X21476Y21839D02*
Y22213D01*
Y21839D02*
X22658D01*
X21315Y19970D02*
X22496D01*
X21315D02*
Y20344D01*
X22496D01*
Y19970D02*
Y20344D01*
X4576Y37359D02*
X4834D01*
X5657D02*
X5915D01*
X4576Y38698D02*
X4834D01*
X5657D02*
X5915D01*
X4576Y37359D02*
Y37430D01*
Y38627D02*
Y38698D01*
X5915Y37359D02*
Y37430D01*
Y38627D02*
Y38698D01*
D13*
X61400Y58002D02*
G03*
X61400Y58002I-150J0D01*
G01*
D15*
X7592Y39023D02*
Y39783D01*
X6282Y39023D02*
X7592D01*
X6282D02*
Y39783D01*
X7592D01*
X7593Y35565D02*
Y36325D01*
X6283Y35565D02*
X7593D01*
X6283D02*
Y36325D01*
X7593D01*
X3575Y39598D02*
X4335D01*
Y38288D02*
Y39598D01*
X3575Y38288D02*
X4335D01*
X3575D02*
Y39598D01*
X7592Y38163D02*
Y38923D01*
X6282Y38163D02*
X7592D01*
X6282D02*
Y38923D01*
X7592D01*
Y37304D02*
Y38064D01*
X6282Y37304D02*
X7592D01*
X6282D02*
Y38064D01*
X7592D01*
Y36445D02*
Y37205D01*
X6282Y36445D02*
X7592D01*
X6282D02*
Y37205D01*
X7592D01*
X22830Y32069D02*
Y32829D01*
X24140D01*
Y32069D02*
Y32829D01*
X22830Y32069D02*
X24140D01*
X24376Y33136D02*
Y33896D01*
X23066Y33136D02*
X24376D01*
X23066D02*
Y33896D01*
X24376D01*
X23963Y31204D02*
Y31964D01*
X25273D01*
Y31204D02*
Y31964D01*
X23963Y31204D02*
X25273D01*
X20669Y29822D02*
Y30582D01*
X21979D01*
Y29822D02*
Y30582D01*
X20669Y29822D02*
X21979D01*
X23405Y29822D02*
Y30582D01*
X22095Y29822D02*
X23405D01*
X22095D02*
Y30582D01*
X23405D01*
X19153Y32903D02*
Y33663D01*
X20463D01*
Y32903D02*
Y33663D01*
X19153Y32903D02*
X20463D01*
X16616Y31351D02*
X17376D01*
X16616D02*
Y32661D01*
X17376D01*
Y31351D02*
Y32661D01*
X16061Y26378D02*
X16821D01*
X16061D02*
Y27688D01*
X16821D01*
Y26378D02*
Y27688D01*
X26961Y28664D02*
X27721D01*
Y27354D02*
Y28664D01*
X26961Y27354D02*
X27721D01*
X26961D02*
Y28664D01*
X26033Y26662D02*
X27343D01*
X26033Y25902D02*
Y26662D01*
Y25902D02*
X27343D01*
Y26662D01*
X19539Y27546D02*
X20299D01*
X19539D02*
Y28856D01*
X20299D01*
Y27546D02*
Y28856D01*
X52294Y43174D02*
X52894D01*
Y42044D02*
Y43174D01*
X52294Y42044D02*
X52894D01*
X52294D02*
Y43174D01*
X51991Y45130D02*
X52891D01*
Y43310D02*
Y45130D01*
X51991Y43310D02*
X52891D01*
X51991D02*
Y45130D01*
X58126Y20593D02*
X58886D01*
Y19283D02*
Y20593D01*
X58126Y19283D02*
X58886D01*
X58126D02*
Y20593D01*
X31055Y12871D02*
Y14181D01*
Y12871D02*
X31815D01*
Y14181D01*
X31055D02*
X31815D01*
X29963Y6201D02*
Y7511D01*
X29203D02*
X29963D01*
X29203Y6201D02*
Y7511D01*
Y6201D02*
X29963D01*
D16*
X6053Y38501D02*
G03*
X6053Y38501I-20J0D01*
G01*
X52216Y4360D02*
Y4660D01*
X52866D01*
Y4360D02*
Y4660D01*
X52216Y4360D02*
X52866D01*
X57302Y6261D02*
Y6911D01*
Y6261D02*
X57602D01*
Y6911D01*
X57302D02*
X57602D01*
X56598Y6611D02*
Y6911D01*
X57248D01*
Y6611D02*
Y6911D01*
X56598Y6611D02*
X57248D01*
X56598Y6250D02*
Y6550D01*
X57248D01*
Y6250D02*
Y6550D01*
X56598Y6250D02*
X57248D01*
X29947Y12899D02*
X30247D01*
Y12249D02*
Y12899D01*
X29947Y12249D02*
X30247D01*
X29947D02*
Y12899D01*
X29147Y7364D02*
Y7664D01*
X28497Y7364D02*
X29147D01*
X28497D02*
Y7664D01*
X29147D01*
X9813Y32820D02*
Y33470D01*
X9513D02*
X9813D01*
X9513Y32820D02*
Y33470D01*
Y32820D02*
X9813D01*
X9171D02*
X9471D01*
X9171D02*
Y33470D01*
X9471D01*
Y32820D02*
Y33470D01*
X11907Y32820D02*
Y33470D01*
Y32820D02*
X12207D01*
Y33470D01*
X11907D02*
X12207D01*
X9855Y32820D02*
X10155D01*
X9855D02*
Y33470D01*
X10155D01*
Y32820D02*
Y33470D01*
X10497Y32820D02*
Y33470D01*
X10197D02*
X10497D01*
X10197Y32820D02*
Y33470D01*
Y32820D02*
X10497D01*
X10839D02*
Y33470D01*
X10539D02*
X10839D01*
X10539Y32820D02*
Y33470D01*
Y32820D02*
X10839D01*
X11181D02*
Y33470D01*
X10881D02*
X11181D01*
X10881Y32820D02*
Y33470D01*
Y32820D02*
X11181D01*
X9129D02*
Y33470D01*
X8829D02*
X9129D01*
X8829Y32820D02*
Y33470D01*
Y32820D02*
X9129D01*
X11523D02*
Y33470D01*
X11223D02*
X11523D01*
X11223Y32820D02*
Y33470D01*
Y32820D02*
X11523D01*
X11565D02*
X11865D01*
X11565D02*
Y33470D01*
X11865D01*
Y32820D02*
Y33470D01*
X8487Y32820D02*
X8787D01*
X8487D02*
Y33470D01*
X8787D01*
Y32820D02*
Y33470D01*
X21827Y22859D02*
Y23159D01*
X21177Y22859D02*
X21827D01*
X21177D02*
Y23159D01*
X21827D01*
X21045Y21306D02*
Y21956D01*
Y21306D02*
X21345D01*
Y21956D01*
X21045D02*
X21345D01*
X21929Y22871D02*
Y23170D01*
X22579D01*
Y22871D02*
Y23170D01*
X21929Y22871D02*
X22579D01*
X21399Y19193D02*
X22049D01*
X21399Y18893D02*
Y19193D01*
Y18893D02*
X22049D01*
Y19193D01*
X8729Y33746D02*
Y34396D01*
Y33746D02*
X9029D01*
Y34396D01*
X8729D02*
X9029D01*
X9468Y33746D02*
Y34396D01*
Y33746D02*
X9768D01*
Y34396D01*
X9468D02*
X9768D01*
X8346Y33746D02*
Y34396D01*
Y33746D02*
X8646D01*
Y34396D01*
X8346D02*
X8646D01*
X7582Y33746D02*
Y34396D01*
Y33746D02*
X7882D01*
Y34396D01*
X7582D02*
X7882D01*
X7964Y33746D02*
Y34396D01*
Y33746D02*
X8264D01*
Y34396D01*
X7964D02*
X8264D01*
X9111Y33746D02*
Y34396D01*
Y33746D02*
X9411D01*
Y34396D01*
X9111D02*
X9411D01*
X3178Y37961D02*
X3478D01*
X3178D02*
Y38611D01*
X3478D01*
Y37961D02*
Y38611D01*
X5958Y39541D02*
Y39841D01*
X5308Y39541D02*
X5958D01*
X5308D02*
Y39841D01*
X5958D01*
X5308Y38822D02*
X5958D01*
Y39122D01*
X5308D02*
X5958D01*
X5308Y38822D02*
Y39122D01*
X4370Y37102D02*
Y37752D01*
X4070D02*
X4370D01*
X4070Y37102D02*
Y37752D01*
Y37102D02*
X4370D01*
X5308Y39181D02*
Y39481D01*
X5958D01*
Y39181D02*
Y39481D01*
X5308Y39181D02*
X5958D01*
X11199Y33699D02*
Y34349D01*
Y33699D02*
X11499D01*
Y34349D01*
X11199D02*
X11499D01*
X8053Y31077D02*
Y31377D01*
X7403Y31077D02*
X8053D01*
X7403D02*
Y31377D01*
X8053D01*
X7403Y28138D02*
Y28438D01*
X8053D01*
Y28138D02*
Y28438D01*
X7403Y28138D02*
X8053D01*
X7403Y29444D02*
Y29745D01*
X8053D01*
Y29444D02*
Y29745D01*
X7403Y29444D02*
X8053D01*
X7403Y28465D02*
Y28765D01*
X8053D01*
Y28465D02*
Y28765D01*
X7403Y28465D02*
X8053D01*
X7403Y32357D02*
X8053D01*
X7403Y32057D02*
Y32357D01*
Y32057D02*
X8053D01*
Y32357D01*
X8103Y32820D02*
Y33470D01*
X7803D02*
X8103D01*
X7803Y32820D02*
Y33470D01*
Y32820D02*
X8103D01*
X11548Y34349D02*
X11848D01*
Y33699D02*
Y34349D01*
X11548Y33699D02*
X11848D01*
X11548D02*
Y34349D01*
X11911Y34350D02*
X12211D01*
Y33700D02*
Y34350D01*
X11911Y33700D02*
X12211D01*
X11911D02*
Y34350D01*
X7403Y28791D02*
X8053D01*
Y29091D01*
X7403D02*
X8053D01*
X7403Y28791D02*
Y29091D01*
Y29418D02*
X8053D01*
X7403Y29118D02*
Y29418D01*
Y29118D02*
X8053D01*
Y29418D01*
X8903Y31036D02*
Y31336D01*
X8253Y31036D02*
X8903D01*
X8253D02*
Y31336D01*
X8903D01*
X8445Y32820D02*
Y33470D01*
X8145D02*
X8445D01*
X8145Y32820D02*
Y33470D01*
Y32820D02*
X8445D01*
X7403Y32030D02*
X8053D01*
X7403Y31730D02*
Y32030D01*
Y31730D02*
X8053D01*
Y32030D01*
X7403Y31704D02*
X8053D01*
X7403Y31404D02*
Y31704D01*
Y31404D02*
X8053D01*
Y31704D01*
X7403Y30751D02*
X8053D01*
Y31051D01*
X7403D02*
X8053D01*
X7403Y30751D02*
Y31051D01*
Y30724D02*
X8053D01*
X7403Y30424D02*
Y30724D01*
Y30424D02*
X8053D01*
Y30724D01*
X7403Y30098D02*
X8053D01*
Y30398D01*
X7403D02*
X8053D01*
X7403Y30098D02*
Y30398D01*
Y29771D02*
X8053D01*
Y30071D01*
X7403D02*
X8053D01*
X7403Y29771D02*
Y30071D01*
X6298Y32565D02*
Y32865D01*
X6948D01*
Y32565D02*
Y32865D01*
X6298Y32565D02*
X6948D01*
X6304Y32208D02*
Y32508D01*
X6954D01*
Y32208D02*
Y32508D01*
X6304Y32208D02*
X6954D01*
X6301Y31177D02*
Y31477D01*
X6951D01*
Y31177D02*
Y31477D01*
X6301Y31177D02*
X6951D01*
X6305Y30838D02*
Y31138D01*
X6955D01*
Y30838D02*
Y31138D01*
X6305Y30838D02*
X6955D01*
X6305Y30492D02*
Y30792D01*
X6955D01*
Y30492D02*
Y30792D01*
X6305Y30492D02*
X6955D01*
X6302Y30146D02*
Y30446D01*
X6952D01*
Y30146D02*
Y30446D01*
X6302Y30146D02*
X6952D01*
X6305Y28079D02*
Y28379D01*
X6955D01*
Y28079D02*
Y28379D01*
X6305Y28079D02*
X6955D01*
X6305Y28426D02*
Y28726D01*
X6955D01*
Y28426D02*
Y28726D01*
X6305Y28426D02*
X6955D01*
X6305Y28771D02*
Y29071D01*
X6955D01*
Y28771D02*
Y29071D01*
X6305Y28771D02*
X6955D01*
X6303Y29125D02*
Y29425D01*
X6953D01*
Y29125D02*
Y29425D01*
X6303Y29125D02*
X6953D01*
X10850Y34349D02*
X11150D01*
Y33699D02*
Y34349D01*
X10850Y33699D02*
X11150D01*
X10850D02*
Y34349D01*
X10502D02*
X10802D01*
Y33699D02*
Y34349D01*
X10502Y33699D02*
X10802D01*
X10502D02*
Y34349D01*
X17145Y35403D02*
Y35703D01*
X17795D01*
Y35403D02*
Y35703D01*
X17145Y35403D02*
X17795D01*
X18020Y35514D02*
X18320D01*
Y34864D02*
Y35514D01*
X18020Y34864D02*
X18320D01*
X18020D02*
Y35514D01*
X26014Y27478D02*
Y28128D01*
X25714D02*
X26014D01*
X25714Y27478D02*
Y28128D01*
Y27478D02*
X26014D01*
X22028Y34755D02*
X22678D01*
Y35055D01*
X22028D02*
X22678D01*
X22028Y34755D02*
Y35055D01*
X22923Y34071D02*
X23573D01*
Y34371D01*
X22923D02*
X23573D01*
X22923Y34071D02*
Y34371D01*
X25406Y32985D02*
Y33635D01*
Y32985D02*
X25706D01*
Y33635D01*
X25406D02*
X25706D01*
X25698Y31828D02*
Y32478D01*
Y31828D02*
X25998D01*
Y32478D01*
X25698D02*
X25998D01*
X26088Y30868D02*
Y31518D01*
X25788D02*
X26088D01*
X25788Y30868D02*
Y31518D01*
Y30868D02*
X26088D01*
X21840Y31349D02*
X22490D01*
Y31649D01*
X21840D02*
X22490D01*
X21840Y31349D02*
Y31649D01*
X21833Y31292D02*
X22483D01*
X21833Y30992D02*
Y31292D01*
Y30992D02*
X22483D01*
Y31292D01*
X20640Y32619D02*
X21290D01*
Y32919D01*
X20640D02*
X21290D01*
X20640Y32619D02*
Y32919D01*
X18342Y33341D02*
Y33991D01*
Y33341D02*
X18642D01*
Y33991D01*
X18342D02*
X18642D01*
X18302Y31840D02*
Y32490D01*
Y31840D02*
X18602D01*
Y32490D01*
X18302D02*
X18602D01*
X17808Y28290D02*
Y28940D01*
X17507D02*
X17808D01*
X17507Y28290D02*
Y28940D01*
Y28290D02*
X17808D01*
X20547Y28885D02*
Y29535D01*
Y28885D02*
X20847D01*
Y29535D01*
X20547D02*
X20847D01*
X21824Y29320D02*
X22474D01*
X21824Y29020D02*
Y29320D01*
Y29020D02*
X22474D01*
Y29320D01*
X22175Y28927D02*
X22475D01*
Y28277D02*
Y28927D01*
X22175Y28277D02*
X22475D01*
X22175D02*
Y28927D01*
X23409Y28634D02*
X24059D01*
Y28934D01*
X23409D02*
X24059D01*
X23409Y28634D02*
Y28934D01*
X18779Y29138D02*
X19429D01*
Y29438D01*
X18779D02*
X19429D01*
X18779Y29138D02*
Y29438D01*
X18608Y27317D02*
Y27967D01*
X18308D02*
X18608D01*
X18308Y27317D02*
Y27967D01*
Y27317D02*
X18608D01*
X19051Y27373D02*
X19701D01*
X19051Y27073D02*
Y27373D01*
Y27073D02*
X19701D01*
Y27373D01*
X20674Y27474D02*
X21324D01*
Y27774D01*
X20674D02*
X21324D01*
X20674Y27474D02*
Y27774D01*
X21779Y26696D02*
X22429D01*
Y26996D01*
X21779D02*
X22429D01*
X21779Y26696D02*
Y26996D01*
X23294Y26708D02*
Y27358D01*
X22994D02*
X23294D01*
X22994Y26708D02*
Y27358D01*
Y26708D02*
X23294D01*
X23412Y26278D02*
X24062D01*
Y26578D01*
X23412D02*
X24062D01*
X23412Y26278D02*
Y26578D01*
X24971Y26328D02*
Y26978D01*
Y26328D02*
X25271D01*
Y26978D01*
X24971D02*
X25271D01*
X24455Y27549D02*
Y28199D01*
Y27549D02*
X24755D01*
Y28199D01*
X24455D02*
X24755D01*
X21130Y33326D02*
X21780D01*
Y33626D01*
X21130D02*
X21780D01*
X21130Y33326D02*
Y33626D01*
X51594Y44256D02*
X51894D01*
Y43606D02*
Y44256D01*
X51594Y43606D02*
X51894D01*
X51594D02*
Y44256D01*
X57831Y18081D02*
Y18731D01*
X57531D02*
X57831D01*
X57531Y18081D02*
Y18731D01*
Y18081D02*
X57831D01*
X57538Y21231D02*
Y21881D01*
Y21231D02*
X57838D01*
Y21881D01*
X57538D02*
X57838D01*
X56548Y21791D02*
X56848D01*
X56548D02*
Y22441D01*
X56848D01*
Y21791D02*
Y22441D01*
X56186Y22439D02*
X56486D01*
Y21789D02*
Y22439D01*
X56186Y21789D02*
X56486D01*
X56186D02*
Y22439D01*
X57714Y19247D02*
Y19897D01*
Y19247D02*
X58014D01*
Y19897D01*
X57714D02*
X58014D01*
X58021Y20072D02*
Y20722D01*
X57721D02*
X58021D01*
X57721Y20072D02*
Y20722D01*
Y20072D02*
X58021D01*
X30980Y12852D02*
Y13502D01*
X30680D02*
X30980D01*
X30680Y12852D02*
Y13502D01*
Y12852D02*
X30980D01*
X29191Y13012D02*
X29491D01*
Y12362D02*
Y13012D01*
X29191Y12362D02*
X29491D01*
X29191D02*
Y13012D01*
X28501Y7717D02*
X29151D01*
Y8017D01*
X28501D02*
X29151D01*
X28501Y7717D02*
Y8017D01*
X32961Y9487D02*
X33611D01*
Y9787D01*
X32961D02*
X33611D01*
X32961Y9487D02*
Y9787D01*
X2837Y64599D02*
X4137D01*
X2837Y63299D02*
X4137D01*
Y64599D01*
X2837Y63299D02*
Y64599D01*
X38722Y69393D02*
X40022D01*
X38722Y68093D02*
X40022D01*
Y69393D01*
X38722Y68093D02*
Y69393D01*
X1350Y2650D02*
X2650D01*
X1350Y1350D02*
X2650D01*
Y2650D01*
X1350Y1350D02*
Y2650D01*
X52909Y4184D02*
X52950Y4226D01*
X53034D01*
X53075Y4184D01*
Y4018D01*
X53034Y3976D01*
X52950D01*
X52909Y4018D01*
X52659Y3976D02*
X52825D01*
X52659Y4143D01*
Y4184D01*
X52700Y4226D01*
X52784D01*
X52825Y4184D01*
X52575Y3976D02*
X52492D01*
X52534D01*
Y4226D01*
X52575Y4184D01*
X52367Y4018D02*
X52326Y3976D01*
X52242D01*
X52201Y4018D01*
Y4184D01*
X52242Y4226D01*
X52326D01*
X52367Y4184D01*
Y4143D01*
X52326Y4101D01*
X52201D01*
X57738Y6216D02*
X57988D01*
Y6341D01*
X57946Y6382D01*
X57863D01*
X57821Y6341D01*
Y6216D01*
Y6299D02*
X57738Y6382D01*
Y6466D02*
Y6549D01*
Y6507D01*
X57988D01*
X57946Y6466D01*
Y6674D02*
X57988Y6715D01*
Y6799D01*
X57946Y6840D01*
X57904D01*
X57863Y6799D01*
Y6757D01*
Y6799D01*
X57821Y6840D01*
X57779D01*
X57738Y6799D01*
Y6715D01*
X57779Y6674D01*
X57738Y6924D02*
Y7007D01*
Y6965D01*
X57988D01*
X57946Y6924D01*
X57217Y7236D02*
X57259Y7277D01*
X57342D01*
X57384Y7236D01*
Y7069D01*
X57342Y7027D01*
X57259D01*
X57217Y7069D01*
X56968Y7027D02*
X57134D01*
X56968Y7194D01*
Y7236D01*
X57009Y7277D01*
X57092D01*
X57134Y7236D01*
X56884Y7027D02*
X56801D01*
X56843D01*
Y7277D01*
X56884Y7236D01*
X56676Y7027D02*
X56593D01*
X56634D01*
Y7277D01*
X56676Y7236D01*
X57318Y6104D02*
X57360Y6145D01*
X57443D01*
X57485Y6104D01*
Y5937D01*
X57443Y5896D01*
X57360D01*
X57318Y5937D01*
X57068Y5896D02*
X57235D01*
X57068Y6062D01*
Y6104D01*
X57110Y6145D01*
X57193D01*
X57235Y6104D01*
X56985Y5896D02*
X56902D01*
X56943D01*
Y6145D01*
X56985Y6104D01*
X56777D02*
X56735Y6145D01*
X56652D01*
X56610Y6104D01*
Y5937D01*
X56652Y5896D01*
X56735D01*
X56777Y5937D01*
Y6104D01*
X10206Y34967D02*
X10248Y34925D01*
Y34842D01*
X10206Y34800D01*
X10040D01*
X9998Y34842D01*
Y34925D01*
X10040Y34967D01*
X9998Y35217D02*
Y35050D01*
X10165Y35217D01*
X10206D01*
X10248Y35175D01*
Y35092D01*
X10206Y35050D01*
X10248Y35467D02*
X10206Y35384D01*
X10123Y35300D01*
X10040D01*
X9998Y35342D01*
Y35425D01*
X10040Y35467D01*
X10081D01*
X10123Y35425D01*
Y35300D01*
X10040Y35550D02*
X9998Y35592D01*
Y35675D01*
X10040Y35717D01*
X10206D01*
X10248Y35675D01*
Y35592D01*
X10206Y35550D01*
X10165D01*
X10123Y35592D01*
Y35717D01*
X10005Y32063D02*
X10255D01*
Y32188D01*
X10213Y32229D01*
X10130D01*
X10088Y32188D01*
Y32063D01*
Y32146D02*
X10005Y32229D01*
X10255Y32313D02*
Y32479D01*
X10213D01*
X10046Y32313D01*
X10005D01*
X10213Y32563D02*
X10255Y32604D01*
Y32688D01*
X10213Y32729D01*
X10046D01*
X10005Y32688D01*
Y32604D01*
X10046Y32563D01*
X10213D01*
X22847Y19489D02*
X22639D01*
X22597Y19530D01*
Y19614D01*
X22639Y19655D01*
X22847D01*
X22639Y19739D02*
X22597Y19780D01*
Y19864D01*
X22639Y19905D01*
X22805D01*
X22847Y19864D01*
Y19780D01*
X22805Y19739D01*
X22764D01*
X22722Y19780D01*
Y19905D01*
X21899Y23273D02*
Y23065D01*
X21858Y23023D01*
X21774D01*
X21733Y23065D01*
Y23273D01*
X21649Y23231D02*
X21608Y23273D01*
X21524D01*
X21483Y23231D01*
Y23190D01*
X21524Y23148D01*
X21483Y23106D01*
Y23065D01*
X21524Y23023D01*
X21608D01*
X21649Y23065D01*
Y23106D01*
X21608Y23148D01*
X21649Y23190D01*
Y23231D01*
X21608Y23148D02*
X21524D01*
X5986Y37191D02*
Y36983D01*
X5944Y36942D01*
X5861D01*
X5819Y36983D01*
Y37191D01*
X5569D02*
X5652Y37150D01*
X5736Y37066D01*
Y36983D01*
X5694Y36942D01*
X5611D01*
X5569Y36983D01*
Y37025D01*
X5611Y37066D01*
X5736D01*
X17785Y35802D02*
Y36051D01*
X17660D01*
X17619Y36010D01*
Y35927D01*
X17660Y35885D01*
X17785D01*
X17702D02*
X17619Y35802D01*
X17536D02*
X17452D01*
X17494D01*
Y36051D01*
X17536Y36010D01*
X17327Y36051D02*
X17161D01*
Y36010D01*
X17327Y35843D01*
Y35802D01*
X17077Y36010D02*
X17036Y36051D01*
X16952D01*
X16911Y36010D01*
Y35968D01*
X16952Y35927D01*
X16911Y35885D01*
Y35843D01*
X16952Y35802D01*
X17036D01*
X17077Y35843D01*
Y35885D01*
X17036Y35927D01*
X17077Y35968D01*
Y36010D01*
X17036Y35927D02*
X16952D01*
X18308Y36467D02*
X18058D01*
Y36342D01*
X18099Y36300D01*
X18183D01*
X18224Y36342D01*
Y36467D01*
Y36383D02*
X18308Y36300D01*
Y36217D02*
Y36134D01*
Y36175D01*
X18058D01*
X18099Y36217D01*
X18058Y36009D02*
Y35842D01*
X18099D01*
X18266Y36009D01*
X18308D01*
X18058Y35759D02*
Y35592D01*
X18099D01*
X18266Y35759D01*
X18308D01*
X56461Y23407D02*
X56211D01*
Y23282D01*
X56253Y23240D01*
X56336D01*
X56378Y23282D01*
Y23407D01*
Y23324D02*
X56461Y23240D01*
Y23157D02*
Y23074D01*
Y23115D01*
X56211D01*
X56253Y23157D01*
X56211Y22782D02*
Y22949D01*
X56336D01*
X56294Y22865D01*
Y22824D01*
X56336Y22782D01*
X56419D01*
X56461Y22824D01*
Y22907D01*
X56419Y22949D01*
X56211Y22532D02*
Y22699D01*
X56336D01*
X56294Y22615D01*
Y22574D01*
X56336Y22532D01*
X56419D01*
X56461Y22574D01*
Y22657D01*
X56419Y22699D01*
X56768Y23433D02*
X56518D01*
Y23308D01*
X56559Y23266D01*
X56643D01*
X56684Y23308D01*
Y23433D01*
Y23350D02*
X56768Y23266D01*
Y23183D02*
Y23100D01*
Y23141D01*
X56518D01*
X56559Y23183D01*
X56518Y22808D02*
Y22975D01*
X56643D01*
X56601Y22892D01*
Y22850D01*
X56643Y22808D01*
X56726D01*
X56768Y22850D01*
Y22933D01*
X56726Y22975D01*
X56768Y22558D02*
Y22725D01*
X56601Y22558D01*
X56559D01*
X56518Y22600D01*
Y22683D01*
X56559Y22725D01*
X8869Y30096D02*
Y30346D01*
X8744D01*
X8703Y30305D01*
Y30221D01*
X8744Y30180D01*
X8869D01*
X8786D02*
X8703Y30096D01*
X8453Y30346D02*
X8536Y30305D01*
X8619Y30221D01*
Y30138D01*
X8578Y30096D01*
X8494D01*
X8453Y30138D01*
Y30180D01*
X8494Y30221D01*
X8619D01*
X8369Y30138D02*
X8328Y30096D01*
X8244D01*
X8203Y30138D01*
Y30305D01*
X8244Y30346D01*
X8328D01*
X8369Y30305D01*
Y30263D01*
X8328Y30221D01*
X8203D01*
X8869Y29768D02*
Y30018D01*
X8744D01*
X8703Y29976D01*
Y29893D01*
X8744Y29851D01*
X8869D01*
X8786D02*
X8703Y29768D01*
X8453Y30018D02*
X8536Y29976D01*
X8619Y29893D01*
Y29810D01*
X8578Y29768D01*
X8494D01*
X8453Y29810D01*
Y29851D01*
X8494Y29893D01*
X8619D01*
X8369Y29976D02*
X8328Y30018D01*
X8244D01*
X8203Y29976D01*
Y29935D01*
X8244Y29893D01*
X8203Y29851D01*
Y29810D01*
X8244Y29768D01*
X8328D01*
X8369Y29810D01*
Y29851D01*
X8328Y29893D01*
X8369Y29935D01*
Y29976D01*
X8328Y29893D02*
X8244D01*
X12427Y32063D02*
X12677D01*
Y32188D01*
X12635Y32229D01*
X12552D01*
X12511Y32188D01*
Y32063D01*
Y32146D02*
X12427Y32229D01*
X12677Y32479D02*
X12635Y32396D01*
X12552Y32313D01*
X12469D01*
X12427Y32354D01*
Y32438D01*
X12469Y32479D01*
X12511D01*
X12552Y32438D01*
Y32313D01*
X12677Y32563D02*
Y32729D01*
X12635D01*
X12469Y32563D01*
X12427D01*
X8869Y29445D02*
Y29695D01*
X8744D01*
X8703Y29653D01*
Y29570D01*
X8744Y29528D01*
X8869D01*
X8786D02*
X8703Y29445D01*
X8453Y29695D02*
X8536Y29653D01*
X8619Y29570D01*
Y29487D01*
X8578Y29445D01*
X8494D01*
X8453Y29487D01*
Y29528D01*
X8494Y29570D01*
X8619D01*
X8203Y29695D02*
X8286Y29653D01*
X8369Y29570D01*
Y29487D01*
X8328Y29445D01*
X8244D01*
X8203Y29487D01*
Y29528D01*
X8244Y29570D01*
X8369D01*
X8876Y28773D02*
Y29023D01*
X8751D01*
X8709Y28981D01*
Y28898D01*
X8751Y28856D01*
X8876D01*
X8792D02*
X8709Y28773D01*
X8459Y29023D02*
X8543Y28981D01*
X8626Y28898D01*
Y28815D01*
X8584Y28773D01*
X8501D01*
X8459Y28815D01*
Y28856D01*
X8501Y28898D01*
X8626D01*
X8209Y29023D02*
X8376D01*
Y28898D01*
X8293Y28940D01*
X8251D01*
X8209Y28898D01*
Y28815D01*
X8251Y28773D01*
X8334D01*
X8376Y28815D01*
X8872Y28417D02*
Y28667D01*
X8747D01*
X8706Y28626D01*
Y28542D01*
X8747Y28501D01*
X8872D01*
X8789D02*
X8706Y28417D01*
X8456Y28667D02*
X8539Y28626D01*
X8622Y28542D01*
Y28459D01*
X8581Y28417D01*
X8497D01*
X8456Y28459D01*
Y28501D01*
X8497Y28542D01*
X8622D01*
X8248Y28417D02*
Y28667D01*
X8372Y28542D01*
X8206D01*
X8876Y28077D02*
Y28327D01*
X8751D01*
X8710Y28285D01*
Y28202D01*
X8751Y28160D01*
X8876D01*
X8793D02*
X8710Y28077D01*
X8460Y28327D02*
X8543Y28285D01*
X8626Y28202D01*
Y28119D01*
X8585Y28077D01*
X8501D01*
X8460Y28119D01*
Y28160D01*
X8501Y28202D01*
X8626D01*
X8376Y28285D02*
X8335Y28327D01*
X8251D01*
X8210Y28285D01*
Y28244D01*
X8251Y28202D01*
X8293D01*
X8251D01*
X8210Y28160D01*
Y28119D01*
X8251Y28077D01*
X8335D01*
X8376Y28119D01*
X8869Y30749D02*
Y30999D01*
X8744D01*
X8703Y30957D01*
Y30874D01*
X8744Y30832D01*
X8869D01*
X8786D02*
X8703Y30749D01*
X8453Y30999D02*
X8536Y30957D01*
X8619Y30874D01*
Y30790D01*
X8578Y30749D01*
X8494D01*
X8453Y30790D01*
Y30832D01*
X8494Y30874D01*
X8619D01*
X8203Y30749D02*
X8369D01*
X8203Y30915D01*
Y30957D01*
X8244Y30999D01*
X8328D01*
X8369Y30957D01*
X8853Y29117D02*
Y29367D01*
X8728D01*
X8686Y29326D01*
Y29242D01*
X8728Y29201D01*
X8853D01*
X8769D02*
X8686Y29117D01*
X8436Y29367D02*
X8603D01*
Y29242D01*
X8519Y29284D01*
X8478D01*
X8436Y29242D01*
Y29159D01*
X8478Y29117D01*
X8561D01*
X8603Y29159D01*
X8353Y29367D02*
X8186D01*
Y29326D01*
X8353Y29159D01*
Y29117D01*
X9313Y32063D02*
X9562D01*
Y32188D01*
X9521Y32229D01*
X9437D01*
X9396Y32188D01*
Y32063D01*
Y32146D02*
X9313Y32229D01*
X9562Y32479D02*
Y32313D01*
X9437D01*
X9479Y32396D01*
Y32438D01*
X9437Y32479D01*
X9354D01*
X9313Y32438D01*
Y32354D01*
X9354Y32313D01*
X9562Y32729D02*
X9521Y32646D01*
X9437Y32563D01*
X9354D01*
X9313Y32604D01*
Y32688D01*
X9354Y32729D01*
X9396D01*
X9437Y32688D01*
Y32563D01*
X8911Y31387D02*
Y31637D01*
X8786D01*
X8744Y31595D01*
Y31512D01*
X8786Y31470D01*
X8911D01*
X8828D02*
X8744Y31387D01*
X8494Y31637D02*
X8661D01*
Y31512D01*
X8578Y31554D01*
X8536D01*
X8494Y31512D01*
Y31429D01*
X8536Y31387D01*
X8619D01*
X8661Y31429D01*
X8245Y31637D02*
X8411D01*
Y31512D01*
X8328Y31554D01*
X8286D01*
X8245Y31512D01*
Y31429D01*
X8286Y31387D01*
X8370D01*
X8411Y31429D01*
X12081Y32063D02*
X12331D01*
Y32188D01*
X12289Y32229D01*
X12206D01*
X12164Y32188D01*
Y32063D01*
Y32146D02*
X12081Y32229D01*
X12331Y32479D02*
Y32313D01*
X12206D01*
X12248Y32396D01*
Y32438D01*
X12206Y32479D01*
X12123D01*
X12081Y32438D01*
Y32354D01*
X12123Y32313D01*
X12081Y32688D02*
X12331D01*
X12206Y32563D01*
Y32729D01*
X10697Y32063D02*
X10947D01*
Y32188D01*
X10905Y32229D01*
X10822D01*
X10780Y32188D01*
Y32063D01*
Y32146D02*
X10697Y32229D01*
X10947Y32479D02*
Y32313D01*
X10822D01*
X10863Y32396D01*
Y32438D01*
X10822Y32479D01*
X10738D01*
X10697Y32438D01*
Y32354D01*
X10738Y32313D01*
X10905Y32563D02*
X10947Y32604D01*
Y32688D01*
X10905Y32729D01*
X10863D01*
X10822Y32688D01*
Y32646D01*
Y32688D01*
X10780Y32729D01*
X10738D01*
X10697Y32688D01*
Y32604D01*
X10738Y32563D01*
X9704Y31058D02*
Y31308D01*
X9579D01*
X9537Y31267D01*
Y31183D01*
X9579Y31142D01*
X9704D01*
X9620D02*
X9537Y31058D01*
X9287Y31308D02*
X9454D01*
Y31183D01*
X9370Y31225D01*
X9329D01*
X9287Y31183D01*
Y31100D01*
X9329Y31058D01*
X9412D01*
X9454Y31100D01*
X9037Y31058D02*
X9204D01*
X9037Y31225D01*
Y31267D01*
X9079Y31308D01*
X9162D01*
X9204Y31267D01*
X8983Y32068D02*
X9233D01*
Y32193D01*
X9191Y32235D01*
X9108D01*
X9066Y32193D01*
Y32068D01*
Y32152D02*
X8983Y32235D01*
X9233Y32485D02*
Y32318D01*
X9108D01*
X9150Y32402D01*
Y32443D01*
X9108Y32485D01*
X9025D01*
X8983Y32443D01*
Y32360D01*
X9025Y32318D01*
X8983Y32568D02*
Y32652D01*
Y32610D01*
X9233D01*
X9191Y32568D01*
X8869Y30424D02*
Y30674D01*
X8744D01*
X8703Y30632D01*
Y30549D01*
X8744Y30507D01*
X8869D01*
X8786D02*
X8703Y30424D01*
X8453Y30674D02*
X8619D01*
Y30549D01*
X8536Y30591D01*
X8494D01*
X8453Y30549D01*
Y30466D01*
X8494Y30424D01*
X8578D01*
X8619Y30466D01*
X8369Y30632D02*
X8328Y30674D01*
X8244D01*
X8203Y30632D01*
Y30466D01*
X8244Y30424D01*
X8328D01*
X8369Y30466D01*
Y30632D01*
X10351Y32063D02*
X10601D01*
Y32188D01*
X10559Y32229D01*
X10476D01*
X10434Y32188D01*
Y32063D01*
Y32146D02*
X10351Y32229D01*
Y32438D02*
X10601D01*
X10476Y32313D01*
Y32479D01*
X10392Y32563D02*
X10351Y32604D01*
Y32688D01*
X10392Y32729D01*
X10559D01*
X10601Y32688D01*
Y32604D01*
X10559Y32563D01*
X10517D01*
X10476Y32604D01*
Y32729D01*
X7462Y32707D02*
X7712D01*
Y32832D01*
X7670Y32874D01*
X7587D01*
X7545Y32832D01*
Y32707D01*
Y32791D02*
X7462Y32874D01*
Y33082D02*
X7712D01*
X7587Y32957D01*
Y33124D01*
X7670Y33207D02*
X7712Y33249D01*
Y33332D01*
X7670Y33374D01*
X7628D01*
X7587Y33332D01*
X7545Y33374D01*
X7504D01*
X7462Y33332D01*
Y33249D01*
X7504Y33207D01*
X7545D01*
X7587Y33249D01*
X7628Y33207D01*
X7670D01*
X7587Y33249D02*
Y33332D01*
X11043Y32063D02*
X11293D01*
Y32188D01*
X11251Y32229D01*
X11168D01*
X11126Y32188D01*
Y32063D01*
Y32146D02*
X11043Y32229D01*
Y32438D02*
X11293D01*
X11168Y32313D01*
Y32479D01*
X11293Y32563D02*
Y32729D01*
X11251D01*
X11085Y32563D01*
X11043D01*
X7091Y32718D02*
X7341D01*
Y32843D01*
X7300Y32884D01*
X7216D01*
X7175Y32843D01*
Y32718D01*
Y32801D02*
X7091Y32884D01*
Y33093D02*
X7341D01*
X7216Y32968D01*
Y33134D01*
X7341Y33384D02*
X7300Y33301D01*
X7216Y33218D01*
X7133D01*
X7091Y33259D01*
Y33343D01*
X7133Y33384D01*
X7175D01*
X7216Y33343D01*
Y33218D01*
X11389Y32063D02*
X11639D01*
Y32188D01*
X11597Y32229D01*
X11514D01*
X11472Y32188D01*
Y32063D01*
Y32146D02*
X11389Y32229D01*
Y32438D02*
X11639D01*
X11514Y32313D01*
Y32479D01*
X11639Y32729D02*
Y32563D01*
X11514D01*
X11556Y32646D01*
Y32688D01*
X11514Y32729D01*
X11431D01*
X11389Y32688D01*
Y32604D01*
X11431Y32563D01*
X8872Y31754D02*
Y32004D01*
X8747D01*
X8706Y31963D01*
Y31879D01*
X8747Y31838D01*
X8872D01*
X8789D02*
X8706Y31754D01*
X8497D02*
Y32004D01*
X8622Y31879D01*
X8456D01*
X8247Y31754D02*
Y32004D01*
X8372Y31879D01*
X8206D01*
X11735Y32063D02*
X11985D01*
Y32188D01*
X11943Y32229D01*
X11860D01*
X11818Y32188D01*
Y32063D01*
Y32146D02*
X11735Y32229D01*
Y32438D02*
X11985D01*
X11860Y32313D01*
Y32479D01*
X11943Y32563D02*
X11985Y32604D01*
Y32688D01*
X11943Y32729D01*
X11902D01*
X11860Y32688D01*
Y32646D01*
Y32688D01*
X11818Y32729D01*
X11777D01*
X11735Y32688D01*
Y32604D01*
X11777Y32563D01*
X8868Y32083D02*
Y32333D01*
X8743D01*
X8702Y32291D01*
Y32208D01*
X8743Y32166D01*
X8868D01*
X8785D02*
X8702Y32083D01*
X8494D02*
Y32333D01*
X8619Y32208D01*
X8452D01*
X8202Y32083D02*
X8369D01*
X8202Y32250D01*
Y32291D01*
X8244Y32333D01*
X8327D01*
X8369Y32291D01*
X9659Y32063D02*
X9909D01*
Y32188D01*
X9867Y32229D01*
X9784D01*
X9742Y32188D01*
Y32063D01*
Y32146D02*
X9659Y32229D01*
Y32438D02*
X9909D01*
X9784Y32313D01*
Y32479D01*
X9659Y32563D02*
Y32646D01*
Y32604D01*
X9909D01*
X9867Y32563D01*
X34379Y9487D02*
Y9737D01*
X34254D01*
X34213Y9695D01*
Y9612D01*
X34254Y9570D01*
X34379D01*
X34296D02*
X34213Y9487D01*
X34129Y9695D02*
X34088Y9737D01*
X34004D01*
X33963Y9695D01*
Y9653D01*
X34004Y9612D01*
X34046D01*
X34004D01*
X33963Y9570D01*
Y9528D01*
X34004Y9487D01*
X34088D01*
X34129Y9528D01*
X33879D02*
X33838Y9487D01*
X33755D01*
X33713Y9528D01*
Y9695D01*
X33755Y9737D01*
X33838D01*
X33879Y9695D01*
Y9653D01*
X33838Y9612D01*
X33713D01*
X30944Y14262D02*
X30694D01*
Y14137D01*
X30736Y14095D01*
X30819D01*
X30861Y14137D01*
Y14262D01*
Y14178D02*
X30944Y14095D01*
X30736Y14012D02*
X30694Y13970D01*
Y13887D01*
X30736Y13845D01*
X30778D01*
X30819Y13887D01*
Y13928D01*
Y13887D01*
X30861Y13845D01*
X30903D01*
X30944Y13887D01*
Y13970D01*
X30903Y14012D01*
X30694Y13762D02*
Y13595D01*
X30736D01*
X30903Y13762D01*
X30944D01*
X29948Y12998D02*
X30198D01*
Y13123D01*
X30156Y13165D01*
X30073D01*
X30031Y13123D01*
Y12998D01*
Y13081D02*
X29948Y13165D01*
X30156Y13248D02*
X30198Y13290D01*
Y13373D01*
X30156Y13415D01*
X30115D01*
X30073Y13373D01*
Y13331D01*
Y13373D01*
X30031Y13415D01*
X29990D01*
X29948Y13373D01*
Y13290D01*
X29990Y13248D01*
X30198Y13664D02*
X30156Y13581D01*
X30073Y13498D01*
X29990D01*
X29948Y13539D01*
Y13623D01*
X29990Y13664D01*
X30031D01*
X30073Y13623D01*
Y13498D01*
X28368Y7762D02*
Y8012D01*
X28243D01*
X28201Y7970D01*
Y7887D01*
X28243Y7846D01*
X28368D01*
X28284D02*
X28201Y7762D01*
X28118Y7970D02*
X28076Y8012D01*
X27993D01*
X27951Y7970D01*
Y7929D01*
X27993Y7887D01*
X28034D01*
X27993D01*
X27951Y7846D01*
Y7804D01*
X27993Y7762D01*
X28076D01*
X28118Y7804D01*
X27701Y8012D02*
X27868D01*
Y7887D01*
X27784Y7929D01*
X27743D01*
X27701Y7887D01*
Y7804D01*
X27743Y7762D01*
X27826D01*
X27868Y7804D01*
X28341Y7409D02*
Y7659D01*
X28217D01*
X28175Y7618D01*
Y7534D01*
X28217Y7493D01*
X28341D01*
X28258D02*
X28175Y7409D01*
X28092Y7618D02*
X28050Y7659D01*
X27967D01*
X27925Y7618D01*
Y7576D01*
X27967Y7534D01*
X28008D01*
X27967D01*
X27925Y7493D01*
Y7451D01*
X27967Y7409D01*
X28050D01*
X28092Y7451D01*
X27717Y7409D02*
Y7659D01*
X27842Y7534D01*
X27675D01*
X21207Y23543D02*
Y23293D01*
X21332D01*
X21374Y23334D01*
Y23418D01*
X21332Y23459D01*
X21207D01*
X21291D02*
X21374Y23543D01*
X21457D02*
X21540D01*
X21499D01*
Y23293D01*
X21457Y23334D01*
X21665D02*
X21707Y23293D01*
X21790D01*
X21832Y23334D01*
Y23376D01*
X21790Y23418D01*
X21832Y23459D01*
Y23501D01*
X21790Y23543D01*
X21707D01*
X21665Y23501D01*
Y23459D01*
X21707Y23418D01*
X21665Y23376D01*
Y23334D01*
X21707Y23418D02*
X21790D01*
X21968Y23561D02*
Y23311D01*
X22093D01*
X22134Y23353D01*
Y23436D01*
X22093Y23478D01*
X21968D01*
X22051D02*
X22134Y23561D01*
X22218D02*
X22301D01*
X22259D01*
Y23311D01*
X22218Y23353D01*
X22426Y23311D02*
X22592D01*
Y23353D01*
X22426Y23520D01*
Y23561D01*
X5113Y39225D02*
Y39475D01*
X4988D01*
X4947Y39433D01*
Y39350D01*
X4988Y39308D01*
X5113D01*
X5030D02*
X4947Y39225D01*
X4863D02*
X4780D01*
X4822D01*
Y39475D01*
X4863Y39433D01*
X4655D02*
X4613Y39475D01*
X4530D01*
X4488Y39433D01*
Y39391D01*
X4530Y39350D01*
X4572D01*
X4530D01*
X4488Y39308D01*
Y39266D01*
X4530Y39225D01*
X4613D01*
X4655Y39266D01*
X5092Y39590D02*
Y39840D01*
X4968D01*
X4926Y39798D01*
Y39715D01*
X4968Y39673D01*
X5092D01*
X5009D02*
X4926Y39590D01*
X4843D02*
X4759D01*
X4801D01*
Y39840D01*
X4843Y39798D01*
X4468Y39590D02*
X4634D01*
X4468Y39757D01*
Y39798D01*
X4509Y39840D01*
X4593D01*
X4634Y39798D01*
X3183Y38744D02*
X3433D01*
Y38869D01*
X3391Y38911D01*
X3308D01*
X3266Y38869D01*
Y38744D01*
Y38828D02*
X3183Y38911D01*
X3391Y38994D02*
X3433Y39036D01*
Y39119D01*
X3391Y39161D01*
X3350D01*
X3308Y39119D01*
X3266Y39161D01*
X3225D01*
X3183Y39119D01*
Y39036D01*
X3225Y38994D01*
X3266D01*
X3308Y39036D01*
X3350Y38994D01*
X3391D01*
X3308Y39036D02*
Y39119D01*
X52150Y43118D02*
Y42868D01*
X51984D01*
X51734Y43118D02*
X51817Y43076D01*
X51900Y42993D01*
Y42910D01*
X51859Y42868D01*
X51775D01*
X51734Y42910D01*
Y42951D01*
X51775Y42993D01*
X51900D01*
X6477Y27136D02*
X6436Y27095D01*
X6352D01*
X6311Y27136D01*
Y27303D01*
X6352Y27345D01*
X6436D01*
X6477Y27303D01*
X6727Y27345D02*
X6561D01*
X6727Y27178D01*
Y27136D01*
X6686Y27095D01*
X6602D01*
X6561Y27136D01*
X6810Y27095D02*
X6977D01*
Y27136D01*
X6810Y27303D01*
Y27345D01*
X7060D02*
X7144D01*
X7102D01*
Y27095D01*
X7060Y27136D01*
X12690Y34943D02*
X12732Y34902D01*
Y34818D01*
X12690Y34777D01*
X12524D01*
X12482Y34818D01*
Y34902D01*
X12524Y34943D01*
X12482Y35193D02*
Y35027D01*
X12649Y35193D01*
X12690D01*
X12732Y35152D01*
Y35068D01*
X12690Y35027D01*
X12732Y35277D02*
Y35443D01*
X12690D01*
X12524Y35277D01*
X12482D01*
X12690Y35526D02*
X12732Y35568D01*
Y35651D01*
X12690Y35693D01*
X12524D01*
X12482Y35651D01*
Y35568D01*
X12524Y35526D01*
X12690D01*
X6708Y33875D02*
X6750Y33833D01*
Y33750D01*
X6708Y33708D01*
X6542D01*
X6500Y33750D01*
Y33833D01*
X6542Y33875D01*
X6500Y34125D02*
Y33958D01*
X6667Y34125D01*
X6708D01*
X6750Y34083D01*
Y34000D01*
X6708Y33958D01*
X6750Y34375D02*
X6708Y34292D01*
X6625Y34208D01*
X6542D01*
X6500Y34250D01*
Y34333D01*
X6542Y34375D01*
X6584D01*
X6625Y34333D01*
Y34208D01*
X6708Y34458D02*
X6750Y34500D01*
Y34583D01*
X6708Y34625D01*
X6667D01*
X6625Y34583D01*
X6584Y34625D01*
X6542D01*
X6500Y34583D01*
Y34500D01*
X6542Y34458D01*
X6584D01*
X6625Y34500D01*
X6667Y34458D01*
X6708D01*
X6625Y34500D02*
Y34583D01*
X5655Y31925D02*
X5697Y31967D01*
X5780D01*
X5822Y31925D01*
Y31759D01*
X5780Y31717D01*
X5697D01*
X5655Y31759D01*
X5405Y31717D02*
X5572D01*
X5405Y31883D01*
Y31925D01*
X5447Y31967D01*
X5530D01*
X5572Y31925D01*
X5155Y31967D02*
X5239Y31925D01*
X5322Y31842D01*
Y31759D01*
X5280Y31717D01*
X5197D01*
X5155Y31759D01*
Y31800D01*
X5197Y31842D01*
X5322D01*
X5072Y31967D02*
X4905D01*
Y31925D01*
X5072Y31759D01*
Y31717D01*
X5699Y29852D02*
X5741Y29894D01*
X5824D01*
X5866Y29852D01*
Y29685D01*
X5824Y29644D01*
X5741D01*
X5699Y29685D01*
X5449Y29644D02*
X5616D01*
X5449Y29810D01*
Y29852D01*
X5491Y29894D01*
X5574D01*
X5616Y29852D01*
X5199Y29894D02*
X5282Y29852D01*
X5366Y29769D01*
Y29685D01*
X5324Y29644D01*
X5241D01*
X5199Y29685D01*
Y29727D01*
X5241Y29769D01*
X5366D01*
X4949Y29894D02*
X5033Y29852D01*
X5116Y29769D01*
Y29685D01*
X5074Y29644D01*
X4991D01*
X4949Y29685D01*
Y29727D01*
X4991Y29769D01*
X5116D01*
X57380Y20770D02*
X57338Y20812D01*
Y20895D01*
X57380Y20937D01*
X57546D01*
X57588Y20895D01*
Y20812D01*
X57546Y20770D01*
X57588Y20521D02*
Y20687D01*
X57421Y20521D01*
X57380D01*
X57338Y20562D01*
Y20646D01*
X57380Y20687D01*
X57588Y20312D02*
X57338D01*
X57463Y20437D01*
Y20271D01*
X57380Y20187D02*
X57338Y20146D01*
Y20062D01*
X57380Y20021D01*
X57546D01*
X57588Y20062D01*
Y20146D01*
X57546Y20187D01*
X57380D01*
X57340Y19658D02*
X57299Y19700D01*
Y19783D01*
X57340Y19825D01*
X57507D01*
X57549Y19783D01*
Y19700D01*
X57507Y19658D01*
X57549Y19408D02*
Y19575D01*
X57382Y19408D01*
X57340D01*
X57299Y19450D01*
Y19533D01*
X57340Y19575D01*
Y19325D02*
X57299Y19283D01*
Y19200D01*
X57340Y19158D01*
X57382D01*
X57424Y19200D01*
Y19242D01*
Y19200D01*
X57465Y19158D01*
X57507D01*
X57549Y19200D01*
Y19283D01*
X57507Y19325D01*
Y19075D02*
X57549Y19033D01*
Y18950D01*
X57507Y18909D01*
X57340D01*
X57299Y18950D01*
Y19033D01*
X57340Y19075D01*
X57382D01*
X57424Y19033D01*
Y18909D01*
X57631Y22733D02*
X57589Y22774D01*
Y22858D01*
X57631Y22899D01*
X57797D01*
X57839Y22858D01*
Y22774D01*
X57797Y22733D01*
X57839Y22483D02*
Y22649D01*
X57672Y22483D01*
X57631D01*
X57589Y22524D01*
Y22608D01*
X57631Y22649D01*
Y22399D02*
X57589Y22358D01*
Y22275D01*
X57631Y22233D01*
X57672D01*
X57714Y22275D01*
Y22316D01*
Y22275D01*
X57756Y22233D01*
X57797D01*
X57839Y22275D01*
Y22358D01*
X57797Y22399D01*
X57631Y22150D02*
X57589Y22108D01*
Y22025D01*
X57631Y21983D01*
X57672D01*
X57714Y22025D01*
X57756Y21983D01*
X57797D01*
X57839Y22025D01*
Y22108D01*
X57797Y22150D01*
X57756D01*
X57714Y22108D01*
X57672Y22150D01*
X57631D01*
X57714Y22108D02*
Y22025D01*
X57606Y17759D02*
X57564Y17800D01*
Y17884D01*
X57606Y17925D01*
X57773D01*
X57814Y17884D01*
Y17800D01*
X57773Y17759D01*
X57814Y17509D02*
Y17675D01*
X57648Y17509D01*
X57606D01*
X57564Y17550D01*
Y17634D01*
X57606Y17675D01*
Y17425D02*
X57564Y17384D01*
Y17300D01*
X57606Y17259D01*
X57648D01*
X57689Y17300D01*
Y17342D01*
Y17300D01*
X57731Y17259D01*
X57773D01*
X57814Y17300D01*
Y17384D01*
X57773Y17425D01*
X57564Y17176D02*
Y17009D01*
X57606D01*
X57773Y17176D01*
X57814D01*
X59070Y20054D02*
X59029Y20096D01*
Y20179D01*
X59070Y20221D01*
X59237D01*
X59279Y20179D01*
Y20096D01*
X59237Y20054D01*
X59279Y19805D02*
Y19971D01*
X59112Y19805D01*
X59070D01*
X59029Y19846D01*
Y19929D01*
X59070Y19971D01*
Y19721D02*
X59029Y19680D01*
Y19596D01*
X59070Y19555D01*
X59112D01*
X59154Y19596D01*
Y19638D01*
Y19596D01*
X59195Y19555D01*
X59237D01*
X59279Y19596D01*
Y19680D01*
X59237Y19721D01*
X59029Y19305D02*
X59070Y19388D01*
X59154Y19471D01*
X59237D01*
X59279Y19430D01*
Y19346D01*
X59237Y19305D01*
X59195D01*
X59154Y19346D01*
Y19471D01*
X51625Y45091D02*
X51583Y45133D01*
Y45216D01*
X51625Y45258D01*
X51791D01*
X51833Y45216D01*
Y45133D01*
X51791Y45091D01*
X51833Y45008D02*
Y44925D01*
Y44966D01*
X51583D01*
X51625Y45008D01*
X51583Y44800D02*
Y44633D01*
X51625D01*
X51791Y44800D01*
X51833D01*
X51583Y44550D02*
Y44383D01*
X51625D01*
X51791Y44550D01*
X51833D01*
X52716Y45501D02*
X52758Y45543D01*
X52841D01*
X52883Y45501D01*
Y45335D01*
X52841Y45293D01*
X52758D01*
X52716Y45335D01*
X52633Y45293D02*
X52550D01*
X52591D01*
Y45543D01*
X52633Y45501D01*
X52425Y45543D02*
X52258D01*
Y45501D01*
X52425Y45335D01*
Y45293D01*
X52008Y45543D02*
X52091Y45501D01*
X52175Y45418D01*
Y45335D01*
X52133Y45293D01*
X52050D01*
X52008Y45335D01*
Y45376D01*
X52050Y45418D01*
X52175D01*
X11443Y34657D02*
X11485Y34615D01*
Y34532D01*
X11443Y34490D01*
X11276D01*
X11235Y34532D01*
Y34615D01*
X11276Y34657D01*
X11235Y34740D02*
Y34823D01*
Y34782D01*
X11485D01*
X11443Y34740D01*
X11485Y35115D02*
Y34948D01*
X11360D01*
X11401Y35031D01*
Y35073D01*
X11360Y35115D01*
X11276D01*
X11235Y35073D01*
Y34990D01*
X11276Y34948D01*
X11443Y35198D02*
X11485Y35240D01*
Y35323D01*
X11443Y35365D01*
X11276D01*
X11235Y35323D01*
Y35240D01*
X11276Y35198D01*
X11443D01*
X12125Y34660D02*
X12167Y34618D01*
Y34535D01*
X12125Y34494D01*
X11959D01*
X11917Y34535D01*
Y34618D01*
X11959Y34660D01*
X11917Y34743D02*
Y34827D01*
Y34785D01*
X12167D01*
X12125Y34743D01*
X11917Y35077D02*
X12167D01*
X12042Y34952D01*
Y35118D01*
X11959Y35202D02*
X11917Y35243D01*
Y35327D01*
X11959Y35368D01*
X12125D01*
X12167Y35327D01*
Y35243D01*
X12125Y35202D01*
X12084D01*
X12042Y35243D01*
Y35368D01*
X11797Y34684D02*
X11839Y34642D01*
Y34559D01*
X11797Y34517D01*
X11631D01*
X11589Y34559D01*
Y34642D01*
X11631Y34684D01*
X11589Y34767D02*
Y34851D01*
Y34809D01*
X11839D01*
X11797Y34767D01*
X11589Y35100D02*
X11839D01*
X11714Y34975D01*
Y35142D01*
X11797Y35225D02*
X11839Y35267D01*
Y35350D01*
X11797Y35392D01*
X11756D01*
X11714Y35350D01*
X11673Y35392D01*
X11631D01*
X11589Y35350D01*
Y35267D01*
X11631Y35225D01*
X11673D01*
X11714Y35267D01*
X11756Y35225D01*
X11797D01*
X11714Y35267D02*
Y35350D01*
X10700Y34674D02*
X10742Y34632D01*
Y34549D01*
X10700Y34507D01*
X10533D01*
X10492Y34549D01*
Y34632D01*
X10533Y34674D01*
X10492Y34757D02*
Y34841D01*
Y34799D01*
X10742D01*
X10700Y34757D01*
X10492Y35090D02*
X10742D01*
X10617Y34966D01*
Y35132D01*
X10742Y35215D02*
Y35382D01*
X10700D01*
X10533Y35215D01*
X10492D01*
X11070Y34645D02*
X11111Y34603D01*
Y34520D01*
X11070Y34478D01*
X10903D01*
X10861Y34520D01*
Y34603D01*
X10903Y34645D01*
X10861Y34728D02*
Y34811D01*
Y34769D01*
X11111D01*
X11070Y34728D01*
X10861Y35061D02*
X11111D01*
X10986Y34936D01*
Y35103D01*
X11111Y35353D02*
X11070Y35269D01*
X10986Y35186D01*
X10903D01*
X10861Y35228D01*
Y35311D01*
X10903Y35353D01*
X10945D01*
X10986Y35311D01*
Y35186D01*
X5909Y28324D02*
X5951Y28366D01*
X6034D01*
X6076Y28324D01*
Y28157D01*
X6034Y28116D01*
X5951D01*
X5909Y28157D01*
X5826Y28116D02*
X5743D01*
X5784D01*
Y28366D01*
X5826Y28324D01*
X5493Y28116D02*
Y28366D01*
X5618Y28241D01*
X5451D01*
X5201Y28366D02*
X5368D01*
Y28241D01*
X5284Y28282D01*
X5243D01*
X5201Y28241D01*
Y28157D01*
X5243Y28116D01*
X5326D01*
X5368Y28157D01*
X5990Y28676D02*
X6032Y28717D01*
X6115D01*
X6157Y28676D01*
Y28509D01*
X6115Y28467D01*
X6032D01*
X5990Y28509D01*
X5907Y28467D02*
X5823D01*
X5865D01*
Y28717D01*
X5907Y28676D01*
X5574Y28467D02*
Y28717D01*
X5699Y28592D01*
X5532D01*
X5324Y28467D02*
Y28717D01*
X5449Y28592D01*
X5282D01*
X5991Y29016D02*
X6032Y29058D01*
X6116D01*
X6157Y29016D01*
Y28850D01*
X6116Y28808D01*
X6032D01*
X5991Y28850D01*
X5907Y28808D02*
X5824D01*
X5866D01*
Y29058D01*
X5907Y29016D01*
X5574Y28808D02*
Y29058D01*
X5699Y28933D01*
X5533D01*
X5449Y29016D02*
X5408Y29058D01*
X5324D01*
X5283Y29016D01*
Y28975D01*
X5324Y28933D01*
X5366D01*
X5324D01*
X5283Y28891D01*
Y28850D01*
X5324Y28808D01*
X5408D01*
X5449Y28850D01*
X5996Y29367D02*
X6038Y29408D01*
X6121D01*
X6163Y29367D01*
Y29200D01*
X6121Y29158D01*
X6038D01*
X5996Y29200D01*
X5913Y29158D02*
X5830D01*
X5871D01*
Y29408D01*
X5913Y29367D01*
X5580Y29158D02*
Y29408D01*
X5705Y29283D01*
X5538D01*
X5288Y29158D02*
X5455D01*
X5288Y29325D01*
Y29367D01*
X5330Y29408D01*
X5413D01*
X5455Y29367D01*
X6006Y30405D02*
X6047Y30447D01*
X6131D01*
X6172Y30405D01*
Y30238D01*
X6131Y30197D01*
X6047D01*
X6006Y30238D01*
X5922Y30197D02*
X5839D01*
X5881D01*
Y30447D01*
X5922Y30405D01*
X5589Y30197D02*
Y30447D01*
X5714Y30322D01*
X5548D01*
X5464Y30197D02*
X5381D01*
X5423D01*
Y30447D01*
X5464Y30405D01*
X6033Y30755D02*
X6075Y30797D01*
X6158D01*
X6199Y30755D01*
Y30588D01*
X6158Y30547D01*
X6075D01*
X6033Y30588D01*
X5950Y30547D02*
X5866D01*
X5908D01*
Y30797D01*
X5950Y30755D01*
X5616Y30547D02*
Y30797D01*
X5741Y30672D01*
X5575D01*
X5491Y30755D02*
X5450Y30797D01*
X5366D01*
X5325Y30755D01*
Y30588D01*
X5366Y30547D01*
X5450D01*
X5491Y30588D01*
Y30755D01*
X10515Y31274D02*
X10556Y31316D01*
X10640D01*
X10681Y31274D01*
Y31108D01*
X10640Y31066D01*
X10556D01*
X10515Y31108D01*
X10431Y31066D02*
X10348D01*
X10390D01*
Y31316D01*
X10431Y31274D01*
X10223D02*
X10181Y31316D01*
X10098D01*
X10057Y31274D01*
Y31233D01*
X10098Y31191D01*
X10140D01*
X10098D01*
X10057Y31149D01*
Y31108D01*
X10098Y31066D01*
X10181D01*
X10223Y31108D01*
X9973Y31274D02*
X9932Y31316D01*
X9848D01*
X9807Y31274D01*
Y31233D01*
X9848Y31191D01*
X9807Y31149D01*
Y31108D01*
X9848Y31066D01*
X9932D01*
X9973Y31108D01*
Y31149D01*
X9932Y31191D01*
X9973Y31233D01*
Y31274D01*
X9932Y31191D02*
X9848D01*
X6038Y31087D02*
X6080Y31129D01*
X6163D01*
X6205Y31087D01*
Y30921D01*
X6163Y30879D01*
X6080D01*
X6038Y30921D01*
X5955Y30879D02*
X5872D01*
X5914D01*
Y31129D01*
X5955Y31087D01*
X5747D02*
X5705Y31129D01*
X5622D01*
X5580Y31087D01*
Y31046D01*
X5622Y31004D01*
X5664D01*
X5622D01*
X5580Y30962D01*
Y30921D01*
X5622Y30879D01*
X5705D01*
X5747Y30921D01*
X5497Y31129D02*
X5330D01*
Y31087D01*
X5497Y30921D01*
Y30879D01*
X6028Y31411D02*
X6070Y31453D01*
X6153D01*
X6195Y31411D01*
Y31245D01*
X6153Y31203D01*
X6070D01*
X6028Y31245D01*
X5945Y31203D02*
X5861D01*
X5903D01*
Y31453D01*
X5945Y31411D01*
X5736D02*
X5695Y31453D01*
X5611D01*
X5570Y31411D01*
Y31370D01*
X5611Y31328D01*
X5653D01*
X5611D01*
X5570Y31286D01*
Y31245D01*
X5611Y31203D01*
X5695D01*
X5736Y31245D01*
X5320Y31453D02*
X5403Y31411D01*
X5487Y31328D01*
Y31245D01*
X5445Y31203D01*
X5362D01*
X5320Y31245D01*
Y31286D01*
X5362Y31328D01*
X5487D01*
X6032Y32450D02*
X6073Y32492D01*
X6157D01*
X6198Y32450D01*
Y32284D01*
X6157Y32242D01*
X6073D01*
X6032Y32284D01*
X5948Y32242D02*
X5865D01*
X5907D01*
Y32492D01*
X5948Y32450D01*
X5740D02*
X5699Y32492D01*
X5615D01*
X5574Y32450D01*
Y32409D01*
X5615Y32367D01*
X5657D01*
X5615D01*
X5574Y32325D01*
Y32284D01*
X5615Y32242D01*
X5699D01*
X5740Y32284D01*
X5324Y32492D02*
X5490D01*
Y32367D01*
X5407Y32409D01*
X5365D01*
X5324Y32367D01*
Y32284D01*
X5365Y32242D01*
X5449D01*
X5490Y32284D01*
X6030Y32802D02*
X6072Y32844D01*
X6155D01*
X6197Y32802D01*
Y32636D01*
X6155Y32594D01*
X6072D01*
X6030Y32636D01*
X5947Y32594D02*
X5864D01*
X5905D01*
Y32844D01*
X5947Y32802D01*
X5739D02*
X5697Y32844D01*
X5614D01*
X5572Y32802D01*
Y32761D01*
X5614Y32719D01*
X5656D01*
X5614D01*
X5572Y32677D01*
Y32636D01*
X5614Y32594D01*
X5697D01*
X5739Y32636D01*
X5364Y32594D02*
Y32844D01*
X5489Y32719D01*
X5322D01*
X7802Y34679D02*
X7844Y34637D01*
Y34554D01*
X7802Y34512D01*
X7636D01*
X7594Y34554D01*
Y34637D01*
X7636Y34679D01*
X7594Y34762D02*
Y34846D01*
Y34804D01*
X7844D01*
X7802Y34762D01*
Y34971D02*
X7844Y35012D01*
Y35096D01*
X7802Y35137D01*
X7760D01*
X7719Y35096D01*
Y35054D01*
Y35096D01*
X7677Y35137D01*
X7636D01*
X7594Y35096D01*
Y35012D01*
X7636Y34971D01*
X7594Y35221D02*
Y35304D01*
Y35262D01*
X7844D01*
X7802Y35221D01*
X8140Y34670D02*
X8182Y34628D01*
Y34545D01*
X8140Y34503D01*
X7973D01*
X7932Y34545D01*
Y34628D01*
X7973Y34670D01*
X7932Y34753D02*
Y34836D01*
Y34795D01*
X8182D01*
X8140Y34753D01*
X7932Y35128D02*
Y34961D01*
X8098Y35128D01*
X8140D01*
X8182Y35086D01*
Y35003D01*
X8140Y34961D01*
Y35211D02*
X8182Y35253D01*
Y35336D01*
X8140Y35378D01*
X8098D01*
X8057Y35336D01*
X8015Y35378D01*
X7973D01*
X7932Y35336D01*
Y35253D01*
X7973Y35211D01*
X8015D01*
X8057Y35253D01*
X8098Y35211D01*
X8140D01*
X8057Y35253D02*
Y35336D01*
X8533Y34670D02*
X8575Y34628D01*
Y34545D01*
X8533Y34503D01*
X8367D01*
X8325Y34545D01*
Y34628D01*
X8367Y34670D01*
X8325Y34753D02*
Y34836D01*
Y34795D01*
X8575D01*
X8533Y34753D01*
X8325Y35128D02*
Y34961D01*
X8492Y35128D01*
X8533D01*
X8575Y35086D01*
Y35003D01*
X8533Y34961D01*
X8575Y35378D02*
Y35211D01*
X8450D01*
X8492Y35294D01*
Y35336D01*
X8450Y35378D01*
X8367D01*
X8325Y35336D01*
Y35253D01*
X8367Y35211D01*
X8927Y34670D02*
X8968Y34628D01*
Y34545D01*
X8927Y34503D01*
X8760D01*
X8718Y34545D01*
Y34628D01*
X8760Y34670D01*
X8718Y34753D02*
Y34836D01*
Y34795D01*
X8968D01*
X8927Y34753D01*
X8718Y35128D02*
Y34961D01*
X8885Y35128D01*
X8927D01*
X8968Y35086D01*
Y35003D01*
X8927Y34961D01*
X8718Y35336D02*
X8968D01*
X8843Y35211D01*
Y35378D01*
X9320Y34670D02*
X9362Y34628D01*
Y34545D01*
X9320Y34503D01*
X9153D01*
X9112Y34545D01*
Y34628D01*
X9153Y34670D01*
X9112Y34753D02*
Y34836D01*
Y34795D01*
X9362D01*
X9320Y34753D01*
X9112Y35128D02*
Y34961D01*
X9278Y35128D01*
X9320D01*
X9362Y35086D01*
Y35003D01*
X9320Y34961D01*
X9112Y35211D02*
Y35294D01*
Y35253D01*
X9362D01*
X9320Y35211D01*
X9688Y34670D02*
X9729Y34628D01*
Y34545D01*
X9688Y34503D01*
X9521D01*
X9480Y34545D01*
Y34628D01*
X9521Y34670D01*
X9480Y34753D02*
Y34836D01*
Y34795D01*
X9729D01*
X9688Y34753D01*
X9480Y35128D02*
Y34961D01*
X9646Y35128D01*
X9688D01*
X9729Y35086D01*
Y35003D01*
X9688Y34961D01*
Y35211D02*
X9729Y35253D01*
Y35336D01*
X9688Y35378D01*
X9521D01*
X9480Y35336D01*
Y35253D01*
X9521Y35211D01*
X9688D01*
X31842Y11704D02*
X31884Y11662D01*
Y11579D01*
X31842Y11537D01*
X31675D01*
X31634Y11579D01*
Y11662D01*
X31675Y11704D01*
X31634Y11787D02*
Y11871D01*
Y11829D01*
X31884D01*
X31842Y11787D01*
X31634Y11995D02*
Y12079D01*
Y12037D01*
X31884D01*
X31842Y11995D01*
X31675Y12204D02*
X31634Y12245D01*
Y12329D01*
X31675Y12370D01*
X31842D01*
X31884Y12329D01*
Y12245D01*
X31842Y12204D01*
X31800D01*
X31759Y12245D01*
Y12370D01*
X32346Y11735D02*
X32387Y11693D01*
Y11610D01*
X32346Y11568D01*
X32179D01*
X32137Y11610D01*
Y11693D01*
X32179Y11735D01*
X32137Y11818D02*
Y11901D01*
Y11860D01*
X32387D01*
X32346Y11818D01*
X32137Y12026D02*
Y12110D01*
Y12068D01*
X32387D01*
X32346Y12026D01*
Y12235D02*
X32387Y12276D01*
Y12360D01*
X32346Y12401D01*
X32304D01*
X32262Y12360D01*
X32221Y12401D01*
X32179D01*
X32137Y12360D01*
Y12276D01*
X32179Y12235D01*
X32221D01*
X32262Y12276D01*
X32304Y12235D01*
X32346D01*
X32262Y12276D02*
Y12360D01*
X27599Y12184D02*
X27641Y12226D01*
X27724D01*
X27766Y12184D01*
Y12018D01*
X27724Y11976D01*
X27641D01*
X27599Y12018D01*
X27516Y11976D02*
X27432D01*
X27474D01*
Y12226D01*
X27516Y12184D01*
X27307Y11976D02*
X27224D01*
X27266D01*
Y12226D01*
X27307Y12184D01*
X27099Y12226D02*
X26933D01*
Y12184D01*
X27099Y12018D01*
Y11976D01*
X29889Y6073D02*
X29930Y6115D01*
X30014D01*
X30055Y6073D01*
Y5907D01*
X30014Y5865D01*
X29930D01*
X29889Y5907D01*
X29805Y5865D02*
X29722D01*
X29764D01*
Y6115D01*
X29805Y6073D01*
X29597Y5865D02*
X29514D01*
X29556D01*
Y6115D01*
X29597Y6073D01*
X29222Y6115D02*
X29306Y6073D01*
X29389Y5990D01*
Y5907D01*
X29347Y5865D01*
X29264D01*
X29222Y5907D01*
Y5948D01*
X29264Y5990D01*
X29389D01*
X31490Y14510D02*
X31531Y14468D01*
Y14385D01*
X31490Y14343D01*
X31323D01*
X31281Y14385D01*
Y14468D01*
X31323Y14510D01*
X31281Y14593D02*
Y14676D01*
Y14634D01*
X31531D01*
X31490Y14593D01*
X31281Y14801D02*
Y14884D01*
Y14843D01*
X31531D01*
X31490Y14801D01*
X31531Y15176D02*
Y15009D01*
X31406D01*
X31448Y15093D01*
Y15134D01*
X31406Y15176D01*
X31323D01*
X31281Y15134D01*
Y15051D01*
X31323Y15009D01*
X30583Y11416D02*
X30625Y11374D01*
Y11291D01*
X30583Y11249D01*
X30416D01*
X30375Y11291D01*
Y11374D01*
X30416Y11416D01*
X30375Y11499D02*
Y11583D01*
Y11541D01*
X30625D01*
X30583Y11499D01*
X30375Y11708D02*
Y11791D01*
Y11749D01*
X30625D01*
X30583Y11708D01*
X30375Y12041D02*
X30625D01*
X30500Y11916D01*
Y12082D01*
X31159Y11421D02*
X31200Y11380D01*
Y11296D01*
X31159Y11255D01*
X30992D01*
X30950Y11296D01*
Y11380D01*
X30992Y11421D01*
X30950Y11504D02*
Y11588D01*
Y11546D01*
X31200D01*
X31159Y11504D01*
X30950Y11713D02*
Y11796D01*
Y11754D01*
X31200D01*
X31159Y11713D01*
Y11921D02*
X31200Y11963D01*
Y12046D01*
X31159Y12088D01*
X31117D01*
X31075Y12046D01*
Y12004D01*
Y12046D01*
X31034Y12088D01*
X30992D01*
X30950Y12046D01*
Y11963D01*
X30992Y11921D01*
X32187Y6739D02*
X32228Y6697D01*
Y6614D01*
X32187Y6572D01*
X32020D01*
X31978Y6614D01*
Y6697D01*
X32020Y6739D01*
X31978Y6822D02*
Y6905D01*
Y6864D01*
X32228D01*
X32187Y6822D01*
X31978Y7030D02*
Y7114D01*
Y7072D01*
X32228D01*
X32187Y7030D01*
X31978Y7405D02*
Y7239D01*
X32145Y7405D01*
X32187D01*
X32228Y7364D01*
Y7280D01*
X32187Y7239D01*
X33941Y11563D02*
X33982Y11605D01*
X34065D01*
X34107Y11563D01*
Y11396D01*
X34065Y11355D01*
X33982D01*
X33941Y11396D01*
X33857Y11355D02*
X33774D01*
X33816D01*
Y11605D01*
X33857Y11563D01*
X33649Y11355D02*
X33566D01*
X33607D01*
Y11605D01*
X33649Y11563D01*
X33441Y11355D02*
X33357D01*
X33399D01*
Y11605D01*
X33441Y11563D01*
X34057Y10973D02*
X34099Y11014D01*
X34182D01*
X34224Y10973D01*
Y10806D01*
X34182Y10764D01*
X34099D01*
X34057Y10806D01*
X33974Y10764D02*
X33890D01*
X33932D01*
Y11014D01*
X33974Y10973D01*
X33765Y10764D02*
X33682D01*
X33724D01*
Y11014D01*
X33765Y10973D01*
X33557D02*
X33515Y11014D01*
X33432D01*
X33390Y10973D01*
Y10806D01*
X33432Y10764D01*
X33515D01*
X33557Y10806D01*
Y10973D01*
X34078Y10360D02*
X34119Y10402D01*
X34203D01*
X34244Y10360D01*
Y10193D01*
X34203Y10152D01*
X34119D01*
X34078Y10193D01*
X33994Y10152D02*
X33911D01*
X33953D01*
Y10402D01*
X33994Y10360D01*
X33786D02*
X33744Y10402D01*
X33661D01*
X33620Y10360D01*
Y10193D01*
X33661Y10152D01*
X33744D01*
X33786Y10193D01*
Y10360D01*
X33536Y10193D02*
X33495Y10152D01*
X33411D01*
X33370Y10193D01*
Y10360D01*
X33411Y10402D01*
X33495D01*
X33536Y10360D01*
Y10318D01*
X33495Y10277D01*
X33370D01*
X34265Y9359D02*
X34306Y9400D01*
X34390D01*
X34431Y9359D01*
Y9192D01*
X34390Y9150D01*
X34306D01*
X34265Y9192D01*
X34181Y9150D02*
X34098D01*
X34140D01*
Y9400D01*
X34181Y9359D01*
X33973D02*
X33931Y9400D01*
X33848D01*
X33806Y9359D01*
Y9192D01*
X33848Y9150D01*
X33931D01*
X33973Y9192D01*
Y9359D01*
X33723D02*
X33681Y9400D01*
X33598D01*
X33556Y9359D01*
Y9317D01*
X33598Y9275D01*
X33556Y9234D01*
Y9192D01*
X33598Y9150D01*
X33681D01*
X33723Y9192D01*
Y9234D01*
X33681Y9275D01*
X33723Y9317D01*
Y9359D01*
X33681Y9275D02*
X33598D01*
X34078Y8753D02*
X34119Y8795D01*
X34203D01*
X34244Y8753D01*
Y8587D01*
X34203Y8545D01*
X34119D01*
X34078Y8587D01*
X33994Y8545D02*
X33911D01*
X33953D01*
Y8795D01*
X33994Y8753D01*
X33786D02*
X33744Y8795D01*
X33661D01*
X33620Y8753D01*
Y8587D01*
X33661Y8545D01*
X33744D01*
X33786Y8587D01*
Y8753D01*
X33536Y8795D02*
X33370D01*
Y8753D01*
X33536Y8587D01*
Y8545D01*
X31396Y6686D02*
X31438Y6644D01*
Y6561D01*
X31396Y6519D01*
X31229D01*
X31188Y6561D01*
Y6644D01*
X31229Y6686D01*
X31188Y6769D02*
Y6852D01*
Y6811D01*
X31438D01*
X31396Y6769D01*
Y6977D02*
X31438Y7019D01*
Y7102D01*
X31396Y7144D01*
X31229D01*
X31188Y7102D01*
Y7019D01*
X31229Y6977D01*
X31396D01*
X31438Y7394D02*
X31396Y7311D01*
X31313Y7227D01*
X31229D01*
X31188Y7269D01*
Y7352D01*
X31229Y7394D01*
X31271D01*
X31313Y7352D01*
Y7227D01*
X30825Y6612D02*
X30866Y6570D01*
Y6487D01*
X30825Y6445D01*
X30658D01*
X30617Y6487D01*
Y6570D01*
X30658Y6612D01*
X30617Y6695D02*
Y6778D01*
Y6737D01*
X30866D01*
X30825Y6695D01*
Y6903D02*
X30866Y6945D01*
Y7028D01*
X30825Y7070D01*
X30658D01*
X30617Y7028D01*
Y6945D01*
X30658Y6903D01*
X30825D01*
X30866Y7320D02*
Y7153D01*
X30742D01*
X30783Y7237D01*
Y7278D01*
X30742Y7320D01*
X30658D01*
X30617Y7278D01*
Y7195D01*
X30658Y7153D01*
X30391Y6696D02*
X30433Y6655D01*
Y6571D01*
X30391Y6530D01*
X30225D01*
X30183Y6571D01*
Y6655D01*
X30225Y6696D01*
X30183Y6780D02*
Y6863D01*
Y6821D01*
X30433D01*
X30391Y6780D01*
Y6988D02*
X30433Y7030D01*
Y7113D01*
X30391Y7155D01*
X30225D01*
X30183Y7113D01*
Y7030D01*
X30225Y6988D01*
X30391D01*
X30183Y7363D02*
X30433D01*
X30308Y7238D01*
Y7405D01*
X29275Y11755D02*
X29233Y11797D01*
Y11880D01*
X29275Y11922D01*
X29442D01*
X29483Y11880D01*
Y11797D01*
X29442Y11755D01*
X29483Y11672D02*
Y11588D01*
Y11630D01*
X29233D01*
X29275Y11672D01*
Y11463D02*
X29233Y11422D01*
Y11339D01*
X29275Y11297D01*
X29442D01*
X29483Y11339D01*
Y11422D01*
X29442Y11463D01*
X29275D01*
Y11214D02*
X29233Y11172D01*
Y11089D01*
X29275Y11047D01*
X29317D01*
X29358Y11089D01*
Y11130D01*
Y11089D01*
X29400Y11047D01*
X29442D01*
X29483Y11089D01*
Y11172D01*
X29442Y11214D01*
X28443Y8335D02*
X28485Y8377D01*
X28568D01*
X28610Y8335D01*
Y8168D01*
X28568Y8127D01*
X28485D01*
X28443Y8168D01*
X28360Y8127D02*
X28277D01*
X28318D01*
Y8377D01*
X28360Y8335D01*
X28152D02*
X28110Y8377D01*
X28027D01*
X27985Y8335D01*
Y8168D01*
X28027Y8127D01*
X28110D01*
X28152Y8168D01*
Y8335D01*
X27735Y8127D02*
X27902D01*
X27735Y8293D01*
Y8335D01*
X27777Y8377D01*
X27860D01*
X27902Y8335D01*
X29442Y13329D02*
X29484Y13287D01*
Y13204D01*
X29442Y13162D01*
X29275D01*
X29234Y13204D01*
Y13287D01*
X29275Y13329D01*
X29442Y13412D02*
X29484Y13454D01*
Y13537D01*
X29442Y13579D01*
X29400D01*
X29359Y13537D01*
X29317Y13579D01*
X29275D01*
X29234Y13537D01*
Y13454D01*
X29275Y13412D01*
X29317D01*
X29359Y13454D01*
X29400Y13412D01*
X29442D01*
X29359Y13454D02*
Y13537D01*
X29442Y13662D02*
X29484Y13704D01*
Y13787D01*
X29442Y13829D01*
X29275D01*
X29234Y13787D01*
Y13704D01*
X29275Y13662D01*
X29442D01*
X19529Y26961D02*
X19570Y27002D01*
X19654D01*
X19695Y26961D01*
Y26794D01*
X19654Y26752D01*
X19570D01*
X19529Y26794D01*
X19446Y27002D02*
X19279D01*
Y26961D01*
X19446Y26794D01*
Y26752D01*
X19196Y27002D02*
X19029D01*
Y26961D01*
X19196Y26794D01*
Y26752D01*
X21174Y28066D02*
X21216Y28108D01*
X21299D01*
X21341Y28066D01*
Y27900D01*
X21299Y27858D01*
X21216D01*
X21174Y27900D01*
X21091Y28108D02*
X20924D01*
Y28066D01*
X21091Y27900D01*
Y27858D01*
X20674Y28108D02*
X20758Y28066D01*
X20841Y27983D01*
Y27900D01*
X20799Y27858D01*
X20716D01*
X20674Y27900D01*
Y27942D01*
X20716Y27983D01*
X20841D01*
X23498Y27652D02*
X23539Y27693D01*
X23623D01*
X23664Y27652D01*
Y27485D01*
X23623Y27444D01*
X23539D01*
X23498Y27485D01*
X23415Y27693D02*
X23248D01*
Y27652D01*
X23415Y27485D01*
Y27444D01*
X22998Y27693D02*
X23165D01*
Y27569D01*
X23081Y27610D01*
X23040D01*
X22998Y27569D01*
Y27485D01*
X23040Y27444D01*
X23123D01*
X23165Y27485D01*
X22300Y27323D02*
X22342Y27364D01*
X22425D01*
X22466Y27323D01*
Y27156D01*
X22425Y27114D01*
X22342D01*
X22300Y27156D01*
X22217Y27364D02*
X22050D01*
Y27323D01*
X22217Y27156D01*
Y27114D01*
X21842D02*
Y27364D01*
X21967Y27239D01*
X21800D01*
X23932Y28521D02*
X23974Y28562D01*
X24057D01*
X24099Y28521D01*
Y28354D01*
X24057Y28312D01*
X23974D01*
X23932Y28354D01*
X23849Y28562D02*
X23682D01*
Y28521D01*
X23849Y28354D01*
Y28312D01*
X23599Y28521D02*
X23557Y28562D01*
X23474D01*
X23432Y28521D01*
Y28479D01*
X23474Y28437D01*
X23516D01*
X23474D01*
X23432Y28396D01*
Y28354D01*
X23474Y28312D01*
X23557D01*
X23599Y28354D01*
X23899Y26191D02*
X23941Y26232D01*
X24024D01*
X24066Y26191D01*
Y26024D01*
X24024Y25982D01*
X23941D01*
X23899Y26024D01*
X23816Y26232D02*
X23649D01*
Y26191D01*
X23816Y26024D01*
Y25982D01*
X23399D02*
X23566D01*
X23399Y26149D01*
Y26191D01*
X23441Y26232D01*
X23524D01*
X23566Y26191D01*
X20165Y29179D02*
X20207Y29220D01*
X20290D01*
X20332Y29179D01*
Y29012D01*
X20290Y28971D01*
X20207D01*
X20165Y29012D01*
X20082Y29220D02*
X19915D01*
Y29179D01*
X20082Y29012D01*
Y28971D01*
X19832D02*
X19749D01*
X19790D01*
Y29220D01*
X19832Y29179D01*
X27572Y28975D02*
X27614Y29016D01*
X27697D01*
X27739Y28975D01*
Y28808D01*
X27697Y28767D01*
X27614D01*
X27572Y28808D01*
X27489Y29016D02*
X27322D01*
Y28975D01*
X27489Y28808D01*
Y28767D01*
X27239Y28975D02*
X27197Y29016D01*
X27114D01*
X27072Y28975D01*
Y28808D01*
X27114Y28767D01*
X27197D01*
X27239Y28808D01*
Y28975D01*
X22684Y32292D02*
X22726Y32251D01*
Y32167D01*
X22684Y32126D01*
X22517D01*
X22476Y32167D01*
Y32251D01*
X22517Y32292D01*
X22726Y32542D02*
X22684Y32459D01*
X22601Y32376D01*
X22517D01*
X22476Y32417D01*
Y32501D01*
X22517Y32542D01*
X22559D01*
X22601Y32501D01*
Y32376D01*
X22517Y32626D02*
X22476Y32667D01*
Y32750D01*
X22517Y32792D01*
X22684D01*
X22726Y32750D01*
Y32667D01*
X22684Y32626D01*
X22642D01*
X22601Y32667D01*
Y32792D01*
X21477Y23986D02*
X21519Y24027D01*
X21602D01*
X21644Y23986D01*
Y23819D01*
X21602Y23777D01*
X21519D01*
X21477Y23819D01*
X21227Y24027D02*
X21311Y23986D01*
X21394Y23902D01*
Y23819D01*
X21352Y23777D01*
X21269D01*
X21227Y23819D01*
Y23861D01*
X21269Y23902D01*
X21394D01*
X21144Y23986D02*
X21102Y24027D01*
X21019D01*
X20977Y23986D01*
Y23944D01*
X21019Y23902D01*
X20977Y23861D01*
Y23819D01*
X21019Y23777D01*
X21102D01*
X21144Y23819D01*
Y23861D01*
X21102Y23902D01*
X21144Y23944D01*
Y23986D01*
X21102Y23902D02*
X21019D01*
X24412Y36735D02*
X24454Y36777D01*
X24537D01*
X24579Y36735D01*
Y36569D01*
X24537Y36527D01*
X24454D01*
X24412Y36569D01*
X24162Y36777D02*
X24246Y36735D01*
X24329Y36652D01*
Y36569D01*
X24287Y36527D01*
X24204D01*
X24162Y36569D01*
Y36610D01*
X24204Y36652D01*
X24329D01*
X24079Y36777D02*
X23912D01*
Y36735D01*
X24079Y36569D01*
Y36527D01*
X21543Y31206D02*
X21585Y31248D01*
X21668D01*
X21710Y31206D01*
Y31040D01*
X21668Y30998D01*
X21585D01*
X21543Y31040D01*
X21293Y31248D02*
X21376Y31206D01*
X21460Y31123D01*
Y31040D01*
X21418Y30998D01*
X21335D01*
X21293Y31040D01*
Y31081D01*
X21335Y31123D01*
X21460D01*
X21043Y31248D02*
X21126Y31206D01*
X21210Y31123D01*
Y31040D01*
X21168Y30998D01*
X21085D01*
X21043Y31040D01*
Y31081D01*
X21085Y31123D01*
X21210D01*
X21144Y29047D02*
X21185Y29006D01*
Y28922D01*
X21144Y28881D01*
X20977D01*
X20935Y28922D01*
Y29006D01*
X20977Y29047D01*
X21185Y29297D02*
X21144Y29214D01*
X21060Y29131D01*
X20977D01*
X20935Y29172D01*
Y29256D01*
X20977Y29297D01*
X21019D01*
X21060Y29256D01*
Y29131D01*
X21185Y29547D02*
Y29381D01*
X21060D01*
X21102Y29464D01*
Y29506D01*
X21060Y29547D01*
X20977D01*
X20935Y29506D01*
Y29422D01*
X20977Y29381D01*
X21569Y31594D02*
X21611Y31636D01*
X21694D01*
X21736Y31594D01*
Y31428D01*
X21694Y31386D01*
X21611D01*
X21569Y31428D01*
X21319Y31636D02*
X21403Y31594D01*
X21486Y31511D01*
Y31428D01*
X21444Y31386D01*
X21361D01*
X21319Y31428D01*
Y31470D01*
X21361Y31511D01*
X21486D01*
X21111Y31386D02*
Y31636D01*
X21236Y31511D01*
X21069D01*
X22333Y29613D02*
X22374Y29655D01*
X22458D01*
X22499Y29613D01*
Y29447D01*
X22458Y29405D01*
X22374D01*
X22333Y29447D01*
X22083Y29655D02*
X22166Y29613D01*
X22249Y29530D01*
Y29447D01*
X22208Y29405D01*
X22125D01*
X22083Y29447D01*
Y29488D01*
X22125Y29530D01*
X22249D01*
X22000Y29613D02*
X21958Y29655D01*
X21875D01*
X21833Y29613D01*
Y29572D01*
X21875Y29530D01*
X21916D01*
X21875D01*
X21833Y29488D01*
Y29447D01*
X21875Y29405D01*
X21958D01*
X22000Y29447D01*
X23215Y30910D02*
X23256Y30952D01*
X23340D01*
X23381Y30910D01*
Y30743D01*
X23340Y30702D01*
X23256D01*
X23215Y30743D01*
X22965Y30952D02*
X23048Y30910D01*
X23132Y30827D01*
Y30743D01*
X23090Y30702D01*
X23007D01*
X22965Y30743D01*
Y30785D01*
X23007Y30827D01*
X23132D01*
X22715Y30702D02*
X22882D01*
X22715Y30868D01*
Y30910D01*
X22757Y30952D01*
X22840D01*
X22882Y30910D01*
X21113Y30877D02*
X21155Y30919D01*
X21238D01*
X21280Y30877D01*
Y30710D01*
X21238Y30669D01*
X21155D01*
X21113Y30710D01*
X20863Y30919D02*
X20946Y30877D01*
X21030Y30794D01*
Y30710D01*
X20988Y30669D01*
X20905D01*
X20863Y30710D01*
Y30752D01*
X20905Y30794D01*
X21030D01*
X20780Y30669D02*
X20696D01*
X20738D01*
Y30919D01*
X20780Y30877D01*
X25817Y29192D02*
X25859Y29151D01*
Y29067D01*
X25817Y29026D01*
X25650D01*
X25609Y29067D01*
Y29151D01*
X25650Y29192D01*
X25859Y29442D02*
X25817Y29359D01*
X25734Y29276D01*
X25650D01*
X25609Y29317D01*
Y29400D01*
X25650Y29442D01*
X25692D01*
X25734Y29400D01*
Y29276D01*
X25817Y29525D02*
X25859Y29567D01*
Y29650D01*
X25817Y29692D01*
X25650D01*
X25609Y29650D01*
Y29567D01*
X25650Y29525D01*
X25817D01*
X21653Y34105D02*
X21695Y34146D01*
X21778D01*
X21820Y34105D01*
Y33938D01*
X21778Y33896D01*
X21695D01*
X21653Y33938D01*
X21403Y34146D02*
X21570D01*
Y34021D01*
X21487Y34063D01*
X21445D01*
X21403Y34021D01*
Y33938D01*
X21445Y33896D01*
X21528D01*
X21570Y33938D01*
X21320D02*
X21278Y33896D01*
X21195D01*
X21153Y33938D01*
Y34105D01*
X21195Y34146D01*
X21278D01*
X21320Y34105D01*
Y34063D01*
X21278Y34021D01*
X21153D01*
X21155Y32516D02*
X21196Y32558D01*
X21280D01*
X21321Y32516D01*
Y32349D01*
X21280Y32308D01*
X21196D01*
X21155Y32349D01*
X20905Y32558D02*
X21071D01*
Y32433D01*
X20988Y32474D01*
X20946D01*
X20905Y32433D01*
Y32349D01*
X20946Y32308D01*
X21030D01*
X21071Y32349D01*
X20821Y32516D02*
X20780Y32558D01*
X20696D01*
X20655Y32516D01*
Y32474D01*
X20696Y32433D01*
X20655Y32391D01*
Y32349D01*
X20696Y32308D01*
X20780D01*
X20821Y32349D01*
Y32391D01*
X20780Y32433D01*
X20821Y32474D01*
Y32516D01*
X20780Y32433D02*
X20696D01*
X20338Y33957D02*
X20380Y33999D01*
X20463D01*
X20505Y33957D01*
Y33791D01*
X20463Y33749D01*
X20380D01*
X20338Y33791D01*
X20089Y33999D02*
X20255D01*
Y33874D01*
X20172Y33916D01*
X20130D01*
X20089Y33874D01*
Y33791D01*
X20130Y33749D01*
X20214D01*
X20255Y33791D01*
X20005Y33999D02*
X19839D01*
Y33957D01*
X20005Y33791D01*
Y33749D01*
X19323Y36772D02*
X19365Y36814D01*
X19448D01*
X19490Y36772D01*
Y36605D01*
X19448Y36564D01*
X19365D01*
X19323Y36605D01*
X19073Y36814D02*
X19240D01*
Y36689D01*
X19156Y36730D01*
X19115D01*
X19073Y36689D01*
Y36605D01*
X19115Y36564D01*
X19198D01*
X19240Y36605D01*
X18823Y36814D02*
X18907Y36772D01*
X18990Y36689D01*
Y36605D01*
X18948Y36564D01*
X18865D01*
X18823Y36605D01*
Y36647D01*
X18865Y36689D01*
X18990D01*
X18906Y31990D02*
X18947Y31948D01*
Y31865D01*
X18906Y31823D01*
X18739D01*
X18698Y31865D01*
Y31948D01*
X18739Y31990D01*
X18947Y32240D02*
Y32073D01*
X18823D01*
X18864Y32156D01*
Y32198D01*
X18823Y32240D01*
X18739D01*
X18698Y32198D01*
Y32115D01*
X18739Y32073D01*
X18947Y32489D02*
Y32323D01*
X18823D01*
X18864Y32406D01*
Y32448D01*
X18823Y32489D01*
X18739D01*
X18698Y32448D01*
Y32364D01*
X18739Y32323D01*
X18228Y33543D02*
X18270Y33501D01*
Y33418D01*
X18228Y33376D01*
X18061D01*
X18020Y33418D01*
Y33501D01*
X18061Y33543D01*
X18270Y33793D02*
Y33626D01*
X18145D01*
X18186Y33710D01*
Y33751D01*
X18145Y33793D01*
X18061D01*
X18020Y33751D01*
Y33668D01*
X18061Y33626D01*
X18020Y34001D02*
X18270D01*
X18145Y33876D01*
Y34043D01*
X16444Y32161D02*
X16486Y32119D01*
Y32036D01*
X16444Y31994D01*
X16278D01*
X16236Y32036D01*
Y32119D01*
X16278Y32161D01*
X16486Y32411D02*
Y32244D01*
X16361D01*
X16402Y32327D01*
Y32369D01*
X16361Y32411D01*
X16278D01*
X16236Y32369D01*
Y32286D01*
X16278Y32244D01*
X16444Y32494D02*
X16486Y32536D01*
Y32619D01*
X16444Y32661D01*
X16402D01*
X16361Y32619D01*
Y32577D01*
Y32619D01*
X16319Y32661D01*
X16278D01*
X16236Y32619D01*
Y32536D01*
X16278Y32494D01*
X16626Y35155D02*
X16668Y35197D01*
X16751D01*
X16793Y35155D01*
Y34989D01*
X16751Y34947D01*
X16668D01*
X16626Y34989D01*
X16376Y35197D02*
X16543D01*
Y35072D01*
X16460Y35114D01*
X16418D01*
X16376Y35072D01*
Y34989D01*
X16418Y34947D01*
X16501D01*
X16543Y34989D01*
X16126Y34947D02*
X16293D01*
X16126Y35114D01*
Y35155D01*
X16168Y35197D01*
X16251D01*
X16293Y35155D01*
X18104Y28508D02*
X18145Y28466D01*
Y28383D01*
X18104Y28341D01*
X17937D01*
X17895Y28383D01*
Y28466D01*
X17937Y28508D01*
X18145Y28758D02*
Y28591D01*
X18020D01*
X18062Y28674D01*
Y28716D01*
X18020Y28758D01*
X17937D01*
X17895Y28716D01*
Y28633D01*
X17937Y28591D01*
X17895Y28841D02*
Y28924D01*
Y28883D01*
X18145D01*
X18104Y28841D01*
X19292Y29719D02*
X19333Y29760D01*
X19417D01*
X19458Y29719D01*
Y29552D01*
X19417Y29510D01*
X19333D01*
X19292Y29552D01*
X19042Y29760D02*
X19209D01*
Y29635D01*
X19125Y29677D01*
X19084D01*
X19042Y29635D01*
Y29552D01*
X19084Y29510D01*
X19167D01*
X19209Y29552D01*
X18959Y29719D02*
X18917Y29760D01*
X18834D01*
X18792Y29719D01*
Y29552D01*
X18834Y29510D01*
X18917D01*
X18959Y29552D01*
Y29719D01*
X18805Y28244D02*
X18846Y28286D01*
X18930D01*
X18971Y28244D01*
Y28078D01*
X18930Y28036D01*
X18846D01*
X18805Y28078D01*
X18597Y28036D02*
Y28286D01*
X18721Y28161D01*
X18555D01*
X18472Y28078D02*
X18430Y28036D01*
X18347D01*
X18305Y28078D01*
Y28244D01*
X18347Y28286D01*
X18430D01*
X18472Y28244D01*
Y28203D01*
X18430Y28161D01*
X18305D01*
X16580Y28010D02*
X16621Y28052D01*
X16705D01*
X16746Y28010D01*
Y27843D01*
X16705Y27802D01*
X16621D01*
X16580Y27843D01*
X16371Y27802D02*
Y28052D01*
X16496Y27927D01*
X16330D01*
X16246Y28010D02*
X16205Y28052D01*
X16122D01*
X16080Y28010D01*
Y27968D01*
X16122Y27927D01*
X16080Y27885D01*
Y27843D01*
X16122Y27802D01*
X16205D01*
X16246Y27843D01*
Y27885D01*
X16205Y27927D01*
X16246Y27968D01*
Y28010D01*
X16205Y27927D02*
X16122D01*
X15912Y30835D02*
X15953Y30877D01*
X16036D01*
X16078Y30835D01*
Y30668D01*
X16036Y30627D01*
X15953D01*
X15912Y30668D01*
X15703Y30627D02*
Y30877D01*
X15828Y30752D01*
X15662D01*
X15578Y30877D02*
X15412D01*
Y30835D01*
X15578Y30668D01*
Y30627D01*
X22339Y18980D02*
X22298Y18939D01*
X22215D01*
X22173Y18980D01*
Y19147D01*
X22215Y19189D01*
X22298D01*
X22339Y19147D01*
X22548Y19189D02*
Y18939D01*
X22423Y19064D01*
X22589D01*
X22839Y19189D02*
X22673D01*
X22839Y19022D01*
Y18980D01*
X22798Y18939D01*
X22714D01*
X22673Y18980D01*
X25331Y27231D02*
X25373Y27273D01*
X25456D01*
X25498Y27231D01*
Y27064D01*
X25456Y27023D01*
X25373D01*
X25331Y27064D01*
X25123Y27023D02*
Y27273D01*
X25248Y27148D01*
X25081D01*
X24998Y27023D02*
X24915D01*
X24956D01*
Y27273D01*
X24998Y27231D01*
X25053Y27738D02*
X25095Y27696D01*
Y27613D01*
X25053Y27571D01*
X24887D01*
X24845Y27613D01*
Y27696D01*
X24887Y27738D01*
X24845Y27946D02*
X25095D01*
X24970Y27821D01*
Y27987D01*
X25053Y28071D02*
X25095Y28112D01*
Y28196D01*
X25053Y28237D01*
X24887D01*
X24845Y28196D01*
Y28112D01*
X24887Y28071D01*
X25053D01*
X22763Y28448D02*
X22805Y28407D01*
Y28323D01*
X22763Y28282D01*
X22596D01*
X22555Y28323D01*
Y28407D01*
X22596Y28448D01*
X22763Y28532D02*
X22805Y28573D01*
Y28657D01*
X22763Y28698D01*
X22721D01*
X22680Y28657D01*
Y28615D01*
Y28657D01*
X22638Y28698D01*
X22596D01*
X22555Y28657D01*
Y28573D01*
X22596Y28532D01*
Y28782D02*
X22555Y28823D01*
Y28907D01*
X22596Y28948D01*
X22763D01*
X22805Y28907D01*
Y28823D01*
X22763Y28782D01*
X22721D01*
X22680Y28823D01*
Y28948D01*
X27189Y26967D02*
X27231Y27008D01*
X27314D01*
X27356Y26967D01*
Y26800D01*
X27314Y26758D01*
X27231D01*
X27189Y26800D01*
X27106Y26967D02*
X27064Y27008D01*
X26981D01*
X26939Y26967D01*
Y26925D01*
X26981Y26883D01*
X27023D01*
X26981D01*
X26939Y26842D01*
Y26800D01*
X26981Y26758D01*
X27064D01*
X27106Y26800D01*
X26856Y26967D02*
X26814Y27008D01*
X26731D01*
X26690Y26967D01*
Y26925D01*
X26731Y26883D01*
X26690Y26842D01*
Y26800D01*
X26731Y26758D01*
X26814D01*
X26856Y26800D01*
Y26842D01*
X26814Y26883D01*
X26856Y26925D01*
Y26967D01*
X26814Y26883D02*
X26731D01*
X23932Y23979D02*
X23974Y24021D01*
X24057D01*
X24099Y23979D01*
Y23812D01*
X24057Y23771D01*
X23974D01*
X23932Y23812D01*
X23849Y23979D02*
X23807Y24021D01*
X23724D01*
X23682Y23979D01*
Y23937D01*
X23724Y23896D01*
X23766D01*
X23724D01*
X23682Y23854D01*
Y23812D01*
X23724Y23771D01*
X23807D01*
X23849Y23812D01*
X23599Y24021D02*
X23432D01*
Y23979D01*
X23599Y23812D01*
Y23771D01*
X21248Y22258D02*
X21289Y22216D01*
Y22133D01*
X21248Y22092D01*
X21081D01*
X21040Y22133D01*
Y22216D01*
X21081Y22258D01*
X21248Y22341D02*
X21289Y22383D01*
Y22466D01*
X21248Y22508D01*
X21206D01*
X21165Y22466D01*
Y22425D01*
Y22466D01*
X21123Y22508D01*
X21081D01*
X21040Y22466D01*
Y22383D01*
X21081Y22341D01*
X21289Y22758D02*
X21248Y22675D01*
X21165Y22591D01*
X21081D01*
X21040Y22633D01*
Y22716D01*
X21081Y22758D01*
X21123D01*
X21165Y22716D01*
Y22591D01*
X26291Y31983D02*
X26333Y31941D01*
Y31858D01*
X26291Y31816D01*
X26124D01*
X26083Y31858D01*
Y31941D01*
X26124Y31983D01*
X26291Y32066D02*
X26333Y32108D01*
Y32191D01*
X26291Y32233D01*
X26249D01*
X26208Y32191D01*
Y32150D01*
Y32191D01*
X26166Y32233D01*
X26124D01*
X26083Y32191D01*
Y32108D01*
X26124Y32066D01*
X26333Y32483D02*
Y32316D01*
X26208D01*
X26249Y32399D01*
Y32441D01*
X26208Y32483D01*
X26124D01*
X26083Y32441D01*
Y32358D01*
X26124Y32316D01*
X26288Y27668D02*
X26330Y27626D01*
Y27543D01*
X26288Y27501D01*
X26121D01*
X26080Y27543D01*
Y27626D01*
X26121Y27668D01*
X26288Y27751D02*
X26330Y27792D01*
Y27876D01*
X26288Y27917D01*
X26246D01*
X26205Y27876D01*
Y27834D01*
Y27876D01*
X26163Y27917D01*
X26121D01*
X26080Y27876D01*
Y27792D01*
X26121Y27751D01*
X26080Y28126D02*
X26330D01*
X26205Y28001D01*
Y28167D01*
X26670Y31280D02*
X26712Y31322D01*
X26795D01*
X26837Y31280D01*
Y31114D01*
X26795Y31072D01*
X26712D01*
X26670Y31114D01*
X26587Y31280D02*
X26545Y31322D01*
X26462D01*
X26420Y31280D01*
Y31239D01*
X26462Y31197D01*
X26503D01*
X26462D01*
X26420Y31155D01*
Y31114D01*
X26462Y31072D01*
X26545D01*
X26587Y31114D01*
X26337Y31280D02*
X26295Y31322D01*
X26212D01*
X26170Y31280D01*
Y31239D01*
X26212Y31197D01*
X26254D01*
X26212D01*
X26170Y31155D01*
Y31114D01*
X26212Y31072D01*
X26295D01*
X26337Y31114D01*
X25097Y32279D02*
X25139Y32321D01*
X25222D01*
X25264Y32279D01*
Y32112D01*
X25222Y32071D01*
X25139D01*
X25097Y32112D01*
X25014Y32279D02*
X24972Y32321D01*
X24889D01*
X24847Y32279D01*
Y32237D01*
X24889Y32196D01*
X24931D01*
X24889D01*
X24847Y32154D01*
Y32112D01*
X24889Y32071D01*
X24972D01*
X25014Y32112D01*
X24598Y32071D02*
X24764D01*
X24598Y32237D01*
Y32279D01*
X24639Y32321D01*
X24722D01*
X24764Y32279D01*
X28110Y31660D02*
X28151Y31702D01*
X28235D01*
X28276Y31660D01*
Y31494D01*
X28235Y31452D01*
X28151D01*
X28110Y31494D01*
X28026Y31660D02*
X27985Y31702D01*
X27901D01*
X27860Y31660D01*
Y31619D01*
X27901Y31577D01*
X27943D01*
X27901D01*
X27860Y31535D01*
Y31494D01*
X27901Y31452D01*
X27985D01*
X28026Y31494D01*
X27776Y31452D02*
X27693D01*
X27735D01*
Y31702D01*
X27776Y31660D01*
X22484Y35366D02*
X22526Y35408D01*
X22609D01*
X22651Y35366D01*
Y35199D01*
X22609Y35158D01*
X22526D01*
X22484Y35199D01*
X22401Y35366D02*
X22359Y35408D01*
X22276D01*
X22234Y35366D01*
Y35324D01*
X22276Y35283D01*
X22318D01*
X22276D01*
X22234Y35241D01*
Y35199D01*
X22276Y35158D01*
X22359D01*
X22401Y35199D01*
X22151Y35366D02*
X22109Y35408D01*
X22026D01*
X21984Y35366D01*
Y35199D01*
X22026Y35158D01*
X22109D01*
X22151Y35199D01*
Y35366D01*
X23386Y34668D02*
X23428Y34710D01*
X23511D01*
X23553Y34668D01*
Y34502D01*
X23511Y34460D01*
X23428D01*
X23386Y34502D01*
X23136Y34460D02*
X23303D01*
X23136Y34627D01*
Y34668D01*
X23178Y34710D01*
X23261D01*
X23303Y34668D01*
X23053Y34502D02*
X23011Y34460D01*
X22928D01*
X22886Y34502D01*
Y34668D01*
X22928Y34710D01*
X23011D01*
X23053Y34668D01*
Y34627D01*
X23011Y34585D01*
X22886D01*
X26001Y33141D02*
X26043Y33100D01*
Y33016D01*
X26001Y32975D01*
X25835D01*
X25793Y33016D01*
Y33100D01*
X25835Y33141D01*
X25793Y33391D02*
Y33225D01*
X25960Y33391D01*
X26001D01*
X26043Y33350D01*
Y33266D01*
X26001Y33225D01*
Y33475D02*
X26043Y33516D01*
Y33600D01*
X26001Y33641D01*
X25960D01*
X25918Y33600D01*
X25876Y33641D01*
X25835D01*
X25793Y33600D01*
Y33516D01*
X25835Y33475D01*
X25876D01*
X25918Y33516D01*
X25960Y33475D01*
X26001D01*
X25918Y33516D02*
Y33600D01*
X24189Y34247D02*
X24231Y34289D01*
X24314D01*
X24356Y34247D01*
Y34080D01*
X24314Y34039D01*
X24231D01*
X24189Y34080D01*
X23939Y34039D02*
X24106D01*
X23939Y34205D01*
Y34247D01*
X23981Y34289D01*
X24064D01*
X24106Y34247D01*
X23856Y34289D02*
X23689D01*
Y34247D01*
X23856Y34080D01*
Y34039D01*
X27327Y35254D02*
X27368Y35295D01*
X27452D01*
X27493Y35254D01*
Y35087D01*
X27452Y35045D01*
X27368D01*
X27327Y35087D01*
X27077Y35045D02*
X27243D01*
X27077Y35212D01*
Y35254D01*
X27118Y35295D01*
X27202D01*
X27243Y35254D01*
X26827Y35295D02*
X26910Y35254D01*
X26994Y35170D01*
Y35087D01*
X26952Y35045D01*
X26869D01*
X26827Y35087D01*
Y35129D01*
X26869Y35170D01*
X26994D01*
X3872Y37280D02*
X3913Y37239D01*
Y37155D01*
X3872Y37114D01*
X3705D01*
X3664Y37155D01*
Y37239D01*
X3705Y37280D01*
X3664Y37530D02*
Y37363D01*
X3830Y37530D01*
X3872D01*
X3913Y37488D01*
Y37405D01*
X3872Y37363D01*
X3913Y37780D02*
Y37613D01*
X3788D01*
X3830Y37697D01*
Y37738D01*
X3788Y37780D01*
X3705D01*
X3664Y37738D01*
Y37655D01*
X3705Y37613D01*
X4940Y39082D02*
X4982Y39123D01*
X5065D01*
X5107Y39082D01*
Y38915D01*
X5065Y38873D01*
X4982D01*
X4940Y38915D01*
X4690Y38873D02*
X4857D01*
X4690Y39040D01*
Y39082D01*
X4732Y39123D01*
X4815D01*
X4857Y39082D01*
X4482Y38873D02*
Y39123D01*
X4607Y38998D01*
X4440D01*
X7939Y38373D02*
X7981Y38332D01*
Y38249D01*
X7939Y38207D01*
X7773D01*
X7731Y38249D01*
Y38332D01*
X7773Y38373D01*
X7731Y38623D02*
Y38457D01*
X7898Y38623D01*
X7939D01*
X7981Y38582D01*
Y38498D01*
X7939Y38457D01*
Y38707D02*
X7981Y38748D01*
Y38832D01*
X7939Y38873D01*
X7898D01*
X7856Y38832D01*
Y38790D01*
Y38832D01*
X7814Y38873D01*
X7773D01*
X7731Y38832D01*
Y38748D01*
X7773Y38707D01*
X7950Y39259D02*
X7992Y39217D01*
Y39134D01*
X7950Y39092D01*
X7784D01*
X7742Y39134D01*
Y39217D01*
X7784Y39259D01*
X7742Y39509D02*
Y39342D01*
X7909Y39509D01*
X7950D01*
X7992Y39467D01*
Y39384D01*
X7950Y39342D01*
X7742Y39759D02*
Y39592D01*
X7909Y39759D01*
X7950D01*
X7992Y39717D01*
Y39634D01*
X7950Y39592D01*
X7934Y35733D02*
X7976Y35692D01*
Y35608D01*
X7934Y35567D01*
X7767D01*
X7726Y35608D01*
Y35692D01*
X7767Y35733D01*
X7726Y35817D02*
Y35900D01*
Y35858D01*
X7976D01*
X7934Y35817D01*
X7767Y36025D02*
X7726Y36066D01*
Y36150D01*
X7767Y36191D01*
X7934D01*
X7976Y36150D01*
Y36066D01*
X7934Y36025D01*
X7892D01*
X7851Y36066D01*
Y36191D01*
X7945Y36651D02*
X7987Y36609D01*
Y36526D01*
X7945Y36484D01*
X7778D01*
X7737Y36526D01*
Y36609D01*
X7778Y36651D01*
X7737Y36734D02*
Y36817D01*
Y36775D01*
X7987D01*
X7945Y36734D01*
Y36942D02*
X7987Y36984D01*
Y37067D01*
X7945Y37109D01*
X7903D01*
X7862Y37067D01*
X7820Y37109D01*
X7778D01*
X7737Y37067D01*
Y36984D01*
X7778Y36942D01*
X7820D01*
X7862Y36984D01*
X7903Y36942D01*
X7945D01*
X7862Y36984D02*
Y37067D01*
X7946Y37504D02*
X7988Y37462D01*
Y37379D01*
X7946Y37337D01*
X7780D01*
X7738Y37379D01*
Y37462D01*
X7780Y37504D01*
X7738Y37587D02*
Y37670D01*
Y37629D01*
X7988D01*
X7946Y37587D01*
X7988Y37795D02*
Y37962D01*
X7946D01*
X7780Y37795D01*
X7738D01*
X3218Y39556D02*
X3259Y39597D01*
X3343D01*
X3384Y39556D01*
Y39389D01*
X3343Y39348D01*
X3259D01*
X3218Y39389D01*
X3134Y39348D02*
X3051D01*
X3093D01*
Y39597D01*
X3134Y39556D01*
X2760Y39597D02*
X2926D01*
Y39472D01*
X2843Y39514D01*
X2801D01*
X2760Y39472D01*
Y39389D01*
X2801Y39348D01*
X2885D01*
X2926Y39389D01*
D17*
X3990Y65026D02*
X4157D01*
Y64901D01*
X4073D01*
X4157D01*
Y64776D01*
X3907Y65026D02*
X3823D01*
X3865D01*
Y64776D01*
X3907D01*
X3823D01*
X3698Y65026D02*
Y64776D01*
X3574D01*
X3532Y64817D01*
Y64984D01*
X3574Y65026D01*
X3698D01*
X3449Y64776D02*
X3365D01*
X3407D01*
Y65026D01*
X3449Y64984D01*
X39874Y69819D02*
X40041D01*
Y69694D01*
X39958D01*
X40041D01*
Y69569D01*
X39791Y69819D02*
X39708D01*
X39749D01*
Y69569D01*
X39791D01*
X39708D01*
X39583Y69819D02*
Y69569D01*
X39458D01*
X39416Y69611D01*
Y69778D01*
X39458Y69819D01*
X39583D01*
X39166Y69569D02*
X39333D01*
X39166Y69736D01*
Y69778D01*
X39208Y69819D01*
X39291D01*
X39333Y69778D01*
X2503Y3077D02*
X2669D01*
Y2952D01*
X2586D01*
X2669D01*
Y2827D01*
X2419Y3077D02*
X2336D01*
X2378D01*
Y2827D01*
X2419D01*
X2336D01*
X2211Y3077D02*
Y2827D01*
X2086D01*
X2044Y2868D01*
Y3035D01*
X2086Y3077D01*
X2211D01*
X1961Y3035D02*
X1920Y3077D01*
X1836D01*
X1795Y3035D01*
Y2993D01*
X1836Y2952D01*
X1878D01*
X1836D01*
X1795Y2910D01*
Y2868D01*
X1836Y2827D01*
X1920D01*
X1961Y2868D01*
D19*
X9855Y33537D02*
X10454D01*
X9855D02*
Y34667D01*
X10454D01*
Y33537D02*
Y34667D01*
X15466Y30534D02*
X16866D01*
Y28534D02*
Y30534D01*
X15466Y28534D02*
X16866D01*
X15466D02*
Y30534D01*
X6048Y27473D02*
Y28073D01*
X7178D01*
Y27473D02*
Y28073D01*
X6048Y27473D02*
X7178D01*
X6895Y33512D02*
X7495D01*
X6895D02*
Y34642D01*
X7495D01*
Y33512D02*
Y34642D01*
X7071Y31541D02*
Y32141D01*
X5941Y31541D02*
X7071D01*
X5941D02*
Y32141D01*
X7071D01*
X12289Y34668D02*
X12889D01*
Y33538D02*
Y34668D01*
X12289Y33538D02*
X12889D01*
X12289D02*
Y34668D01*
X7122Y29464D02*
Y30064D01*
X5992Y29464D02*
X7122D01*
X5992D02*
Y30064D01*
X7122D01*
X17511Y32822D02*
Y34822D01*
X16111D02*
X17511D01*
X16111Y32822D02*
Y34822D01*
Y32822D02*
X17511D01*
X23498Y30407D02*
X25498D01*
X23498Y29007D02*
Y30407D01*
Y29007D02*
X25498D01*
Y30407D01*
X28263Y29332D02*
Y31332D01*
X26863D02*
X28263D01*
X26863Y29332D02*
Y31332D01*
Y29332D02*
X28263D01*
X23449Y24160D02*
Y25560D01*
X25449D01*
Y24160D02*
Y25560D01*
X23449Y24160D02*
X25449D01*
X20986Y25545D02*
X22986D01*
X20986Y24145D02*
Y25545D01*
Y24145D02*
X22986D01*
Y25545D01*
X23905Y36241D02*
X25905D01*
X23905Y34841D02*
Y36241D01*
Y34841D02*
X25905D01*
Y36241D01*
X18816Y36273D02*
X20816D01*
X18816Y34873D02*
Y36273D01*
Y34873D02*
X20816D01*
Y36273D01*
X28215Y32755D02*
Y34755D01*
X26815D02*
X28215D01*
X26815Y32755D02*
Y34755D01*
Y32755D02*
X28215D01*
X27995Y11974D02*
Y12574D01*
X29125D01*
Y11974D02*
Y12574D01*
X27995Y11974D02*
X29125D01*
D23*
X32015Y12834D02*
X32460D01*
X32015Y12554D02*
Y12834D01*
Y12554D02*
X32460D01*
Y12834D01*
X31549Y12553D02*
X31994D01*
Y12833D01*
X31549D02*
X31994D01*
X31549Y12553D02*
Y12833D01*
X30290Y12240D02*
X30735D01*
Y12520D01*
X30290D02*
X30735D01*
X30290Y12240D02*
Y12520D01*
X30860Y12523D02*
X31305D01*
X30860Y12243D02*
Y12523D01*
Y12243D02*
X31305D01*
Y12523D01*
X29141Y12037D02*
X29586D01*
Y12317D01*
X29141D02*
X29586D01*
X29141Y12037D02*
Y12317D01*
X30107Y7816D02*
X30552D01*
X30107Y7536D02*
Y7816D01*
Y7536D02*
X30552D01*
Y7816D01*
X32844Y11603D02*
X33289D01*
X32844Y11323D02*
Y11603D01*
Y11323D02*
X33289D01*
Y11603D01*
X32844Y11012D02*
X33289D01*
X32844Y10732D02*
Y11012D01*
Y10732D02*
X33289D01*
Y11012D01*
X32844Y10421D02*
X33289D01*
X32844Y10141D02*
Y10421D01*
Y10141D02*
X33289D01*
Y10421D01*
X32979Y9436D02*
X33424D01*
X32979Y9156D02*
Y9436D01*
Y9156D02*
X33424D01*
Y9436D01*
X32844Y8848D02*
X33289D01*
X32844Y8568D02*
Y8848D01*
Y8568D02*
X33289D01*
Y8848D01*
X32218Y7479D02*
Y7924D01*
X31938D02*
X32218D01*
X31938Y7479D02*
Y7924D01*
Y7479D02*
X32218D01*
X31434Y7479D02*
Y7924D01*
X31154D02*
X31434D01*
X31154Y7479D02*
Y7924D01*
Y7479D02*
X31434D01*
X30897Y7469D02*
Y7914D01*
X30617D02*
X30897D01*
X30617Y7469D02*
Y7914D01*
Y7469D02*
X30897D01*
X28719Y8075D02*
X29164D01*
Y8355D01*
X28719D02*
X29164D01*
X28719Y8075D02*
Y8355D01*
M02*
