G04*
G04 #@! TF.GenerationSoftware,Altium Limited,Altium Designer,20.1.11 (218)*
G04*
G04 Layer_Color=128*
%FSLAX24Y24*%
%MOIN*%
G70*
G04*
G04 #@! TF.SameCoordinates,C20E3654-7A5B-4E15-AF0D-48D46733EB80*
G04*
G04*
G04 #@! TF.FilePolarity,Positive*
G04*
G01*
G75*
%ADD301C,0.0020*%
D301*
X64625Y61667D02*
X65137D01*
X64881Y61411D02*
Y61923D01*
X64625Y63636D02*
X65137D01*
X64881Y63380D02*
Y63891D01*
X64625Y65604D02*
X65137D01*
X64881Y65348D02*
Y65860D01*
X64625Y67573D02*
X65137D01*
X64881Y67317D02*
Y67828D01*
X5256Y68898D02*
X6555D01*
X5906Y68248D02*
Y69547D01*
X60374Y68898D02*
X61673D01*
X61024Y68248D02*
Y69547D01*
X64727Y2895D02*
X65376D01*
X65052Y2571D02*
Y3220D01*
X63727Y3895D02*
X64376D01*
X64052Y3571D02*
Y4220D01*
X65727Y3895D02*
X66376D01*
X66052Y3571D02*
Y4220D01*
X65727Y1895D02*
X66376D01*
X66052Y1571D02*
Y2220D01*
X63727Y1895D02*
X64376D01*
X64052Y1571D02*
Y2220D01*
X64727Y9794D02*
X65376D01*
X65052Y9470D02*
Y10119D01*
X63727Y10794D02*
X64376D01*
X64052Y10470D02*
Y11119D01*
X65727Y10794D02*
X66376D01*
X66052Y10470D02*
Y11119D01*
X65727Y8794D02*
X66376D01*
X66052Y8470D02*
Y9119D01*
X63727Y8794D02*
X64376D01*
X64052Y8470D02*
Y9119D01*
X60374Y1969D02*
X61673D01*
X61024Y1319D02*
Y2618D01*
X5256Y1969D02*
X6555D01*
X5906Y1319D02*
Y2618D01*
X14615Y23312D02*
X15796D01*
X15205Y22722D02*
Y23903D01*
X28394Y37092D02*
X29575D01*
X28985Y36501D02*
Y37682D01*
X63504Y52933D02*
X64704D01*
X64104Y52333D02*
Y53533D01*
X63504Y56240D02*
X64704D01*
X64104Y55640D02*
Y56840D01*
X58700Y52933D02*
X59430D01*
X59065Y52568D02*
Y53298D01*
X58700Y54587D02*
X59430D01*
X59065Y54222D02*
Y54952D01*
X58700Y56240D02*
X59430D01*
X59065Y55875D02*
Y56605D01*
X60865Y52933D02*
X61595D01*
X61230Y52568D02*
Y53298D01*
X60865Y54587D02*
X61595D01*
X61230Y54222D02*
Y54952D01*
X60865Y56240D02*
X61595D01*
X61230Y55875D02*
Y56605D01*
X50429Y43496D02*
X50567D01*
X50498Y43427D02*
Y43565D01*
X50008Y43496D02*
X50146D01*
X50077Y43427D02*
Y43565D01*
X49587Y43496D02*
X49725D01*
X49656Y43427D02*
Y43565D01*
X50429Y43917D02*
X50567D01*
X50498Y43848D02*
Y43986D01*
X50008Y43917D02*
X50146D01*
X50077Y43848D02*
Y43986D01*
X49587Y43917D02*
X49725D01*
X49656Y43848D02*
Y43986D01*
X50429Y44338D02*
X50567D01*
X50498Y44269D02*
Y44407D01*
X50008Y44338D02*
X50146D01*
X50077Y44269D02*
Y44407D01*
X49587Y44338D02*
X49725D01*
X49656Y44269D02*
Y44407D01*
X64727Y23593D02*
X65376D01*
X65052Y23268D02*
Y23917D01*
X63727Y24593D02*
X64376D01*
X64052Y24268D02*
Y24917D01*
X65727Y24593D02*
X66376D01*
X66052Y24268D02*
Y24917D01*
X65727Y22593D02*
X66376D01*
X66052Y22268D02*
Y22917D01*
X63727Y22593D02*
X64376D01*
X64052Y22268D02*
Y22917D01*
X63727Y15694D02*
X64376D01*
X64052Y15369D02*
Y16018D01*
X65727Y15694D02*
X66376D01*
X66052Y15369D02*
Y16018D01*
X65727Y17694D02*
X66376D01*
X66052Y17369D02*
Y18018D01*
X63727Y17694D02*
X64376D01*
X64052Y17369D02*
Y18018D01*
X64727Y16694D02*
X65376D01*
X65052Y16369D02*
Y17018D01*
X66047Y31699D02*
X66244D01*
X66146Y31601D02*
Y31798D01*
X66047Y34455D02*
X66244D01*
X66146Y34357D02*
Y34554D01*
X64974Y32093D02*
X65191D01*
X65083Y31985D02*
Y32201D01*
X64974Y34062D02*
X65191D01*
X65083Y33953D02*
Y34170D01*
X60947Y45134D02*
X61297D01*
X61122Y44959D02*
Y45309D01*
X60947Y40634D02*
X61297D01*
X61122Y40459D02*
Y40809D01*
X60947Y41534D02*
X61297D01*
X61122Y41359D02*
Y41709D01*
X60947Y46034D02*
X61297D01*
X61122Y45859D02*
Y46209D01*
X62847Y41934D02*
X63197D01*
X63022Y41759D02*
Y42109D01*
X62847Y42734D02*
X63197D01*
X63022Y42559D02*
Y42909D01*
X62847Y43534D02*
X63197D01*
X63022Y43359D02*
Y43709D01*
X62847Y44334D02*
X63197D01*
X63022Y44159D02*
Y44509D01*
X63547Y42334D02*
X63897D01*
X63722Y42159D02*
Y42509D01*
X63547Y43134D02*
X63897D01*
X63722Y42959D02*
Y43309D01*
X63547Y43934D02*
X63897D01*
X63722Y43759D02*
Y44109D01*
X63547Y44734D02*
X63897D01*
X63722Y44559D02*
Y44909D01*
X64082Y40834D02*
X65362D01*
X64722Y40194D02*
Y41474D01*
X64082Y45834D02*
X65362D01*
X64722Y45194D02*
Y46474D01*
X42805Y13511D02*
X42923D01*
X42864Y13452D02*
Y13570D01*
X42247Y14433D02*
X42365D01*
X42306Y14374D02*
Y14492D01*
X42783Y14423D02*
X42901D01*
X42842Y14364D02*
Y14482D01*
X60880Y66104D02*
X60940D01*
X60910Y66074D02*
Y66134D01*
X60880Y65829D02*
X60940D01*
X60910Y65799D02*
Y65859D01*
X60055Y65829D02*
X60115D01*
X60085Y65799D02*
Y65859D01*
X60330Y65829D02*
X60390D01*
X60360Y65799D02*
Y65859D01*
X60880Y66655D02*
X60940D01*
X60910Y66625D02*
Y66685D01*
X60880Y66380D02*
X60940D01*
X60910Y66350D02*
Y66410D01*
X60880Y67205D02*
X60940D01*
X60910Y67175D02*
Y67235D01*
X60055Y67205D02*
X60115D01*
X60085Y67175D02*
Y67235D01*
X60330Y67205D02*
X60390D01*
X60360Y67175D02*
Y67235D01*
X60605Y65829D02*
X60665D01*
X60635Y65799D02*
Y65859D01*
X60605Y67205D02*
X60665D01*
X60635Y67175D02*
Y67235D01*
X60880Y66930D02*
X60940D01*
X60910Y66900D02*
Y66960D01*
X61192Y59803D02*
X61252D01*
X61222Y59773D02*
Y59833D01*
X61192Y60078D02*
X61252D01*
X61222Y60048D02*
Y60108D01*
X61192Y60353D02*
X61252D01*
X61222Y60323D02*
Y60383D01*
X61192Y60628D02*
X61252D01*
X61222Y60598D02*
Y60658D01*
X61467Y60628D02*
X61527D01*
X61497Y60598D02*
Y60658D01*
X61207Y64506D02*
X61267D01*
X61237Y64476D02*
Y64536D01*
X61483Y64506D02*
X61543D01*
X61513Y64476D02*
Y64536D01*
X61207Y65331D02*
X61267D01*
X61237Y65301D02*
Y65361D01*
X61207Y65056D02*
X61267D01*
X61237Y65026D02*
Y65086D01*
X62292Y60628D02*
X62352D01*
X62322Y60598D02*
Y60658D01*
X62017Y60628D02*
X62077D01*
X62047Y60598D02*
Y60658D01*
X61742Y60628D02*
X61802D01*
X61772Y60598D02*
Y60658D01*
X62308Y64506D02*
X62368D01*
X62338Y64476D02*
Y64536D01*
X61758Y64506D02*
X61818D01*
X61788Y64476D02*
Y64536D01*
X62033Y64506D02*
X62093D01*
X62063Y64476D02*
Y64536D01*
X62567Y59803D02*
X62627D01*
X62597Y59773D02*
Y59833D01*
X62567Y60078D02*
X62627D01*
X62597Y60048D02*
Y60108D01*
X62567Y60353D02*
X62627D01*
X62597Y60323D02*
Y60383D01*
X62567Y60628D02*
X62627D01*
X62597Y60598D02*
Y60658D01*
X62583Y64506D02*
X62643D01*
X62613Y64476D02*
Y64536D01*
X62583Y65331D02*
X62643D01*
X62613Y65301D02*
Y65361D01*
X62583Y65056D02*
X62643D01*
X62613Y65026D02*
Y65086D01*
X65422Y58551D02*
X65482D01*
X65452Y58521D02*
Y58581D01*
X65147Y58551D02*
X65207D01*
X65177Y58521D02*
Y58581D01*
X65422Y59926D02*
X65482D01*
X65452Y59896D02*
Y59956D01*
X65147Y59926D02*
X65207D01*
X65177Y59896D02*
Y59956D01*
X65972Y59101D02*
X66032D01*
X66002Y59071D02*
Y59131D01*
X65972Y58826D02*
X66032D01*
X66002Y58796D02*
Y58856D01*
X65972Y58551D02*
X66032D01*
X66002Y58521D02*
Y58581D01*
X65697Y58551D02*
X65757D01*
X65727Y58521D02*
Y58581D01*
X65972Y59376D02*
X66032D01*
X66002Y59346D02*
Y59406D01*
X65972Y59651D02*
X66032D01*
X66002Y59621D02*
Y59681D01*
X65972Y59926D02*
X66032D01*
X66002Y59896D02*
Y59956D01*
X65697Y59926D02*
X65757D01*
X65727Y59896D02*
Y59956D01*
X61207Y64781D02*
X61267D01*
X61237Y64751D02*
Y64811D01*
X62583Y64781D02*
X62643D01*
X62613Y64751D02*
Y64811D01*
X60752Y6240D02*
X60831D01*
X60791Y6200D02*
Y6279D01*
X60319Y6240D02*
X60398D01*
X60358Y6200D02*
Y6279D01*
X60752Y6673D02*
X60831D01*
X60791Y6633D02*
Y6712D01*
X60319Y6673D02*
X60398D01*
X60358Y6633D02*
Y6712D01*
X53504Y5523D02*
X53583D01*
X53544Y5484D02*
Y5563D01*
X53504Y5956D02*
X53583D01*
X53544Y5917D02*
Y5996D01*
X53504Y6390D02*
X53583D01*
X53544Y6350D02*
Y6429D01*
X53504Y6823D02*
X53583D01*
X53544Y6783D02*
Y6862D01*
X53504Y7256D02*
X53583D01*
X53544Y7216D02*
Y7295D01*
X53937Y5523D02*
X54016D01*
X53977Y5484D02*
Y5563D01*
X53937Y5956D02*
X54016D01*
X53977Y5917D02*
Y5996D01*
X53937Y6390D02*
X54016D01*
X53977Y6350D02*
Y6429D01*
X53937Y6823D02*
X54016D01*
X53977Y6783D02*
Y6862D01*
X53937Y7256D02*
X54016D01*
X53977Y7216D02*
Y7295D01*
X54370Y5523D02*
X54449D01*
X54410Y5484D02*
Y5563D01*
X54370Y5956D02*
X54449D01*
X54410Y5917D02*
Y5996D01*
X54370Y6390D02*
X54449D01*
X54410Y6350D02*
Y6429D01*
X54370Y6823D02*
X54449D01*
X54410Y6783D02*
Y6862D01*
X54370Y7256D02*
X54449D01*
X54410Y7216D02*
Y7295D01*
X54803Y5523D02*
X54882D01*
X54843Y5484D02*
Y5563D01*
X54803Y5956D02*
X54882D01*
X54843Y5917D02*
Y5996D01*
X54803Y6390D02*
X54882D01*
X54843Y6350D02*
Y6429D01*
X54803Y6823D02*
X54882D01*
X54843Y6783D02*
Y6862D01*
X54803Y7256D02*
X54882D01*
X54843Y7216D02*
Y7295D01*
X55237Y5523D02*
X55315D01*
X55276Y5484D02*
Y5563D01*
X55237Y5956D02*
X55315D01*
X55276Y5917D02*
Y5996D01*
X55237Y6390D02*
X55315D01*
X55276Y6350D02*
Y6429D01*
X55237Y6823D02*
X55315D01*
X55276Y6783D02*
Y6862D01*
X55237Y7256D02*
X55315D01*
X55276Y7216D02*
Y7295D01*
X52478Y4240D02*
X52596D01*
X52537Y4181D02*
Y4299D01*
X52269Y5840D02*
X52387D01*
X52328Y5781D02*
Y5899D01*
X52266Y6091D02*
X52384D01*
X52325Y6032D02*
Y6150D01*
X54919Y8505D02*
X55038D01*
X54978Y8446D02*
Y8564D01*
X54582Y8505D02*
X54700D01*
X54641Y8446D02*
Y8564D01*
X55742Y8449D02*
X55860D01*
X55801Y8390D02*
Y8508D01*
X56244Y4359D02*
X56362D01*
X56303Y4300D02*
Y4418D01*
X56409Y6271D02*
X56527D01*
X56468Y6212D02*
Y6330D01*
X56533Y5885D02*
X56651D01*
X56592Y5826D02*
Y5945D01*
X56399Y6910D02*
X56517D01*
X56458Y6851D02*
Y6969D01*
X56111Y8399D02*
X56229D01*
X56170Y8340D02*
Y8458D01*
X59682Y4366D02*
X59800D01*
X59741Y4307D02*
Y4425D01*
X59405Y6888D02*
X59523D01*
X59464Y6828D02*
Y6947D01*
X59807Y8516D02*
X59925D01*
X59866Y8456D02*
Y8575D01*
X60067Y4383D02*
X60185D01*
X60126Y4324D02*
Y4442D01*
X60423Y4393D02*
X60541D01*
X60482Y4334D02*
Y4452D01*
X60579Y5351D02*
X60697D01*
X60638Y5292D02*
Y5410D01*
X60546Y7621D02*
X60664D01*
X60605Y7562D02*
Y7680D01*
X60281Y8509D02*
X60399D01*
X60340Y8450D02*
Y8568D01*
X62738Y6247D02*
X62856D01*
X62797Y6188D02*
Y6306D01*
X62748Y6712D02*
X62866D01*
X62807Y6653D02*
Y6771D01*
X50761Y5714D02*
X50879D01*
X50820Y5655D02*
Y5773D01*
X52363Y8047D02*
X52481D01*
X52422Y7988D02*
Y8107D01*
X56395Y4792D02*
X56513D01*
X56454Y4733D02*
Y4851D01*
X56443Y7935D02*
X56561D01*
X56502Y7876D02*
Y7994D01*
X59428Y6465D02*
X59546D01*
X59487Y6406D02*
Y6524D01*
X52822Y4355D02*
X52940D01*
X52881Y4296D02*
Y4414D01*
X52682Y8436D02*
X52800D01*
X52741Y8377D02*
Y8496D01*
X55953Y4387D02*
X56072D01*
X56012Y4328D02*
Y4446D01*
X58455Y6839D02*
X58573D01*
X58514Y6780D02*
Y6898D01*
X60806Y4381D02*
X60924D01*
X60865Y4322D02*
Y4440D01*
X59997Y5278D02*
X60115D01*
X60056Y5219D02*
Y5337D01*
X62332Y8184D02*
X62450D01*
X62391Y8125D02*
Y8243D01*
X60703Y8514D02*
X60821D01*
X60762Y8455D02*
Y8573D01*
X63093Y6242D02*
X63212D01*
X63152Y6183D02*
Y6301D01*
X63113Y6703D02*
X63231D01*
X63172Y6644D02*
Y6762D01*
X58437Y5661D02*
X58555D01*
X58496Y5602D02*
Y5720D01*
X58428Y6430D02*
X58546D01*
X58487Y6371D02*
Y6490D01*
X58434Y7188D02*
X58552D01*
X58493Y7129D02*
Y7247D01*
X62286Y4708D02*
X62404D01*
X62345Y4649D02*
Y4767D01*
X61592Y6455D02*
X61710D01*
X61651Y6396D02*
Y6514D01*
X17788Y28603D02*
X17848D01*
X17818Y28573D02*
Y28633D01*
X7140Y33434D02*
X7200D01*
X7170Y33404D02*
Y33464D01*
X7140Y33185D02*
X7200D01*
X7170Y33155D02*
Y33215D01*
X7140Y32936D02*
X7200D01*
X7170Y32906D02*
Y32966D01*
X9188Y33621D02*
X9248D01*
X9218Y33591D02*
Y33651D01*
X8939Y33621D02*
X8999D01*
X8969Y33591D02*
Y33651D01*
X8690Y33621D02*
X8750D01*
X8720Y33591D02*
Y33651D01*
X23306Y34530D02*
X23366D01*
X23336Y34500D02*
Y34560D01*
X25668Y33742D02*
X25728D01*
X25698Y33712D02*
Y33772D01*
X9040Y32654D02*
X9100D01*
X9070Y32624D02*
Y32684D01*
X9337Y31733D02*
X9397D01*
X9367Y31703D02*
Y31763D01*
X7167Y28685D02*
X7227D01*
X7197Y28655D02*
Y28715D01*
X7167Y28436D02*
X7227D01*
X7197Y28406D02*
Y28466D01*
X7167Y28187D02*
X7227D01*
X7197Y28157D02*
Y28217D01*
X7164Y29882D02*
X7224D01*
X7194Y29852D02*
Y29912D01*
X7164Y29633D02*
X7224D01*
X7194Y29603D02*
Y29663D01*
X7164Y29385D02*
X7224D01*
X7194Y29355D02*
Y29415D01*
X7150Y30972D02*
X7210D01*
X7180Y30942D02*
Y31002D01*
X7150Y30723D02*
X7210D01*
X7180Y30693D02*
Y30753D01*
X7150Y30474D02*
X7210D01*
X7180Y30444D02*
Y30504D01*
X7147Y32234D02*
X7207D01*
X7177Y32204D02*
Y32264D01*
X7147Y31986D02*
X7207D01*
X7177Y31956D02*
Y32016D01*
X7147Y31737D02*
X7207D01*
X7177Y31707D02*
Y31767D01*
X6814Y34187D02*
X6874D01*
X6844Y34157D02*
Y34217D01*
X6565Y34187D02*
X6625D01*
X6595Y34157D02*
Y34217D01*
X6316Y34187D02*
X6376D01*
X6346Y34157D02*
Y34217D01*
X6818Y34883D02*
X6878D01*
X6848Y34853D02*
Y34913D01*
X6569Y34883D02*
X6629D01*
X6599Y34853D02*
Y34913D01*
X6320Y34883D02*
X6380D01*
X6350Y34853D02*
Y34913D01*
X6802Y35495D02*
X6862D01*
X6832Y35465D02*
Y35525D01*
X6553Y35495D02*
X6613D01*
X6583Y35465D02*
Y35525D01*
X6304Y35495D02*
X6364D01*
X6334Y35465D02*
Y35525D01*
X6806Y36347D02*
X6866D01*
X6836Y36317D02*
Y36377D01*
X6557Y36347D02*
X6617D01*
X6587Y36317D02*
Y36377D01*
X6308Y36347D02*
X6368D01*
X6338Y36317D02*
Y36377D01*
X6802Y37297D02*
X6862D01*
X6832Y37267D02*
Y37327D01*
X6553Y37297D02*
X6613D01*
X6583Y37267D02*
Y37327D01*
X6304Y37297D02*
X6364D01*
X6334Y37267D02*
Y37327D01*
X9562Y30679D02*
X9622D01*
X9592Y30649D02*
Y30709D01*
X9386Y28046D02*
X9446D01*
X9416Y28016D02*
Y28076D01*
X10085Y29344D02*
X10145D01*
X10115Y29314D02*
Y29374D01*
X10244Y29459D02*
X10304D01*
X10274Y29429D02*
Y29489D01*
X11591Y28904D02*
X11651D01*
X11621Y28874D02*
Y28934D01*
X11574Y29219D02*
X11634D01*
X11604Y29189D02*
Y29249D01*
X11566Y29530D02*
X11626D01*
X11596Y29500D02*
Y29560D01*
X11574Y29849D02*
X11634D01*
X11604Y29819D02*
Y29879D01*
X6043Y33071D02*
X6162D01*
X6102Y33012D02*
Y33130D01*
X5847Y32677D02*
X5965D01*
X5906Y32618D02*
Y32736D01*
X6043Y32284D02*
X6162D01*
X6102Y32225D02*
Y32343D01*
X6043Y31496D02*
X6162D01*
X6102Y31437D02*
Y31555D01*
X5847Y31102D02*
X5965D01*
X5906Y31043D02*
Y31162D01*
X6043Y30709D02*
X6162D01*
X6102Y30650D02*
Y30768D01*
X5847Y30315D02*
X5965D01*
X5906Y30256D02*
Y30374D01*
X5847Y29528D02*
X5965D01*
X5906Y29469D02*
Y29587D01*
X6043Y29134D02*
X6162D01*
X6102Y29075D02*
Y29193D01*
X5847Y28740D02*
X5965D01*
X5906Y28681D02*
Y28799D01*
X6043Y28347D02*
X6162D01*
X6102Y28288D02*
Y28406D01*
X5847Y27953D02*
X5965D01*
X5906Y27894D02*
Y28012D01*
X12244Y35039D02*
X12362D01*
X12303Y34980D02*
Y35098D01*
X11949Y34449D02*
X12067D01*
X12008Y34390D02*
Y34508D01*
X11653Y35039D02*
X11772D01*
X11713Y34980D02*
Y35098D01*
X11358Y34449D02*
X11476D01*
X11417Y34390D02*
Y34508D01*
X11063Y35039D02*
X11181D01*
X11122Y34980D02*
Y35098D01*
X10768Y34449D02*
X10886D01*
X10827Y34390D02*
Y34508D01*
X10472Y35039D02*
X10590D01*
X10531Y34980D02*
Y35098D01*
X9882Y35039D02*
X10000D01*
X9941Y34980D02*
Y35098D01*
X9291Y35039D02*
X9409D01*
X9350Y34980D02*
Y35098D01*
X8996Y34449D02*
X9114D01*
X9055Y34390D02*
Y34508D01*
X8701Y35039D02*
X8819D01*
X8760Y34980D02*
Y35098D01*
X7815Y36811D02*
X7933D01*
X7874Y36752D02*
Y36870D01*
X7815Y35630D02*
X7933D01*
X7874Y35571D02*
Y35689D01*
X8110Y35039D02*
X8228D01*
X8169Y34980D02*
Y35098D01*
X7520Y35039D02*
X7638D01*
X7579Y34980D02*
Y35098D01*
X18445Y49606D02*
X18563D01*
X18504Y49547D02*
Y49665D01*
X18051Y48819D02*
X18169D01*
X18110Y48760D02*
Y48878D01*
X18445Y48032D02*
X18563D01*
X18504Y47973D02*
Y48091D01*
X18051Y47244D02*
X18169D01*
X18110Y47185D02*
Y47303D01*
X17658Y49606D02*
X17776D01*
X17717Y49547D02*
Y49665D01*
X17658Y48032D02*
X17776D01*
X17717Y47973D02*
Y48091D01*
X17264Y47244D02*
X17382D01*
X17323Y47185D02*
Y47303D01*
X17658Y46457D02*
X17776D01*
X17717Y46398D02*
Y46516D01*
X16870Y49606D02*
X16988D01*
X16929Y49547D02*
Y49665D01*
X16476Y47244D02*
X16595D01*
X16536Y47185D02*
Y47303D01*
X16870Y46457D02*
X16988D01*
X16929Y46398D02*
Y46516D01*
X16083Y49606D02*
X16201D01*
X16142Y49547D02*
Y49665D01*
X15689Y48819D02*
X15807D01*
X15748Y48760D02*
Y48878D01*
X16083Y48032D02*
X16201D01*
X16142Y47973D02*
Y48091D01*
X15689Y47244D02*
X15807D01*
X15748Y47185D02*
Y47303D01*
X16083Y46457D02*
X16201D01*
X16142Y46398D02*
Y46516D01*
X15295Y49606D02*
X15414D01*
X15354Y49547D02*
Y49665D01*
X14902Y48819D02*
X15020D01*
X14961Y48760D02*
Y48878D01*
X15295Y48032D02*
X15414D01*
X15354Y47973D02*
Y48091D01*
X14902Y47244D02*
X15020D01*
X14961Y47185D02*
Y47303D01*
X15295Y46457D02*
X15414D01*
X15354Y46398D02*
Y46516D01*
X14508Y49606D02*
X14626D01*
X14567Y49547D02*
Y49665D01*
X14114Y48819D02*
X14232D01*
X14173Y48760D02*
Y48878D01*
X14508Y48032D02*
X14626D01*
X14567Y47973D02*
Y48091D01*
X14508Y46457D02*
X14626D01*
X14567Y46398D02*
Y46516D01*
X13721Y49606D02*
X13839D01*
X13780Y49547D02*
Y49665D01*
X13327Y48819D02*
X13445D01*
X13386Y48760D02*
Y48878D01*
X13721Y48032D02*
X13839D01*
X13780Y47973D02*
Y48091D01*
X12933Y49606D02*
X13051D01*
X12992Y49547D02*
Y49665D01*
X12539Y48819D02*
X12658D01*
X12599Y48760D02*
Y48878D01*
X12933Y48032D02*
X13051D01*
X12992Y47973D02*
Y48091D01*
X12539Y47244D02*
X12658D01*
X12599Y47185D02*
Y47303D01*
X12933Y46457D02*
X13051D01*
X12992Y46398D02*
Y46516D01*
X12146Y49606D02*
X12264D01*
X12205Y49547D02*
Y49665D01*
X11752Y48819D02*
X11870D01*
X11811Y48760D02*
Y48878D01*
X12146Y48032D02*
X12264D01*
X12205Y47973D02*
Y48091D01*
X11752Y47244D02*
X11870D01*
X11811Y47185D02*
Y47303D01*
X12146Y46457D02*
X12264D01*
X12205Y46398D02*
Y46516D01*
X11358Y49606D02*
X11476D01*
X11417Y49547D02*
Y49665D01*
X10965Y48819D02*
X11083D01*
X11024Y48760D02*
Y48878D01*
X11358Y48032D02*
X11476D01*
X11417Y47973D02*
Y48091D01*
X10965Y47244D02*
X11083D01*
X11024Y47185D02*
Y47303D01*
X11358Y46457D02*
X11476D01*
X11417Y46398D02*
Y46516D01*
X10177Y48819D02*
X10295D01*
X10236Y48760D02*
Y48878D01*
X10571Y48032D02*
X10689D01*
X10630Y47973D02*
Y48091D01*
X10177Y47244D02*
X10295D01*
X10236Y47185D02*
Y47303D01*
X10571Y46457D02*
X10689D01*
X10630Y46398D02*
Y46516D01*
X9390Y48819D02*
X9508D01*
X9449Y48760D02*
Y48878D01*
X9784Y48032D02*
X9902D01*
X9843Y47973D02*
Y48091D01*
X9390Y47244D02*
X9508D01*
X9449Y47185D02*
Y47303D01*
X9784Y46457D02*
X9902D01*
X9843Y46398D02*
Y46516D01*
X5059Y48819D02*
X5177D01*
X5118Y48760D02*
Y48878D01*
X4665Y48032D02*
X4784D01*
X4725Y47973D02*
Y48091D01*
X5059Y47244D02*
X5177D01*
X5118Y47185D02*
Y47303D01*
X4665Y46457D02*
X4784D01*
X4725Y46398D02*
Y46516D01*
X4272Y48819D02*
X4390D01*
X4331Y48760D02*
Y48878D01*
X3878Y48032D02*
X3996D01*
X3937Y47973D02*
Y48091D01*
X4272Y47244D02*
X4390D01*
X4331Y47185D02*
Y47303D01*
X3878Y46457D02*
X3996D01*
X3937Y46398D02*
Y46516D01*
X3484Y48819D02*
X3602D01*
X3543Y48760D02*
Y48878D01*
X3091Y48032D02*
X3209D01*
X3150Y47973D02*
Y48091D01*
X3484Y47244D02*
X3602D01*
X3543Y47185D02*
Y47303D01*
X3091Y46457D02*
X3209D01*
X3150Y46398D02*
Y46516D01*
X52713Y56452D02*
X52831D01*
X52772Y56393D02*
Y56511D01*
X52367Y56449D02*
X52485D01*
X52426Y56390D02*
Y56508D01*
X52996Y56470D02*
X53114D01*
X53055Y56411D02*
Y56529D01*
X47579Y10236D02*
X47697D01*
X47638Y10177D02*
Y10295D01*
X47185Y9449D02*
X47303D01*
X47244Y9390D02*
Y9508D01*
X46791Y10236D02*
X46910D01*
X46851Y10177D02*
Y10295D01*
X46398Y9449D02*
X46516D01*
X46457Y9390D02*
Y9508D01*
X46004Y10236D02*
X46122D01*
X46063Y10177D02*
Y10295D01*
X51020Y58489D02*
X51139D01*
X51080Y58430D02*
Y58548D01*
X50775Y58510D02*
X50893D01*
X50834Y58451D02*
Y58570D01*
X51021Y57116D02*
X51139D01*
X51080Y57057D02*
Y57175D01*
X50760Y57132D02*
X50878D01*
X50819Y57073D02*
Y57191D01*
X49338Y57640D02*
X49456D01*
X49397Y57581D02*
Y57699D01*
X49945Y56991D02*
X50064D01*
X50004Y56932D02*
Y57050D01*
X53049Y53500D02*
X53167D01*
X53108Y53441D02*
Y53559D01*
X46903Y52961D02*
X47021D01*
X46962Y52902D02*
Y53020D01*
X46935Y53680D02*
X47053D01*
X46994Y53621D02*
Y53739D01*
X45892Y53663D02*
X46010D01*
X45951Y53604D02*
Y53722D01*
X45892Y52955D02*
X46010D01*
X45951Y52896D02*
Y53014D01*
X43886Y52982D02*
X44004D01*
X43945Y52923D02*
Y53041D01*
X43849Y53680D02*
X43967D01*
X43908Y53621D02*
Y53739D01*
X42848Y53690D02*
X42966D01*
X42907Y53631D02*
Y53749D01*
X42875Y52944D02*
X42993D01*
X42934Y52885D02*
Y53003D01*
X40987Y53116D02*
X41105D01*
X41046Y53057D02*
Y53175D01*
X43737Y28166D02*
X43855D01*
X43796Y28107D02*
Y28225D01*
X54232Y27679D02*
X54350D01*
X54291Y27620D02*
Y27738D01*
X54602Y27689D02*
X54720D01*
X54661Y27630D02*
Y27748D01*
X56471Y28822D02*
X56589D01*
X56530Y28763D02*
Y28881D01*
X61667Y35266D02*
X61785D01*
X61726Y35207D02*
Y35325D01*
X58948Y34888D02*
X59066D01*
X59007Y34829D02*
Y34947D01*
X58917Y35730D02*
X59035D01*
X58976Y35671D02*
Y35789D01*
X61626Y34925D02*
X61744D01*
X61685Y34866D02*
Y34985D01*
X61635Y35798D02*
X61753D01*
X61694Y35739D02*
Y35857D01*
X61910Y28872D02*
X62028D01*
X61969Y28813D02*
Y28932D01*
X61956Y28443D02*
X62074D01*
X62015Y28384D02*
Y28502D01*
X63648Y32588D02*
X63766D01*
X63707Y32529D02*
Y32647D01*
X63238Y30261D02*
X63356D01*
X63297Y30201D02*
Y30320D01*
X64213Y32159D02*
X64331D01*
X64272Y32100D02*
Y32218D01*
X64151Y33898D02*
X64269D01*
X64210Y33839D02*
Y33957D01*
X61608Y39441D02*
X61726D01*
X61667Y39382D02*
Y39500D01*
X53003Y42310D02*
X53121D01*
X53062Y42251D02*
Y42369D01*
X54150Y37118D02*
X54268D01*
X54209Y37059D02*
Y37177D01*
X53106Y37106D02*
X53225D01*
X53165Y37047D02*
Y37165D01*
X58956Y35283D02*
X59074D01*
X59015Y35224D02*
Y35342D01*
X56009Y30125D02*
X56127D01*
X56068Y30066D02*
Y30184D01*
X56562Y30132D02*
X56680D01*
X56621Y30073D02*
Y30191D01*
X55836Y30526D02*
X55954D01*
X55895Y30467D02*
Y30585D01*
X56292Y30533D02*
X56410D01*
X56351Y30474D02*
Y30592D01*
X56803Y30530D02*
X56922D01*
X56862Y30470D02*
Y30589D01*
X58716Y28196D02*
X58834D01*
X58775Y28137D02*
Y28255D01*
X58856Y29403D02*
X58975D01*
X58915Y29344D02*
Y29462D01*
X57889Y33834D02*
X58007D01*
X57948Y33775D02*
Y33893D01*
X57124Y32343D02*
X57242D01*
X57183Y32284D02*
Y32402D01*
X57124Y31861D02*
X57242D01*
X57183Y31802D02*
Y31920D01*
X57925Y31330D02*
X58043D01*
X57984Y31271D02*
Y31389D01*
X57931Y30894D02*
X58049D01*
X57990Y30835D02*
Y30953D01*
X57845Y30355D02*
X57963D01*
X57904Y30296D02*
Y30414D01*
X58841Y27899D02*
X58959D01*
X58900Y27840D02*
Y27958D01*
X43667Y19953D02*
X43785D01*
X43726Y19894D02*
Y20012D01*
X48366Y58268D02*
X48484D01*
X48425Y58209D02*
Y58327D01*
X47973Y55906D02*
X48091D01*
X48032Y55847D02*
Y55965D01*
X47185Y59055D02*
X47303D01*
X47244Y58996D02*
Y59114D01*
X47185Y55906D02*
X47303D01*
X47244Y55847D02*
Y55965D01*
X46398Y59055D02*
X46516D01*
X46457Y58996D02*
Y59114D01*
X46791Y58268D02*
X46910D01*
X46851Y58209D02*
Y58327D01*
X46004Y58268D02*
X46122D01*
X46063Y58209D02*
Y58327D01*
X45610Y57480D02*
X45728D01*
X45669Y57421D02*
Y57540D01*
X45610Y55906D02*
X45728D01*
X45669Y55847D02*
Y55965D01*
X44823Y59055D02*
X44941D01*
X44882Y58996D02*
Y59114D01*
X45217Y58268D02*
X45335D01*
X45276Y58209D02*
Y58327D01*
X45217Y56693D02*
X45335D01*
X45276Y56634D02*
Y56752D01*
X45217Y55118D02*
X45335D01*
X45276Y55059D02*
Y55177D01*
X44036Y59055D02*
X44154D01*
X44095Y58996D02*
Y59114D01*
X44429Y58268D02*
X44547D01*
X44488Y58209D02*
Y58327D01*
X44429Y56693D02*
X44547D01*
X44488Y56634D02*
Y56752D01*
X44036Y55906D02*
X44154D01*
X44095Y55847D02*
Y55965D01*
X44429Y55118D02*
X44547D01*
X44488Y55059D02*
Y55177D01*
X43642Y58268D02*
X43760D01*
X43701Y58209D02*
Y58327D01*
X43248Y57480D02*
X43366D01*
X43307Y57421D02*
Y57540D01*
X43642Y18898D02*
X43760D01*
X43701Y18839D02*
Y18957D01*
X43248Y18110D02*
X43366D01*
X43307Y18051D02*
Y18169D01*
X42854Y58268D02*
X42973D01*
X42914Y58209D02*
Y58327D01*
X42854Y56693D02*
X42973D01*
X42914Y56634D02*
Y56752D01*
X42461Y55906D02*
X42579D01*
X42520Y55847D02*
Y55965D01*
X42854Y55118D02*
X42973D01*
X42914Y55059D02*
Y55177D01*
X41673Y60630D02*
X41791D01*
X41732Y60571D02*
Y60689D01*
X42067Y59843D02*
X42185D01*
X42126Y59784D02*
Y59902D01*
X42067Y58268D02*
X42185D01*
X42126Y58209D02*
Y58327D01*
X40886Y60630D02*
X41004D01*
X40945Y60571D02*
Y60689D01*
X40886Y59055D02*
X41004D01*
X40945Y58996D02*
Y59114D01*
X41280Y58268D02*
X41398D01*
X41339Y58209D02*
Y58327D01*
X40492Y59843D02*
X40610D01*
X40551Y59784D02*
Y59902D01*
X40099Y59055D02*
X40217D01*
X40158Y58996D02*
Y59114D01*
X39311Y60630D02*
X39429D01*
X39370Y60571D02*
Y60689D01*
X39705Y59843D02*
X39823D01*
X39764Y59784D02*
Y59902D01*
X38524Y60630D02*
X38642D01*
X38583Y60571D02*
Y60689D01*
X38917Y59843D02*
X39036D01*
X38977Y59784D02*
Y59902D01*
X38524Y59055D02*
X38642D01*
X38583Y58996D02*
Y59114D01*
X38917Y58268D02*
X39036D01*
X38977Y58209D02*
Y58327D01*
X37736Y60630D02*
X37854D01*
X37795Y60571D02*
Y60689D01*
X38130Y59843D02*
X38248D01*
X38189Y59784D02*
Y59902D01*
X38130Y58268D02*
X38248D01*
X38189Y58209D02*
Y58327D01*
X37343Y58268D02*
X37461D01*
X37402Y58209D02*
Y58327D01*
X36162Y60630D02*
X36280D01*
X36221Y60571D02*
Y60689D01*
X36555Y58268D02*
X36673D01*
X36614Y58209D02*
Y58327D01*
X35374Y60630D02*
X35492D01*
X35433Y60571D02*
Y60689D01*
X35768Y59843D02*
X35886D01*
X35827Y59784D02*
Y59902D01*
X34587Y60630D02*
X34705D01*
X34646Y60571D02*
Y60689D01*
X34980Y59843D02*
X35099D01*
X35040Y59784D02*
Y59902D01*
X34193Y59843D02*
X34311D01*
X34252Y59784D02*
Y59902D01*
X33012Y60630D02*
X33130D01*
X33071Y60571D02*
Y60689D01*
X33012Y59055D02*
X33130D01*
X33071Y58996D02*
Y59114D01*
X32225Y60630D02*
X32343D01*
X32284Y60571D02*
Y60689D01*
X32618Y59843D02*
X32736D01*
X32677Y59784D02*
Y59902D01*
X32225Y59055D02*
X32343D01*
X32284Y58996D02*
Y59114D01*
X31437Y60630D02*
X31555D01*
X31496Y60571D02*
Y60689D01*
X31831Y59843D02*
X31949D01*
X31890Y59784D02*
Y59902D01*
X31437Y59055D02*
X31555D01*
X31496Y58996D02*
Y59114D01*
X30650Y60630D02*
X30768D01*
X30709Y60571D02*
Y60689D01*
X31043Y59843D02*
X31162D01*
X31102Y59784D02*
Y59902D01*
X30650Y59055D02*
X30768D01*
X30709Y58996D02*
Y59114D01*
X30256Y59843D02*
X30374D01*
X30315Y59784D02*
Y59902D01*
X29862Y59055D02*
X29980D01*
X29921Y58996D02*
Y59114D01*
X29075Y59055D02*
X29193D01*
X29134Y58996D02*
Y59114D01*
X28288Y59055D02*
X28406D01*
X28347Y58996D02*
Y59114D01*
X26713Y59055D02*
X26831D01*
X26772Y58996D02*
Y59114D01*
X22012Y22669D02*
X22130D01*
X22071Y22610D02*
Y22728D01*
X5059Y42520D02*
X5177D01*
X5118Y42461D02*
Y42579D01*
X3878Y44882D02*
X3996D01*
X3937Y44823D02*
Y44941D01*
X4272Y44095D02*
X4390D01*
X4331Y44036D02*
Y44154D01*
X4272Y42520D02*
X4390D01*
X4331Y42461D02*
Y42579D01*
X3091Y44882D02*
X3209D01*
X3150Y44823D02*
Y44941D01*
X3484Y44095D02*
X3602D01*
X3543Y44036D02*
Y44154D01*
X1516Y44882D02*
X1634D01*
X1575Y44823D02*
Y44941D01*
X1910Y44095D02*
X2028D01*
X1969Y44036D02*
Y44154D01*
X21262Y22736D02*
X21380D01*
X21321Y22677D02*
Y22795D01*
X21409Y21451D02*
X21528D01*
X21468Y21391D02*
Y21510D01*
X21409Y21801D02*
X21528D01*
X21468Y21741D02*
Y21860D01*
X37572Y62897D02*
X37691D01*
X37631Y62838D02*
Y62956D01*
X37615Y63361D02*
X37733D01*
X37674Y63302D02*
Y63420D01*
X36266Y62907D02*
X36384D01*
X36325Y62848D02*
Y62966D01*
X36287Y63339D02*
X36405D01*
X36346Y63280D02*
Y63398D01*
X33548Y62628D02*
X33667D01*
X33607Y62569D02*
Y62687D01*
X33517Y57627D02*
X33635D01*
X33576Y57568D02*
Y57686D01*
X47289Y63891D02*
X47407D01*
X47348Y63832D02*
Y63950D01*
X46585Y63891D02*
X46703D01*
X46644Y63832D02*
Y63950D01*
X47218Y65250D02*
X47336D01*
X47277Y65191D02*
Y65309D01*
X46628Y65234D02*
X46746D01*
X46687Y65175D02*
Y65293D01*
X53745Y64960D02*
X53863D01*
X53804Y64901D02*
Y65019D01*
X53340Y62476D02*
X53458D01*
X53399Y62417D02*
Y62535D01*
X55533Y60960D02*
X55651D01*
X55592Y60901D02*
Y61019D01*
X57063Y62312D02*
X57182D01*
X57123Y62253D02*
Y62371D01*
X58301Y63603D02*
X58419D01*
X58360Y63544D02*
Y63662D01*
X58404Y63206D02*
X58523D01*
X58463Y63147D02*
Y63265D01*
X59042Y64033D02*
X59161D01*
X59101Y63974D02*
Y64092D01*
X56851Y68378D02*
X56969D01*
X56910Y68319D02*
Y68437D01*
X53886Y66794D02*
X54004D01*
X53945Y66735D02*
Y66853D01*
X30763Y7328D02*
X30881D01*
X30822Y7269D02*
Y7387D01*
X33514Y14409D02*
X33632D01*
X33573Y14350D02*
Y14468D01*
X32882Y13764D02*
X33000D01*
X32941Y13705D02*
Y13823D01*
X31865Y13875D02*
X31983D01*
X31924Y13816D02*
Y13934D01*
X27702Y9056D02*
X27820D01*
X27761Y8997D02*
Y9115D01*
X29024Y7211D02*
X29142D01*
X29083Y7152D02*
Y7270D01*
X31505Y5584D02*
X31623D01*
X31564Y5525D02*
Y5643D01*
X30892Y6057D02*
X31010D01*
X30951Y5998D02*
Y6116D01*
X31370Y7211D02*
X31488D01*
X31429Y7152D02*
Y7270D01*
X31863Y7139D02*
X31981D01*
X31922Y7080D02*
Y7198D01*
X34053Y11169D02*
X34171D01*
X34112Y11110D02*
Y11228D01*
X36201Y9383D02*
X36319D01*
X36260Y9324D02*
Y9442D01*
X36208Y10524D02*
X36327D01*
X36267Y10465D02*
Y10583D01*
X35357Y10524D02*
X35475D01*
X35416Y10465D02*
Y10583D01*
X33639Y9241D02*
X33757D01*
X33698Y9182D02*
Y9300D01*
X33404Y8685D02*
X33522D01*
X33463Y8626D02*
Y8744D01*
X31546Y15010D02*
X31664D01*
X31605Y14951D02*
Y15069D01*
X31236Y15027D02*
X31354D01*
X31295Y14968D02*
Y15086D01*
X31603Y15404D02*
X31721D01*
X31662Y15345D02*
Y15463D01*
X31216Y15400D02*
X31334D01*
X31275Y15341D02*
Y15459D01*
X29395Y15646D02*
X29513D01*
X29454Y15587D02*
Y15705D01*
X28049Y16166D02*
X28167D01*
X28108Y16107D02*
Y16225D01*
X28808Y15697D02*
X28926D01*
X28867Y15638D02*
Y15756D01*
X28328Y15549D02*
X28446D01*
X28387Y15489D02*
Y15608D01*
X25071Y13778D02*
X25189D01*
X25130Y13719D02*
Y13837D01*
X27210Y12743D02*
X27328D01*
X27269Y12684D02*
Y12802D01*
X25374Y9375D02*
X25492D01*
X25433Y9316D02*
Y9434D01*
X26531Y9359D02*
X26650D01*
X26590Y9300D02*
Y9418D01*
X27144Y9649D02*
X27262D01*
X27203Y9590D02*
Y9708D01*
X28381Y7510D02*
X28499D01*
X28440Y7451D02*
Y7569D01*
X29074Y6514D02*
X29192D01*
X29133Y6455D02*
Y6573D01*
X28527Y8229D02*
X28646D01*
X28586Y8170D02*
Y8288D01*
X28385Y7864D02*
X28504D01*
X28444Y7805D02*
Y7923D01*
X30375Y7882D02*
X30493D01*
X30434Y7823D02*
Y7941D01*
X30905Y7587D02*
X31023D01*
X30964Y7528D02*
Y7646D01*
X31441Y7598D02*
X31560D01*
X31501Y7538D02*
Y7657D01*
X31813Y7591D02*
X31931D01*
X31872Y7532D02*
Y7650D01*
X33322Y10285D02*
X33440D01*
X33381Y10226D02*
Y10344D01*
X33322Y10875D02*
X33440D01*
X33381Y10816D02*
Y10934D01*
X33322Y11466D02*
X33440D01*
X33381Y11407D02*
Y11525D01*
X28215Y11991D02*
X28333D01*
X28274Y11932D02*
Y12050D01*
X28960Y11914D02*
X29078D01*
X29019Y11855D02*
Y11973D01*
X29489Y12866D02*
X29607D01*
X29548Y12807D02*
Y12925D01*
X29831Y12746D02*
X29950D01*
X29890Y12687D02*
Y12805D01*
X30349Y12174D02*
X30467D01*
X30408Y12115D02*
Y12233D01*
X31338Y12386D02*
X31456D01*
X31397Y12327D02*
Y12445D01*
X31399Y12690D02*
X31517D01*
X31458Y12631D02*
Y12749D01*
X32496Y12701D02*
X32614D01*
X32555Y12642D02*
Y12760D01*
X26850Y25868D02*
X26910D01*
X26880Y25838D02*
Y25898D01*
X19763Y25474D02*
X19823D01*
X19793Y25444D02*
Y25504D01*
X19831Y58651D02*
X19949D01*
X19890Y58592D02*
Y58710D01*
X38480Y31943D02*
X38599D01*
X38539Y31884D02*
Y32002D01*
X37913Y30683D02*
X38031D01*
X37972Y30624D02*
Y30742D01*
X38931Y36960D02*
X39049D01*
X38990Y36901D02*
Y37019D01*
X36833Y37017D02*
X36951D01*
X36892Y36958D02*
Y37076D01*
X32906Y37002D02*
X33024D01*
X32965Y36943D02*
Y37061D01*
X32390Y36385D02*
X32508D01*
X32449Y36326D02*
Y36444D01*
X31819Y35832D02*
X31937D01*
X31878Y35773D02*
Y35891D01*
X46004Y31496D02*
X46122D01*
X46063Y31437D02*
Y31555D01*
X45610Y30709D02*
X45728D01*
X45669Y30650D02*
Y30768D01*
X45217Y31496D02*
X45335D01*
X45276Y31437D02*
Y31555D01*
X44429Y31496D02*
X44547D01*
X44488Y31437D02*
Y31555D01*
X44036Y30709D02*
X44154D01*
X44095Y30650D02*
Y30768D01*
X43642Y31496D02*
X43760D01*
X43701Y31437D02*
Y31555D01*
X43248Y30709D02*
X43366D01*
X43307Y30650D02*
Y30768D01*
X44429Y33858D02*
X44547D01*
X44488Y33799D02*
Y33917D01*
X44036Y33071D02*
X44154D01*
X44095Y33012D02*
Y33130D01*
X43248Y34646D02*
X43366D01*
X43307Y34587D02*
Y34705D01*
X43642Y33858D02*
X43760D01*
X43701Y33799D02*
Y33917D01*
X43248Y33071D02*
X43366D01*
X43307Y33012D02*
Y33130D01*
X41954Y29735D02*
X42073D01*
X42014Y29676D02*
Y29794D01*
X42721Y29072D02*
X42839D01*
X42780Y29013D02*
Y29132D01*
X42734Y29433D02*
X42852D01*
X42793Y29374D02*
Y29492D01*
X42724Y29733D02*
X42842D01*
X42783Y29674D02*
Y29792D01*
X38663Y29165D02*
X38781D01*
X38722Y29106D02*
Y29224D01*
X39101Y27820D02*
X39219D01*
X39160Y27761D02*
Y27879D01*
X39640Y27011D02*
X39758D01*
X39699Y26952D02*
Y27070D01*
X50993Y19972D02*
X51111D01*
X51052Y19913D02*
Y20031D01*
X51008Y21253D02*
X51126D01*
X51067Y21194D02*
Y21312D01*
X48432Y24438D02*
X48550D01*
X48491Y24379D02*
Y24497D01*
X48415Y24889D02*
X48533D01*
X48474Y24830D02*
Y24948D01*
X48144Y25016D02*
X48262D01*
X48203Y24957D02*
Y25075D01*
X47830Y25011D02*
X47948D01*
X47889Y24952D02*
Y25070D01*
X50979Y13916D02*
X51097D01*
X51038Y13857D02*
Y13975D01*
X51539Y13462D02*
X51657D01*
X51598Y13403D02*
Y13521D01*
X51910Y11811D02*
X52028D01*
X51969Y11752D02*
Y11870D01*
X52303Y11024D02*
X52421D01*
X52362Y10965D02*
Y11083D01*
X51516Y12599D02*
X51634D01*
X51575Y12539D02*
Y12658D01*
X51122Y11811D02*
X51240D01*
X51181Y11752D02*
Y11870D01*
X50728Y11024D02*
X50847D01*
X50788Y10965D02*
Y11083D01*
X49154Y21260D02*
X49272D01*
X49213Y21201D02*
Y21319D01*
X49154Y19685D02*
X49272D01*
X49213Y19626D02*
Y19744D01*
X48366Y21260D02*
X48484D01*
X48425Y21201D02*
Y21319D01*
X47973Y20473D02*
X48091D01*
X48032Y20414D02*
Y20532D01*
X48366Y19685D02*
X48484D01*
X48425Y19626D02*
Y19744D01*
X47973Y18898D02*
X48091D01*
X48032Y18839D02*
Y18957D01*
X47579Y19685D02*
X47697D01*
X47638Y19626D02*
Y19744D01*
X53649Y18955D02*
X53767D01*
X53708Y18896D02*
Y19014D01*
X54301Y18950D02*
X54419D01*
X54360Y18891D02*
Y19009D01*
X60432Y18841D02*
X60550D01*
X60491Y18782D02*
Y18900D01*
X62337Y18227D02*
X62456D01*
X62396Y18168D02*
Y18286D01*
X62340Y18612D02*
X62458D01*
X62399Y18553D02*
Y18671D01*
X61206Y21055D02*
X61324D01*
X61265Y20995D02*
Y21114D01*
X61061Y20078D02*
X61179D01*
X61120Y20019D02*
Y20137D01*
X61084Y20404D02*
X61202D01*
X61143Y20345D02*
Y20463D01*
X57553Y17500D02*
X57671D01*
X57612Y17441D02*
Y17559D01*
X55822Y17453D02*
X55940D01*
X55881Y17394D02*
Y17513D01*
X56074Y18093D02*
X56192D01*
X56133Y18034D02*
Y18152D01*
X57256Y18089D02*
X57374D01*
X57315Y18030D02*
Y18148D01*
X58047Y20095D02*
X58165D01*
X58106Y20036D02*
Y20154D01*
X57945Y18303D02*
X58063D01*
X58004Y18244D02*
Y18362D01*
X57921Y18542D02*
X58039D01*
X57980Y18483D02*
Y18602D01*
X58025Y19199D02*
X58143D01*
X58084Y19140D02*
Y19258D01*
X58033Y20342D02*
X58151D01*
X58092Y20283D02*
Y20401D01*
X58034Y19548D02*
X58152D01*
X58093Y19489D02*
Y19607D01*
X56898Y22298D02*
X57016D01*
X56957Y22239D02*
Y22358D01*
X56278Y22548D02*
X56396D01*
X56337Y22489D02*
Y22607D01*
X57891Y21704D02*
X58009D01*
X57950Y21645D02*
Y21763D01*
X57721Y21049D02*
X57839D01*
X57780Y20990D02*
Y21108D01*
X55852Y21576D02*
X55971D01*
X55912Y21517D02*
Y21635D01*
X55588Y21999D02*
X55706D01*
X55647Y21940D02*
Y22058D01*
X58210Y23232D02*
X58328D01*
X58269Y23173D02*
Y23291D01*
X58221Y24343D02*
X58340D01*
X58281Y24284D02*
Y24402D01*
X57049Y24161D02*
X57168D01*
X57109Y24102D02*
Y24220D01*
X57049Y24874D02*
X57168D01*
X57109Y24815D02*
Y24933D01*
X35007Y30692D02*
X35125D01*
X35066Y30633D02*
Y30751D01*
X31056Y30424D02*
X31174D01*
X31115Y30365D02*
Y30483D01*
X33012Y33071D02*
X33130D01*
X33071Y33012D02*
Y33130D01*
X33406Y32284D02*
X33524D01*
X33465Y32225D02*
Y32343D01*
X33012Y31496D02*
X33130D01*
X33071Y31437D02*
Y31555D01*
X33406Y30709D02*
X33524D01*
X33465Y30650D02*
Y30768D01*
X33012Y29921D02*
X33130D01*
X33071Y29862D02*
Y29980D01*
X32225Y33071D02*
X32343D01*
X32284Y33012D02*
Y33130D01*
X32618Y32284D02*
X32736D01*
X32677Y32225D02*
Y32343D01*
X32225Y29921D02*
X32343D01*
X32284Y29862D02*
Y29980D01*
X31831Y32284D02*
X31949D01*
X31890Y32225D02*
Y32343D01*
X31831Y30709D02*
X31949D01*
X31890Y30650D02*
Y30768D01*
X30650Y33071D02*
X30768D01*
X30709Y33012D02*
Y33130D01*
X29862Y33071D02*
X29980D01*
X29921Y33012D02*
Y33130D01*
X30256Y32284D02*
X30374D01*
X30315Y32225D02*
Y32343D01*
X29075Y33071D02*
X29193D01*
X29134Y33012D02*
Y33130D01*
X29469Y32284D02*
X29587D01*
X29528Y32225D02*
Y32343D01*
X4448Y37625D02*
X4566D01*
X4507Y37566D02*
Y37684D01*
X21765Y13539D02*
X21883D01*
X21824Y13480D02*
Y13598D01*
X21772Y14359D02*
X21890D01*
X21831Y14300D02*
Y14418D01*
X21752Y15185D02*
X21870D01*
X21811Y15126D02*
Y15244D01*
X21769Y16011D02*
X21887D01*
X21828Y15952D02*
Y16071D01*
X20068Y15334D02*
X20186D01*
X20127Y15275D02*
Y15393D01*
X18301Y14885D02*
X18419D01*
X18360Y14826D02*
Y14944D01*
X16436Y15421D02*
X16554D01*
X16495Y15362D02*
Y15480D01*
X15353Y15428D02*
X15471D01*
X15412Y15369D02*
Y15487D01*
X19272Y13520D02*
X19390D01*
X19331Y13461D02*
Y13579D01*
X16381Y11241D02*
X16499D01*
X16440Y11182D02*
Y11300D01*
X15312Y11235D02*
X15431D01*
X15371Y11176D02*
Y11294D01*
X18283Y10756D02*
X18401D01*
X18342Y10697D02*
Y10815D01*
X16399Y6988D02*
X16517D01*
X16458Y6929D02*
Y7047D01*
X15190Y7053D02*
X15308D01*
X15249Y6994D02*
Y7112D01*
X18042Y6502D02*
X18160D01*
X18101Y6443D02*
Y6561D01*
X19260Y5154D02*
X19378D01*
X19319Y5095D02*
Y5214D01*
X19070Y9096D02*
X19188D01*
X19129Y9037D02*
Y9155D01*
X25532Y61417D02*
X25650D01*
X25591Y61358D02*
Y61477D01*
X25138Y60630D02*
X25256D01*
X25197Y60571D02*
Y60689D01*
X24744Y61417D02*
X24862D01*
X24803Y61358D02*
Y61477D01*
X24351Y60630D02*
X24469D01*
X24410Y60571D02*
Y60689D01*
X23957Y61417D02*
X24075D01*
X24016Y61358D02*
Y61477D01*
X21988Y60630D02*
X22106D01*
X22047Y60571D02*
Y60689D01*
X21107Y61292D02*
X21225D01*
X21166Y61233D02*
Y61351D01*
X20339Y59239D02*
X20457D01*
X20398Y59180D02*
Y59298D01*
X19490Y58759D02*
X19608D01*
X19549Y58700D02*
Y58818D01*
X19553Y60211D02*
X19671D01*
X19612Y60152D02*
Y60270D01*
X19561Y60573D02*
X19679D01*
X19620Y60514D02*
Y60632D01*
X19791Y61141D02*
X19909D01*
X19850Y61082D02*
Y61200D01*
X19635Y61938D02*
X19753D01*
X19694Y61879D02*
Y61997D01*
X19624Y61510D02*
X19742D01*
X19683Y61451D02*
Y61569D01*
X21096Y63401D02*
X21215D01*
X21156Y63342D02*
Y63460D01*
X28288Y64567D02*
X28406D01*
X28347Y64508D02*
Y64626D01*
X28681Y63780D02*
X28799D01*
X28740Y63721D02*
Y63839D01*
X27500Y64567D02*
X27618D01*
X27559Y64508D02*
Y64626D01*
X27894Y63780D02*
X28012D01*
X27953Y63721D02*
Y63839D01*
X26713Y64567D02*
X26831D01*
X26772Y64508D02*
Y64626D01*
X27106Y63780D02*
X27225D01*
X27165Y63721D02*
Y63839D01*
X26713Y62992D02*
X26831D01*
X26772Y62933D02*
Y63051D01*
X25925Y64567D02*
X26043D01*
X25984Y64508D02*
Y64626D01*
X26319Y63780D02*
X26437D01*
X26378Y63721D02*
Y63839D01*
X25138Y64567D02*
X25256D01*
X25197Y64508D02*
Y64626D01*
X24351Y64567D02*
X24469D01*
X24410Y64508D02*
Y64626D01*
X24744Y63780D02*
X24862D01*
X24803Y63721D02*
Y63839D01*
X24351Y62992D02*
X24469D01*
X24410Y62933D02*
Y63051D01*
X23563Y64567D02*
X23681D01*
X23622Y64508D02*
Y64626D01*
X23957Y63780D02*
X24075D01*
X24016Y63721D02*
Y63839D01*
X26216Y60502D02*
X26334D01*
X26275Y60443D02*
Y60561D01*
X47973Y59055D02*
X48091D01*
X48032Y58996D02*
Y59114D01*
X47973Y57480D02*
X48091D01*
X48032Y57421D02*
Y57540D01*
X47579Y58268D02*
X47697D01*
X47638Y58209D02*
Y58327D01*
X47185Y57480D02*
X47303D01*
X47244Y57421D02*
Y57540D01*
X47579Y56693D02*
X47697D01*
X47638Y56634D02*
Y56752D01*
X46398Y57480D02*
X46516D01*
X46457Y57421D02*
Y57540D01*
X46791Y56693D02*
X46910D01*
X46851Y56634D02*
Y56752D01*
X45610Y59055D02*
X45728D01*
X45669Y58996D02*
Y59114D01*
X46004Y56693D02*
X46122D01*
X46063Y56634D02*
Y56752D01*
X44823Y57480D02*
X44941D01*
X44882Y57421D02*
Y57540D01*
X44823Y55906D02*
X44941D01*
X44882Y55847D02*
Y55965D01*
X44036Y57480D02*
X44154D01*
X44095Y57421D02*
Y57540D01*
X43248Y59055D02*
X43366D01*
X43307Y58996D02*
Y59114D01*
X43642Y56693D02*
X43760D01*
X43701Y56634D02*
Y56752D01*
X42461Y59055D02*
X42579D01*
X42520Y58996D02*
Y59114D01*
X42461Y57480D02*
X42579D01*
X42520Y57421D02*
Y57540D01*
X41673Y59055D02*
X41791D01*
X41732Y58996D02*
Y59114D01*
X41280Y59843D02*
X41398D01*
X41339Y59784D02*
Y59902D01*
X40099Y60630D02*
X40217D01*
X40158Y60571D02*
Y60689D01*
X40492Y58268D02*
X40610D01*
X40551Y58209D02*
Y58327D01*
X39311Y59055D02*
X39429D01*
X39370Y58996D02*
Y59114D01*
X39705Y58268D02*
X39823D01*
X39764Y58209D02*
Y58327D01*
X37736Y59055D02*
X37854D01*
X37795Y58996D02*
Y59114D01*
X36162Y59055D02*
X36280D01*
X36221Y58996D02*
Y59114D01*
X8205Y48947D02*
X8323D01*
X8264Y48888D02*
Y49006D01*
X9463Y42800D02*
X9581D01*
X9522Y42741D02*
Y42859D01*
X12924Y43776D02*
X13042D01*
X12983Y43717D02*
Y43835D01*
X12972Y42943D02*
X13091D01*
X13032Y42883D02*
Y43002D01*
X21853Y19304D02*
X21971D01*
X21912Y19245D02*
Y19363D01*
X21487Y19302D02*
X21605D01*
X21546Y19243D02*
Y19361D01*
X19329Y41566D02*
X19447D01*
X19388Y41507D02*
Y41625D01*
X19639Y41206D02*
X19757D01*
X19698Y41147D02*
Y41266D01*
X17851Y43794D02*
X17969D01*
X17910Y43735D02*
Y43853D01*
X17828Y44201D02*
X17946D01*
X17887Y44142D02*
Y44260D01*
X17790Y44925D02*
X17908D01*
X17849Y44866D02*
Y44985D01*
X18839Y41732D02*
X18957D01*
X18898Y41673D02*
Y41791D01*
X18839Y40158D02*
X18957D01*
X18898Y40099D02*
Y40217D01*
X18051Y40158D02*
X18169D01*
X18110Y40099D02*
Y40217D01*
X17264Y40158D02*
X17382D01*
X17323Y40099D02*
Y40217D01*
X16476Y43307D02*
X16595D01*
X16536Y43248D02*
Y43366D01*
X16476Y41732D02*
X16595D01*
X16536Y41673D02*
Y41791D01*
X16870Y40945D02*
X16988D01*
X16929Y40886D02*
Y41004D01*
X16476Y40158D02*
X16595D01*
X16536Y40099D02*
Y40217D01*
X15689Y43307D02*
X15807D01*
X15748Y43248D02*
Y43366D01*
X16083Y42520D02*
X16201D01*
X16142Y42461D02*
Y42579D01*
X15689Y41732D02*
X15807D01*
X15748Y41673D02*
Y41791D01*
X16083Y40945D02*
X16201D01*
X16142Y40886D02*
Y41004D01*
X15295Y42520D02*
X15414D01*
X15354Y42461D02*
Y42579D01*
X14902Y41732D02*
X15020D01*
X14961Y41673D02*
Y41791D01*
X20730Y49254D02*
X20848D01*
X20789Y49195D02*
Y49313D01*
X19652Y49274D02*
X19770D01*
X19711Y49215D02*
Y49333D01*
X20166Y49274D02*
X20284D01*
X20225Y49215D02*
Y49333D01*
X19113Y49254D02*
X19231D01*
X19172Y49195D02*
Y49313D01*
X2349Y42166D02*
X2467D01*
X2408Y42107D02*
Y42225D01*
X6189Y42571D02*
X6307D01*
X6248Y42512D02*
Y42630D01*
X7756Y38400D02*
X7874D01*
X7815Y38341D02*
Y38459D01*
X7746Y38759D02*
X7865D01*
X7806Y38700D02*
Y38818D01*
X7744Y39179D02*
X7862D01*
X7803Y39120D02*
Y39238D01*
X7734Y39632D02*
X7852D01*
X7793Y39573D02*
Y39691D01*
X5426Y39940D02*
X5545D01*
X5485Y39881D02*
Y39999D01*
X6002Y38233D02*
X6120D01*
X6061Y38174D02*
Y38292D01*
X2941Y38475D02*
X3059D01*
X3000Y38416D02*
Y38534D01*
X2959Y38791D02*
X3077D01*
X3018Y38732D02*
Y38850D01*
X3288Y38782D02*
X3407D01*
X3348Y38723D02*
Y38842D01*
X2172Y36052D02*
X2290D01*
X2231Y35993D02*
Y36112D01*
X2824Y33658D02*
X2942D01*
X2883Y33599D02*
Y33717D01*
X2808Y33296D02*
X2926D01*
X2867Y33237D02*
Y33355D01*
X2761Y32957D02*
X2879D01*
X2820Y32898D02*
Y33016D01*
X2833Y34188D02*
X2951D01*
X2892Y34129D02*
Y34248D01*
X2665Y34597D02*
X2783D01*
X2724Y34538D02*
Y34656D01*
X2411Y34851D02*
X2529D01*
X2470Y34792D02*
Y34910D01*
X1904Y34909D02*
X2022D01*
X1963Y34850D02*
Y34968D01*
X1520Y34712D02*
X1638D01*
X1579Y34653D02*
Y34771D01*
X3273Y36561D02*
X3391D01*
X3332Y36502D02*
Y36621D01*
X8245Y31399D02*
X8305D01*
X8275Y31369D02*
Y31429D01*
X8406Y31394D02*
X8466D01*
X8436Y31364D02*
Y31424D01*
X8070Y31402D02*
X8130D01*
X8100Y31372D02*
Y31432D01*
X5206Y38403D02*
X5285D01*
X5246Y38363D02*
Y38442D01*
X5433Y38029D02*
X5511D01*
X5472Y37989D02*
Y38068D01*
X4980Y38029D02*
X5059D01*
X5019Y37989D02*
Y38068D01*
X5206Y37655D02*
X5285D01*
X5246Y37615D02*
Y37694D01*
X19634Y45226D02*
X19752D01*
X19693Y45166D02*
Y45285D01*
X19634Y45803D02*
X19752D01*
X19693Y45744D02*
Y45862D01*
X20211Y45226D02*
X20329D01*
X20270Y45166D02*
Y45285D01*
X20500Y45226D02*
X20618D01*
X20559Y45166D02*
Y45285D01*
X20500Y45803D02*
X20618D01*
X20559Y45744D02*
Y45862D01*
X20211Y46091D02*
X20329D01*
X20270Y46032D02*
Y46150D01*
X19634Y45514D02*
X19752D01*
X19693Y45455D02*
Y45573D01*
X20500Y45514D02*
X20618D01*
X20559Y45455D02*
Y45573D01*
X19923Y45226D02*
X20041D01*
X19982Y45166D02*
Y45285D01*
X19923Y46091D02*
X20041D01*
X19982Y46032D02*
Y46150D01*
X27243Y25081D02*
X27303D01*
X27273Y25051D02*
Y25111D01*
X8399Y28274D02*
X8459D01*
X8429Y28244D02*
Y28304D01*
X8399Y28589D02*
X8459D01*
X8429Y28559D02*
Y28619D01*
X8399Y28904D02*
X8459D01*
X8429Y28874D02*
Y28934D01*
X11598Y31424D02*
X11658D01*
X11628Y31394D02*
Y31454D01*
X17794Y28230D02*
X17854D01*
X17824Y28200D02*
Y28260D01*
X17401Y28230D02*
X17461D01*
X17431Y28200D02*
Y28260D01*
X9372Y28349D02*
X9432D01*
X9402Y28319D02*
Y28379D01*
X9372Y28199D02*
X9432D01*
X9402Y28169D02*
Y28229D01*
X17476Y26258D02*
X17536D01*
X17506Y26228D02*
Y26288D01*
X17326Y26258D02*
X17386D01*
X17356Y26228D02*
Y26288D01*
X18188Y29411D02*
X18248D01*
X18218Y29381D02*
Y29441D01*
X17794Y29411D02*
X17854D01*
X17824Y29381D02*
Y29441D01*
X9029Y31739D02*
X9089D01*
X9059Y31709D02*
Y31769D01*
X9029Y32054D02*
X9089D01*
X9059Y32024D02*
Y32084D01*
X9029Y32369D02*
X9089D01*
X9059Y32339D02*
Y32399D01*
X8714Y32684D02*
X8774D01*
X8744Y32654D02*
Y32714D01*
X8714Y31739D02*
X8774D01*
X8744Y31709D02*
Y31769D01*
X8714Y32054D02*
X8774D01*
X8744Y32024D02*
Y32084D01*
X8714Y32369D02*
X8774D01*
X8744Y32339D02*
Y32399D01*
X8710Y31428D02*
X8770D01*
X8740Y31398D02*
Y31458D01*
X11412Y29534D02*
X11472D01*
X11442Y29504D02*
Y29564D01*
X11234Y29534D02*
X11294D01*
X11264Y29504D02*
Y29564D01*
X11404Y29849D02*
X11464D01*
X11434Y29819D02*
Y29879D01*
X11234Y29849D02*
X11294D01*
X11264Y29819D02*
Y29879D01*
X8399Y30794D02*
X8459D01*
X8429Y30764D02*
Y30824D01*
X8714Y30479D02*
X8774D01*
X8744Y30449D02*
Y30509D01*
X8714Y30794D02*
X8774D01*
X8744Y30764D02*
Y30824D01*
X9029Y29849D02*
X9089D01*
X9059Y29819D02*
Y29879D01*
X8714Y29849D02*
X8774D01*
X8744Y29819D02*
Y29879D01*
X9035Y29225D02*
X9094D01*
X9064Y29195D02*
Y29255D01*
X9016Y28591D02*
X9076D01*
X9046Y28561D02*
Y28621D01*
X8720Y29225D02*
X8780D01*
X8750Y29195D02*
Y29255D01*
X9029Y27645D02*
X9089D01*
X9059Y27615D02*
Y27675D01*
X8399Y27645D02*
X8459D01*
X8429Y27615D02*
Y27675D01*
X8399Y27959D02*
X8459D01*
X8429Y27929D02*
Y27989D01*
X8399Y29219D02*
X8459D01*
X8429Y29189D02*
Y29249D01*
X8399Y29534D02*
X8459D01*
X8429Y29504D02*
Y29564D01*
X8399Y29849D02*
X8459D01*
X8429Y29819D02*
Y29879D01*
X8714Y27959D02*
X8774D01*
X8744Y27929D02*
Y27989D01*
X8051Y31014D02*
X8111D01*
X8081Y30984D02*
Y31044D01*
X8399Y32684D02*
X8459D01*
X8429Y32654D02*
Y32714D01*
X8042Y32684D02*
X8102D01*
X8072Y32654D02*
Y32714D01*
X8221Y32684D02*
X8281D01*
X8251Y32654D02*
Y32714D01*
X8406Y32369D02*
X8466D01*
X8436Y32339D02*
Y32399D01*
X8406Y32054D02*
X8466D01*
X8436Y32024D02*
Y32084D01*
X8406Y31739D02*
X8466D01*
X8436Y31709D02*
Y31769D01*
X8066Y31739D02*
X8126D01*
X8096Y31709D02*
Y31769D01*
X8236Y31739D02*
X8296D01*
X8266Y31709D02*
Y31769D01*
X8236Y32369D02*
X8296D01*
X8266Y32339D02*
Y32399D01*
X8066Y32369D02*
X8126D01*
X8096Y32339D02*
Y32399D01*
X11241Y31424D02*
X11301D01*
X11271Y31394D02*
Y31454D01*
X11234Y27959D02*
X11294D01*
X11264Y27929D02*
Y27989D01*
X11412Y27959D02*
X11472D01*
X11442Y27929D02*
Y27989D01*
X11234Y28904D02*
X11294D01*
X11264Y28874D02*
Y28934D01*
X11412Y28904D02*
X11472D01*
X11442Y28874D02*
Y28934D01*
X11234Y28274D02*
X11294D01*
X11264Y28244D02*
Y28304D01*
X11404Y28274D02*
X11464D01*
X11434Y28244D02*
Y28304D01*
X11234Y29219D02*
X11294D01*
X11264Y29189D02*
Y29249D01*
X11404Y29219D02*
X11464D01*
X11434Y29189D02*
Y29249D01*
X11234Y32684D02*
X11294D01*
X11264Y32654D02*
Y32714D01*
X11591Y32684D02*
X11651D01*
X11621Y32654D02*
Y32714D01*
X12145Y31424D02*
X12205D01*
X12175Y31394D02*
Y31454D01*
X10244Y29609D02*
X10304D01*
X10274Y29579D02*
Y29639D01*
X10604Y28589D02*
X10664D01*
X10634Y28559D02*
Y28619D01*
X10604Y28904D02*
X10664D01*
X10634Y28874D02*
Y28934D01*
X10919Y28904D02*
X10979D01*
X10949Y28874D02*
Y28934D01*
X10919Y28589D02*
X10979D01*
X10949Y28559D02*
Y28619D01*
X10919Y29219D02*
X10979D01*
X10949Y29189D02*
Y29249D01*
X10905Y29863D02*
X10965D01*
X10935Y29833D02*
Y29893D01*
X10919Y29534D02*
X10979D01*
X10949Y29504D02*
Y29564D01*
X10919Y32684D02*
X10979D01*
X10949Y32654D02*
Y32714D01*
X11220Y28603D02*
X11280D01*
X11250Y28573D02*
Y28633D01*
X9435Y30404D02*
X9495D01*
X9465Y30374D02*
Y30434D01*
X9435Y30554D02*
X9495D01*
X9465Y30524D02*
Y30584D01*
X10604Y30794D02*
X10664D01*
X10634Y30764D02*
Y30824D01*
X11229Y30781D02*
X11289D01*
X11259Y30751D02*
Y30811D01*
X10919Y30479D02*
X10979D01*
X10949Y30449D02*
Y30509D01*
X10919Y30794D02*
X10979D01*
X10949Y30764D02*
Y30824D01*
X10604Y31109D02*
X10664D01*
X10634Y31079D02*
Y31139D01*
X10919Y31739D02*
X10979D01*
X10949Y31709D02*
Y31769D01*
X10604Y32054D02*
X10664D01*
X10634Y32024D02*
Y32084D01*
X10604Y31424D02*
X10664D01*
X10634Y31394D02*
Y31454D01*
X10919Y32054D02*
X10979D01*
X10949Y32024D02*
Y32084D01*
X10604Y31739D02*
X10664D01*
X10634Y31709D02*
Y31769D01*
X10919Y31424D02*
X10979D01*
X10949Y31394D02*
Y31454D01*
X11574Y32369D02*
X11634D01*
X11604Y32339D02*
Y32399D01*
X11404Y31739D02*
X11464D01*
X11434Y31709D02*
Y31769D01*
X11574Y31739D02*
X11634D01*
X11604Y31709D02*
Y31769D01*
X11234Y31739D02*
X11294D01*
X11264Y31709D02*
Y31769D01*
X11234Y32054D02*
X11294D01*
X11264Y32024D02*
Y32084D01*
X11234Y32369D02*
X11294D01*
X11264Y32339D02*
Y32399D01*
X10604Y30479D02*
X10664D01*
X10634Y30449D02*
Y30509D01*
X8714Y29534D02*
X8774D01*
X8744Y29504D02*
Y29564D01*
X9035Y29539D02*
X9094D01*
X9064Y29509D02*
Y29569D01*
X10919Y27959D02*
X10979D01*
X10949Y27929D02*
Y27989D01*
X10604Y27959D02*
X10664D01*
X10634Y27929D02*
Y27989D01*
X20944Y34530D02*
X21004D01*
X20974Y34500D02*
Y34560D01*
X24487Y34923D02*
X24547D01*
X24517Y34893D02*
Y34953D01*
X50132Y41917D02*
X50192D01*
X50162Y41887D02*
Y41947D01*
X17007Y26262D02*
X17067D01*
X17037Y26232D02*
Y26292D01*
X17369Y28598D02*
X17429D01*
X17399Y28568D02*
Y28628D01*
X17401Y25474D02*
X17461D01*
X17431Y25444D02*
Y25504D01*
X17007Y28624D02*
X17067D01*
X17037Y28594D02*
Y28654D01*
X17007Y29018D02*
X17067D01*
X17037Y28988D02*
Y29048D01*
X18976Y33349D02*
X19036D01*
X19006Y33319D02*
Y33379D01*
X19369Y30593D02*
X19429D01*
X19399Y30563D02*
Y30623D01*
X19763Y30986D02*
X19823D01*
X19793Y30956D02*
Y31016D01*
X20157Y26656D02*
X20217D01*
X20187Y26626D02*
Y26686D01*
X20157Y25868D02*
X20217D01*
X20187Y25838D02*
Y25898D01*
X21338Y32955D02*
X21398D01*
X21368Y32925D02*
Y32985D01*
X22519Y30986D02*
X22579D01*
X22549Y30956D02*
Y31016D01*
X26850Y32561D02*
X26910D01*
X26880Y32531D02*
Y32591D01*
X25668Y25868D02*
X25728D01*
X25698Y25838D02*
Y25898D01*
X25275Y26262D02*
X25335D01*
X25305Y26232D02*
Y26292D01*
X24094Y27049D02*
X24154D01*
X24124Y27019D02*
Y27079D01*
X24094Y27443D02*
X24154D01*
X24124Y27413D02*
Y27473D01*
X23306Y29411D02*
X23366D01*
X23336Y29381D02*
Y29441D01*
X23306Y31774D02*
X23366D01*
X23336Y31744D02*
Y31804D01*
X17007Y28230D02*
X17067D01*
X17037Y28200D02*
Y28260D01*
X18976Y30986D02*
X19036D01*
X19006Y30956D02*
Y31016D01*
X20157Y27049D02*
X20217D01*
X20187Y27019D02*
Y27079D01*
X20944Y27049D02*
X21004D01*
X20974Y27019D02*
Y27079D01*
X21338Y31380D02*
X21398D01*
X21368Y31350D02*
Y31410D01*
X21338Y27443D02*
X21398D01*
X21368Y27413D02*
Y27473D01*
X22913Y34923D02*
X22973D01*
X22943Y34893D02*
Y34953D01*
X26484Y34424D02*
X26544D01*
X26514Y34394D02*
Y34454D01*
X24487Y29805D02*
X24547D01*
X24517Y29775D02*
Y29835D01*
X23700Y25868D02*
X23760D01*
X23730Y25838D02*
Y25898D01*
X23306Y28624D02*
X23366D01*
X23336Y28594D02*
Y28654D01*
X22913Y25868D02*
X22973D01*
X22943Y25838D02*
Y25898D01*
X22913Y29805D02*
X22973D01*
X22943Y29775D02*
Y29835D01*
X18188Y33349D02*
X18248D01*
X18218Y33319D02*
Y33379D01*
X17794Y33742D02*
X17854D01*
X17824Y33712D02*
Y33772D01*
X19369Y27443D02*
X19429D01*
X19399Y27413D02*
Y27473D01*
X20944Y32561D02*
X21004D01*
X20974Y32531D02*
Y32591D01*
X21731Y30593D02*
X21791D01*
X21761Y30563D02*
Y30623D01*
X22519Y29018D02*
X22579D01*
X22549Y28988D02*
Y29048D01*
X22519Y26656D02*
X22579D01*
X22549Y26626D02*
Y26686D01*
X26850Y28230D02*
X26910D01*
X26880Y28200D02*
Y28260D01*
X26062Y27443D02*
X26122D01*
X26092Y27413D02*
Y27473D01*
X25668Y25474D02*
X25728D01*
X25698Y25444D02*
Y25504D01*
X24487Y32167D02*
X24547D01*
X24517Y32137D02*
Y32197D01*
X23700Y31774D02*
X23760D01*
X23730Y31744D02*
Y31804D01*
X23700Y34136D02*
X23760D01*
X23730Y34106D02*
Y34166D01*
X23306Y29018D02*
X23366D01*
X23336Y28988D02*
Y29048D01*
X18582Y30986D02*
X18642D01*
X18612Y30956D02*
Y31016D01*
X17794Y31380D02*
X17854D01*
X17824Y31350D02*
Y31410D01*
X17401Y29018D02*
X17461D01*
X17431Y28988D02*
Y29048D01*
X18976Y32955D02*
X19036D01*
X19006Y32925D02*
Y32985D01*
X19369Y34530D02*
X19429D01*
X19399Y34500D02*
Y34560D01*
X19369Y33742D02*
X19429D01*
X19399Y33712D02*
Y33772D01*
X20157Y29411D02*
X20217D01*
X20187Y29381D02*
Y29441D01*
X20550Y32167D02*
X20610D01*
X20580Y32137D02*
Y32197D01*
X20550Y29805D02*
X20610D01*
X20580Y29775D02*
Y29835D01*
X20550Y27049D02*
X20610D01*
X20580Y27019D02*
Y27079D01*
X20944Y27443D02*
X21004D01*
X20974Y27413D02*
Y27473D01*
X25275Y34923D02*
X25335D01*
X25305Y34893D02*
Y34953D01*
X24881Y25474D02*
X24941D01*
X24911Y25444D02*
Y25504D01*
X23306Y26656D02*
X23366D01*
X23336Y26626D02*
Y26686D01*
X22913Y30986D02*
X22973D01*
X22943Y30956D02*
Y31016D01*
X17794Y29805D02*
X17854D01*
X17824Y29775D02*
Y29835D01*
X17792Y26277D02*
X17852D01*
X17822Y26247D02*
Y26307D01*
X17401Y29805D02*
X17461D01*
X17431Y29775D02*
Y29835D01*
X18976Y34530D02*
X19036D01*
X19006Y34500D02*
Y34560D01*
X18976Y29805D02*
X19036D01*
X19006Y29775D02*
Y29835D01*
X19369Y34923D02*
X19429D01*
X19399Y34893D02*
Y34953D01*
X19369Y29805D02*
X19429D01*
X19399Y29775D02*
Y29835D01*
X19763Y30593D02*
X19823D01*
X19793Y30563D02*
Y30623D01*
X19763Y26262D02*
X19823D01*
X19793Y26232D02*
Y26292D01*
X20157Y34136D02*
X20217D01*
X20187Y34106D02*
Y34166D01*
X20157Y30593D02*
X20217D01*
X20187Y30563D02*
Y30623D01*
X21338Y30593D02*
X21398D01*
X21368Y30563D02*
Y30623D01*
X21338Y26656D02*
X21398D01*
X21368Y26626D02*
Y26686D01*
X24487Y25868D02*
X24547D01*
X24517Y25838D02*
Y25898D01*
X24487Y33349D02*
X24547D01*
X24517Y33319D02*
Y33379D01*
X23306Y30593D02*
X23366D01*
X23336Y30563D02*
Y30623D01*
X22913Y28624D02*
X22973D01*
X22943Y28594D02*
Y28654D01*
X17007Y25081D02*
X17067D01*
X17037Y25051D02*
Y25111D01*
X20550Y25868D02*
X20610D01*
X20580Y25838D02*
Y25898D01*
X20944Y31774D02*
X21004D01*
X20974Y31744D02*
Y31804D01*
X21338Y29018D02*
X21398D01*
X21368Y28988D02*
Y29048D01*
X21338Y27049D02*
X21398D01*
X21368Y27019D02*
Y27079D01*
X21338Y25868D02*
X21398D01*
X21368Y25838D02*
Y25898D01*
X22519Y32561D02*
X22579D01*
X22549Y32531D02*
Y32591D01*
X22519Y29411D02*
X22579D01*
X22549Y29381D02*
Y29441D01*
X26850Y31774D02*
X26910D01*
X26880Y31744D02*
Y31804D01*
X27243Y35317D02*
X27303D01*
X27273Y35287D02*
Y35347D01*
X26062Y29805D02*
X26122D01*
X26092Y29775D02*
Y29835D01*
X25668Y30986D02*
X25728D01*
X25698Y30956D02*
Y31016D01*
X24987Y32926D02*
X25047D01*
X25017Y32896D02*
Y32956D01*
X23700Y27837D02*
X23760D01*
X23730Y27807D02*
Y27867D01*
X17794Y26656D02*
X17854D01*
X17824Y26626D02*
Y26686D01*
X17008Y29785D02*
X17068D01*
X17038Y29755D02*
Y29815D01*
X18976Y32167D02*
X19036D01*
X19006Y32137D02*
Y32197D01*
X18976Y27049D02*
X19036D01*
X19006Y27019D02*
Y27079D01*
X18976Y26262D02*
X19036D01*
X19006Y26232D02*
Y26292D01*
X19369Y30986D02*
X19429D01*
X19399Y30956D02*
Y31016D01*
X19763Y29411D02*
X19823D01*
X19793Y29381D02*
Y29441D01*
X20555Y30594D02*
X20615D01*
X20585Y30564D02*
Y30624D01*
X21338Y26262D02*
X21398D01*
X21368Y26232D02*
Y26292D01*
X26850Y34136D02*
X26910D01*
X26880Y34106D02*
Y34166D01*
X25275Y33742D02*
X25335D01*
X25305Y33712D02*
Y33772D01*
X23700Y29018D02*
X23760D01*
X23730Y28988D02*
Y29048D01*
X23306Y27049D02*
X23366D01*
X23336Y27019D02*
Y27079D01*
X22913Y29018D02*
X22973D01*
X22943Y28988D02*
Y29048D01*
X22913Y30593D02*
X22973D01*
X22943Y30563D02*
Y30623D01*
X18582Y34530D02*
X18642D01*
X18612Y34500D02*
Y34560D01*
X18582Y29018D02*
X18642D01*
X18612Y28988D02*
Y29048D01*
X18976Y28624D02*
X19036D01*
X19006Y28594D02*
Y28654D01*
X20157Y31774D02*
X20217D01*
X20187Y31744D02*
Y31804D01*
X20944Y29018D02*
X21004D01*
X20974Y28988D02*
Y29048D01*
X22519Y28230D02*
X22579D01*
X22549Y28200D02*
Y28260D01*
X26850Y27837D02*
X26910D01*
X26880Y27807D02*
Y27867D01*
X24881Y30986D02*
X24941D01*
X24911Y30956D02*
Y31016D01*
X23306Y26262D02*
X23366D01*
X23336Y26232D02*
Y26292D01*
X22913Y29411D02*
X22973D01*
X22943Y29381D02*
Y29441D01*
X18582Y32955D02*
X18642D01*
X18612Y32925D02*
Y32985D01*
X18188Y27443D02*
X18248D01*
X18218Y27413D02*
Y27473D01*
X17794Y30593D02*
X17854D01*
X17824Y30563D02*
Y30623D01*
X17794Y35317D02*
X17854D01*
X17824Y35287D02*
Y35347D01*
X17401Y33349D02*
X17461D01*
X17431Y33319D02*
Y33379D01*
X19763Y32167D02*
X19823D01*
X19793Y32137D02*
Y32197D01*
X20550Y28624D02*
X20610D01*
X20580Y28594D02*
Y28654D01*
X20550Y26656D02*
X20610D01*
X20580Y26626D02*
Y26686D01*
X21731Y34923D02*
X21791D01*
X21761Y34893D02*
Y34953D01*
X21731Y29805D02*
X21791D01*
X21761Y29775D02*
Y29835D01*
X21731Y29018D02*
X21791D01*
X21761Y28988D02*
Y29048D01*
X21731Y26656D02*
X21791D01*
X21761Y26626D02*
Y26686D01*
X22519Y28624D02*
X22579D01*
X22549Y28594D02*
Y28654D01*
X26062Y31774D02*
X26122D01*
X26092Y31744D02*
Y31804D01*
X24094Y25474D02*
X24154D01*
X24124Y25444D02*
Y25504D01*
X23306Y27837D02*
X23366D01*
X23336Y27807D02*
Y27867D01*
X18582Y34923D02*
X18642D01*
X18612Y34893D02*
Y34953D01*
X18188Y31380D02*
X18248D01*
X18218Y31350D02*
Y31410D01*
X17794Y29018D02*
X17854D01*
X17824Y28988D02*
Y29048D01*
X17401Y27443D02*
X17461D01*
X17431Y27413D02*
Y27473D01*
X17401Y32561D02*
X17461D01*
X17431Y32531D02*
Y32591D01*
X17007Y27443D02*
X17067D01*
X17037Y27413D02*
Y27473D01*
X18976Y25868D02*
X19036D01*
X19006Y25838D02*
Y25898D01*
X19763Y29805D02*
X19823D01*
X19793Y29775D02*
Y29835D01*
X19763Y25868D02*
X19823D01*
X19793Y25838D02*
Y25898D01*
X20157Y26262D02*
X20217D01*
X20187Y26232D02*
Y26292D01*
X20550Y30986D02*
X20610D01*
X20580Y30956D02*
Y31016D01*
X21338Y29805D02*
X21398D01*
X21368Y29775D02*
Y29835D01*
X21338Y28624D02*
X21398D01*
X21368Y28594D02*
Y28654D01*
X21731Y33742D02*
X21791D01*
X21761Y33712D02*
Y33772D01*
X25668Y25081D02*
X25728D01*
X25698Y25051D02*
Y25111D01*
X24487Y27049D02*
X24547D01*
X24517Y27019D02*
Y27079D01*
X24094Y32167D02*
X24154D01*
X24124Y32137D02*
Y32197D01*
X23700Y27443D02*
X23760D01*
X23730Y27413D02*
Y27473D01*
X23306Y29805D02*
X23366D01*
X23336Y29775D02*
Y29835D01*
X18188Y27837D02*
X18248D01*
X18218Y27807D02*
Y27867D01*
X17794Y34923D02*
X17854D01*
X17824Y34893D02*
Y34953D01*
X17007Y27049D02*
X17067D01*
X17037Y27019D02*
Y27079D01*
X17007Y27837D02*
X17067D01*
X17037Y27807D02*
Y27867D01*
X18976Y25474D02*
X19036D01*
X19006Y25444D02*
Y25504D01*
X20157Y29805D02*
X20217D01*
X20187Y29775D02*
Y29835D01*
X20944Y26262D02*
X21004D01*
X20974Y26232D02*
Y26292D01*
X21338Y30986D02*
X21398D01*
X21368Y30956D02*
Y31016D01*
X22913Y32955D02*
X22973D01*
X22943Y32925D02*
Y32985D01*
X26850Y29412D02*
X26910D01*
X26880Y29382D02*
Y29442D01*
X26062Y27837D02*
X26122D01*
X26092Y27807D02*
Y27867D01*
X25275Y32167D02*
X25335D01*
X25305Y32137D02*
Y32197D01*
X25275Y33349D02*
X25335D01*
X25305Y33319D02*
Y33379D01*
X24094Y25868D02*
X24154D01*
X24124Y25838D02*
Y25898D01*
X24094Y32955D02*
X24154D01*
X24124Y32925D02*
Y32985D01*
X22913Y27837D02*
X22973D01*
X22943Y27807D02*
Y27867D01*
X22913Y31380D02*
X22973D01*
X22943Y31350D02*
Y31410D01*
X18188Y30593D02*
X18248D01*
X18218Y30563D02*
Y30623D01*
X17794Y27443D02*
X17854D01*
X17824Y27413D02*
Y27473D01*
X17401Y27837D02*
X17461D01*
X17431Y27807D02*
Y27867D01*
X18582Y29805D02*
X18642D01*
X18612Y29775D02*
Y29835D01*
X20157Y34923D02*
X20217D01*
X20187Y34893D02*
Y34953D01*
X20550Y31380D02*
X20610D01*
X20580Y31350D02*
Y31410D01*
X20944Y30593D02*
X21004D01*
X20974Y30563D02*
Y30623D01*
X20944Y27837D02*
X21004D01*
X20974Y27807D02*
Y27867D01*
X20944Y25868D02*
X21004D01*
X20974Y25838D02*
Y25898D01*
X21338Y25474D02*
X21398D01*
X21368Y25444D02*
Y25504D01*
X21731Y28624D02*
X21791D01*
X21761Y28594D02*
Y28654D01*
X25668Y31380D02*
X25728D01*
X25698Y31350D02*
Y31410D01*
X24881Y26262D02*
X24941D01*
X24911Y26232D02*
Y26292D01*
X23700Y26262D02*
X23760D01*
X23730Y26232D02*
Y26292D01*
X23306Y27443D02*
X23366D01*
X23336Y27413D02*
Y27473D01*
X22913Y28230D02*
X22973D01*
X22943Y28200D02*
Y28260D01*
X18188Y32561D02*
X18248D01*
X18218Y32531D02*
Y32591D01*
X17401Y26656D02*
X17461D01*
X17431Y26626D02*
Y26686D01*
X18976Y27837D02*
X19036D01*
X19006Y27807D02*
Y27867D01*
X20157Y32167D02*
X20217D01*
X20187Y32137D02*
Y32197D01*
X20550Y32955D02*
X20610D01*
X20580Y32925D02*
Y32985D01*
X21731Y31774D02*
X21791D01*
X21761Y31744D02*
Y31804D01*
X21731Y25868D02*
X21791D01*
X21761Y25838D02*
Y25898D01*
X22519Y31380D02*
X22579D01*
X22549Y31350D02*
Y31410D01*
X22519Y30593D02*
X22579D01*
X22549Y30563D02*
Y30623D01*
X26062Y26656D02*
X26122D01*
X26092Y26626D02*
Y26686D01*
X24881Y27837D02*
X24941D01*
X24911Y27807D02*
Y27867D01*
X23306Y25868D02*
X23366D01*
X23336Y25838D02*
Y25898D01*
X23306Y28230D02*
X23366D01*
X23336Y28200D02*
Y28260D01*
X18582Y31380D02*
X18642D01*
X18612Y31350D02*
Y31410D01*
X17794Y25868D02*
X17854D01*
X17824Y25838D02*
Y25898D01*
X17794Y27837D02*
X17854D01*
X17824Y27807D02*
Y27867D01*
X17401Y34136D02*
X17461D01*
X17431Y34106D02*
Y34166D01*
X20944Y30986D02*
X21004D01*
X20974Y30956D02*
Y31016D01*
X20944Y28624D02*
X21004D01*
X20974Y28594D02*
Y28654D01*
X21731Y30986D02*
X21791D01*
X21761Y30956D02*
Y31016D01*
X22519Y27837D02*
X22579D01*
X22549Y27807D02*
Y27867D01*
X22519Y27443D02*
X22579D01*
X22549Y27413D02*
Y27473D01*
X22519Y27049D02*
X22579D01*
X22549Y27019D02*
Y27079D01*
X22519Y26262D02*
X22579D01*
X22549Y26232D02*
Y26292D01*
X22913Y33742D02*
X22973D01*
X22943Y33712D02*
Y33772D01*
X26062Y32561D02*
X26122D01*
X26092Y32531D02*
Y32591D01*
X18188Y34136D02*
X18248D01*
X18218Y34106D02*
Y34166D01*
X17401Y31774D02*
X17461D01*
X17431Y31744D02*
Y31804D01*
X17007Y29411D02*
X17067D01*
X17037Y29381D02*
Y29441D01*
X18582Y30593D02*
X18642D01*
X18612Y30563D02*
Y30623D01*
X20944Y26656D02*
X21004D01*
X20974Y26626D02*
Y26686D01*
X21338Y29411D02*
X21398D01*
X21368Y29381D02*
Y29441D01*
X21338Y27837D02*
X21398D01*
X21368Y27807D02*
Y27867D01*
X21731Y28230D02*
X21791D01*
X21761Y28200D02*
Y28260D01*
X26850Y30986D02*
X26910D01*
X26880Y30956D02*
Y31016D01*
X26062Y33349D02*
X26122D01*
X26092Y33319D02*
Y33379D01*
X25668Y34530D02*
X25728D01*
X25698Y34500D02*
Y34560D01*
X25275Y27049D02*
X25335D01*
X25305Y27019D02*
Y27079D01*
X25275Y28230D02*
X25335D01*
X25305Y28200D02*
Y28260D01*
X25275Y29018D02*
X25335D01*
X25305Y28988D02*
Y29048D01*
X24094Y26656D02*
X24154D01*
X24124Y26626D02*
Y26686D01*
X23306Y30986D02*
X23366D01*
X23336Y30956D02*
Y31016D01*
X22913Y27443D02*
X22973D01*
X22943Y27413D02*
Y27473D01*
X20157Y28230D02*
X20217D01*
X20187Y28200D02*
Y28260D01*
X20550Y27443D02*
X20610D01*
X20580Y27413D02*
Y27473D01*
X20944Y28230D02*
X21004D01*
X20974Y28200D02*
Y28260D01*
X21731Y31380D02*
X21791D01*
X21761Y31350D02*
Y31410D01*
X22519Y29805D02*
X22579D01*
X22549Y29775D02*
Y29835D01*
X26850Y29805D02*
X26910D01*
X26880Y29775D02*
Y29835D01*
X26850Y26656D02*
X26910D01*
X26880Y26626D02*
Y26686D01*
X24487Y27443D02*
X24547D01*
X24517Y27413D02*
Y27473D01*
X23700Y26656D02*
X23760D01*
X23730Y26626D02*
Y26686D01*
X23306Y31380D02*
X23366D01*
X23336Y31350D02*
Y31410D01*
X18188Y28230D02*
X18248D01*
X18218Y28200D02*
Y28260D01*
X18188Y31774D02*
X18248D01*
X18218Y31744D02*
Y31804D01*
X18188Y33742D02*
X18248D01*
X18218Y33712D02*
Y33772D01*
X17401Y30986D02*
X17461D01*
X17431Y30956D02*
Y31016D01*
X19369Y29018D02*
X19429D01*
X19399Y28988D02*
Y29048D01*
X20157Y30986D02*
X20217D01*
X20187Y30956D02*
Y31016D01*
X20550Y26262D02*
X20610D01*
X20580Y26232D02*
Y26292D01*
X20944Y33742D02*
X21004D01*
X20974Y33712D02*
Y33772D01*
X20944Y31380D02*
X21004D01*
X20974Y31350D02*
Y31410D01*
X20944Y29805D02*
X21004D01*
X20974Y29775D02*
Y29835D01*
X21338Y28230D02*
X21398D01*
X21368Y28200D02*
Y28260D01*
X22519Y25474D02*
X22579D01*
X22549Y25444D02*
Y25504D01*
X26850Y33349D02*
X26910D01*
X26880Y33319D02*
Y33379D01*
X24881Y25868D02*
X24941D01*
X24911Y25838D02*
Y25898D01*
X24881Y26656D02*
X24941D01*
X24911Y26626D02*
Y26686D01*
X24094Y28624D02*
X24154D01*
X24124Y28594D02*
Y28654D01*
X23700Y27049D02*
X23760D01*
X23730Y27019D02*
Y27079D01*
X23306Y25474D02*
X23366D01*
X23336Y25444D02*
Y25504D01*
X17401Y27049D02*
X17461D01*
X17431Y27019D02*
Y27079D01*
X17401Y29411D02*
X17461D01*
X17431Y29381D02*
Y29441D01*
X18976Y30593D02*
X19036D01*
X19006Y30563D02*
Y30623D01*
X20550Y25474D02*
X20610D01*
X20580Y25444D02*
Y25504D01*
X20944Y29411D02*
X21004D01*
X20974Y29381D02*
Y29441D01*
X21731Y29411D02*
X21791D01*
X21761Y29381D02*
Y29441D01*
X21731Y27837D02*
X21791D01*
X21761Y27807D02*
Y27867D01*
X21731Y27443D02*
X21791D01*
X21761Y27413D02*
Y27473D01*
X21731Y27049D02*
X21791D01*
X21761Y27019D02*
Y27079D01*
X25275Y25868D02*
X25335D01*
X25305Y25838D02*
Y25898D01*
X24487Y26262D02*
X24547D01*
X24517Y26232D02*
Y26292D01*
X24094Y26262D02*
X24154D01*
X24124Y26232D02*
Y26292D01*
X23700Y30986D02*
X23760D01*
X23730Y30956D02*
Y31016D01*
X22913Y26656D02*
X22973D01*
X22943Y26626D02*
Y26686D01*
X18188Y29805D02*
X18248D01*
X18218Y29775D02*
Y29835D01*
X17007Y35317D02*
X17067D01*
X17037Y35287D02*
Y35347D01*
X17007Y25868D02*
X17067D01*
X17037Y25838D02*
Y25898D01*
X10604Y29849D02*
X10664D01*
X10634Y29819D02*
Y29879D01*
X8711Y28274D02*
X8771D01*
X8741Y28244D02*
Y28304D01*
X10919Y27645D02*
X10979D01*
X10949Y27615D02*
Y27675D01*
X10604Y27645D02*
X10664D01*
X10634Y27615D02*
Y27675D01*
X10604Y28274D02*
X10664D01*
X10634Y28244D02*
Y28304D01*
X10919Y28274D02*
X10979D01*
X10949Y28244D02*
Y28304D01*
X9029Y28904D02*
X9089D01*
X9059Y28874D02*
Y28934D01*
X9344Y30794D02*
X9404D01*
X9374Y30764D02*
Y30824D01*
X8714Y27645D02*
X8774D01*
X8744Y27615D02*
Y27675D01*
X8714Y28904D02*
X8774D01*
X8744Y28874D02*
Y28934D01*
X8714Y28589D02*
X8774D01*
X8744Y28559D02*
Y28619D01*
X11231Y27653D02*
X11291D01*
X11261Y27623D02*
Y27683D01*
X10919Y32369D02*
X10979D01*
X10949Y32339D02*
Y32399D01*
X10604Y32369D02*
X10664D01*
X10634Y32339D02*
Y32399D01*
X10604Y32684D02*
X10664D01*
X10634Y32654D02*
Y32714D01*
X4955Y38919D02*
X5015D01*
X4985Y38890D02*
Y38949D01*
X5204Y38919D02*
X5264D01*
X5234Y38890D02*
Y38949D01*
X5204Y39168D02*
X5264D01*
X5234Y39138D02*
Y39198D01*
X5209Y36963D02*
X5269D01*
X5239Y36933D02*
Y36993D01*
X4960Y37212D02*
X5020D01*
X4990Y37182D02*
Y37242D01*
X5209Y37212D02*
X5269D01*
X5239Y37182D02*
Y37242D01*
X5458Y37212D02*
X5518D01*
X5488Y37182D02*
Y37242D01*
X6016Y37832D02*
X6076D01*
X6046Y37802D02*
Y37862D01*
X6075Y37655D02*
X6135D01*
X6105Y37625D02*
Y37685D01*
X56001Y48963D02*
X56061D01*
X56031Y48933D02*
Y48993D01*
X56001Y48688D02*
X56061D01*
X56031Y48658D02*
Y48718D01*
X56001Y48413D02*
X56061D01*
X56031Y48383D02*
Y48443D01*
X57376Y48963D02*
X57436D01*
X57406Y48933D02*
Y48993D01*
X57376Y48688D02*
X57436D01*
X57406Y48658D02*
Y48718D01*
X57376Y48413D02*
X57436D01*
X57406Y48383D02*
Y48443D01*
X57376Y48138D02*
X57436D01*
X57406Y48108D02*
Y48168D01*
X57101Y48138D02*
X57161D01*
X57131Y48108D02*
Y48168D01*
X56001Y48138D02*
X56061D01*
X56031Y48108D02*
Y48168D01*
X56276Y48138D02*
X56336D01*
X56306Y48108D02*
Y48168D01*
X56551Y48138D02*
X56611D01*
X56581Y48108D02*
Y48168D01*
X56826Y48138D02*
X56886D01*
X56856Y48108D02*
Y48168D01*
X47354Y43164D02*
X47414D01*
X47384Y43134D02*
Y43194D01*
X52981Y45137D02*
X53041D01*
X53011Y45107D02*
Y45167D01*
X52984Y44314D02*
X53044D01*
X53014Y44284D02*
Y44344D01*
X52986Y43987D02*
X53046D01*
X53016Y43957D02*
Y44017D01*
X52989Y43164D02*
X53049D01*
X53019Y43134D02*
Y43194D01*
X51904Y43997D02*
X51964D01*
X51934Y43967D02*
Y44027D01*
X51833Y44786D02*
X51893D01*
X51863Y44756D02*
Y44816D01*
X51830Y45015D02*
X51890D01*
X51860Y44985D02*
Y45045D01*
X51466Y44118D02*
X51526D01*
X51496Y44088D02*
Y44148D01*
X51263Y46299D02*
X51323D01*
X51293Y46269D02*
Y46329D01*
X51263Y46526D02*
X51323D01*
X51293Y46496D02*
Y46556D01*
X52193Y46526D02*
X52253D01*
X52223Y46496D02*
Y46556D01*
X52193Y46299D02*
X52253D01*
X52223Y46269D02*
Y46329D01*
X52312Y45424D02*
X52372D01*
X52342Y45394D02*
Y45454D01*
X50839Y45881D02*
X50899D01*
X50869Y45851D02*
Y45911D01*
X50467Y45885D02*
X50527D01*
X50497Y45855D02*
Y45915D01*
X50492Y42473D02*
X50552D01*
X50522Y42443D02*
Y42503D01*
X51336Y42776D02*
X51396D01*
X51366Y42746D02*
Y42806D01*
X51029Y42776D02*
X51089D01*
X51059Y42746D02*
Y42806D01*
X50914Y43029D02*
X50974D01*
X50944Y42999D02*
Y43059D01*
X51190Y43029D02*
X51250D01*
X51220Y42999D02*
Y43059D01*
X51644Y42776D02*
X51704D01*
X51674Y42746D02*
Y42806D01*
X54730Y39782D02*
X54790D01*
X54760Y39752D02*
Y39812D01*
X54418Y39782D02*
X54478D01*
X54448Y39752D02*
Y39812D01*
X54730Y41344D02*
X54790D01*
X54760Y41314D02*
Y41374D01*
X54418Y41344D02*
X54478D01*
X54448Y41314D02*
Y41374D01*
X58101Y42901D02*
X58161D01*
X58131Y42871D02*
Y42931D01*
X58101Y45401D02*
X58161D01*
X58131Y45371D02*
Y45431D01*
X53125Y42901D02*
X53185D01*
X53155Y42871D02*
Y42931D01*
X53123Y45403D02*
X53183D01*
X53153Y45373D02*
Y45433D01*
X54105Y41344D02*
X54165D01*
X54135Y41314D02*
Y41374D01*
X54105Y41032D02*
X54165D01*
X54135Y41002D02*
Y41062D01*
X54105Y40719D02*
X54165D01*
X54135Y40689D02*
Y40749D01*
X54105Y40407D02*
X54165D01*
X54135Y40377D02*
Y40437D01*
X54105Y40094D02*
X54165D01*
X54135Y40064D02*
Y40124D01*
X54105Y39782D02*
X54165D01*
X54135Y39752D02*
Y39812D01*
X51472Y41459D02*
X51532D01*
X51502Y41429D02*
Y41489D01*
X51472Y42235D02*
X51532D01*
X51502Y42205D02*
Y42265D01*
X51841Y41985D02*
X51901D01*
X51870Y41955D02*
Y42015D01*
X52161Y41959D02*
X52221D01*
X52191Y41929D02*
Y41989D01*
X51839Y41718D02*
X51899D01*
X51869Y41688D02*
Y41748D01*
X52780Y41698D02*
X52840D01*
X52810Y41668D02*
Y41728D01*
X52886Y40808D02*
X52946D01*
X52916Y40778D02*
Y40838D01*
X51389Y41207D02*
X51449D01*
X51419Y41177D02*
Y41237D01*
X48649Y46448D02*
X48709D01*
X48679Y46418D02*
Y46478D01*
X48649Y46149D02*
X48709D01*
X48679Y46119D02*
Y46179D01*
X48649Y45850D02*
X48709D01*
X48679Y45820D02*
Y45880D01*
X48350Y45850D02*
X48410D01*
X48380Y45820D02*
Y45880D01*
X48051Y45850D02*
X48111D01*
X48081Y45820D02*
Y45880D01*
X47753Y45850D02*
X47813D01*
X47783Y45820D02*
Y45880D01*
X49140Y44879D02*
X49200D01*
X49170Y44849D02*
Y44909D01*
X48912Y44879D02*
X48972D01*
X48942Y44849D02*
Y44909D01*
X48466Y44803D02*
X48526D01*
X48496Y44773D02*
Y44833D01*
X48466Y45102D02*
X48526D01*
X48496Y45072D02*
Y45132D01*
X48844Y45138D02*
X48904D01*
X48874Y45108D02*
Y45168D01*
X56157Y41516D02*
X56217D01*
X56187Y41486D02*
Y41546D01*
X56601Y41516D02*
X56661D01*
X56631Y41486D02*
Y41546D01*
X57490Y41516D02*
X57550D01*
X57520Y41486D02*
Y41546D01*
X57046Y41516D02*
X57106D01*
X57076Y41486D02*
Y41546D01*
X57046Y41072D02*
X57106D01*
X57076Y41042D02*
Y41102D01*
X57046Y40627D02*
X57106D01*
X57076Y40597D02*
Y40657D01*
X57046Y40183D02*
X57106D01*
X57076Y40153D02*
Y40213D01*
X59322Y42437D02*
X59382D01*
X59352Y42407D02*
Y42467D01*
X58963Y42433D02*
X59023D01*
X58993Y42403D02*
Y42463D01*
X58604Y42433D02*
X58664D01*
X58634Y42403D02*
Y42463D01*
X58245Y42433D02*
X58305D01*
X58275Y42403D02*
Y42463D01*
X60144Y43255D02*
X60204D01*
X60174Y43225D02*
Y43285D01*
X60144Y44228D02*
X60204D01*
X60174Y44198D02*
Y44258D01*
X51276Y43680D02*
X51336D01*
X51306Y43650D02*
Y43710D01*
X51446Y43680D02*
X51506D01*
X51476Y43650D02*
Y43710D01*
X60139Y45097D02*
X60199D01*
X60169Y45067D02*
Y45127D01*
X60139Y46070D02*
X60199D01*
X60169Y46040D02*
Y46100D01*
X54956Y66417D02*
X55035D01*
X54996Y66377D02*
Y66456D01*
X55389Y66417D02*
X55468D01*
X55429Y66377D02*
Y66456D01*
X55822Y66417D02*
X55901D01*
X55862Y66377D02*
Y66456D01*
X54956Y65984D02*
X55035D01*
X54996Y65944D02*
Y66023D01*
X55389Y65984D02*
X55468D01*
X55429Y65944D02*
Y66023D01*
X55822Y65984D02*
X55901D01*
X55862Y65944D02*
Y66023D01*
X54956Y65550D02*
X55035D01*
X54996Y65511D02*
Y65590D01*
X55389Y65550D02*
X55468D01*
X55429Y65511D02*
Y65590D01*
X55822Y65550D02*
X55901D01*
X55862Y65511D02*
Y65590D01*
X54956Y65117D02*
X55035D01*
X54996Y65078D02*
Y65157D01*
X55389Y65117D02*
X55468D01*
X55429Y65078D02*
Y65157D01*
X55822Y65117D02*
X55901D01*
X55862Y65078D02*
Y65157D01*
X54956Y64684D02*
X55035D01*
X54996Y64645D02*
Y64724D01*
X55389Y64684D02*
X55468D01*
X55429Y64645D02*
Y64724D01*
X55822Y64684D02*
X55901D01*
X55862Y64645D02*
Y64724D01*
X54956Y64251D02*
X55035D01*
X54996Y64212D02*
Y64291D01*
X55389Y64251D02*
X55468D01*
X55429Y64212D02*
Y64291D01*
X55822Y64251D02*
X55901D01*
X55862Y64212D02*
Y64291D01*
X54956Y63818D02*
X55035D01*
X54996Y63779D02*
Y63858D01*
X55389Y63818D02*
X55468D01*
X55429Y63779D02*
Y63858D01*
X55822Y63818D02*
X55901D01*
X55862Y63779D02*
Y63858D01*
X54956Y63385D02*
X55035D01*
X54996Y63346D02*
Y63425D01*
X55389Y63385D02*
X55468D01*
X55429Y63346D02*
Y63425D01*
X55822Y63385D02*
X55901D01*
X55862Y63346D02*
Y63425D01*
X54956Y62952D02*
X55035D01*
X54996Y62913D02*
Y62991D01*
X55389Y62952D02*
X55468D01*
X55429Y62913D02*
Y62991D01*
X55822Y62952D02*
X55901D01*
X55862Y62913D02*
Y62991D01*
X50974Y51745D02*
X51074D01*
X51024Y51695D02*
Y51795D01*
X50374Y51745D02*
X50474D01*
X50424Y51695D02*
Y51795D01*
X49774Y51745D02*
X49874D01*
X49824Y51695D02*
Y51795D01*
X49174Y51745D02*
X49274D01*
X49224Y51695D02*
Y51795D01*
X49474Y52045D02*
X49574D01*
X49524Y51995D02*
Y52095D01*
X50674Y52045D02*
X50774D01*
X50724Y51995D02*
Y52095D01*
X49174Y52345D02*
X49274D01*
X49224Y52295D02*
Y52395D01*
X49774Y52345D02*
X49874D01*
X49824Y52295D02*
Y52395D01*
X50374Y52345D02*
X50474D01*
X50424Y52295D02*
Y52395D01*
X50974Y52345D02*
X51074D01*
X51024Y52295D02*
Y52395D01*
X49474Y52645D02*
X49574D01*
X49524Y52595D02*
Y52695D01*
X50674Y52645D02*
X50774D01*
X50724Y52595D02*
Y52695D01*
X49174Y52945D02*
X49274D01*
X49224Y52895D02*
Y52995D01*
X49774Y52945D02*
X49874D01*
X49824Y52895D02*
Y52995D01*
X50374Y52945D02*
X50474D01*
X50424Y52895D02*
Y52995D01*
X50974Y52945D02*
X51074D01*
X51024Y52895D02*
Y52995D01*
X49474Y53245D02*
X49574D01*
X49524Y53195D02*
Y53295D01*
X50674Y53245D02*
X50774D01*
X50724Y53195D02*
Y53295D01*
X49174Y53545D02*
X49274D01*
X49224Y53495D02*
Y53595D01*
X49774Y53545D02*
X49874D01*
X49824Y53495D02*
Y53595D01*
X50374Y53545D02*
X50474D01*
X50424Y53495D02*
Y53595D01*
X50974Y53545D02*
X51074D01*
X51024Y53495D02*
Y53595D01*
X49474Y53845D02*
X49574D01*
X49524Y53795D02*
Y53895D01*
X50074Y53845D02*
X50174D01*
X50124Y53795D02*
Y53895D01*
X50674Y53845D02*
X50774D01*
X50724Y53795D02*
Y53895D01*
X49174Y54145D02*
X49274D01*
X49224Y54095D02*
Y54195D01*
X49774Y54145D02*
X49874D01*
X49824Y54095D02*
Y54195D01*
X50374Y54145D02*
X50474D01*
X50424Y54095D02*
Y54195D01*
X49474Y54445D02*
X49574D01*
X49524Y54395D02*
Y54495D01*
X50074Y54445D02*
X50174D01*
X50124Y54395D02*
Y54495D01*
X49174Y54745D02*
X49274D01*
X49224Y54695D02*
Y54795D01*
X49774Y54745D02*
X49874D01*
X49824Y54695D02*
Y54795D01*
X50374Y54745D02*
X50474D01*
X50424Y54695D02*
Y54795D01*
X50974Y54745D02*
X51074D01*
X51024Y54695D02*
Y54795D01*
X50974Y54145D02*
X51074D01*
X51024Y54095D02*
Y54195D01*
X50674Y54445D02*
X50774D01*
X50724Y54395D02*
Y54495D01*
X50074Y52045D02*
X50174D01*
X50124Y51995D02*
Y52095D01*
X50074Y52645D02*
X50174D01*
X50124Y52595D02*
Y52695D01*
X50074Y53245D02*
X50174D01*
X50124Y53195D02*
Y53295D01*
X59513Y64878D02*
X59631D01*
X59572Y64819D02*
Y64938D01*
X58907Y65239D02*
X59025D01*
X58966Y65180D02*
Y65298D01*
X59513Y65239D02*
X59631D01*
X59572Y65180D02*
Y65298D01*
X56942Y64549D02*
X57060D01*
X57001Y64490D02*
Y64608D01*
X56942Y64807D02*
X57060D01*
X57001Y64748D02*
Y64866D01*
X56942Y65065D02*
X57060D01*
X57001Y65006D02*
Y65124D01*
X56953Y65323D02*
X57071D01*
X57012Y65264D02*
Y65382D01*
X57258Y20633D02*
X57337D01*
X57298Y20594D02*
Y20673D01*
X57258Y20200D02*
X57337D01*
X57298Y20161D02*
Y20239D01*
X57258Y19767D02*
X57337D01*
X57298Y19728D02*
Y19806D01*
X57258Y19334D02*
X57337D01*
X57298Y19295D02*
Y19373D01*
X57258Y18901D02*
X57337D01*
X57298Y18862D02*
Y18940D01*
X56825Y20633D02*
X56904D01*
X56865Y20594D02*
Y20673D01*
X56825Y20200D02*
X56904D01*
X56865Y20161D02*
Y20239D01*
X56825Y19767D02*
X56904D01*
X56865Y19728D02*
Y19806D01*
X56825Y19334D02*
X56904D01*
X56865Y19295D02*
Y19373D01*
X56825Y18901D02*
X56904D01*
X56865Y18862D02*
Y18940D01*
X56392Y20633D02*
X56471D01*
X56432Y20594D02*
Y20673D01*
X56392Y20200D02*
X56471D01*
X56432Y20161D02*
Y20239D01*
X56392Y19767D02*
X56471D01*
X56432Y19728D02*
Y19806D01*
X56392Y19334D02*
X56471D01*
X56432Y19295D02*
Y19373D01*
X56392Y18901D02*
X56471D01*
X56432Y18862D02*
Y18940D01*
X55959Y20633D02*
X56038D01*
X55998Y20594D02*
Y20673D01*
X55959Y20200D02*
X56038D01*
X55998Y20161D02*
Y20239D01*
X55959Y19767D02*
X56038D01*
X55998Y19728D02*
Y19806D01*
X55959Y19334D02*
X56038D01*
X55998Y19295D02*
Y19373D01*
X55959Y18901D02*
X56038D01*
X55998Y18862D02*
Y18940D01*
X55526Y20633D02*
X55605D01*
X55565Y20594D02*
Y20673D01*
X55526Y20200D02*
X55605D01*
X55565Y20161D02*
Y20239D01*
X55526Y19767D02*
X55605D01*
X55565Y19728D02*
Y19806D01*
X55526Y19334D02*
X55605D01*
X55565Y19295D02*
Y19373D01*
X55526Y18901D02*
X55605D01*
X55565Y18862D02*
Y18940D01*
X48410Y23997D02*
X48528D01*
X48469Y23938D02*
Y24056D01*
X45153Y24816D02*
X45271D01*
X45212Y24757D02*
Y24875D01*
X45153Y24149D02*
X45271D01*
X45212Y24090D02*
Y24208D01*
X45067Y24508D02*
X45185D01*
X45126Y24449D02*
Y24567D01*
X44724Y24515D02*
X44842D01*
X44783Y24456D02*
Y24574D01*
X31232Y12096D02*
X31350D01*
X31291Y12037D02*
Y12156D01*
X31477Y12070D02*
X31595D01*
X31536Y12010D02*
Y12129D01*
X30872Y12104D02*
X30990D01*
X30931Y12045D02*
Y12163D01*
X30618Y12104D02*
X30736D01*
X30677Y12045D02*
Y12163D01*
X31631Y10852D02*
X31709D01*
X31670Y10813D02*
Y10892D01*
X31631Y10419D02*
X31709D01*
X31670Y10380D02*
Y10459D01*
X31631Y9986D02*
X31709D01*
X31670Y9947D02*
Y10026D01*
X31631Y9553D02*
X31709D01*
X31670Y9514D02*
Y9592D01*
X31631Y9120D02*
X31709D01*
X31670Y9081D02*
Y9159D01*
X31197Y10852D02*
X31276D01*
X31237Y10813D02*
Y10892D01*
X31197Y10419D02*
X31276D01*
X31237Y10380D02*
Y10459D01*
X31197Y9986D02*
X31276D01*
X31237Y9947D02*
Y10026D01*
X31197Y9553D02*
X31276D01*
X31237Y9514D02*
Y9592D01*
X31197Y9120D02*
X31276D01*
X31237Y9081D02*
Y9159D01*
X30764Y10852D02*
X30843D01*
X30804Y10813D02*
Y10892D01*
X30764Y10419D02*
X30843D01*
X30804Y10380D02*
Y10459D01*
X30764Y9986D02*
X30843D01*
X30804Y9947D02*
Y10026D01*
X30764Y9553D02*
X30843D01*
X30804Y9514D02*
Y9592D01*
X30764Y9120D02*
X30843D01*
X30804Y9081D02*
Y9159D01*
X30331Y10852D02*
X30410D01*
X30371Y10813D02*
Y10892D01*
X30331Y10419D02*
X30410D01*
X30371Y10380D02*
Y10459D01*
X30331Y9986D02*
X30410D01*
X30371Y9947D02*
Y10026D01*
X30331Y9553D02*
X30410D01*
X30371Y9514D02*
Y9592D01*
X30331Y9120D02*
X30410D01*
X30371Y9081D02*
Y9159D01*
X29898Y10852D02*
X29977D01*
X29938Y10813D02*
Y10892D01*
X29898Y10419D02*
X29977D01*
X29938Y10380D02*
Y10459D01*
X29898Y9986D02*
X29977D01*
X29938Y9947D02*
Y10026D01*
X29898Y9553D02*
X29977D01*
X29938Y9514D02*
Y9592D01*
X29898Y9120D02*
X29977D01*
X29938Y9081D02*
Y9159D01*
X41834Y11522D02*
X41952D01*
X41893Y11463D02*
Y11581D01*
X42141Y11522D02*
X42259D01*
X42200Y11463D02*
Y11581D01*
X42448Y11522D02*
X42566D01*
X42507Y11463D02*
Y11581D01*
X42448Y10845D02*
X42566D01*
X42507Y10786D02*
Y10904D01*
X42141Y10845D02*
X42259D01*
X42200Y10786D02*
Y10904D01*
X41834Y10845D02*
X41952D01*
X41893Y10786D02*
Y10904D01*
X43351Y15039D02*
X43469D01*
X43410Y14980D02*
Y15098D01*
X43484Y13512D02*
X43602D01*
X43543Y13453D02*
Y13571D01*
X40431Y10501D02*
X40549D01*
X40490Y10442D02*
Y10560D01*
X45716Y14980D02*
X45834D01*
X45775Y14921D02*
Y15039D01*
X46074Y14980D02*
X46192D01*
X46133Y14921D02*
Y15039D01*
X46432Y14980D02*
X46550D01*
X46491Y14921D02*
Y15039D01*
X45410Y20282D02*
X45530D01*
X45470Y20222D02*
Y20342D01*
X45016Y20282D02*
X45136D01*
X45076Y20222D02*
Y20342D01*
X44622Y20282D02*
X44742D01*
X44682Y20222D02*
Y20342D01*
X44622Y19888D02*
X44742D01*
X44682Y19828D02*
Y19948D01*
X45016Y19888D02*
X45136D01*
X45076Y19828D02*
Y19948D01*
X45410Y19888D02*
X45530D01*
X45470Y19828D02*
Y19948D01*
X45410Y19495D02*
X45530D01*
X45470Y19435D02*
Y19555D01*
X45016Y19495D02*
X45136D01*
X45076Y19435D02*
Y19555D01*
X44622Y19495D02*
X44742D01*
X44682Y19435D02*
Y19555D01*
X48504Y15215D02*
X48622D01*
X48563Y15156D02*
Y15274D01*
X48111Y15215D02*
X48229D01*
X48170Y15156D02*
Y15274D01*
X48504Y14822D02*
X48622D01*
X48563Y14762D02*
Y14881D01*
X48504Y14428D02*
X48622D01*
X48563Y14369D02*
Y14487D01*
X48898Y14428D02*
X49016D01*
X48957Y14369D02*
Y14487D01*
X48111Y14428D02*
X48229D01*
X48170Y14369D02*
Y14487D01*
X48111Y14822D02*
X48229D01*
X48170Y14762D02*
Y14881D01*
X48898Y14822D02*
X49016D01*
X48957Y14762D02*
Y14881D01*
X48898Y15215D02*
X49016D01*
X48957Y15156D02*
Y15274D01*
X42851Y19606D02*
X42970D01*
X42911Y19547D02*
Y19665D01*
X46206Y24056D02*
X46284D01*
X46245Y24017D02*
Y24096D01*
X46206Y24844D02*
X46284D01*
X46245Y24804D02*
Y24883D01*
X45812Y24056D02*
X45891D01*
X45851Y24017D02*
Y24096D01*
X45812Y24844D02*
X45891D01*
X45851Y24804D02*
Y24883D01*
X46206Y24450D02*
X46284D01*
X46245Y24411D02*
Y24489D01*
X45812Y24450D02*
X45891D01*
X45851Y24411D02*
Y24489D01*
M02*
