G04*
G04 #@! TF.GenerationSoftware,Altium Limited,Altium Designer,20.1.11 (218)*
G04*
G04 Layer_Color=8388736*
%FSLAX24Y24*%
%MOIN*%
G70*
G04*
G04 #@! TF.SameCoordinates,C20E3654-7A5B-4E15-AF0D-48D46733EB80*
G04*
G04*
G04 #@! TF.FilePolarity,Negative*
G04*
G01*
G75*
%ADD27R,0.1220X0.2032*%
%ADD53R,0.0370X0.1100*%
%ADD54R,0.2690X0.3350*%
%ADD72R,0.0437X0.0237*%
%ADD73R,0.0600X0.1360*%
%ADD106R,0.0650X0.0512*%
G04:AMPARAMS|DCode=107|XSize=97mil|YSize=93mil|CornerRadius=25.3mil|HoleSize=0mil|Usage=FLASHONLY|Rotation=270.000|XOffset=0mil|YOffset=0mil|HoleType=Round|Shape=RoundedRectangle|*
%AMROUNDEDRECTD107*
21,1,0.0970,0.0425,0,0,270.0*
21,1,0.0465,0.0930,0,0,270.0*
1,1,0.0505,-0.0213,-0.0232*
1,1,0.0505,-0.0213,0.0232*
1,1,0.0505,0.0213,0.0232*
1,1,0.0505,0.0213,-0.0232*
%
%ADD107ROUNDEDRECTD107*%
G04:AMPARAMS|DCode=108|XSize=24mil|YSize=24mil|CornerRadius=8mil|HoleSize=0mil|Usage=FLASHONLY|Rotation=180.000|XOffset=0mil|YOffset=0mil|HoleType=Round|Shape=RoundedRectangle|*
%AMROUNDEDRECTD108*
21,1,0.0240,0.0080,0,0,180.0*
21,1,0.0080,0.0240,0,0,180.0*
1,1,0.0160,-0.0040,0.0040*
1,1,0.0160,0.0040,0.0040*
1,1,0.0160,0.0040,-0.0040*
1,1,0.0160,-0.0040,-0.0040*
%
%ADD108ROUNDEDRECTD108*%
G04:AMPARAMS|DCode=109|XSize=97mil|YSize=93mil|CornerRadius=25.3mil|HoleSize=0mil|Usage=FLASHONLY|Rotation=0.000|XOffset=0mil|YOffset=0mil|HoleType=Round|Shape=RoundedRectangle|*
%AMROUNDEDRECTD109*
21,1,0.0970,0.0425,0,0,0.0*
21,1,0.0465,0.0930,0,0,0.0*
1,1,0.0505,0.0232,-0.0213*
1,1,0.0505,-0.0232,-0.0213*
1,1,0.0505,-0.0232,0.0213*
1,1,0.0505,0.0232,0.0213*
%
%ADD109ROUNDEDRECTD109*%
G04:AMPARAMS|DCode=110|XSize=24mil|YSize=24mil|CornerRadius=8mil|HoleSize=0mil|Usage=FLASHONLY|Rotation=90.000|XOffset=0mil|YOffset=0mil|HoleType=Round|Shape=RoundedRectangle|*
%AMROUNDEDRECTD110*
21,1,0.0240,0.0080,0,0,90.0*
21,1,0.0080,0.0240,0,0,90.0*
1,1,0.0160,0.0040,0.0040*
1,1,0.0160,0.0040,-0.0040*
1,1,0.0160,-0.0040,-0.0040*
1,1,0.0160,-0.0040,0.0040*
%
%ADD110ROUNDEDRECTD110*%
%ADD111O,0.0355X0.0119*%
%ADD112O,0.0119X0.0355*%
%ADD113R,0.0867X0.0867*%
G04:AMPARAMS|DCode=114|XSize=19.7mil|YSize=31.6mil|CornerRadius=4mil|HoleSize=0mil|Usage=FLASHONLY|Rotation=270.000|XOffset=0mil|YOffset=0mil|HoleType=Round|Shape=RoundedRectangle|*
%AMROUNDEDRECTD114*
21,1,0.0197,0.0236,0,0,270.0*
21,1,0.0118,0.0316,0,0,270.0*
1,1,0.0079,-0.0118,-0.0059*
1,1,0.0079,-0.0118,0.0059*
1,1,0.0079,0.0118,0.0059*
1,1,0.0079,0.0118,-0.0059*
%
%ADD114ROUNDEDRECTD114*%
G04:AMPARAMS|DCode=115|XSize=59mil|YSize=47mil|CornerRadius=10mil|HoleSize=0mil|Usage=FLASHONLY|Rotation=90.000|XOffset=0mil|YOffset=0mil|HoleType=Round|Shape=RoundedRectangle|*
%AMROUNDEDRECTD115*
21,1,0.0590,0.0271,0,0,90.0*
21,1,0.0391,0.0470,0,0,90.0*
1,1,0.0199,0.0135,0.0195*
1,1,0.0199,0.0135,-0.0195*
1,1,0.0199,-0.0135,-0.0195*
1,1,0.0199,-0.0135,0.0195*
%
%ADD115ROUNDEDRECTD115*%
%ADD116O,0.0131X0.0355*%
%ADD117O,0.0146X0.0370*%
%ADD118O,0.0355X0.0131*%
%ADD119R,0.2953X0.2953*%
G04:AMPARAMS|DCode=120|XSize=102.4mil|YSize=63.1mil|CornerRadius=13.8mil|HoleSize=0mil|Usage=FLASHONLY|Rotation=0.000|XOffset=0mil|YOffset=0mil|HoleType=Round|Shape=RoundedRectangle|*
%AMROUNDEDRECTD120*
21,1,0.1024,0.0354,0,0,0.0*
21,1,0.0748,0.0631,0,0,0.0*
1,1,0.0276,0.0374,-0.0177*
1,1,0.0276,-0.0374,-0.0177*
1,1,0.0276,-0.0374,0.0177*
1,1,0.0276,0.0374,0.0177*
%
%ADD120ROUNDEDRECTD120*%
G04:AMPARAMS|DCode=121|XSize=142.2mil|YSize=66.2mil|CornerRadius=9.8mil|HoleSize=0mil|Usage=FLASHONLY|Rotation=90.000|XOffset=0mil|YOffset=0mil|HoleType=Round|Shape=RoundedRectangle|*
%AMROUNDEDRECTD121*
21,1,0.1422,0.0467,0,0,90.0*
21,1,0.1226,0.0662,0,0,90.0*
1,1,0.0196,0.0233,0.0613*
1,1,0.0196,0.0233,-0.0613*
1,1,0.0196,-0.0233,-0.0613*
1,1,0.0196,-0.0233,0.0613*
%
%ADD121ROUNDEDRECTD121*%
G04:AMPARAMS|DCode=122|XSize=39mil|YSize=38mil|CornerRadius=8mil|HoleSize=0mil|Usage=FLASHONLY|Rotation=180.000|XOffset=0mil|YOffset=0mil|HoleType=Round|Shape=RoundedRectangle|*
%AMROUNDEDRECTD122*
21,1,0.0390,0.0221,0,0,180.0*
21,1,0.0231,0.0380,0,0,180.0*
1,1,0.0159,-0.0116,0.0111*
1,1,0.0159,0.0116,0.0111*
1,1,0.0159,0.0116,-0.0111*
1,1,0.0159,-0.0116,-0.0111*
%
%ADD122ROUNDEDRECTD122*%
G04:AMPARAMS|DCode=123|XSize=102.4mil|YSize=63.1mil|CornerRadius=13.8mil|HoleSize=0mil|Usage=FLASHONLY|Rotation=270.000|XOffset=0mil|YOffset=0mil|HoleType=Round|Shape=RoundedRectangle|*
%AMROUNDEDRECTD123*
21,1,0.1024,0.0354,0,0,270.0*
21,1,0.0748,0.0631,0,0,270.0*
1,1,0.0276,-0.0177,-0.0374*
1,1,0.0276,-0.0177,0.0374*
1,1,0.0276,0.0177,0.0374*
1,1,0.0276,0.0177,-0.0374*
%
%ADD123ROUNDEDRECTD123*%
%ADD124R,0.1131X0.1044*%
%ADD125R,0.1004X0.0917*%
%ADD126R,0.0724X0.0291*%
%ADD127C,0.0905*%
G04:AMPARAMS|DCode=128|XSize=177.2mil|YSize=102.4mil|CornerRadius=26.6mil|HoleSize=0mil|Usage=FLASHONLY|Rotation=270.000|XOffset=0mil|YOffset=0mil|HoleType=Round|Shape=RoundedRectangle|*
%AMROUNDEDRECTD128*
21,1,0.1772,0.0492,0,0,270.0*
21,1,0.1240,0.1024,0,0,270.0*
1,1,0.0532,-0.0246,-0.0620*
1,1,0.0532,-0.0246,0.0620*
1,1,0.0532,0.0246,0.0620*
1,1,0.0532,0.0246,-0.0620*
%
%ADD128ROUNDEDRECTD128*%
%ADD129C,0.0217*%
%ADD130C,0.0217*%
%ADD131R,0.0960X0.0275*%
%ADD132R,0.0291X0.0469*%
G04:AMPARAMS|DCode=133|XSize=75mil|YSize=51mil|CornerRadius=10mil|HoleSize=0mil|Usage=FLASHONLY|Rotation=0.000|XOffset=0mil|YOffset=0mil|HoleType=Round|Shape=RoundedRectangle|*
%AMROUNDEDRECTD133*
21,1,0.0750,0.0310,0,0,0.0*
21,1,0.0550,0.0510,0,0,0.0*
1,1,0.0200,0.0275,-0.0155*
1,1,0.0200,-0.0275,-0.0155*
1,1,0.0200,-0.0275,0.0155*
1,1,0.0200,0.0275,0.0155*
%
%ADD133ROUNDEDRECTD133*%
%ADD134R,0.0355X0.0138*%
%ADD135R,0.0138X0.0355*%
G04:AMPARAMS|DCode=136|XSize=137.9mil|YSize=137.9mil|CornerRadius=0mil|HoleSize=0mil|Usage=FLASHONLY|Rotation=180.000|XOffset=0mil|YOffset=0mil|HoleType=Round|Shape=RoundedRectangle|*
%AMROUNDEDRECTD136*
21,1,0.1379,0.1379,0,0,180.0*
21,1,0.1379,0.1379,0,0,180.0*
1,1,0.0000,-0.0689,0.0689*
1,1,0.0000,0.0689,0.0689*
1,1,0.0000,0.0689,-0.0689*
1,1,0.0000,-0.0689,-0.0689*
%
%ADD136ROUNDEDRECTD136*%
%ADD137O,0.1190X0.0340*%
G04:AMPARAMS|DCode=138|XSize=19.7mil|YSize=31.5mil|CornerRadius=3.9mil|HoleSize=0mil|Usage=FLASHONLY|Rotation=270.000|XOffset=0mil|YOffset=0mil|HoleType=Round|Shape=RoundedRectangle|*
%AMROUNDEDRECTD138*
21,1,0.0197,0.0236,0,0,270.0*
21,1,0.0118,0.0315,0,0,270.0*
1,1,0.0079,-0.0118,-0.0059*
1,1,0.0079,-0.0118,0.0059*
1,1,0.0079,0.0118,0.0059*
1,1,0.0079,0.0118,-0.0059*
%
%ADD138ROUNDEDRECTD138*%
G04:AMPARAMS|DCode=139|XSize=31.1mil|YSize=39mil|CornerRadius=9.2mil|HoleSize=0mil|Usage=FLASHONLY|Rotation=180.000|XOffset=0mil|YOffset=0mil|HoleType=Round|Shape=RoundedRectangle|*
%AMROUNDEDRECTD139*
21,1,0.0311,0.0207,0,0,180.0*
21,1,0.0128,0.0390,0,0,180.0*
1,1,0.0183,-0.0064,0.0103*
1,1,0.0183,0.0064,0.0103*
1,1,0.0183,0.0064,-0.0103*
1,1,0.0183,-0.0064,-0.0103*
%
%ADD139ROUNDEDRECTD139*%
G04:AMPARAMS|DCode=140|XSize=43.4mil|YSize=35.5mil|CornerRadius=9.9mil|HoleSize=0mil|Usage=FLASHONLY|Rotation=0.000|XOffset=0mil|YOffset=0mil|HoleType=Round|Shape=RoundedRectangle|*
%AMROUNDEDRECTD140*
21,1,0.0434,0.0157,0,0,0.0*
21,1,0.0236,0.0355,0,0,0.0*
1,1,0.0197,0.0118,-0.0079*
1,1,0.0197,-0.0118,-0.0079*
1,1,0.0197,-0.0118,0.0079*
1,1,0.0197,0.0118,0.0079*
%
%ADD140ROUNDEDRECTD140*%
G04:AMPARAMS|DCode=141|XSize=59mil|YSize=47mil|CornerRadius=10mil|HoleSize=0mil|Usage=FLASHONLY|Rotation=0.000|XOffset=0mil|YOffset=0mil|HoleType=Round|Shape=RoundedRectangle|*
%AMROUNDEDRECTD141*
21,1,0.0590,0.0271,0,0,0.0*
21,1,0.0391,0.0470,0,0,0.0*
1,1,0.0199,0.0195,-0.0135*
1,1,0.0199,-0.0195,-0.0135*
1,1,0.0199,-0.0195,0.0135*
1,1,0.0199,0.0195,0.0135*
%
%ADD141ROUNDEDRECTD141*%
%ADD142O,0.0670X0.0158*%
G04:AMPARAMS|DCode=143|XSize=37mil|YSize=40.9mil|CornerRadius=5.9mil|HoleSize=0mil|Usage=FLASHONLY|Rotation=90.000|XOffset=0mil|YOffset=0mil|HoleType=Round|Shape=RoundedRectangle|*
%AMROUNDEDRECTD143*
21,1,0.0370,0.0291,0,0,90.0*
21,1,0.0252,0.0409,0,0,90.0*
1,1,0.0118,0.0146,0.0126*
1,1,0.0118,0.0146,-0.0126*
1,1,0.0118,-0.0146,-0.0126*
1,1,0.0118,-0.0146,0.0126*
%
%ADD143ROUNDEDRECTD143*%
G04:AMPARAMS|DCode=144|XSize=126mil|YSize=40.6mil|CornerRadius=11.5mil|HoleSize=0mil|Usage=FLASHONLY|Rotation=270.000|XOffset=0mil|YOffset=0mil|HoleType=Round|Shape=RoundedRectangle|*
%AMROUNDEDRECTD144*
21,1,0.1260,0.0175,0,0,270.0*
21,1,0.1030,0.0406,0,0,270.0*
1,1,0.0230,-0.0088,-0.0515*
1,1,0.0230,-0.0088,0.0515*
1,1,0.0230,0.0088,0.0515*
1,1,0.0230,0.0088,-0.0515*
%
%ADD144ROUNDEDRECTD144*%
%ADD145R,0.2161X0.3417*%
G04:AMPARAMS|DCode=146|XSize=102.4mil|YSize=51.2mil|CornerRadius=13.8mil|HoleSize=0mil|Usage=FLASHONLY|Rotation=0.000|XOffset=0mil|YOffset=0mil|HoleType=Round|Shape=RoundedRectangle|*
%AMROUNDEDRECTD146*
21,1,0.1024,0.0236,0,0,0.0*
21,1,0.0748,0.0512,0,0,0.0*
1,1,0.0276,0.0374,-0.0118*
1,1,0.0276,-0.0374,-0.0118*
1,1,0.0276,-0.0374,0.0118*
1,1,0.0276,0.0374,0.0118*
%
%ADD146ROUNDEDRECTD146*%
%ADD147R,0.1750X0.1580*%
G04:AMPARAMS|DCode=148|XSize=177.2mil|YSize=102.4mil|CornerRadius=26.6mil|HoleSize=0mil|Usage=FLASHONLY|Rotation=0.000|XOffset=0mil|YOffset=0mil|HoleType=Round|Shape=RoundedRectangle|*
%AMROUNDEDRECTD148*
21,1,0.1772,0.0492,0,0,0.0*
21,1,0.1240,0.1024,0,0,0.0*
1,1,0.0532,0.0620,-0.0246*
1,1,0.0532,-0.0620,-0.0246*
1,1,0.0532,-0.0620,0.0246*
1,1,0.0532,0.0620,0.0246*
%
%ADD148ROUNDEDRECTD148*%
%ADD149R,0.0961X0.1157*%
%ADD150R,0.1157X0.0961*%
%ADD151R,0.1138X0.0606*%
G04:AMPARAMS|DCode=152|XSize=43.4mil|YSize=35.5mil|CornerRadius=9.9mil|HoleSize=0mil|Usage=FLASHONLY|Rotation=90.000|XOffset=0mil|YOffset=0mil|HoleType=Round|Shape=RoundedRectangle|*
%AMROUNDEDRECTD152*
21,1,0.0434,0.0157,0,0,90.0*
21,1,0.0236,0.0355,0,0,90.0*
1,1,0.0197,0.0079,0.0118*
1,1,0.0197,0.0079,-0.0118*
1,1,0.0197,-0.0079,-0.0118*
1,1,0.0197,-0.0079,0.0118*
%
%ADD152ROUNDEDRECTD152*%
%ADD153O,0.0165X0.0390*%
%ADD154O,0.0390X0.0165*%
%ADD155R,0.2260X0.2260*%
G04:AMPARAMS|DCode=156|XSize=39mil|YSize=38mil|CornerRadius=11mil|HoleSize=0mil|Usage=FLASHONLY|Rotation=270.000|XOffset=0mil|YOffset=0mil|HoleType=Round|Shape=RoundedRectangle|*
%AMROUNDEDRECTD156*
21,1,0.0390,0.0160,0,0,270.0*
21,1,0.0170,0.0380,0,0,270.0*
1,1,0.0220,-0.0080,-0.0085*
1,1,0.0220,-0.0080,0.0085*
1,1,0.0220,0.0080,0.0085*
1,1,0.0220,0.0080,-0.0085*
%
%ADD156ROUNDEDRECTD156*%
G04:AMPARAMS|DCode=157|XSize=75mil|YSize=51mil|CornerRadius=10mil|HoleSize=0mil|Usage=FLASHONLY|Rotation=90.000|XOffset=0mil|YOffset=0mil|HoleType=Round|Shape=RoundedRectangle|*
%AMROUNDEDRECTD157*
21,1,0.0750,0.0310,0,0,90.0*
21,1,0.0550,0.0510,0,0,90.0*
1,1,0.0200,0.0155,0.0275*
1,1,0.0200,0.0155,-0.0275*
1,1,0.0200,-0.0155,-0.0275*
1,1,0.0200,-0.0155,0.0275*
%
%ADD157ROUNDEDRECTD157*%
G04:AMPARAMS|DCode=158|XSize=39mil|YSize=38mil|CornerRadius=11mil|HoleSize=0mil|Usage=FLASHONLY|Rotation=0.000|XOffset=0mil|YOffset=0mil|HoleType=Round|Shape=RoundedRectangle|*
%AMROUNDEDRECTD158*
21,1,0.0390,0.0160,0,0,0.0*
21,1,0.0170,0.0380,0,0,0.0*
1,1,0.0220,0.0085,-0.0080*
1,1,0.0220,-0.0085,-0.0080*
1,1,0.0220,-0.0085,0.0080*
1,1,0.0220,0.0085,0.0080*
%
%ADD158ROUNDEDRECTD158*%
%ADD159R,0.2969X0.2969*%
%ADD160O,0.0370X0.0146*%
%ADD161R,0.0724X0.0685*%
%ADD162R,0.0291X0.0429*%
%ADD163R,0.0429X0.0291*%
%ADD164R,0.0921X0.1276*%
%ADD165R,0.0906X0.1260*%
%ADD166R,0.1240X0.0843*%
%ADD167R,0.0528X0.0591*%
%ADD168R,0.0941X0.0488*%
G04:AMPARAMS|DCode=169|XSize=19.3mil|YSize=44.9mil|CornerRadius=6.2mil|HoleSize=0mil|Usage=FLASHONLY|Rotation=180.000|XOffset=0mil|YOffset=0mil|HoleType=Round|Shape=RoundedRectangle|*
%AMROUNDEDRECTD169*
21,1,0.0193,0.0325,0,0,180.0*
21,1,0.0069,0.0449,0,0,180.0*
1,1,0.0124,-0.0034,0.0162*
1,1,0.0124,0.0034,0.0162*
1,1,0.0124,0.0034,-0.0162*
1,1,0.0124,-0.0034,-0.0162*
%
%ADD169ROUNDEDRECTD169*%
G04:AMPARAMS|DCode=170|XSize=19.3mil|YSize=44.9mil|CornerRadius=6.2mil|HoleSize=0mil|Usage=FLASHONLY|Rotation=90.000|XOffset=0mil|YOffset=0mil|HoleType=Round|Shape=RoundedRectangle|*
%AMROUNDEDRECTD170*
21,1,0.0193,0.0325,0,0,90.0*
21,1,0.0069,0.0449,0,0,90.0*
1,1,0.0124,0.0162,0.0034*
1,1,0.0124,0.0162,-0.0034*
1,1,0.0124,-0.0162,-0.0034*
1,1,0.0124,-0.0162,0.0034*
%
%ADD170ROUNDEDRECTD170*%
G04:AMPARAMS|DCode=171|XSize=124mil|YSize=124mil|CornerRadius=6.2mil|HoleSize=0mil|Usage=FLASHONLY|Rotation=180.000|XOffset=0mil|YOffset=0mil|HoleType=Round|Shape=RoundedRectangle|*
%AMROUNDEDRECTD171*
21,1,0.1240,0.1116,0,0,180.0*
21,1,0.1116,0.1240,0,0,180.0*
1,1,0.0124,-0.0558,0.0558*
1,1,0.0124,0.0558,0.0558*
1,1,0.0124,0.0558,-0.0558*
1,1,0.0124,-0.0558,-0.0558*
%
%ADD171ROUNDEDRECTD171*%
%ADD172R,0.1240X0.1240*%
G04:AMPARAMS|DCode=173|XSize=42.9mil|YSize=17.3mil|CornerRadius=5.7mil|HoleSize=0mil|Usage=FLASHONLY|Rotation=90.000|XOffset=0mil|YOffset=0mil|HoleType=Round|Shape=RoundedRectangle|*
%AMROUNDEDRECTD173*
21,1,0.0429,0.0059,0,0,90.0*
21,1,0.0315,0.0173,0,0,90.0*
1,1,0.0114,0.0030,0.0157*
1,1,0.0114,0.0030,-0.0157*
1,1,0.0114,-0.0030,-0.0157*
1,1,0.0114,-0.0030,0.0157*
%
%ADD173ROUNDEDRECTD173*%
G04:AMPARAMS|DCode=174|XSize=15.7mil|YSize=21.7mil|CornerRadius=4.9mil|HoleSize=0mil|Usage=FLASHONLY|Rotation=180.000|XOffset=0mil|YOffset=0mil|HoleType=Round|Shape=RoundedRectangle|*
%AMROUNDEDRECTD174*
21,1,0.0157,0.0118,0,0,180.0*
21,1,0.0059,0.0217,0,0,180.0*
1,1,0.0098,-0.0030,0.0059*
1,1,0.0098,0.0030,0.0059*
1,1,0.0098,0.0030,-0.0059*
1,1,0.0098,-0.0030,-0.0059*
%
%ADD174ROUNDEDRECTD174*%
%ADD175O,0.0665X0.0291*%
%ADD176R,0.0650X0.0630*%
G04:AMPARAMS|DCode=177|XSize=19.7mil|YSize=57.1mil|CornerRadius=5.9mil|HoleSize=0mil|Usage=FLASHONLY|Rotation=90.000|XOffset=0mil|YOffset=0mil|HoleType=Round|Shape=RoundedRectangle|*
%AMROUNDEDRECTD177*
21,1,0.0197,0.0453,0,0,90.0*
21,1,0.0079,0.0571,0,0,90.0*
1,1,0.0118,0.0226,0.0039*
1,1,0.0118,0.0226,-0.0039*
1,1,0.0118,-0.0226,-0.0039*
1,1,0.0118,-0.0226,0.0039*
%
%ADD177ROUNDEDRECTD177*%
%ADD178O,0.0213X0.0764*%
%ADD179C,0.1181*%
%ADD180R,0.0772X0.1063*%
%ADD181R,0.0248X0.0150*%
%ADD182R,0.0823X0.0665*%
%ADD183R,0.0790X0.0790*%
%ADD184C,0.0790*%
%ADD185C,0.2496*%
%ADD186C,0.0906*%
%ADD187C,0.2024*%
%ADD188C,0.1240*%
%ADD189C,0.0970*%
%ADD190C,0.0276*%
G04:AMPARAMS|DCode=191|XSize=41.3mil|YSize=65mil|CornerRadius=20.7mil|HoleSize=0mil|Usage=FLASHONLY|Rotation=270.000|XOffset=0mil|YOffset=0mil|HoleType=Round|Shape=RoundedRectangle|*
%AMROUNDEDRECTD191*
21,1,0.0413,0.0236,0,0,270.0*
21,1,0.0000,0.0650,0,0,270.0*
1,1,0.0413,-0.0118,0.0000*
1,1,0.0413,-0.0118,0.0000*
1,1,0.0413,0.0118,0.0000*
1,1,0.0413,0.0118,0.0000*
%
%ADD191ROUNDEDRECTD191*%
G04:AMPARAMS|DCode=192|XSize=53.1mil|YSize=41.3mil|CornerRadius=20.7mil|HoleSize=0mil|Usage=FLASHONLY|Rotation=270.000|XOffset=0mil|YOffset=0mil|HoleType=Round|Shape=RoundedRectangle|*
%AMROUNDEDRECTD192*
21,1,0.0531,0.0000,0,0,270.0*
21,1,0.0118,0.0413,0,0,270.0*
1,1,0.0413,0.0000,-0.0059*
1,1,0.0413,0.0000,0.0059*
1,1,0.0413,0.0000,0.0059*
1,1,0.0413,0.0000,-0.0059*
%
%ADD192ROUNDEDRECTD192*%
%ADD193C,0.0640*%
%ADD194P,0.0693X8X112.5*%
%ADD195C,0.1540*%
%ADD196C,0.0237*%
%ADD197C,0.0160*%
%ADD198C,0.0240*%
%ADD199C,0.0118*%
%ADD200C,0.0260*%
%ADD201C,0.0197*%
G36*
X21158Y46490D02*
X20866D01*
Y46920D01*
X21158D01*
Y46490D01*
D02*
G37*
G36*
X20803D02*
X20512D01*
Y46920D01*
X20803D01*
Y46490D01*
D02*
G37*
G36*
X20449D02*
X20158D01*
Y46920D01*
X20449D01*
Y46490D01*
D02*
G37*
G36*
X20095D02*
X19803D01*
Y46920D01*
X20095D01*
Y46490D01*
D02*
G37*
G36*
X19740D02*
X19449D01*
Y46920D01*
X19740D01*
Y46490D01*
D02*
G37*
G36*
X19386D02*
X19095D01*
Y46920D01*
X19386D01*
Y46490D01*
D02*
G37*
G36*
X19032D02*
X18740D01*
Y46920D01*
X19032D01*
Y46490D01*
D02*
G37*
G36*
X21906Y46195D02*
X21221D01*
Y46920D01*
X21906D01*
Y46195D01*
D02*
G37*
G36*
X18677Y46463D02*
X18410Y46195D01*
X17992D01*
Y46920D01*
X18677D01*
Y46463D01*
D02*
G37*
G36*
X21906Y45841D02*
X21476D01*
Y46132D01*
X21906D01*
Y45841D01*
D02*
G37*
G36*
X18421D02*
X17992D01*
Y46132D01*
X18421D01*
Y45841D01*
D02*
G37*
G36*
X21906Y45487D02*
X21476D01*
Y45778D01*
X21906D01*
Y45487D01*
D02*
G37*
G36*
X18421D02*
X17992D01*
Y45778D01*
X18421D01*
Y45487D01*
D02*
G37*
G36*
X20441Y45337D02*
X19811D01*
Y45967D01*
X20441D01*
Y45337D01*
D02*
G37*
G36*
X21906Y45132D02*
X21476D01*
Y45424D01*
X21906D01*
Y45132D01*
D02*
G37*
G36*
X18421D02*
X17992D01*
Y45424D01*
X18421D01*
Y45132D01*
D02*
G37*
G36*
X21906Y44778D02*
X21476D01*
Y45069D01*
X21906D01*
Y44778D01*
D02*
G37*
G36*
X18421D02*
X17992D01*
Y45069D01*
X18421D01*
Y44778D01*
D02*
G37*
G36*
X21906Y44424D02*
X21476D01*
Y44715D01*
X21906D01*
Y44424D01*
D02*
G37*
G36*
X18421D02*
X17992D01*
Y44715D01*
X18421D01*
Y44424D01*
D02*
G37*
G36*
X21906Y44069D02*
X21476D01*
Y44361D01*
X21906D01*
Y44069D01*
D02*
G37*
G36*
X18421D02*
X17992D01*
Y44361D01*
X18421D01*
Y44069D01*
D02*
G37*
G36*
X21906Y43715D02*
X21476D01*
Y44006D01*
X21906D01*
Y43715D01*
D02*
G37*
G36*
X18421D02*
X17992D01*
Y44006D01*
X18421D01*
Y43715D01*
D02*
G37*
G36*
X21906Y43361D02*
X21476D01*
Y43652D01*
X21906D01*
Y43361D01*
D02*
G37*
G36*
X18421D02*
X17992D01*
Y43652D01*
X18421D01*
Y43361D01*
D02*
G37*
G36*
X21906Y43006D02*
X21476D01*
Y43298D01*
X21906D01*
Y43006D01*
D02*
G37*
G36*
X18421D02*
X17992D01*
Y43298D01*
X18421D01*
Y43006D01*
D02*
G37*
G36*
X21906Y42219D02*
X21221D01*
Y42943D01*
X21906D01*
Y42219D01*
D02*
G37*
G36*
X21158D02*
X20866D01*
Y42648D01*
X21158D01*
Y42219D01*
D02*
G37*
G36*
X20803D02*
X20512D01*
Y42648D01*
X20803D01*
Y42219D01*
D02*
G37*
G36*
X20449D02*
X20158D01*
Y42648D01*
X20449D01*
Y42219D01*
D02*
G37*
G36*
X20095D02*
X19803D01*
Y42648D01*
X20095D01*
Y42219D01*
D02*
G37*
G36*
X19740D02*
X19449D01*
Y42648D01*
X19740D01*
Y42219D01*
D02*
G37*
G36*
X19386D02*
X19095D01*
Y42648D01*
X19386D01*
Y42219D01*
D02*
G37*
G36*
X19032D02*
X18740D01*
Y42648D01*
X19032D01*
Y42219D01*
D02*
G37*
G36*
X18677D02*
X17992D01*
Y42943D01*
X18677D01*
Y42219D01*
D02*
G37*
G36*
X41550Y9999D02*
X41551Y9998D01*
X41552Y9998D01*
X41553Y9998D01*
X41554Y9998D01*
X41556Y9998D01*
X41557Y9998D01*
X41558Y9997D01*
X41559Y9997D01*
X41560Y9997D01*
X41561Y9996D01*
X41562Y9996D01*
X41563Y9995D01*
X41564Y9995D01*
X41565Y9994D01*
X41566Y9994D01*
X41566Y9993D01*
X41567Y9992D01*
X41568Y9992D01*
X41863Y9736D01*
X41864Y9735D01*
X41865Y9735D01*
X41866Y9734D01*
X41867Y9733D01*
X41867Y9732D01*
X41868Y9731D01*
X41868Y9730D01*
X41869Y9729D01*
X41869Y9728D01*
X41870Y9728D01*
X41870Y9726D01*
X41871Y9725D01*
X41871Y9724D01*
X41872Y9724D01*
X41872Y9722D01*
X41872Y9721D01*
X41872Y9720D01*
X41873Y9719D01*
X41873Y9718D01*
X41873Y9717D01*
X41873Y9716D01*
X41873Y9715D01*
X41873Y9341D01*
D01*
Y9341D01*
X41873Y9337D01*
X41872Y9332D01*
X41871Y9331D01*
X41870Y9328D01*
X41868Y9325D01*
X41865Y9321D01*
X41865D01*
Y9321D01*
X41862Y9319D01*
X41858Y9316D01*
X41856Y9315D01*
X41854Y9315D01*
X41850Y9314D01*
X41845Y9313D01*
X41845D01*
D01*
X41176D01*
X41172Y9314D01*
X41168Y9315D01*
X41164Y9316D01*
X41160Y9319D01*
X41157Y9321D01*
X41154Y9325D01*
X41151Y9328D01*
X41150Y9332D01*
X41149Y9337D01*
X41148Y9341D01*
Y9971D01*
D01*
Y9971D01*
X41149Y9975D01*
X41150Y9979D01*
X41151Y9983D01*
X41154Y9987D01*
X41157Y9990D01*
X41160Y9993D01*
X41164Y9996D01*
X41168Y9997D01*
X41172Y9998D01*
X41176Y9999D01*
D01*
X41176D01*
X41550Y9999D01*
D02*
G37*
D27*
X55429Y64684D02*
D03*
D53*
X56285Y56125D02*
D03*
X54482D02*
D03*
D54*
X55384Y53810D02*
D03*
D72*
X51559Y40571D02*
D03*
X52917D02*
D03*
X50822Y40589D02*
D03*
X49464D02*
D03*
X56078Y57366D02*
D03*
X54720D02*
D03*
D73*
X57467Y40552D02*
D03*
X59197D02*
D03*
X54581Y40551D02*
D03*
X56311D02*
D03*
X61219Y35299D02*
D03*
X59489D02*
D03*
X50423Y12625D02*
D03*
X48693D02*
D03*
D106*
X66146Y31936D02*
D03*
X66146Y34219D02*
D03*
D107*
X62243Y66509D02*
D03*
X60314D02*
D03*
X65405Y59231D02*
D03*
X63476D02*
D03*
D108*
X60272Y65248D02*
D03*
Y64898D02*
D03*
X57347Y5436D02*
D03*
Y5086D02*
D03*
X57344Y7730D02*
D03*
Y7380D02*
D03*
X58802Y5936D02*
D03*
Y5586D02*
D03*
X59757Y4674D02*
D03*
Y5024D02*
D03*
X59787Y7905D02*
D03*
Y8255D02*
D03*
X60487Y5024D02*
D03*
Y4674D02*
D03*
X60122D02*
D03*
Y5024D02*
D03*
X60150Y7906D02*
D03*
Y8256D02*
D03*
X60508Y7908D02*
D03*
Y8258D02*
D03*
X62069Y5889D02*
D03*
Y5539D02*
D03*
X62086Y6982D02*
D03*
Y7332D02*
D03*
X62648Y4728D02*
D03*
Y5078D02*
D03*
X62645Y8183D02*
D03*
Y7833D02*
D03*
X51997Y6131D02*
D03*
Y5781D02*
D03*
X57719Y5011D02*
D03*
Y5361D02*
D03*
X59152Y5939D02*
D03*
Y5589D02*
D03*
X57719Y7555D02*
D03*
Y7905D02*
D03*
X60852Y5024D02*
D03*
Y4674D02*
D03*
X60866Y7908D02*
D03*
Y8258D02*
D03*
X63153Y5900D02*
D03*
Y5550D02*
D03*
X63159Y6969D02*
D03*
Y7319D02*
D03*
X7879Y32369D02*
D03*
Y32719D02*
D03*
Y31389D02*
D03*
Y31739D02*
D03*
Y30664D02*
D03*
Y31014D02*
D03*
X7807Y29275D02*
D03*
Y28925D02*
D03*
X7823Y28225D02*
D03*
Y27875D02*
D03*
X11821Y29870D02*
D03*
Y29520D02*
D03*
X11842Y28111D02*
D03*
Y28461D02*
D03*
X11821Y28831D02*
D03*
Y29181D02*
D03*
Y32369D02*
D03*
Y32719D02*
D03*
Y31739D02*
D03*
Y31389D02*
D03*
X58647Y19940D02*
D03*
Y20290D02*
D03*
X58298Y20507D02*
D03*
Y20157D02*
D03*
X17707Y45324D02*
D03*
Y45674D02*
D03*
X39007Y28810D02*
D03*
Y29160D02*
D03*
X43522Y28161D02*
D03*
Y27811D02*
D03*
X43166Y27810D02*
D03*
Y28160D02*
D03*
X21338Y60257D02*
D03*
Y60607D02*
D03*
X19312Y60223D02*
D03*
Y60573D02*
D03*
X26040Y60878D02*
D03*
Y60528D02*
D03*
X1283Y34417D02*
D03*
Y34067D02*
D03*
X3117Y34597D02*
D03*
Y34247D02*
D03*
X48702Y44896D02*
D03*
Y45246D02*
D03*
X59352Y42196D02*
D03*
Y41846D02*
D03*
X58993Y42192D02*
D03*
Y41842D02*
D03*
X58275Y42192D02*
D03*
Y41842D02*
D03*
X58634Y42192D02*
D03*
Y41842D02*
D03*
X49058Y45645D02*
D03*
Y45295D02*
D03*
X49736Y45646D02*
D03*
Y45296D02*
D03*
X50498Y45648D02*
D03*
Y45298D02*
D03*
X49895Y42200D02*
D03*
Y42550D02*
D03*
X50871Y45295D02*
D03*
Y45645D02*
D03*
X51512Y43355D02*
D03*
Y43005D02*
D03*
X51866Y43355D02*
D03*
Y43005D02*
D03*
X53018Y43751D02*
D03*
Y43401D02*
D03*
X53013Y44551D02*
D03*
Y44901D02*
D03*
X61394Y39436D02*
D03*
Y39786D02*
D03*
X50237Y42200D02*
D03*
Y42550D02*
D03*
X49402Y45646D02*
D03*
Y45296D02*
D03*
X50070Y45646D02*
D03*
Y45296D02*
D03*
X41040Y53740D02*
D03*
Y53390D02*
D03*
X49124Y57634D02*
D03*
Y57284D02*
D03*
X53082Y54901D02*
D03*
Y55251D02*
D03*
X57396Y65146D02*
D03*
Y64796D02*
D03*
X58117Y64735D02*
D03*
Y64385D02*
D03*
X58737Y62861D02*
D03*
Y63211D02*
D03*
X58835Y64385D02*
D03*
Y64735D02*
D03*
X59901Y65248D02*
D03*
Y64898D02*
D03*
X56669Y57531D02*
D03*
Y57181D02*
D03*
X53673Y62832D02*
D03*
Y62482D02*
D03*
X53671Y66788D02*
D03*
Y66438D02*
D03*
X57758Y64385D02*
D03*
Y64735D02*
D03*
X58476Y64385D02*
D03*
Y64735D02*
D03*
X59266Y64898D02*
D03*
Y65248D02*
D03*
X46166Y32260D02*
D03*
Y32610D02*
D03*
X56376Y29667D02*
D03*
Y29317D02*
D03*
X56136Y17825D02*
D03*
Y17475D02*
D03*
X56256Y21929D02*
D03*
Y21579D02*
D03*
X56962Y17843D02*
D03*
Y17493D02*
D03*
X58298Y19419D02*
D03*
Y19069D02*
D03*
Y21214D02*
D03*
Y20864D02*
D03*
Y18366D02*
D03*
Y18716D02*
D03*
X57317Y17843D02*
D03*
Y17493D02*
D03*
X56615Y21929D02*
D03*
Y21579D02*
D03*
X55897Y21852D02*
D03*
Y22202D02*
D03*
X58641Y19602D02*
D03*
Y19252D02*
D03*
X44879Y25271D02*
D03*
Y24921D02*
D03*
X47348Y24159D02*
D03*
Y23809D02*
D03*
X46988Y24867D02*
D03*
Y24517D02*
D03*
X46988Y23813D02*
D03*
Y24163D02*
D03*
X44881Y23799D02*
D03*
Y24149D02*
D03*
X21176Y61912D02*
D03*
Y61561D02*
D03*
X28381Y16172D02*
D03*
Y15822D02*
D03*
X30826Y14107D02*
D03*
Y14457D02*
D03*
X32217Y13932D02*
D03*
Y14282D02*
D03*
X29311Y7447D02*
D03*
Y7797D02*
D03*
X44765Y15688D02*
D03*
Y15338D02*
D03*
X40849Y12329D02*
D03*
Y12679D02*
D03*
X42299Y13900D02*
D03*
Y13550D02*
D03*
X46480Y11263D02*
D03*
Y11613D02*
D03*
X46134Y11263D02*
D03*
Y11613D02*
D03*
X46742Y19798D02*
D03*
Y19448D02*
D03*
X46742Y20518D02*
D03*
Y20168D02*
D03*
X50459Y15281D02*
D03*
Y14931D02*
D03*
X50459Y14570D02*
D03*
Y14220D02*
D03*
X50110Y14522D02*
D03*
Y14872D02*
D03*
X57666Y30961D02*
D03*
Y31311D02*
D03*
X57664Y30602D02*
D03*
Y30252D02*
D03*
X58501Y28190D02*
D03*
Y27840D02*
D03*
X63027Y30958D02*
D03*
Y31308D02*
D03*
X62890Y31918D02*
D03*
Y32268D02*
D03*
X63024Y30605D02*
D03*
Y30255D02*
D03*
X64483Y34254D02*
D03*
Y33904D02*
D03*
X60034Y20854D02*
D03*
Y21204D02*
D03*
X60809Y20087D02*
D03*
Y20437D02*
D03*
X60095Y18505D02*
D03*
Y18155D02*
D03*
X62685Y18546D02*
D03*
Y18196D02*
D03*
X61840Y17423D02*
D03*
Y17073D02*
D03*
X62288Y28449D02*
D03*
Y28799D02*
D03*
D109*
X61917Y60031D02*
D03*
Y61961D02*
D03*
Y65102D02*
D03*
Y63173D02*
D03*
X56711Y50663D02*
D03*
Y48734D02*
D03*
D110*
X51839Y4928D02*
D03*
X52189D02*
D03*
X55933Y3699D02*
D03*
X56283D02*
D03*
X56621Y5186D02*
D03*
X56971D02*
D03*
X56621Y7555D02*
D03*
X56971D02*
D03*
X55997Y8602D02*
D03*
X56347D02*
D03*
X56009Y8959D02*
D03*
X56359D02*
D03*
X58431Y5002D02*
D03*
X58081D02*
D03*
X58434Y5360D02*
D03*
X58084D02*
D03*
X58434Y7584D02*
D03*
X58084D02*
D03*
X58801Y5210D02*
D03*
X59151D02*
D03*
X58802Y7004D02*
D03*
X59152D02*
D03*
Y6652D02*
D03*
X58802D02*
D03*
X58796Y7769D02*
D03*
X59146D02*
D03*
X58802Y7357D02*
D03*
X59152D02*
D03*
X58805Y8133D02*
D03*
X59155D02*
D03*
X61221Y5078D02*
D03*
X61571D02*
D03*
X61229Y7840D02*
D03*
X61579D02*
D03*
X61932Y5078D02*
D03*
X62282D02*
D03*
X62080Y6254D02*
D03*
X62430D02*
D03*
X62080Y6622D02*
D03*
X62430D02*
D03*
X61942Y7840D02*
D03*
X62292D02*
D03*
X62442Y7339D02*
D03*
X62792D02*
D03*
X52882Y4006D02*
D03*
X52532D02*
D03*
X54984Y8752D02*
D03*
X54634D02*
D03*
X55936Y4102D02*
D03*
X56286D02*
D03*
X56621Y5567D02*
D03*
X56971D02*
D03*
X56621Y7205D02*
D03*
X56971D02*
D03*
X58431Y7955D02*
D03*
X58081D02*
D03*
X58806Y4852D02*
D03*
X59156D02*
D03*
X59152Y6300D02*
D03*
X58802D02*
D03*
X62436Y5542D02*
D03*
X62786D02*
D03*
X6860Y42074D02*
D03*
X7210D02*
D03*
X11824Y31102D02*
D03*
X12174D02*
D03*
X19249Y47206D02*
D03*
X19599D02*
D03*
X35591Y30102D02*
D03*
X35241D02*
D03*
X38656Y28338D02*
D03*
X39006D02*
D03*
X42358Y29430D02*
D03*
X42008D02*
D03*
X43471Y27310D02*
D03*
X43121D02*
D03*
X43545Y29506D02*
D03*
X43195D02*
D03*
X19542Y59019D02*
D03*
X19892D02*
D03*
X20033Y61928D02*
D03*
X20383D02*
D03*
X20029Y61148D02*
D03*
X20379D02*
D03*
X20381Y61533D02*
D03*
X20031D02*
D03*
X2211Y33313D02*
D03*
X2561D02*
D03*
Y33668D02*
D03*
X2211D02*
D03*
X2561Y32958D02*
D03*
X2211D02*
D03*
X46041Y29088D02*
D03*
X45691D02*
D03*
X46048Y28664D02*
D03*
X45698D02*
D03*
X45686Y28242D02*
D03*
X46036D02*
D03*
X52223Y41697D02*
D03*
X52573D02*
D03*
X50832Y41205D02*
D03*
X51182D02*
D03*
X47970Y43165D02*
D03*
X47620D02*
D03*
X48360Y43163D02*
D03*
X48710D02*
D03*
X48360Y43854D02*
D03*
X48710D02*
D03*
X48360Y44546D02*
D03*
X48710D02*
D03*
X48360Y44200D02*
D03*
X48710D02*
D03*
X48360Y43508D02*
D03*
X48710D02*
D03*
X51583Y46457D02*
D03*
X51933D02*
D03*
X48949Y58133D02*
D03*
X49299D02*
D03*
X49999Y57265D02*
D03*
X49649D02*
D03*
X58828Y64027D02*
D03*
X58478D02*
D03*
X59609Y64547D02*
D03*
X59259D02*
D03*
X57736Y63598D02*
D03*
X58086D02*
D03*
X45128Y34798D02*
D03*
X45478D02*
D03*
X49675Y37894D02*
D03*
X49325D02*
D03*
X53525Y37273D02*
D03*
X53875D02*
D03*
X20146Y15121D02*
D03*
X20496D02*
D03*
X18738Y14001D02*
D03*
X19088D02*
D03*
Y13575D02*
D03*
X18738D02*
D03*
X18766Y9808D02*
D03*
X19116D02*
D03*
X18766Y9375D02*
D03*
X19116D02*
D03*
X18738Y5161D02*
D03*
X19088D02*
D03*
X18738Y5591D02*
D03*
X19088D02*
D03*
X23447Y15873D02*
D03*
X23797D02*
D03*
X23447Y15050D02*
D03*
X23797D02*
D03*
X23447Y14228D02*
D03*
X23797D02*
D03*
X23447Y13405D02*
D03*
X23797D02*
D03*
X59702Y21216D02*
D03*
X59352D02*
D03*
X59359Y20856D02*
D03*
X59709D02*
D03*
X59723Y18332D02*
D03*
X59373D02*
D03*
X59726Y18710D02*
D03*
X59376D02*
D03*
X56259Y22287D02*
D03*
X56609D02*
D03*
X57419Y21769D02*
D03*
X57769D02*
D03*
X57419Y22137D02*
D03*
X57769D02*
D03*
X59005Y18899D02*
D03*
X58655D02*
D03*
X59013Y18538D02*
D03*
X58663D02*
D03*
X48972Y23511D02*
D03*
X48622D02*
D03*
X33489Y11164D02*
D03*
X33839D02*
D03*
X26582Y10906D02*
D03*
X26932D02*
D03*
X27548Y9922D02*
D03*
X27198D02*
D03*
X33461Y9637D02*
D03*
X33111D02*
D03*
X33464Y9297D02*
D03*
X33114D02*
D03*
X30458Y12881D02*
D03*
X30808D02*
D03*
X30450Y12520D02*
D03*
X30800D02*
D03*
X31717Y12348D02*
D03*
X32067D02*
D03*
X31719Y12706D02*
D03*
X32069D02*
D03*
X30546Y7320D02*
D03*
X30196D02*
D03*
X31085Y6938D02*
D03*
X31435D02*
D03*
X30546Y7677D02*
D03*
X30196D02*
D03*
X52388Y13760D02*
D03*
X52038D02*
D03*
X41915Y13554D02*
D03*
X41565D02*
D03*
X40859Y10207D02*
D03*
X40509D02*
D03*
X43616Y19623D02*
D03*
X43266D02*
D03*
X46958Y14568D02*
D03*
X46608D02*
D03*
X48337Y17818D02*
D03*
X48687D02*
D03*
X57826Y33354D02*
D03*
X57476D02*
D03*
X57839Y32861D02*
D03*
X57489D02*
D03*
X57456Y32349D02*
D03*
X57806D02*
D03*
X57456Y31867D02*
D03*
X57806D02*
D03*
X64305Y32369D02*
D03*
X63955D02*
D03*
X63240Y33342D02*
D03*
X62890D02*
D03*
X63240Y32849D02*
D03*
X62890D02*
D03*
X58648Y20686D02*
D03*
X58998D02*
D03*
X58648Y21038D02*
D03*
X58998D02*
D03*
X60392Y20851D02*
D03*
X60742D02*
D03*
X61594Y20772D02*
D03*
X61244D02*
D03*
X60389Y21199D02*
D03*
X60739D02*
D03*
X60834Y18565D02*
D03*
X60484D02*
D03*
X61990Y20768D02*
D03*
X62340D02*
D03*
X60483Y17847D02*
D03*
X60833D02*
D03*
X60485Y18200D02*
D03*
X60835D02*
D03*
X61442Y17848D02*
D03*
X61792D02*
D03*
X62391Y21122D02*
D03*
X62741D02*
D03*
X2578Y35808D02*
D03*
X2228D02*
D03*
X25753Y13784D02*
D03*
X25403D02*
D03*
D111*
X61382Y5964D02*
D03*
Y6161D02*
D03*
Y6358D02*
D03*
Y6555D02*
D03*
Y6751D02*
D03*
Y6948D02*
D03*
X59768D02*
D03*
Y6751D02*
D03*
Y6555D02*
D03*
Y6358D02*
D03*
Y6161D02*
D03*
Y5964D02*
D03*
D112*
X61067Y7263D02*
D03*
X60870D02*
D03*
X60673D02*
D03*
X60476D02*
D03*
X60280D02*
D03*
X60083D02*
D03*
Y5649D02*
D03*
X60280D02*
D03*
X60476D02*
D03*
X60673D02*
D03*
X60870D02*
D03*
X61067D02*
D03*
D113*
X60575Y6456D02*
D03*
D114*
X62976Y2605D02*
D03*
Y2881D02*
D03*
X62943Y9824D02*
D03*
Y10100D02*
D03*
D115*
X50772Y6131D02*
D03*
X51442D02*
D03*
X56201Y9580D02*
D03*
X56871D02*
D03*
X51502Y41847D02*
D03*
X50832D02*
D03*
X51885Y64645D02*
D03*
X52555D02*
D03*
X53415Y37897D02*
D03*
X54085D02*
D03*
X53703Y18520D02*
D03*
X54373D02*
D03*
X57614Y22756D02*
D03*
X58284D02*
D03*
Y24868D02*
D03*
X57614D02*
D03*
X26750Y11527D02*
D03*
X26080D02*
D03*
X29947Y13486D02*
D03*
X30617D02*
D03*
X32914Y13331D02*
D03*
X32244D02*
D03*
X43528Y13965D02*
D03*
X42858D02*
D03*
X43990Y17939D02*
D03*
X44660D02*
D03*
X64265Y31738D02*
D03*
X63595D02*
D03*
D116*
X52933Y4628D02*
D03*
X53130D02*
D03*
X53327D02*
D03*
X53524D02*
D03*
X53721D02*
D03*
X53918D02*
D03*
X54114D02*
D03*
X54311D02*
D03*
X54508D02*
D03*
X54705D02*
D03*
X54902D02*
D03*
X55099D02*
D03*
X55296D02*
D03*
X55492D02*
D03*
X55689D02*
D03*
X55492Y8151D02*
D03*
X55296D02*
D03*
X55099D02*
D03*
X54902D02*
D03*
X54705D02*
D03*
X54508D02*
D03*
X54311D02*
D03*
X54114D02*
D03*
X53918D02*
D03*
X53721D02*
D03*
X53524D02*
D03*
X53327D02*
D03*
X53130D02*
D03*
X52933D02*
D03*
D117*
X55886Y4628D02*
D03*
Y8151D02*
D03*
X55689D02*
D03*
X29327Y11748D02*
D03*
X29524D02*
D03*
X29721D02*
D03*
X29918D02*
D03*
X30115D02*
D03*
X30312D02*
D03*
X30509D02*
D03*
X30705D02*
D03*
X30902D02*
D03*
X31099D02*
D03*
X31296D02*
D03*
X31493D02*
D03*
X31690D02*
D03*
X31886D02*
D03*
X32083D02*
D03*
X32280D02*
D03*
Y8224D02*
D03*
X32083D02*
D03*
X31886D02*
D03*
X31690D02*
D03*
X31493D02*
D03*
X31296D02*
D03*
X31099D02*
D03*
X30902D02*
D03*
X30705D02*
D03*
X30509D02*
D03*
X30312D02*
D03*
X30115D02*
D03*
X29918D02*
D03*
X29721D02*
D03*
X29524D02*
D03*
X29327D02*
D03*
D118*
X56172Y4913D02*
D03*
Y5110D02*
D03*
Y5307D02*
D03*
Y5504D02*
D03*
Y5701D02*
D03*
Y5897D02*
D03*
Y6094D02*
D03*
Y6291D02*
D03*
Y6488D02*
D03*
Y6685D02*
D03*
Y6882D02*
D03*
Y7078D02*
D03*
Y7275D02*
D03*
Y7472D02*
D03*
Y7669D02*
D03*
Y7866D02*
D03*
X52648D02*
D03*
Y7669D02*
D03*
Y7472D02*
D03*
Y7275D02*
D03*
Y7078D02*
D03*
Y6882D02*
D03*
Y6685D02*
D03*
Y6488D02*
D03*
Y6291D02*
D03*
Y6094D02*
D03*
Y5897D02*
D03*
Y5701D02*
D03*
Y5504D02*
D03*
Y5307D02*
D03*
Y5110D02*
D03*
Y4913D02*
D03*
D119*
X54410Y6390D02*
D03*
D120*
X17193Y42886D02*
D03*
Y44146D02*
D03*
X47422Y11995D02*
D03*
Y10735D02*
D03*
X47088Y17593D02*
D03*
Y18853D02*
D03*
X25502Y62152D02*
D03*
Y63412D02*
D03*
D121*
X2616Y46855D02*
D03*
Y44729D02*
D03*
X31258Y35022D02*
D03*
Y32896D02*
D03*
X43431Y55508D02*
D03*
Y53382D02*
D03*
X46472Y55508D02*
D03*
Y53382D02*
D03*
X23213Y60839D02*
D03*
Y62965D02*
D03*
D122*
X21218Y47542D02*
D03*
X20628D02*
D03*
X18363Y14569D02*
D03*
X18953D02*
D03*
X18983Y10398D02*
D03*
X18393D02*
D03*
X18953Y6200D02*
D03*
X18363D02*
D03*
X28861Y15970D02*
D03*
X29451D02*
D03*
D123*
X21976Y48644D02*
D03*
X20717D02*
D03*
X32365Y31105D02*
D03*
X31106D02*
D03*
X3661Y42835D02*
D03*
X2402D02*
D03*
X52201Y57817D02*
D03*
X50941D02*
D03*
D124*
X19529Y48463D02*
D03*
X17849Y41098D02*
D03*
X48887Y10389D02*
D03*
X48885Y20597D02*
D03*
D125*
X16994Y48463D02*
D03*
X20384Y41098D02*
D03*
X51422Y10389D02*
D03*
X51421Y20597D02*
D03*
D126*
X39685Y28810D02*
D03*
Y28310D02*
D03*
Y27810D02*
D03*
Y27310D02*
D03*
X42481Y28810D02*
D03*
Y28310D02*
D03*
Y27810D02*
D03*
Y27310D02*
D03*
D127*
X33970Y31311D02*
D03*
Y32561D02*
D03*
X35970Y31311D02*
D03*
X34970D02*
D03*
X37970D02*
D03*
X36970D02*
D03*
X38970D02*
D03*
X33970Y37561D02*
D03*
X36970D02*
D03*
X38970D02*
D03*
X5227Y43364D02*
D03*
Y44614D02*
D03*
X7227Y43364D02*
D03*
X6227D02*
D03*
X9227D02*
D03*
X8227D02*
D03*
X10227D02*
D03*
X5227Y49614D02*
D03*
X8227D02*
D03*
X10227D02*
D03*
X33587Y58206D02*
D03*
Y60206D02*
D03*
Y63206D02*
D03*
X27337Y58206D02*
D03*
Y60206D02*
D03*
Y59206D02*
D03*
Y62206D02*
D03*
Y61206D02*
D03*
X28587Y63206D02*
D03*
X27337D02*
D03*
D128*
X42351Y34664D02*
D03*
Y31357D02*
D03*
X13732Y43504D02*
D03*
Y46811D02*
D03*
X37016Y59903D02*
D03*
Y63210D02*
D03*
D129*
X17234Y35120D02*
D03*
Y34726D02*
D03*
Y33939D02*
D03*
Y34333D02*
D03*
Y33545D02*
D03*
Y33152D02*
D03*
Y32364D02*
D03*
Y31971D02*
D03*
Y31577D02*
D03*
Y30789D02*
D03*
Y31183D02*
D03*
Y32758D02*
D03*
Y30396D02*
D03*
Y30002D02*
D03*
Y29608D02*
D03*
Y29215D02*
D03*
Y28427D02*
D03*
Y28821D02*
D03*
Y28034D02*
D03*
Y26459D02*
D03*
Y26065D02*
D03*
Y26852D02*
D03*
Y27246D02*
D03*
Y27640D02*
D03*
Y25671D02*
D03*
Y25278D02*
D03*
X17628Y35120D02*
D03*
Y34726D02*
D03*
Y34333D02*
D03*
Y33939D02*
D03*
Y33545D02*
D03*
Y33152D02*
D03*
Y32758D02*
D03*
Y32364D02*
D03*
Y31971D02*
D03*
Y31577D02*
D03*
Y31183D02*
D03*
Y30789D02*
D03*
Y30396D02*
D03*
Y30002D02*
D03*
Y29608D02*
D03*
Y29215D02*
D03*
Y28821D02*
D03*
Y28427D02*
D03*
Y28034D02*
D03*
Y27640D02*
D03*
Y27246D02*
D03*
Y26852D02*
D03*
Y26459D02*
D03*
Y26065D02*
D03*
Y25671D02*
D03*
Y25278D02*
D03*
X18021Y35120D02*
D03*
Y34726D02*
D03*
Y34333D02*
D03*
Y33939D02*
D03*
Y33545D02*
D03*
Y33152D02*
D03*
Y32758D02*
D03*
Y32364D02*
D03*
Y31971D02*
D03*
Y31577D02*
D03*
Y31183D02*
D03*
Y30789D02*
D03*
Y30396D02*
D03*
Y30002D02*
D03*
Y29608D02*
D03*
Y29215D02*
D03*
Y28821D02*
D03*
Y28427D02*
D03*
Y28034D02*
D03*
Y27640D02*
D03*
Y27246D02*
D03*
Y26852D02*
D03*
Y26459D02*
D03*
Y26065D02*
D03*
Y25671D02*
D03*
Y25278D02*
D03*
X18415Y35120D02*
D03*
Y34726D02*
D03*
Y34333D02*
D03*
Y33939D02*
D03*
Y33545D02*
D03*
Y33152D02*
D03*
Y32758D02*
D03*
Y32364D02*
D03*
Y31971D02*
D03*
Y31577D02*
D03*
Y31183D02*
D03*
Y30789D02*
D03*
Y30396D02*
D03*
Y30002D02*
D03*
Y29608D02*
D03*
Y29215D02*
D03*
Y28821D02*
D03*
Y28427D02*
D03*
Y28034D02*
D03*
Y27640D02*
D03*
Y27246D02*
D03*
Y26852D02*
D03*
Y26459D02*
D03*
Y26065D02*
D03*
Y25671D02*
D03*
Y25278D02*
D03*
X18809Y35120D02*
D03*
Y34726D02*
D03*
Y34333D02*
D03*
Y33939D02*
D03*
Y33545D02*
D03*
Y33152D02*
D03*
Y32758D02*
D03*
Y32364D02*
D03*
Y31971D02*
D03*
Y31577D02*
D03*
Y31183D02*
D03*
Y30789D02*
D03*
Y30396D02*
D03*
Y30002D02*
D03*
Y29608D02*
D03*
Y29215D02*
D03*
Y28821D02*
D03*
Y28427D02*
D03*
Y28034D02*
D03*
Y27640D02*
D03*
Y27246D02*
D03*
Y26852D02*
D03*
Y26459D02*
D03*
Y26065D02*
D03*
Y25671D02*
D03*
Y25278D02*
D03*
X19202Y35120D02*
D03*
Y34726D02*
D03*
Y34333D02*
D03*
Y33939D02*
D03*
Y33545D02*
D03*
Y33152D02*
D03*
Y32758D02*
D03*
Y32364D02*
D03*
Y31971D02*
D03*
Y31577D02*
D03*
Y31183D02*
D03*
Y30789D02*
D03*
Y30396D02*
D03*
Y30002D02*
D03*
Y29608D02*
D03*
Y29215D02*
D03*
Y28821D02*
D03*
Y28427D02*
D03*
Y28034D02*
D03*
Y27640D02*
D03*
Y27246D02*
D03*
Y26852D02*
D03*
Y26459D02*
D03*
Y26065D02*
D03*
Y25671D02*
D03*
Y25278D02*
D03*
X19596Y35120D02*
D03*
Y34726D02*
D03*
Y34333D02*
D03*
Y33939D02*
D03*
Y33545D02*
D03*
Y33152D02*
D03*
Y32758D02*
D03*
Y32364D02*
D03*
Y31971D02*
D03*
Y31577D02*
D03*
Y31183D02*
D03*
Y30789D02*
D03*
Y30396D02*
D03*
Y30002D02*
D03*
Y29608D02*
D03*
Y29215D02*
D03*
Y28821D02*
D03*
Y28427D02*
D03*
Y28034D02*
D03*
Y27640D02*
D03*
Y27246D02*
D03*
Y26852D02*
D03*
Y26459D02*
D03*
Y26065D02*
D03*
Y25671D02*
D03*
Y25278D02*
D03*
X19990Y35120D02*
D03*
Y34726D02*
D03*
Y34333D02*
D03*
Y33939D02*
D03*
Y33545D02*
D03*
Y33152D02*
D03*
Y32758D02*
D03*
Y32364D02*
D03*
Y31971D02*
D03*
Y31577D02*
D03*
Y31183D02*
D03*
Y30789D02*
D03*
Y30396D02*
D03*
Y30002D02*
D03*
Y29608D02*
D03*
Y29215D02*
D03*
Y28821D02*
D03*
Y28427D02*
D03*
Y28034D02*
D03*
Y27640D02*
D03*
Y27246D02*
D03*
Y26852D02*
D03*
Y26459D02*
D03*
Y26065D02*
D03*
Y25671D02*
D03*
Y25278D02*
D03*
X20384Y35120D02*
D03*
Y34726D02*
D03*
Y34333D02*
D03*
Y33939D02*
D03*
Y33545D02*
D03*
Y33152D02*
D03*
Y32758D02*
D03*
Y32364D02*
D03*
Y31971D02*
D03*
Y31577D02*
D03*
Y31183D02*
D03*
Y30789D02*
D03*
Y30396D02*
D03*
Y30002D02*
D03*
Y29608D02*
D03*
Y29215D02*
D03*
Y28821D02*
D03*
Y28427D02*
D03*
Y28034D02*
D03*
Y27640D02*
D03*
Y27246D02*
D03*
Y26852D02*
D03*
Y26459D02*
D03*
Y26065D02*
D03*
Y25671D02*
D03*
Y25278D02*
D03*
X20777Y35120D02*
D03*
Y34726D02*
D03*
Y34333D02*
D03*
Y33939D02*
D03*
Y33545D02*
D03*
Y33152D02*
D03*
Y32758D02*
D03*
Y32364D02*
D03*
Y31971D02*
D03*
Y31577D02*
D03*
Y31183D02*
D03*
Y30789D02*
D03*
Y30396D02*
D03*
Y30002D02*
D03*
Y29608D02*
D03*
Y29215D02*
D03*
Y28821D02*
D03*
Y28427D02*
D03*
Y28034D02*
D03*
Y27640D02*
D03*
Y27246D02*
D03*
Y26852D02*
D03*
Y26459D02*
D03*
Y26065D02*
D03*
Y25671D02*
D03*
Y25278D02*
D03*
X21171Y35120D02*
D03*
Y34726D02*
D03*
Y34333D02*
D03*
Y33939D02*
D03*
Y33545D02*
D03*
Y33152D02*
D03*
Y32758D02*
D03*
Y32364D02*
D03*
Y31971D02*
D03*
Y31577D02*
D03*
Y31183D02*
D03*
Y30789D02*
D03*
Y30396D02*
D03*
Y30002D02*
D03*
Y29608D02*
D03*
Y29215D02*
D03*
Y28821D02*
D03*
Y28427D02*
D03*
Y28034D02*
D03*
Y27640D02*
D03*
Y27246D02*
D03*
Y26852D02*
D03*
Y26459D02*
D03*
Y26065D02*
D03*
Y25671D02*
D03*
Y25278D02*
D03*
X21565Y35120D02*
D03*
Y34726D02*
D03*
Y34333D02*
D03*
Y33939D02*
D03*
Y33545D02*
D03*
Y33152D02*
D03*
Y32758D02*
D03*
Y32364D02*
D03*
Y31971D02*
D03*
Y31577D02*
D03*
Y31183D02*
D03*
Y30789D02*
D03*
Y30396D02*
D03*
Y30002D02*
D03*
Y29608D02*
D03*
Y29215D02*
D03*
Y28821D02*
D03*
Y28427D02*
D03*
Y28034D02*
D03*
Y27640D02*
D03*
Y27246D02*
D03*
Y26852D02*
D03*
Y26459D02*
D03*
Y26065D02*
D03*
Y25671D02*
D03*
Y25278D02*
D03*
X21958Y35120D02*
D03*
Y34726D02*
D03*
Y34333D02*
D03*
Y33939D02*
D03*
Y33545D02*
D03*
Y33152D02*
D03*
Y32758D02*
D03*
Y32364D02*
D03*
Y31971D02*
D03*
Y31577D02*
D03*
Y31183D02*
D03*
Y30789D02*
D03*
Y30396D02*
D03*
Y30002D02*
D03*
Y29608D02*
D03*
Y29215D02*
D03*
Y28821D02*
D03*
Y28427D02*
D03*
Y28034D02*
D03*
Y27640D02*
D03*
Y27246D02*
D03*
Y26852D02*
D03*
Y26459D02*
D03*
Y26065D02*
D03*
Y25671D02*
D03*
Y25278D02*
D03*
X22352Y35120D02*
D03*
Y34726D02*
D03*
Y34333D02*
D03*
Y33939D02*
D03*
Y33545D02*
D03*
Y33152D02*
D03*
Y32758D02*
D03*
Y32364D02*
D03*
Y31971D02*
D03*
Y31577D02*
D03*
Y31183D02*
D03*
Y30789D02*
D03*
Y30396D02*
D03*
Y30002D02*
D03*
Y29608D02*
D03*
Y29215D02*
D03*
Y28821D02*
D03*
Y28427D02*
D03*
Y28034D02*
D03*
Y27640D02*
D03*
Y27246D02*
D03*
Y26852D02*
D03*
Y26459D02*
D03*
Y26065D02*
D03*
Y25671D02*
D03*
Y25278D02*
D03*
X22746Y35120D02*
D03*
Y34726D02*
D03*
Y34333D02*
D03*
Y33939D02*
D03*
Y33545D02*
D03*
Y33152D02*
D03*
Y32758D02*
D03*
Y32364D02*
D03*
Y31971D02*
D03*
Y31577D02*
D03*
Y31183D02*
D03*
Y30789D02*
D03*
Y30396D02*
D03*
Y30002D02*
D03*
Y29608D02*
D03*
Y29215D02*
D03*
Y28821D02*
D03*
Y28427D02*
D03*
Y28034D02*
D03*
Y27640D02*
D03*
Y27246D02*
D03*
Y26852D02*
D03*
Y26459D02*
D03*
Y26065D02*
D03*
Y25671D02*
D03*
Y25278D02*
D03*
X23139Y35120D02*
D03*
Y34726D02*
D03*
Y34333D02*
D03*
Y33939D02*
D03*
Y33545D02*
D03*
Y33152D02*
D03*
Y32758D02*
D03*
Y32364D02*
D03*
Y31971D02*
D03*
Y31577D02*
D03*
Y31183D02*
D03*
Y30789D02*
D03*
Y30396D02*
D03*
Y30002D02*
D03*
Y29608D02*
D03*
Y29215D02*
D03*
Y28821D02*
D03*
Y28427D02*
D03*
Y28034D02*
D03*
Y27640D02*
D03*
Y27246D02*
D03*
Y26852D02*
D03*
Y26459D02*
D03*
Y26065D02*
D03*
Y25671D02*
D03*
Y25278D02*
D03*
X23533Y35120D02*
D03*
Y34726D02*
D03*
Y34333D02*
D03*
Y33939D02*
D03*
Y33545D02*
D03*
Y33152D02*
D03*
Y32758D02*
D03*
Y32364D02*
D03*
Y31971D02*
D03*
Y31577D02*
D03*
Y31183D02*
D03*
Y30789D02*
D03*
Y30396D02*
D03*
Y30002D02*
D03*
Y29608D02*
D03*
Y29215D02*
D03*
Y28821D02*
D03*
Y28427D02*
D03*
Y28034D02*
D03*
Y27640D02*
D03*
Y27246D02*
D03*
Y26852D02*
D03*
Y26459D02*
D03*
Y26065D02*
D03*
Y25671D02*
D03*
Y25278D02*
D03*
X23927Y35120D02*
D03*
Y34726D02*
D03*
Y34333D02*
D03*
Y33939D02*
D03*
Y33545D02*
D03*
Y33152D02*
D03*
Y32758D02*
D03*
Y32364D02*
D03*
Y31971D02*
D03*
Y31577D02*
D03*
Y31183D02*
D03*
Y30789D02*
D03*
Y30396D02*
D03*
Y30002D02*
D03*
Y29608D02*
D03*
Y29215D02*
D03*
Y28821D02*
D03*
Y28427D02*
D03*
Y28034D02*
D03*
Y27640D02*
D03*
Y27246D02*
D03*
Y26852D02*
D03*
Y26459D02*
D03*
Y26065D02*
D03*
Y25671D02*
D03*
Y25278D02*
D03*
X24321Y35120D02*
D03*
Y34726D02*
D03*
Y34333D02*
D03*
Y33939D02*
D03*
Y33545D02*
D03*
Y33152D02*
D03*
Y32758D02*
D03*
Y32364D02*
D03*
Y31971D02*
D03*
Y31577D02*
D03*
Y31183D02*
D03*
Y30789D02*
D03*
Y30396D02*
D03*
Y30002D02*
D03*
Y29608D02*
D03*
Y29215D02*
D03*
Y28821D02*
D03*
Y28427D02*
D03*
Y28034D02*
D03*
Y27640D02*
D03*
Y27246D02*
D03*
Y26852D02*
D03*
Y26459D02*
D03*
Y26065D02*
D03*
Y25671D02*
D03*
Y25278D02*
D03*
X24714Y35120D02*
D03*
Y34726D02*
D03*
Y34333D02*
D03*
Y33939D02*
D03*
Y33545D02*
D03*
Y33152D02*
D03*
Y32758D02*
D03*
Y32364D02*
D03*
Y31971D02*
D03*
Y31577D02*
D03*
Y31183D02*
D03*
Y30789D02*
D03*
Y30396D02*
D03*
Y30002D02*
D03*
Y29608D02*
D03*
Y29215D02*
D03*
Y28821D02*
D03*
Y28427D02*
D03*
Y28034D02*
D03*
Y27640D02*
D03*
Y27246D02*
D03*
Y26852D02*
D03*
Y26459D02*
D03*
Y26065D02*
D03*
Y25671D02*
D03*
Y25278D02*
D03*
X25108Y35120D02*
D03*
Y34726D02*
D03*
Y34333D02*
D03*
Y33939D02*
D03*
Y33545D02*
D03*
Y33152D02*
D03*
Y32758D02*
D03*
Y32364D02*
D03*
Y31971D02*
D03*
Y31577D02*
D03*
Y31183D02*
D03*
Y30789D02*
D03*
Y30396D02*
D03*
Y30002D02*
D03*
Y29608D02*
D03*
Y29215D02*
D03*
Y28821D02*
D03*
Y28427D02*
D03*
Y28034D02*
D03*
Y27640D02*
D03*
Y27246D02*
D03*
Y26852D02*
D03*
Y26459D02*
D03*
Y26065D02*
D03*
Y25671D02*
D03*
Y25278D02*
D03*
X25502Y35120D02*
D03*
Y34726D02*
D03*
Y34333D02*
D03*
Y33939D02*
D03*
Y33545D02*
D03*
Y33152D02*
D03*
Y32758D02*
D03*
Y32364D02*
D03*
Y31971D02*
D03*
Y31577D02*
D03*
Y31183D02*
D03*
Y30789D02*
D03*
Y30396D02*
D03*
Y30002D02*
D03*
Y29608D02*
D03*
Y29215D02*
D03*
Y28821D02*
D03*
Y28427D02*
D03*
Y28034D02*
D03*
Y27640D02*
D03*
Y27246D02*
D03*
Y26852D02*
D03*
Y26459D02*
D03*
Y26065D02*
D03*
Y25671D02*
D03*
Y25278D02*
D03*
X25895Y35120D02*
D03*
Y34726D02*
D03*
Y34333D02*
D03*
Y33939D02*
D03*
Y33545D02*
D03*
Y33152D02*
D03*
Y32758D02*
D03*
Y32364D02*
D03*
Y31971D02*
D03*
Y31577D02*
D03*
Y31183D02*
D03*
Y30789D02*
D03*
Y30396D02*
D03*
Y30002D02*
D03*
Y29608D02*
D03*
Y29215D02*
D03*
Y28821D02*
D03*
Y28427D02*
D03*
Y28034D02*
D03*
Y27640D02*
D03*
Y27246D02*
D03*
Y26852D02*
D03*
Y26459D02*
D03*
Y26065D02*
D03*
Y25671D02*
D03*
Y25278D02*
D03*
X26289Y35120D02*
D03*
Y34726D02*
D03*
Y34333D02*
D03*
Y33939D02*
D03*
Y33545D02*
D03*
Y33152D02*
D03*
Y32758D02*
D03*
Y32364D02*
D03*
Y31971D02*
D03*
Y31577D02*
D03*
Y31183D02*
D03*
Y30789D02*
D03*
Y30396D02*
D03*
Y30002D02*
D03*
Y29608D02*
D03*
Y29215D02*
D03*
Y28821D02*
D03*
Y28427D02*
D03*
Y28034D02*
D03*
Y27640D02*
D03*
Y27246D02*
D03*
Y26852D02*
D03*
Y26459D02*
D03*
Y26065D02*
D03*
Y25671D02*
D03*
Y25278D02*
D03*
X26683Y35120D02*
D03*
Y34726D02*
D03*
Y34333D02*
D03*
Y33939D02*
D03*
Y33545D02*
D03*
Y33152D02*
D03*
Y32758D02*
D03*
Y32364D02*
D03*
Y31971D02*
D03*
Y31577D02*
D03*
Y31183D02*
D03*
Y30789D02*
D03*
Y30396D02*
D03*
Y30002D02*
D03*
Y29608D02*
D03*
Y29215D02*
D03*
Y28821D02*
D03*
Y28427D02*
D03*
Y28034D02*
D03*
Y27640D02*
D03*
Y27246D02*
D03*
Y26852D02*
D03*
Y26459D02*
D03*
Y26065D02*
D03*
Y25671D02*
D03*
Y25278D02*
D03*
X27076Y35120D02*
D03*
Y34726D02*
D03*
Y34333D02*
D03*
Y33939D02*
D03*
Y33545D02*
D03*
Y33152D02*
D03*
Y32758D02*
D03*
Y32364D02*
D03*
Y31971D02*
D03*
Y31577D02*
D03*
Y31183D02*
D03*
Y30789D02*
D03*
Y30396D02*
D03*
Y30002D02*
D03*
Y29608D02*
D03*
Y29215D02*
D03*
Y28821D02*
D03*
Y28427D02*
D03*
Y28034D02*
D03*
Y27640D02*
D03*
Y27246D02*
D03*
Y26852D02*
D03*
Y26459D02*
D03*
Y26065D02*
D03*
Y25671D02*
D03*
Y25278D02*
D03*
D130*
X11107Y27802D02*
D03*
X10792D02*
D03*
X10477D02*
D03*
X9217D02*
D03*
X8902D02*
D03*
X8587D02*
D03*
X11107Y28117D02*
D03*
X10792D02*
D03*
X10477D02*
D03*
X9217D02*
D03*
X8902D02*
D03*
X8587D02*
D03*
X11107Y28432D02*
D03*
X10792D02*
D03*
X10477D02*
D03*
X9217D02*
D03*
X8902D02*
D03*
X8587D02*
D03*
X11107Y28747D02*
D03*
X10792D02*
D03*
X10477D02*
D03*
X9217D02*
D03*
X8902D02*
D03*
X8587D02*
D03*
X11107Y29062D02*
D03*
X10792D02*
D03*
X10477D02*
D03*
X9217D02*
D03*
X8902D02*
D03*
X8587D02*
D03*
X11107Y29377D02*
D03*
X10792D02*
D03*
X10477D02*
D03*
X9217D02*
D03*
X8902D02*
D03*
X8587D02*
D03*
X11107Y29692D02*
D03*
X10792D02*
D03*
X10477D02*
D03*
X9217D02*
D03*
X8902D02*
D03*
X8587D02*
D03*
X11107Y30007D02*
D03*
X10792D02*
D03*
X10477D02*
D03*
X9217D02*
D03*
X8902D02*
D03*
X8587D02*
D03*
X11107Y30322D02*
D03*
X10792D02*
D03*
X10477D02*
D03*
X9217D02*
D03*
X8902D02*
D03*
X8587D02*
D03*
X11107Y30637D02*
D03*
X10792D02*
D03*
X10477D02*
D03*
X9217D02*
D03*
X8902D02*
D03*
X8587D02*
D03*
X11107Y30952D02*
D03*
X10792D02*
D03*
X10477D02*
D03*
X9217D02*
D03*
X8902D02*
D03*
X8587D02*
D03*
X11107Y31267D02*
D03*
X10792D02*
D03*
X10477D02*
D03*
X9217D02*
D03*
X8902D02*
D03*
X8587D02*
D03*
X11107Y31582D02*
D03*
X10792D02*
D03*
X10477D02*
D03*
X9217D02*
D03*
X8902D02*
D03*
X8587D02*
D03*
X11107Y31896D02*
D03*
X10792D02*
D03*
X10477D02*
D03*
X9217D02*
D03*
X8902D02*
D03*
X8587D02*
D03*
X11107Y32211D02*
D03*
X10792D02*
D03*
X10477D02*
D03*
X9217D02*
D03*
X8902D02*
D03*
X8587D02*
D03*
X11107Y32526D02*
D03*
X10792D02*
D03*
X10477D02*
D03*
X9217D02*
D03*
X8902D02*
D03*
X8587D02*
D03*
D131*
X62140Y31849D02*
D03*
Y31349D02*
D03*
Y30849D02*
D03*
Y30349D02*
D03*
Y32349D02*
D03*
Y32849D02*
D03*
Y33349D02*
D03*
Y33849D02*
D03*
X58575D02*
D03*
Y33349D02*
D03*
Y32849D02*
D03*
Y32349D02*
D03*
Y30349D02*
D03*
Y30849D02*
D03*
Y31349D02*
D03*
Y31849D02*
D03*
D132*
X20021Y60642D02*
D03*
X20395D02*
D03*
X20769D02*
D03*
Y59579D02*
D03*
X20395D02*
D03*
X20021D02*
D03*
X2562Y34191D02*
D03*
X2188D02*
D03*
X1814D02*
D03*
Y35254D02*
D03*
X2188D02*
D03*
X2562D02*
D03*
D133*
X48021Y46260D02*
D03*
Y45120D02*
D03*
X36266Y10107D02*
D03*
Y8967D02*
D03*
X32113Y6725D02*
D03*
Y5585D02*
D03*
D134*
X51041Y43228D02*
D03*
Y43425D02*
D03*
Y43622D02*
D03*
Y43819D02*
D03*
Y44015D02*
D03*
Y44212D02*
D03*
Y44409D02*
D03*
Y44606D02*
D03*
X49112D02*
D03*
Y44409D02*
D03*
Y44212D02*
D03*
Y44015D02*
D03*
Y43819D02*
D03*
Y43622D02*
D03*
Y43425D02*
D03*
Y43228D02*
D03*
D135*
X50766Y44882D02*
D03*
X50569D02*
D03*
X50372D02*
D03*
X50175D02*
D03*
X49978D02*
D03*
X49782D02*
D03*
X49585D02*
D03*
X49388D02*
D03*
Y42952D02*
D03*
X49585D02*
D03*
X49782D02*
D03*
X49978D02*
D03*
X50175D02*
D03*
X50372D02*
D03*
X50569D02*
D03*
X50766D02*
D03*
D136*
X50077Y43917D02*
D03*
D137*
X53843Y45901D02*
D03*
Y45401D02*
D03*
Y44901D02*
D03*
Y44401D02*
D03*
Y43901D02*
D03*
Y43401D02*
D03*
Y42901D02*
D03*
Y42401D02*
D03*
X57443Y45901D02*
D03*
Y45401D02*
D03*
Y44901D02*
D03*
Y44401D02*
D03*
Y43901D02*
D03*
Y43401D02*
D03*
Y42901D02*
D03*
Y42401D02*
D03*
D138*
X60415Y43255D02*
D03*
Y43530D02*
D03*
X60415Y44228D02*
D03*
Y43952D02*
D03*
X60410Y45373D02*
D03*
Y45097D02*
D03*
X60410Y45795D02*
D03*
Y46070D02*
D03*
X63236Y23455D02*
D03*
Y23730D02*
D03*
X63236Y15568D02*
D03*
Y15292D02*
D03*
D139*
X52024Y45414D02*
D03*
X51374D02*
D03*
Y46024D02*
D03*
X52024D02*
D03*
D140*
X53102Y53774D02*
D03*
Y54423D02*
D03*
X41127Y54977D02*
D03*
Y55627D02*
D03*
X52213Y14857D02*
D03*
Y14208D02*
D03*
X43892Y14952D02*
D03*
Y15602D02*
D03*
X48708Y18316D02*
D03*
Y18966D02*
D03*
X49063Y23974D02*
D03*
Y24623D02*
D03*
X21158Y62443D02*
D03*
Y63092D02*
D03*
D141*
X53361Y65083D02*
D03*
Y65753D02*
D03*
X53365Y64254D02*
D03*
Y63584D02*
D03*
X45545Y32104D02*
D03*
Y32774D02*
D03*
X47961Y23997D02*
D03*
Y24667D02*
D03*
X27569Y11601D02*
D03*
Y10931D02*
D03*
X28180Y9068D02*
D03*
Y9738D02*
D03*
X34081Y9463D02*
D03*
Y10133D02*
D03*
X30477Y6088D02*
D03*
Y6758D02*
D03*
X45987Y13725D02*
D03*
Y14395D02*
D03*
X57016Y28824D02*
D03*
Y29494D02*
D03*
X63324Y19031D02*
D03*
Y18361D02*
D03*
X60217Y19622D02*
D03*
Y20292D02*
D03*
D142*
X54326Y66348D02*
D03*
Y66092D02*
D03*
Y65836D02*
D03*
Y65580D02*
D03*
Y65324D02*
D03*
Y65068D02*
D03*
Y64812D02*
D03*
Y64556D02*
D03*
Y64300D02*
D03*
Y64045D02*
D03*
Y63789D02*
D03*
Y63533D02*
D03*
Y63277D02*
D03*
Y63021D02*
D03*
X56531Y66348D02*
D03*
Y66092D02*
D03*
Y65836D02*
D03*
Y65580D02*
D03*
Y65324D02*
D03*
Y65068D02*
D03*
Y64812D02*
D03*
Y64556D02*
D03*
Y64300D02*
D03*
Y64045D02*
D03*
Y63789D02*
D03*
Y63533D02*
D03*
Y63277D02*
D03*
Y63021D02*
D03*
D143*
X57396Y63066D02*
D03*
Y62318D02*
D03*
X58184Y62692D02*
D03*
X19708Y14474D02*
D03*
Y13726D02*
D03*
X20496Y14100D02*
D03*
D144*
X51624Y56121D02*
D03*
X51124D02*
D03*
X50624D02*
D03*
X50124D02*
D03*
X49624D02*
D03*
X49124D02*
D03*
X48624D02*
D03*
D145*
X50124Y53245D02*
D03*
D146*
X56251Y67144D02*
D03*
Y68404D02*
D03*
X56267Y62235D02*
D03*
Y60975D02*
D03*
D147*
X58815Y50518D02*
D03*
X61323D02*
D03*
D148*
X46993Y64568D02*
D03*
X50300D02*
D03*
D149*
X54421Y36412D02*
D03*
X52846D02*
D03*
X51271D02*
D03*
X49697D02*
D03*
X48122D02*
D03*
Y28459D02*
D03*
X49697D02*
D03*
X51271D02*
D03*
X52846D02*
D03*
X54421D02*
D03*
D150*
X55494Y30073D02*
D03*
Y31648D02*
D03*
Y33223D02*
D03*
Y34798D02*
D03*
X47049D02*
D03*
Y33223D02*
D03*
Y31648D02*
D03*
Y30073D02*
D03*
D151*
X17200Y5455D02*
D03*
X14543Y7029D02*
D03*
X17200D02*
D03*
X14543Y5455D02*
D03*
X17227Y15455D02*
D03*
X14570Y13880D02*
D03*
X17227D02*
D03*
X14570Y15455D02*
D03*
X14572Y9702D02*
D03*
X17230Y11277D02*
D03*
X14572D02*
D03*
X17230Y9702D02*
D03*
D152*
X22198Y16023D02*
D03*
X22847D02*
D03*
X22198Y15201D02*
D03*
X22847D02*
D03*
X22198Y13557D02*
D03*
X22847D02*
D03*
X22198Y14379D02*
D03*
X22847D02*
D03*
D153*
X57514Y21135D02*
D03*
X57317D02*
D03*
X57121D02*
D03*
X56924D02*
D03*
X56727D02*
D03*
X56530D02*
D03*
X56333D02*
D03*
X56136D02*
D03*
X55939D02*
D03*
X55743D02*
D03*
X55546D02*
D03*
X55349D02*
D03*
Y18399D02*
D03*
X55546D02*
D03*
X55743D02*
D03*
X55939D02*
D03*
X56136D02*
D03*
X56333D02*
D03*
X56530D02*
D03*
X56727D02*
D03*
X56924D02*
D03*
X57121D02*
D03*
X57317D02*
D03*
X57514D02*
D03*
D154*
X55063Y20850D02*
D03*
Y20653D02*
D03*
Y20456D02*
D03*
Y20259D02*
D03*
Y20062D02*
D03*
Y19865D02*
D03*
Y19669D02*
D03*
Y19472D02*
D03*
Y19275D02*
D03*
Y19078D02*
D03*
Y18881D02*
D03*
Y18684D02*
D03*
X57800D02*
D03*
Y18881D02*
D03*
Y19078D02*
D03*
Y19275D02*
D03*
Y19472D02*
D03*
Y19669D02*
D03*
Y19865D02*
D03*
Y20062D02*
D03*
Y20259D02*
D03*
Y20456D02*
D03*
Y20653D02*
D03*
Y20850D02*
D03*
D155*
X56432Y19767D02*
D03*
D156*
X57594Y23522D02*
D03*
Y24112D02*
D03*
D157*
X26587Y9917D02*
D03*
X25447D02*
D03*
X32420Y14964D02*
D03*
X33560D02*
D03*
X30631Y15143D02*
D03*
X29491D02*
D03*
D158*
X35429Y10153D02*
D03*
X34839D02*
D03*
D159*
X30804Y9986D02*
D03*
D160*
X29042Y8510D02*
D03*
Y8707D02*
D03*
Y8903D02*
D03*
Y9100D02*
D03*
Y9297D02*
D03*
Y9494D02*
D03*
Y9691D02*
D03*
Y9888D02*
D03*
Y10085D02*
D03*
Y10281D02*
D03*
Y10478D02*
D03*
Y10675D02*
D03*
Y10872D02*
D03*
Y11069D02*
D03*
Y11266D02*
D03*
Y11463D02*
D03*
X32566D02*
D03*
Y11266D02*
D03*
Y11069D02*
D03*
Y10872D02*
D03*
Y10675D02*
D03*
Y10478D02*
D03*
Y10281D02*
D03*
Y10085D02*
D03*
Y9888D02*
D03*
Y9691D02*
D03*
Y9494D02*
D03*
Y9297D02*
D03*
Y9100D02*
D03*
Y8903D02*
D03*
Y8707D02*
D03*
Y8510D02*
D03*
D161*
X41511Y12884D02*
D03*
X45487D02*
D03*
Y9656D02*
D03*
D162*
X43499Y13012D02*
D03*
X43145D02*
D03*
X42790D02*
D03*
X42436D02*
D03*
X42082D02*
D03*
X43853D02*
D03*
X44208D02*
D03*
X44562D02*
D03*
X44916D02*
D03*
Y9528D02*
D03*
X44562D02*
D03*
X44208D02*
D03*
X43853D02*
D03*
X42082D02*
D03*
X42436D02*
D03*
X42790D02*
D03*
X43145D02*
D03*
X43499D02*
D03*
D163*
X41363Y11270D02*
D03*
Y10916D02*
D03*
Y10561D02*
D03*
Y10207D02*
D03*
Y11624D02*
D03*
Y11979D02*
D03*
Y12333D02*
D03*
X45635D02*
D03*
Y11979D02*
D03*
Y11624D02*
D03*
Y10207D02*
D03*
Y10561D02*
D03*
Y10916D02*
D03*
Y11270D02*
D03*
D164*
X43542Y10758D02*
D03*
D165*
X44912Y10750D02*
D03*
D166*
X44019Y12313D02*
D03*
D167*
X45097Y12187D02*
D03*
D168*
X42200Y11183D02*
D03*
D169*
X45332Y18943D02*
D03*
X45076D02*
D03*
X44820D02*
D03*
X44564D02*
D03*
Y20833D02*
D03*
X44820D02*
D03*
X45076D02*
D03*
X45332D02*
D03*
X45588D02*
D03*
Y18943D02*
D03*
D170*
X44131Y19888D02*
D03*
Y20144D02*
D03*
Y20400D02*
D03*
Y19377D02*
D03*
Y19632D02*
D03*
X46021Y20400D02*
D03*
Y20144D02*
D03*
Y19888D02*
D03*
Y19632D02*
D03*
Y19377D02*
D03*
X49508Y14310D02*
D03*
Y14566D02*
D03*
Y14822D02*
D03*
Y15077D02*
D03*
Y15333D02*
D03*
X47618D02*
D03*
Y15077D02*
D03*
Y14822D02*
D03*
Y14566D02*
D03*
Y14310D02*
D03*
D171*
X45076Y19888D02*
D03*
D172*
X48563Y14822D02*
D03*
D173*
Y15766D02*
D03*
Y13877D02*
D03*
X48307D02*
D03*
Y15766D02*
D03*
X48052Y13877D02*
D03*
Y15766D02*
D03*
X48819Y13877D02*
D03*
Y15766D02*
D03*
X49075Y13877D02*
D03*
Y15766D02*
D03*
D174*
X63980Y32792D02*
D03*
X64177D02*
D03*
X64374D02*
D03*
Y33324D02*
D03*
X63980D02*
D03*
D175*
X61503Y27895D02*
D03*
Y28395D02*
D03*
Y28895D02*
D03*
Y29395D02*
D03*
X59377Y27895D02*
D03*
Y28395D02*
D03*
Y28895D02*
D03*
Y29395D02*
D03*
D176*
X66146Y32684D02*
D03*
Y33471D02*
D03*
D177*
X65083Y33589D02*
D03*
Y33333D02*
D03*
Y33077D02*
D03*
Y32822D02*
D03*
Y32566D02*
D03*
D178*
X62128Y20125D02*
D03*
X61872D02*
D03*
X61617D02*
D03*
X61361D02*
D03*
X62128Y18491D02*
D03*
X61872D02*
D03*
X61617D02*
D03*
X61361D02*
D03*
D179*
X3487Y63949D02*
D03*
X39372Y68743D02*
D03*
X2000Y2000D02*
D03*
D180*
X46048Y24450D02*
D03*
D181*
X46590Y24844D02*
D03*
Y24647D02*
D03*
Y24450D02*
D03*
Y24253D02*
D03*
Y24056D02*
D03*
X45507D02*
D03*
Y24253D02*
D03*
Y24450D02*
D03*
Y24647D02*
D03*
Y24844D02*
D03*
D182*
X26747Y14782D02*
D03*
Y12782D02*
D03*
Y13782D02*
D03*
X28400D02*
D03*
Y12782D02*
D03*
Y14782D02*
D03*
D183*
X64881Y61667D02*
D03*
D184*
Y63636D02*
D03*
Y65604D02*
D03*
Y67573D02*
D03*
D185*
X5906Y68898D02*
D03*
X61024D02*
D03*
Y1969D02*
D03*
X5906D02*
D03*
D186*
X65052Y2895D02*
D03*
X64052Y3895D02*
D03*
X66052D02*
D03*
Y1895D02*
D03*
X64052D02*
D03*
X65052Y9794D02*
D03*
X64052Y10794D02*
D03*
X66052D02*
D03*
Y8794D02*
D03*
X64052D02*
D03*
X65052Y23593D02*
D03*
X64052Y24593D02*
D03*
X66052D02*
D03*
Y22593D02*
D03*
X64052D02*
D03*
Y15694D02*
D03*
X66052D02*
D03*
Y17694D02*
D03*
X64052D02*
D03*
X65052Y16694D02*
D03*
D187*
X15205Y23312D02*
D03*
X28985Y37092D02*
D03*
D188*
X64104Y52933D02*
D03*
Y56240D02*
D03*
D189*
X59065Y52933D02*
D03*
Y54587D02*
D03*
Y56240D02*
D03*
X61230Y52933D02*
D03*
Y54587D02*
D03*
Y56240D02*
D03*
D190*
X50498Y43496D02*
D03*
X50077D02*
D03*
X49656D02*
D03*
X50498Y43917D02*
D03*
X50077D02*
D03*
X49656D02*
D03*
X50498Y44338D02*
D03*
X50077D02*
D03*
X49656D02*
D03*
D191*
X66146Y31699D02*
D03*
Y34455D02*
D03*
D192*
X65083Y32093D02*
D03*
Y34062D02*
D03*
D193*
X61122Y45134D02*
D03*
Y40634D02*
D03*
Y41534D02*
D03*
Y46034D02*
D03*
X63022Y41934D02*
D03*
Y42734D02*
D03*
Y43534D02*
D03*
Y44334D02*
D03*
X63722Y42334D02*
D03*
Y43134D02*
D03*
Y43934D02*
D03*
D194*
Y44734D02*
D03*
D195*
X64722Y40834D02*
D03*
Y45834D02*
D03*
D196*
X42864Y13511D02*
D03*
X42306Y14433D02*
D03*
X42842Y14423D02*
D03*
X60791Y6240D02*
D03*
X60358D02*
D03*
X60791Y6673D02*
D03*
X60358D02*
D03*
X53544Y5523D02*
D03*
Y5956D02*
D03*
Y6390D02*
D03*
Y6823D02*
D03*
Y7256D02*
D03*
X53977Y5523D02*
D03*
Y5956D02*
D03*
Y6390D02*
D03*
Y6823D02*
D03*
Y7256D02*
D03*
X54410Y5523D02*
D03*
Y5956D02*
D03*
Y6390D02*
D03*
Y6823D02*
D03*
Y7256D02*
D03*
X54843Y5523D02*
D03*
Y5956D02*
D03*
Y6390D02*
D03*
Y6823D02*
D03*
Y7256D02*
D03*
X55276Y5523D02*
D03*
Y5956D02*
D03*
Y6390D02*
D03*
Y6823D02*
D03*
Y7256D02*
D03*
X52537Y4240D02*
D03*
X52328Y5840D02*
D03*
X52325Y6091D02*
D03*
X54978Y8505D02*
D03*
X54641D02*
D03*
X55801Y8449D02*
D03*
X56303Y4359D02*
D03*
X56468Y6271D02*
D03*
X56592Y5885D02*
D03*
X56458Y6910D02*
D03*
X56170Y8399D02*
D03*
X59741Y4366D02*
D03*
X59464Y6888D02*
D03*
X59866Y8516D02*
D03*
X60126Y4383D02*
D03*
X60482Y4393D02*
D03*
X60638Y5351D02*
D03*
X60605Y7621D02*
D03*
X60340Y8509D02*
D03*
X62797Y6247D02*
D03*
X62807Y6712D02*
D03*
X50820Y5714D02*
D03*
X52422Y8047D02*
D03*
X56454Y4792D02*
D03*
X56502Y7935D02*
D03*
X59487Y6465D02*
D03*
X52881Y4355D02*
D03*
X52741Y8436D02*
D03*
X56012Y4387D02*
D03*
X58514Y6839D02*
D03*
X60865Y4381D02*
D03*
X60056Y5278D02*
D03*
X62391Y8184D02*
D03*
X60762Y8514D02*
D03*
X63152Y6242D02*
D03*
X63172Y6703D02*
D03*
X58496Y5661D02*
D03*
X58487Y6430D02*
D03*
X58493Y7188D02*
D03*
X62345Y4708D02*
D03*
X61651Y6455D02*
D03*
X6102Y33071D02*
D03*
X5906Y32677D02*
D03*
X6102Y32284D02*
D03*
Y31496D02*
D03*
X5906Y31102D02*
D03*
X6102Y30709D02*
D03*
X5906Y30315D02*
D03*
Y29528D02*
D03*
X6102Y29134D02*
D03*
X5906Y28740D02*
D03*
X6102Y28347D02*
D03*
X5906Y27953D02*
D03*
X12303Y35039D02*
D03*
X12008Y34449D02*
D03*
X11713Y35039D02*
D03*
X11417Y34449D02*
D03*
X11122Y35039D02*
D03*
X10827Y34449D02*
D03*
X10531Y35039D02*
D03*
X9941D02*
D03*
X9350D02*
D03*
X9055Y34449D02*
D03*
X8760Y35039D02*
D03*
X7874Y36811D02*
D03*
Y35630D02*
D03*
X8169Y35039D02*
D03*
X7579D02*
D03*
X18504Y49606D02*
D03*
X18110Y48819D02*
D03*
X18504Y48032D02*
D03*
X18110Y47244D02*
D03*
X17717Y49606D02*
D03*
Y48032D02*
D03*
X17323Y47244D02*
D03*
X17717Y46457D02*
D03*
X16929Y49606D02*
D03*
X16536Y47244D02*
D03*
X16929Y46457D02*
D03*
X16142Y49606D02*
D03*
X15748Y48819D02*
D03*
X16142Y48032D02*
D03*
X15748Y47244D02*
D03*
X16142Y46457D02*
D03*
X15354Y49606D02*
D03*
X14961Y48819D02*
D03*
X15354Y48032D02*
D03*
X14961Y47244D02*
D03*
X15354Y46457D02*
D03*
X14567Y49606D02*
D03*
X14173Y48819D02*
D03*
X14567Y48032D02*
D03*
Y46457D02*
D03*
X13780Y49606D02*
D03*
X13386Y48819D02*
D03*
X13780Y48032D02*
D03*
X12992Y49606D02*
D03*
X12599Y48819D02*
D03*
X12992Y48032D02*
D03*
X12599Y47244D02*
D03*
X12992Y46457D02*
D03*
X12205Y49606D02*
D03*
X11811Y48819D02*
D03*
X12205Y48032D02*
D03*
X11811Y47244D02*
D03*
X12205Y46457D02*
D03*
X11417Y49606D02*
D03*
X11024Y48819D02*
D03*
X11417Y48032D02*
D03*
X11024Y47244D02*
D03*
X11417Y46457D02*
D03*
X10236Y48819D02*
D03*
X10630Y48032D02*
D03*
X10236Y47244D02*
D03*
X10630Y46457D02*
D03*
X9449Y48819D02*
D03*
X9843Y48032D02*
D03*
X9449Y47244D02*
D03*
X9843Y46457D02*
D03*
X5118Y48819D02*
D03*
X4725Y48032D02*
D03*
X5118Y47244D02*
D03*
X4725Y46457D02*
D03*
X4331Y48819D02*
D03*
X3937Y48032D02*
D03*
X4331Y47244D02*
D03*
X3937Y46457D02*
D03*
X3543Y48819D02*
D03*
X3150Y48032D02*
D03*
X3543Y47244D02*
D03*
X3150Y46457D02*
D03*
X52772Y56452D02*
D03*
X52426Y56449D02*
D03*
X53055Y56470D02*
D03*
X47638Y10236D02*
D03*
X47244Y9449D02*
D03*
X46851Y10236D02*
D03*
X46457Y9449D02*
D03*
X46063Y10236D02*
D03*
X51080Y58489D02*
D03*
X50834Y58510D02*
D03*
X51080Y57116D02*
D03*
X50819Y57132D02*
D03*
X49397Y57640D02*
D03*
X50004Y56991D02*
D03*
X53108Y53500D02*
D03*
X46962Y52961D02*
D03*
X46994Y53680D02*
D03*
X45951Y53663D02*
D03*
Y52955D02*
D03*
X43945Y52982D02*
D03*
X43908Y53680D02*
D03*
X42907Y53690D02*
D03*
X42934Y52944D02*
D03*
X41046Y53116D02*
D03*
X43796Y28166D02*
D03*
X54291Y27679D02*
D03*
X54661Y27689D02*
D03*
X56530Y28822D02*
D03*
X61726Y35266D02*
D03*
X59007Y34888D02*
D03*
X58976Y35730D02*
D03*
X61685Y34925D02*
D03*
X61694Y35798D02*
D03*
X61969Y28872D02*
D03*
X62015Y28443D02*
D03*
X63707Y32588D02*
D03*
X63297Y30261D02*
D03*
X64272Y32159D02*
D03*
X64210Y33898D02*
D03*
X61667Y39441D02*
D03*
X53062Y42310D02*
D03*
X54209Y37118D02*
D03*
X53165Y37106D02*
D03*
X59015Y35283D02*
D03*
X56068Y30125D02*
D03*
X56621Y30132D02*
D03*
X55895Y30526D02*
D03*
X56351Y30533D02*
D03*
X56862Y30530D02*
D03*
X58775Y28196D02*
D03*
X58915Y29403D02*
D03*
X57948Y33834D02*
D03*
X57183Y32343D02*
D03*
X57183Y31861D02*
D03*
X57984Y31330D02*
D03*
X57990Y30894D02*
D03*
X57904Y30355D02*
D03*
X58900Y27899D02*
D03*
X43726Y19953D02*
D03*
X48425Y58268D02*
D03*
X48032Y55906D02*
D03*
X47244Y59055D02*
D03*
Y55906D02*
D03*
X46457Y59055D02*
D03*
X46851Y58268D02*
D03*
X46063D02*
D03*
X45669Y57480D02*
D03*
Y55906D02*
D03*
X44882Y59055D02*
D03*
X45276Y58268D02*
D03*
Y56693D02*
D03*
Y55118D02*
D03*
X44095Y59055D02*
D03*
X44488Y58268D02*
D03*
Y56693D02*
D03*
X44095Y55906D02*
D03*
X44488Y55118D02*
D03*
X43701Y58268D02*
D03*
X43307Y57480D02*
D03*
X43701Y18898D02*
D03*
X43307Y18110D02*
D03*
X42914Y58268D02*
D03*
Y56693D02*
D03*
X42520Y55906D02*
D03*
X42914Y55118D02*
D03*
X41732Y60630D02*
D03*
X42126Y59843D02*
D03*
Y58268D02*
D03*
X40945Y60630D02*
D03*
Y59055D02*
D03*
X41339Y58268D02*
D03*
X40551Y59843D02*
D03*
X40158Y59055D02*
D03*
X39370Y60630D02*
D03*
X39764Y59843D02*
D03*
X38583Y60630D02*
D03*
X38977Y59843D02*
D03*
X38583Y59055D02*
D03*
X38977Y58268D02*
D03*
X37795Y60630D02*
D03*
X38189Y59843D02*
D03*
Y58268D02*
D03*
X37402D02*
D03*
X36221Y60630D02*
D03*
X36614Y58268D02*
D03*
X35433Y60630D02*
D03*
X35827Y59843D02*
D03*
X34646Y60630D02*
D03*
X35040Y59843D02*
D03*
X34252D02*
D03*
X33071Y60630D02*
D03*
Y59055D02*
D03*
X32284Y60630D02*
D03*
X32677Y59843D02*
D03*
X32284Y59055D02*
D03*
X31496Y60630D02*
D03*
X31890Y59843D02*
D03*
X31496Y59055D02*
D03*
X30709Y60630D02*
D03*
X31102Y59843D02*
D03*
X30709Y59055D02*
D03*
X30315Y59843D02*
D03*
X29921Y59055D02*
D03*
X29134D02*
D03*
X28347D02*
D03*
X26772D02*
D03*
X22071Y22669D02*
D03*
X5118Y42520D02*
D03*
X3937Y44882D02*
D03*
X4331Y44095D02*
D03*
Y42520D02*
D03*
X3150Y44882D02*
D03*
X3543Y44095D02*
D03*
X1575Y44882D02*
D03*
X1969Y44095D02*
D03*
X21321Y22736D02*
D03*
X21468Y21451D02*
D03*
Y21801D02*
D03*
X37631Y62897D02*
D03*
X37674Y63361D02*
D03*
X36325Y62907D02*
D03*
X36346Y63339D02*
D03*
X33607Y62628D02*
D03*
X33576Y57627D02*
D03*
X47348Y63891D02*
D03*
X46644D02*
D03*
X47277Y65250D02*
D03*
X46687Y65234D02*
D03*
X53804Y64960D02*
D03*
X53399Y62476D02*
D03*
X55592Y60960D02*
D03*
X57123Y62312D02*
D03*
X58360Y63603D02*
D03*
X58463Y63206D02*
D03*
X59101Y64033D02*
D03*
X56910Y68378D02*
D03*
X53945Y66794D02*
D03*
X30822Y7328D02*
D03*
X33573Y14409D02*
D03*
X32941Y13764D02*
D03*
X31924Y13875D02*
D03*
X27761Y9056D02*
D03*
X29083Y7211D02*
D03*
X31564Y5584D02*
D03*
X30951Y6057D02*
D03*
X31429Y7211D02*
D03*
X31922Y7139D02*
D03*
X34112Y11169D02*
D03*
X36260Y9383D02*
D03*
X36267Y10524D02*
D03*
X35416D02*
D03*
X33698Y9241D02*
D03*
X33463Y8685D02*
D03*
X31605Y15010D02*
D03*
X31295Y15027D02*
D03*
X31662Y15404D02*
D03*
X31275Y15400D02*
D03*
X29454Y15646D02*
D03*
X28108Y16166D02*
D03*
X28867Y15697D02*
D03*
X28387Y15549D02*
D03*
X25130Y13778D02*
D03*
X27269Y12743D02*
D03*
X25433Y9375D02*
D03*
X26590Y9359D02*
D03*
X27203Y9649D02*
D03*
X28440Y7510D02*
D03*
X29133Y6514D02*
D03*
X28586Y8229D02*
D03*
X28444Y7864D02*
D03*
X30434Y7882D02*
D03*
X30964Y7587D02*
D03*
X31501Y7598D02*
D03*
X31872Y7591D02*
D03*
X33381Y10285D02*
D03*
Y10875D02*
D03*
Y11466D02*
D03*
X28274Y11991D02*
D03*
X29019Y11914D02*
D03*
X29548Y12866D02*
D03*
X29890Y12746D02*
D03*
X30408Y12174D02*
D03*
X31397Y12386D02*
D03*
X31458Y12690D02*
D03*
X32555Y12701D02*
D03*
X19890Y58651D02*
D03*
X38539Y31943D02*
D03*
X37972Y30683D02*
D03*
X38990Y36960D02*
D03*
X36892Y37017D02*
D03*
X32965Y37002D02*
D03*
X32449Y36385D02*
D03*
X31878Y35832D02*
D03*
X46063Y31496D02*
D03*
X45669Y30709D02*
D03*
X45276Y31496D02*
D03*
X44488D02*
D03*
X44095Y30709D02*
D03*
X43701Y31496D02*
D03*
X43307Y30709D02*
D03*
X44488Y33858D02*
D03*
X44095Y33071D02*
D03*
X43307Y34646D02*
D03*
X43701Y33858D02*
D03*
X43307Y33071D02*
D03*
X42014Y29735D02*
D03*
X42780Y29072D02*
D03*
X42793Y29433D02*
D03*
X42783Y29733D02*
D03*
X38722Y29165D02*
D03*
X39160Y27820D02*
D03*
X39699Y27011D02*
D03*
X51052Y19972D02*
D03*
X51067Y21253D02*
D03*
X48491Y24438D02*
D03*
X48474Y24889D02*
D03*
X48203Y25016D02*
D03*
X47889Y25011D02*
D03*
X51038Y13916D02*
D03*
X51598Y13462D02*
D03*
X51969Y11811D02*
D03*
X52362Y11024D02*
D03*
X51575Y12599D02*
D03*
X51181Y11811D02*
D03*
X50788Y11024D02*
D03*
X49213Y21260D02*
D03*
Y19685D02*
D03*
X48425Y21260D02*
D03*
X48032Y20473D02*
D03*
X48425Y19685D02*
D03*
X48032Y18898D02*
D03*
X47638Y19685D02*
D03*
X53708Y18955D02*
D03*
X54360Y18950D02*
D03*
X60491Y18841D02*
D03*
X62396Y18227D02*
D03*
X62399Y18612D02*
D03*
X61265Y21055D02*
D03*
X61120Y20078D02*
D03*
X61143Y20404D02*
D03*
X57612Y17500D02*
D03*
X55881Y17453D02*
D03*
X56133Y18093D02*
D03*
X57315Y18089D02*
D03*
X58106Y20095D02*
D03*
X58004Y18303D02*
D03*
X57980Y18542D02*
D03*
X58084Y19199D02*
D03*
X58092Y20342D02*
D03*
X58093Y19548D02*
D03*
X56957Y22298D02*
D03*
X56337Y22548D02*
D03*
X57950Y21704D02*
D03*
X57780Y21049D02*
D03*
X55912Y21576D02*
D03*
X55647Y21999D02*
D03*
X58269Y23232D02*
D03*
X58281Y24343D02*
D03*
X57109Y24161D02*
D03*
Y24874D02*
D03*
X35066Y30692D02*
D03*
X31115Y30424D02*
D03*
X33071Y33071D02*
D03*
X33465Y32284D02*
D03*
X33071Y31496D02*
D03*
X33465Y30709D02*
D03*
X33071Y29921D02*
D03*
X32284Y33071D02*
D03*
X32677Y32284D02*
D03*
X32284Y29921D02*
D03*
X31890Y32284D02*
D03*
Y30709D02*
D03*
X30709Y33071D02*
D03*
X29921D02*
D03*
X30315Y32284D02*
D03*
X29134Y33071D02*
D03*
X29528Y32284D02*
D03*
X4507Y37625D02*
D03*
X21824Y13539D02*
D03*
X21831Y14359D02*
D03*
X21811Y15185D02*
D03*
X21828Y16011D02*
D03*
X20127Y15334D02*
D03*
X18360Y14885D02*
D03*
X16495Y15421D02*
D03*
X15412Y15428D02*
D03*
X19331Y13520D02*
D03*
X16440Y11241D02*
D03*
X15371Y11235D02*
D03*
X18342Y10756D02*
D03*
X16458Y6988D02*
D03*
X15249Y7053D02*
D03*
X18101Y6502D02*
D03*
X19319Y5154D02*
D03*
X19129Y9096D02*
D03*
X25591Y61417D02*
D03*
X25197Y60630D02*
D03*
X24803Y61417D02*
D03*
X24410Y60630D02*
D03*
X24016Y61417D02*
D03*
X22047Y60630D02*
D03*
X21166Y61292D02*
D03*
X20398Y59239D02*
D03*
X19549Y58759D02*
D03*
X19612Y60211D02*
D03*
X19620Y60573D02*
D03*
X19850Y61141D02*
D03*
X19694Y61938D02*
D03*
X19683Y61510D02*
D03*
X21156Y63401D02*
D03*
X28347Y64567D02*
D03*
X28740Y63780D02*
D03*
X27559Y64567D02*
D03*
X27953Y63780D02*
D03*
X26772Y64567D02*
D03*
X27165Y63780D02*
D03*
X26772Y62992D02*
D03*
X25984Y64567D02*
D03*
X26378Y63780D02*
D03*
X25197Y64567D02*
D03*
X24410D02*
D03*
X24803Y63780D02*
D03*
X24410Y62992D02*
D03*
X23622Y64567D02*
D03*
X24016Y63780D02*
D03*
X26275Y60502D02*
D03*
X48032Y59055D02*
D03*
Y57480D02*
D03*
X47638Y58268D02*
D03*
X47244Y57480D02*
D03*
X47638Y56693D02*
D03*
X46457Y57480D02*
D03*
X46851Y56693D02*
D03*
X45669Y59055D02*
D03*
X46063Y56693D02*
D03*
X44882Y57480D02*
D03*
Y55906D02*
D03*
X44095Y57480D02*
D03*
X43307Y59055D02*
D03*
X43701Y56693D02*
D03*
X42520Y59055D02*
D03*
Y57480D02*
D03*
X41732Y59055D02*
D03*
X41339Y59843D02*
D03*
X40158Y60630D02*
D03*
X40551Y58268D02*
D03*
X39370Y59055D02*
D03*
X39764Y58268D02*
D03*
X37795Y59055D02*
D03*
X36221D02*
D03*
X8264Y48947D02*
D03*
X9522Y42800D02*
D03*
X12983Y43776D02*
D03*
X13032Y42943D02*
D03*
X21912Y19304D02*
D03*
X21546Y19302D02*
D03*
X19388Y41566D02*
D03*
X19698Y41206D02*
D03*
X17910Y43794D02*
D03*
X17887Y44201D02*
D03*
X17849Y44925D02*
D03*
X18898Y41732D02*
D03*
Y40158D02*
D03*
X18110D02*
D03*
X17323D02*
D03*
X16536Y43307D02*
D03*
Y41732D02*
D03*
X16929Y40945D02*
D03*
X16536Y40158D02*
D03*
X15748Y43307D02*
D03*
X16142Y42520D02*
D03*
X15748Y41732D02*
D03*
X16142Y40945D02*
D03*
X15354Y42520D02*
D03*
X14961Y41732D02*
D03*
X20789Y49254D02*
D03*
X19711Y49274D02*
D03*
X20225D02*
D03*
X19172Y49254D02*
D03*
X2408Y42166D02*
D03*
X6248Y42571D02*
D03*
X7815Y38400D02*
D03*
X7806Y38759D02*
D03*
X7803Y39179D02*
D03*
X7793Y39632D02*
D03*
X5485Y39940D02*
D03*
X6061Y38233D02*
D03*
X3000Y38475D02*
D03*
X3018Y38791D02*
D03*
X3348Y38782D02*
D03*
X2231Y36052D02*
D03*
X2883Y33658D02*
D03*
X2867Y33296D02*
D03*
X2820Y32957D02*
D03*
X2892Y34188D02*
D03*
X2724Y34597D02*
D03*
X2470Y34851D02*
D03*
X1963Y34909D02*
D03*
X1579Y34712D02*
D03*
X3332Y36561D02*
D03*
X19693Y45226D02*
D03*
Y45803D02*
D03*
X20270Y45226D02*
D03*
X20559D02*
D03*
Y45803D02*
D03*
X20270Y46091D02*
D03*
X19693Y45514D02*
D03*
X20559D02*
D03*
X19982Y45226D02*
D03*
Y46091D02*
D03*
X54996Y66417D02*
D03*
X55429D02*
D03*
X55862D02*
D03*
X54996Y65984D02*
D03*
X55429D02*
D03*
X55862D02*
D03*
X54996Y65550D02*
D03*
X55429D02*
D03*
X55862D02*
D03*
X54996Y65117D02*
D03*
X55429D02*
D03*
X55862D02*
D03*
X54996Y64684D02*
D03*
X55429D02*
D03*
X55862D02*
D03*
X54996Y64251D02*
D03*
X55429D02*
D03*
X55862D02*
D03*
X54996Y63818D02*
D03*
X55429D02*
D03*
X55862D02*
D03*
X54996Y63385D02*
D03*
X55429D02*
D03*
X55862D02*
D03*
X54996Y62952D02*
D03*
X55429D02*
D03*
X55862D02*
D03*
X59572Y64878D02*
D03*
X58966Y65239D02*
D03*
X59572Y65239D02*
D03*
X57001Y64549D02*
D03*
Y64807D02*
D03*
Y65065D02*
D03*
X57012Y65323D02*
D03*
X57298Y20633D02*
D03*
Y20200D02*
D03*
Y19767D02*
D03*
Y19334D02*
D03*
Y18901D02*
D03*
X56865Y20633D02*
D03*
Y20200D02*
D03*
Y19767D02*
D03*
Y19334D02*
D03*
Y18901D02*
D03*
X56432Y20633D02*
D03*
Y20200D02*
D03*
Y19767D02*
D03*
Y19334D02*
D03*
Y18901D02*
D03*
X55998Y20633D02*
D03*
Y20200D02*
D03*
Y19767D02*
D03*
Y19334D02*
D03*
Y18901D02*
D03*
X55565Y20633D02*
D03*
Y20200D02*
D03*
Y19767D02*
D03*
Y19334D02*
D03*
Y18901D02*
D03*
X48469Y23997D02*
D03*
X45212Y24816D02*
D03*
Y24149D02*
D03*
X45126Y24508D02*
D03*
X44783Y24515D02*
D03*
X31291Y12096D02*
D03*
X31536Y12070D02*
D03*
X30931Y12104D02*
D03*
X30677D02*
D03*
X31670Y10852D02*
D03*
Y10419D02*
D03*
Y9986D02*
D03*
Y9553D02*
D03*
Y9120D02*
D03*
X31237Y10852D02*
D03*
Y10419D02*
D03*
Y9986D02*
D03*
Y9553D02*
D03*
Y9120D02*
D03*
X30804Y10852D02*
D03*
Y10419D02*
D03*
Y9986D02*
D03*
Y9553D02*
D03*
Y9120D02*
D03*
X30371Y10852D02*
D03*
Y10419D02*
D03*
Y9986D02*
D03*
Y9553D02*
D03*
Y9120D02*
D03*
X29938Y10852D02*
D03*
Y10419D02*
D03*
Y9986D02*
D03*
Y9553D02*
D03*
Y9120D02*
D03*
X43410Y15039D02*
D03*
X43543Y13512D02*
D03*
X40490Y10501D02*
D03*
X45775Y14980D02*
D03*
X46133D02*
D03*
X46491D02*
D03*
X42911Y19606D02*
D03*
D197*
X60910Y66104D02*
D03*
Y65829D02*
D03*
X60085D02*
D03*
X60360D02*
D03*
X60910Y66655D02*
D03*
Y66380D02*
D03*
Y67205D02*
D03*
X60085D02*
D03*
X60360D02*
D03*
X60635Y65829D02*
D03*
Y67205D02*
D03*
X60910Y66930D02*
D03*
X17818Y28603D02*
D03*
X23336Y34530D02*
D03*
X25698Y33742D02*
D03*
X9592Y30679D02*
D03*
X9416Y28046D02*
D03*
X10115Y29344D02*
D03*
X10274Y29459D02*
D03*
X26880Y25868D02*
D03*
X19793Y25474D02*
D03*
X27273Y25081D02*
D03*
X17824Y28230D02*
D03*
X17431D02*
D03*
X9402Y28349D02*
D03*
Y28199D02*
D03*
X17506Y26258D02*
D03*
X17356D02*
D03*
X18218Y29411D02*
D03*
X17824D02*
D03*
X10274Y29609D02*
D03*
X9465Y30404D02*
D03*
Y30554D02*
D03*
X20974Y34530D02*
D03*
X24517Y34923D02*
D03*
X50162Y41917D02*
D03*
X17037Y26262D02*
D03*
X17399Y28598D02*
D03*
X17431Y25474D02*
D03*
X17037Y28624D02*
D03*
Y29018D02*
D03*
X19006Y33349D02*
D03*
X19399Y30593D02*
D03*
X19793Y30986D02*
D03*
X20187Y26656D02*
D03*
Y25868D02*
D03*
X21368Y32955D02*
D03*
X22549Y30986D02*
D03*
X26880Y32561D02*
D03*
X25698Y25868D02*
D03*
X25305Y26262D02*
D03*
X24124Y27049D02*
D03*
Y27443D02*
D03*
X23336Y29411D02*
D03*
Y31774D02*
D03*
X17037Y28230D02*
D03*
X19006Y30986D02*
D03*
X20187Y27049D02*
D03*
X20974D02*
D03*
X21368Y31380D02*
D03*
Y27443D02*
D03*
X22943Y34923D02*
D03*
X26514Y34424D02*
D03*
X24517Y29805D02*
D03*
X23730Y25868D02*
D03*
X23336Y28624D02*
D03*
X22943Y25868D02*
D03*
Y29805D02*
D03*
X18218Y33349D02*
D03*
X17824Y33742D02*
D03*
X19399Y27443D02*
D03*
X20974Y32561D02*
D03*
X21761Y30593D02*
D03*
X22549Y29018D02*
D03*
Y26656D02*
D03*
X26880Y28230D02*
D03*
X26092Y27443D02*
D03*
X25698Y25474D02*
D03*
X24517Y32167D02*
D03*
X23730Y31774D02*
D03*
Y34136D02*
D03*
X23336Y29018D02*
D03*
X18612Y30986D02*
D03*
X17824Y31380D02*
D03*
X17431Y29018D02*
D03*
X19006Y32955D02*
D03*
X19399Y34530D02*
D03*
Y33742D02*
D03*
X20187Y29411D02*
D03*
X20580Y32167D02*
D03*
Y29805D02*
D03*
Y27049D02*
D03*
X20974Y27443D02*
D03*
X25305Y34923D02*
D03*
X24911Y25474D02*
D03*
X23336Y26656D02*
D03*
X22943Y30986D02*
D03*
X17824Y29805D02*
D03*
X17822Y26277D02*
D03*
X17431Y29805D02*
D03*
X19006Y34530D02*
D03*
Y29805D02*
D03*
X19399Y34923D02*
D03*
Y29805D02*
D03*
X19793Y30593D02*
D03*
Y26262D02*
D03*
X20187Y34136D02*
D03*
Y30593D02*
D03*
X21368D02*
D03*
Y26656D02*
D03*
X24517Y25868D02*
D03*
Y33349D02*
D03*
X23336Y30593D02*
D03*
X22943Y28624D02*
D03*
X17037Y25081D02*
D03*
X20580Y25868D02*
D03*
X20974Y31774D02*
D03*
X21368Y29018D02*
D03*
Y27049D02*
D03*
Y25868D02*
D03*
X22549Y32561D02*
D03*
Y29411D02*
D03*
X26880Y31774D02*
D03*
X27273Y35317D02*
D03*
X26092Y29805D02*
D03*
X25698Y30986D02*
D03*
X25017Y32926D02*
D03*
X23730Y27837D02*
D03*
X17824Y26656D02*
D03*
X17038Y29785D02*
D03*
X19006Y32167D02*
D03*
Y27049D02*
D03*
Y26262D02*
D03*
X19399Y30986D02*
D03*
X19793Y29411D02*
D03*
X20585Y30594D02*
D03*
X21368Y26262D02*
D03*
X26880Y34136D02*
D03*
X25305Y33742D02*
D03*
X23730Y29018D02*
D03*
X23336Y27049D02*
D03*
X22943Y29018D02*
D03*
Y30593D02*
D03*
X18612Y34530D02*
D03*
Y29018D02*
D03*
X19006Y28624D02*
D03*
X20187Y31774D02*
D03*
X20974Y29018D02*
D03*
X22549Y28230D02*
D03*
X26880Y27837D02*
D03*
X24911Y30986D02*
D03*
X23336Y26262D02*
D03*
X22943Y29411D02*
D03*
X18612Y32955D02*
D03*
X18218Y27443D02*
D03*
X17824Y30593D02*
D03*
Y35317D02*
D03*
X17431Y33349D02*
D03*
X19793Y32167D02*
D03*
X20580Y28624D02*
D03*
Y26656D02*
D03*
X21761Y34923D02*
D03*
Y29805D02*
D03*
Y29018D02*
D03*
Y26656D02*
D03*
X22549Y28624D02*
D03*
X26092Y31774D02*
D03*
X24124Y25474D02*
D03*
X23336Y27837D02*
D03*
X18612Y34923D02*
D03*
X18218Y31380D02*
D03*
X17824Y29018D02*
D03*
X17431Y27443D02*
D03*
Y32561D02*
D03*
X17037Y27443D02*
D03*
X19006Y25868D02*
D03*
X19793Y29805D02*
D03*
Y25868D02*
D03*
X20187Y26262D02*
D03*
X20580Y30986D02*
D03*
X21368Y29805D02*
D03*
Y28624D02*
D03*
X21761Y33742D02*
D03*
X25698Y25081D02*
D03*
X24517Y27049D02*
D03*
X24124Y32167D02*
D03*
X23730Y27443D02*
D03*
X23336Y29805D02*
D03*
X18218Y27837D02*
D03*
X17824Y34923D02*
D03*
X17037Y27049D02*
D03*
Y27837D02*
D03*
X19006Y25474D02*
D03*
X20187Y29805D02*
D03*
X20974Y26262D02*
D03*
X21368Y30986D02*
D03*
X22943Y32955D02*
D03*
X26880Y29412D02*
D03*
X26092Y27837D02*
D03*
X25305Y32167D02*
D03*
Y33349D02*
D03*
X24124Y25868D02*
D03*
Y32955D02*
D03*
X22943Y27837D02*
D03*
Y31380D02*
D03*
X18218Y30593D02*
D03*
X17824Y27443D02*
D03*
X17431Y27837D02*
D03*
X18612Y29805D02*
D03*
X20187Y34923D02*
D03*
X20580Y31380D02*
D03*
X20974Y30593D02*
D03*
Y27837D02*
D03*
Y25868D02*
D03*
X21368Y25474D02*
D03*
X21761Y28624D02*
D03*
X25698Y31380D02*
D03*
X24911Y26262D02*
D03*
X23730D02*
D03*
X23336Y27443D02*
D03*
X22943Y28230D02*
D03*
X18218Y32561D02*
D03*
X17431Y26656D02*
D03*
X19006Y27837D02*
D03*
X20187Y32167D02*
D03*
X20580Y32955D02*
D03*
X21761Y31774D02*
D03*
Y25868D02*
D03*
X22549Y31380D02*
D03*
Y30593D02*
D03*
X26092Y26656D02*
D03*
X24911Y27837D02*
D03*
X23336Y25868D02*
D03*
Y28230D02*
D03*
X18612Y31380D02*
D03*
X17824Y25868D02*
D03*
Y27837D02*
D03*
X17431Y34136D02*
D03*
X20974Y30986D02*
D03*
Y28624D02*
D03*
X21761Y30986D02*
D03*
X22549Y27837D02*
D03*
Y27443D02*
D03*
Y27049D02*
D03*
Y26262D02*
D03*
X22943Y33742D02*
D03*
X26092Y32561D02*
D03*
X18218Y34136D02*
D03*
X17431Y31774D02*
D03*
X17037Y29411D02*
D03*
X18612Y30593D02*
D03*
X20974Y26656D02*
D03*
X21368Y29411D02*
D03*
Y27837D02*
D03*
X21761Y28230D02*
D03*
X26880Y30986D02*
D03*
X26092Y33349D02*
D03*
X25698Y34530D02*
D03*
X25305Y27049D02*
D03*
Y28230D02*
D03*
Y29018D02*
D03*
X24124Y26656D02*
D03*
X23336Y30986D02*
D03*
X22943Y27443D02*
D03*
X20187Y28230D02*
D03*
X20580Y27443D02*
D03*
X20974Y28230D02*
D03*
X21761Y31380D02*
D03*
X22549Y29805D02*
D03*
X26880D02*
D03*
Y26656D02*
D03*
X24517Y27443D02*
D03*
X23730Y26656D02*
D03*
X23336Y31380D02*
D03*
X18218Y28230D02*
D03*
Y31774D02*
D03*
Y33742D02*
D03*
X17431Y30986D02*
D03*
X19399Y29018D02*
D03*
X20187Y30986D02*
D03*
X20580Y26262D02*
D03*
X20974Y33742D02*
D03*
Y31380D02*
D03*
Y29805D02*
D03*
X21368Y28230D02*
D03*
X22549Y25474D02*
D03*
X26880Y33349D02*
D03*
X24911Y25868D02*
D03*
Y26656D02*
D03*
X24124Y28624D02*
D03*
X23730Y27049D02*
D03*
X23336Y25474D02*
D03*
X17431Y27049D02*
D03*
Y29411D02*
D03*
X19006Y30593D02*
D03*
X20580Y25474D02*
D03*
X20974Y29411D02*
D03*
X21761D02*
D03*
Y27837D02*
D03*
Y27443D02*
D03*
Y27049D02*
D03*
X25305Y25868D02*
D03*
X24517Y26262D02*
D03*
X24124D02*
D03*
X23730Y30986D02*
D03*
X22943Y26656D02*
D03*
X18218Y29805D02*
D03*
X17037Y35317D02*
D03*
Y25868D02*
D03*
X52191Y41959D02*
D03*
X48874Y45138D02*
D03*
D198*
X51024Y51745D02*
D03*
X50424D02*
D03*
X49824D02*
D03*
X49224D02*
D03*
X49524Y52045D02*
D03*
X50724D02*
D03*
X49224Y52345D02*
D03*
X49824D02*
D03*
X50424D02*
D03*
X51024D02*
D03*
X49524Y52645D02*
D03*
X50724D02*
D03*
X49224Y52945D02*
D03*
X49824D02*
D03*
X50424D02*
D03*
X51024D02*
D03*
X49524Y53245D02*
D03*
X50724D02*
D03*
X49224Y53545D02*
D03*
X49824D02*
D03*
X50424D02*
D03*
X51024D02*
D03*
X49524Y53845D02*
D03*
X50124D02*
D03*
X50724D02*
D03*
X49224Y54145D02*
D03*
X49824D02*
D03*
X50424D02*
D03*
X49524Y54445D02*
D03*
X50124D02*
D03*
X49224Y54745D02*
D03*
X49824D02*
D03*
X50424D02*
D03*
X51024D02*
D03*
Y54145D02*
D03*
X50724Y54445D02*
D03*
X50124Y52045D02*
D03*
Y52645D02*
D03*
Y53245D02*
D03*
D199*
X41893Y11522D02*
D03*
X42200D02*
D03*
X42507D02*
D03*
Y10845D02*
D03*
X42200D02*
D03*
X41893D02*
D03*
X48563Y15215D02*
D03*
X48170D02*
D03*
X48563Y14822D02*
D03*
Y14428D02*
D03*
X48957D02*
D03*
X48170D02*
D03*
Y14822D02*
D03*
X48957D02*
D03*
Y15215D02*
D03*
D200*
X45470Y20282D02*
D03*
X45076D02*
D03*
X44682D02*
D03*
Y19888D02*
D03*
X45076D02*
D03*
X45470D02*
D03*
Y19495D02*
D03*
X45076D02*
D03*
X44682D02*
D03*
D201*
X46245Y24056D02*
D03*
Y24844D02*
D03*
X45851Y24056D02*
D03*
Y24844D02*
D03*
X46245Y24450D02*
D03*
X45851D02*
D03*
M02*
