G04*
G04 #@! TF.GenerationSoftware,Altium Limited,Altium Designer,20.1.11 (218)*
G04*
G04 Layer_Physical_Order=10*
G04 Layer_Color=32768*
%FSLAX24Y24*%
%MOIN*%
G70*
G04*
G04 #@! TF.SameCoordinates,C20E3654-7A5B-4E15-AF0D-48D46733EB80*
G04*
G04*
G04 #@! TF.FilePolarity,Negative*
G04*
G01*
G75*
%ADD64C,0.0177*%
%ADD199C,0.0118*%
%ADD240C,0.0500*%
%ADD263C,0.0157*%
%ADD264C,0.1000*%
%ADD265C,0.0400*%
%ADD266C,0.0551*%
%ADD267C,0.1339*%
%ADD268C,0.0689*%
%ADD271C,0.1239*%
%ADD273C,0.0769*%
%ADD275O,0.0492X0.0236*%
%ADD276O,0.0256X0.0374*%
%ADD277C,0.0389*%
%ADD278C,0.1319*%
%ADD279C,0.0099*%
%ADD280C,0.1220*%
%ADD281C,0.0139*%
%ADD282C,0.0159*%
D64*
X50498Y43496D02*
D03*
X50077D02*
D03*
X49656D02*
D03*
X50498Y43917D02*
D03*
X50077D02*
D03*
X49656D02*
D03*
X50498Y44338D02*
D03*
X50077D02*
D03*
X49656D02*
D03*
D199*
X60791Y6240D02*
D03*
X60358D02*
D03*
X60791Y6673D02*
D03*
X60358D02*
D03*
X53544Y5523D02*
D03*
Y5956D02*
D03*
Y6390D02*
D03*
Y6823D02*
D03*
Y7256D02*
D03*
X53977Y5523D02*
D03*
Y5956D02*
D03*
Y6390D02*
D03*
Y6823D02*
D03*
Y7256D02*
D03*
X54410Y5523D02*
D03*
Y5956D02*
D03*
Y6390D02*
D03*
Y6823D02*
D03*
Y7256D02*
D03*
X54843Y5523D02*
D03*
Y5956D02*
D03*
Y6390D02*
D03*
Y6823D02*
D03*
Y7256D02*
D03*
X55276Y5523D02*
D03*
Y5956D02*
D03*
Y6390D02*
D03*
Y6823D02*
D03*
Y7256D02*
D03*
X5246Y38403D02*
D03*
X5472Y38029D02*
D03*
X5019D02*
D03*
X5246Y37655D02*
D03*
X54996Y66417D02*
D03*
X55429D02*
D03*
X55862D02*
D03*
X54996Y65984D02*
D03*
X55429D02*
D03*
X55862D02*
D03*
X54996Y65550D02*
D03*
X55429D02*
D03*
X55862D02*
D03*
X54996Y65117D02*
D03*
X55429D02*
D03*
X55862D02*
D03*
X54996Y64684D02*
D03*
X55429D02*
D03*
X55862D02*
D03*
X54996Y64251D02*
D03*
X55429D02*
D03*
X55862D02*
D03*
X54996Y63818D02*
D03*
X55429D02*
D03*
X55862D02*
D03*
X54996Y63385D02*
D03*
X55429D02*
D03*
X55862D02*
D03*
X54996Y62952D02*
D03*
X55429D02*
D03*
X55862D02*
D03*
X57298Y20633D02*
D03*
Y20200D02*
D03*
Y19767D02*
D03*
Y19334D02*
D03*
Y18901D02*
D03*
X56865Y20633D02*
D03*
Y20200D02*
D03*
Y19767D02*
D03*
Y19334D02*
D03*
Y18901D02*
D03*
X56432Y20633D02*
D03*
Y20200D02*
D03*
Y19767D02*
D03*
Y19334D02*
D03*
Y18901D02*
D03*
X55998Y20633D02*
D03*
Y20200D02*
D03*
Y19767D02*
D03*
Y19334D02*
D03*
Y18901D02*
D03*
X55565Y20633D02*
D03*
Y20200D02*
D03*
Y19767D02*
D03*
Y19334D02*
D03*
Y18901D02*
D03*
X31670Y10852D02*
D03*
Y10419D02*
D03*
Y9986D02*
D03*
Y9553D02*
D03*
Y9120D02*
D03*
X31237Y10852D02*
D03*
Y10419D02*
D03*
Y9986D02*
D03*
Y9553D02*
D03*
Y9120D02*
D03*
X30804Y10852D02*
D03*
Y10419D02*
D03*
Y9986D02*
D03*
Y9553D02*
D03*
Y9120D02*
D03*
X30371Y10852D02*
D03*
Y10419D02*
D03*
Y9986D02*
D03*
Y9553D02*
D03*
Y9120D02*
D03*
X29938Y10852D02*
D03*
Y10419D02*
D03*
Y9986D02*
D03*
Y9553D02*
D03*
Y9120D02*
D03*
X46245Y24056D02*
D03*
Y24844D02*
D03*
X45851Y24056D02*
D03*
Y24844D02*
D03*
X46245Y24450D02*
D03*
X45851D02*
D03*
D240*
X100Y34855D02*
X3710D01*
X9661Y28904D01*
X12213D01*
X12273Y28964D01*
Y31180D01*
X5600Y37853D02*
X12273Y31180D01*
X35Y37853D02*
X5600D01*
D263*
X42864Y13511D02*
D03*
X42306Y14433D02*
D03*
X42842Y14423D02*
D03*
X52537Y4240D02*
D03*
X52328Y5840D02*
D03*
X52325Y6091D02*
D03*
X54978Y8505D02*
D03*
X54641D02*
D03*
X55801Y8449D02*
D03*
X56303Y4359D02*
D03*
X56468Y6271D02*
D03*
X56592Y5885D02*
D03*
X56458Y6910D02*
D03*
X56170Y8399D02*
D03*
X59741Y4366D02*
D03*
X59866Y8516D02*
D03*
X60126Y4383D02*
D03*
X60482Y4393D02*
D03*
X60638Y5351D02*
D03*
X60340Y8509D02*
D03*
X62797Y6247D02*
D03*
X62807Y6712D02*
D03*
X50820Y5714D02*
D03*
X52422Y8047D02*
D03*
X56454Y4792D02*
D03*
X56502Y7935D02*
D03*
X59487Y6465D02*
D03*
X52881Y4355D02*
D03*
X52741Y8436D02*
D03*
X56012Y4387D02*
D03*
X58514Y6839D02*
D03*
X60865Y4381D02*
D03*
X62391Y8184D02*
D03*
X60762Y8514D02*
D03*
X63152Y6242D02*
D03*
X63172Y6703D02*
D03*
X58496Y5661D02*
D03*
X58487Y6430D02*
D03*
X58493Y7188D02*
D03*
X62345Y4708D02*
D03*
X6102Y33071D02*
D03*
X5906Y32677D02*
D03*
X6102Y32284D02*
D03*
Y31496D02*
D03*
X5906Y31102D02*
D03*
X6102Y30709D02*
D03*
X5906Y30315D02*
D03*
Y29528D02*
D03*
X6102Y29134D02*
D03*
X5906Y28740D02*
D03*
X6102Y28347D02*
D03*
X5906Y27953D02*
D03*
X12303Y35039D02*
D03*
X12008Y34449D02*
D03*
X11713Y35039D02*
D03*
X11417Y34449D02*
D03*
X11122Y35039D02*
D03*
X10827Y34449D02*
D03*
X10531Y35039D02*
D03*
X9941D02*
D03*
X9350D02*
D03*
X9055Y34449D02*
D03*
X8760Y35039D02*
D03*
X7874Y36811D02*
D03*
Y35630D02*
D03*
X8169Y35039D02*
D03*
X7579D02*
D03*
X18504Y49606D02*
D03*
X18110Y48819D02*
D03*
X18504Y48032D02*
D03*
X18110Y47244D02*
D03*
X17717Y49606D02*
D03*
Y48032D02*
D03*
X17323Y47244D02*
D03*
X17717Y46457D02*
D03*
X16929Y49606D02*
D03*
X16536Y47244D02*
D03*
X16929Y46457D02*
D03*
X16142Y49606D02*
D03*
X15748Y48819D02*
D03*
X16142Y48032D02*
D03*
X15748Y47244D02*
D03*
X16142Y46457D02*
D03*
X15354Y49606D02*
D03*
X14961Y48819D02*
D03*
X15354Y48032D02*
D03*
X14961Y47244D02*
D03*
X15354Y46457D02*
D03*
X14567Y49606D02*
D03*
X14173Y48819D02*
D03*
X14567Y48032D02*
D03*
Y46457D02*
D03*
X13780Y49606D02*
D03*
X13386Y48819D02*
D03*
X13780Y48032D02*
D03*
X12992Y49606D02*
D03*
X12599Y48819D02*
D03*
X12992Y48032D02*
D03*
X12599Y47244D02*
D03*
X12992Y46457D02*
D03*
X12205Y49606D02*
D03*
X11811Y48819D02*
D03*
X12205Y48032D02*
D03*
X11811Y47244D02*
D03*
X12205Y46457D02*
D03*
X11417Y49606D02*
D03*
X11024Y48819D02*
D03*
X11417Y48032D02*
D03*
X11024Y47244D02*
D03*
X11417Y46457D02*
D03*
X10236Y48819D02*
D03*
X10630Y48032D02*
D03*
X10236Y47244D02*
D03*
X10630Y46457D02*
D03*
X9449Y48819D02*
D03*
X9843Y48032D02*
D03*
X9449Y47244D02*
D03*
X9843Y46457D02*
D03*
X5118Y48819D02*
D03*
X4725Y48032D02*
D03*
X5118Y47244D02*
D03*
X4725Y46457D02*
D03*
X4331Y48819D02*
D03*
X3937Y48032D02*
D03*
X4331Y47244D02*
D03*
X3937Y46457D02*
D03*
X3543Y48819D02*
D03*
X3150Y48032D02*
D03*
X3543Y47244D02*
D03*
X3150Y46457D02*
D03*
X52772Y56452D02*
D03*
X52426Y56449D02*
D03*
X53055Y56470D02*
D03*
X47638Y10236D02*
D03*
X47244Y9449D02*
D03*
X46851Y10236D02*
D03*
X46457Y9449D02*
D03*
X46063Y10236D02*
D03*
X51080Y58489D02*
D03*
X50834Y58510D02*
D03*
X51080Y57116D02*
D03*
X50819Y57132D02*
D03*
X49397Y57640D02*
D03*
X50004Y56991D02*
D03*
X53108Y53500D02*
D03*
X46962Y52961D02*
D03*
X46994Y53680D02*
D03*
X45951Y53663D02*
D03*
Y52955D02*
D03*
X43945Y52982D02*
D03*
X43908Y53680D02*
D03*
X42907Y53690D02*
D03*
X42934Y52944D02*
D03*
X41046Y53116D02*
D03*
X43796Y28166D02*
D03*
X54291Y27679D02*
D03*
X54661Y27689D02*
D03*
X56530Y28822D02*
D03*
X59007Y34888D02*
D03*
X58976Y35730D02*
D03*
X62015Y28443D02*
D03*
X63707Y32588D02*
D03*
X63297Y30261D02*
D03*
X61667Y39441D02*
D03*
X53062Y42310D02*
D03*
X54209Y37118D02*
D03*
X53165Y37106D02*
D03*
X59015Y35283D02*
D03*
X56068Y30125D02*
D03*
X56621Y30132D02*
D03*
X55895Y30526D02*
D03*
X56351Y30533D02*
D03*
X56862Y30530D02*
D03*
X58775Y28196D02*
D03*
X58915Y29403D02*
D03*
X57948Y33834D02*
D03*
X57183Y32343D02*
D03*
X57183Y31861D02*
D03*
X57984Y31330D02*
D03*
X57990Y30894D02*
D03*
X57904Y30355D02*
D03*
X58900Y27899D02*
D03*
X22071Y22669D02*
D03*
X5118Y42520D02*
D03*
X3937Y44882D02*
D03*
X4331Y44095D02*
D03*
Y42520D02*
D03*
X3150Y44882D02*
D03*
X3543Y44095D02*
D03*
X1575Y44882D02*
D03*
X1969Y44095D02*
D03*
X21321Y22736D02*
D03*
X21468Y21451D02*
D03*
Y21801D02*
D03*
X37631Y62897D02*
D03*
X37674Y63361D02*
D03*
X36325Y62907D02*
D03*
X36346Y63339D02*
D03*
X33607Y62628D02*
D03*
X33576Y57627D02*
D03*
X47348Y63891D02*
D03*
X46644D02*
D03*
X47277Y65250D02*
D03*
X46687Y65234D02*
D03*
X53804Y64960D02*
D03*
X53399Y62476D02*
D03*
X55592Y60960D02*
D03*
X57123Y62312D02*
D03*
X58360Y63603D02*
D03*
X58463Y63206D02*
D03*
X59101Y64033D02*
D03*
X56910Y68378D02*
D03*
X53945Y66794D02*
D03*
X30822Y7328D02*
D03*
X33573Y14409D02*
D03*
X32941Y13764D02*
D03*
X31924Y13875D02*
D03*
X27761Y9056D02*
D03*
X29083Y7211D02*
D03*
X31564Y5584D02*
D03*
X30951Y6057D02*
D03*
X31429Y7211D02*
D03*
X31922Y7139D02*
D03*
X34112Y11169D02*
D03*
X36260Y9383D02*
D03*
X36267Y10524D02*
D03*
X35416D02*
D03*
X33698Y9241D02*
D03*
X33463Y8685D02*
D03*
X31605Y15010D02*
D03*
X31295Y15027D02*
D03*
X31662Y15404D02*
D03*
X31275Y15400D02*
D03*
X29454Y15646D02*
D03*
X28108Y16166D02*
D03*
X28867Y15697D02*
D03*
X28387Y15549D02*
D03*
X25130Y13778D02*
D03*
X27269Y12743D02*
D03*
X25433Y9375D02*
D03*
X26590Y9359D02*
D03*
X27203Y9649D02*
D03*
X28440Y7510D02*
D03*
X29133Y6514D02*
D03*
X28586Y8229D02*
D03*
X28444Y7864D02*
D03*
X30434Y7882D02*
D03*
X30964Y7587D02*
D03*
X31501Y7598D02*
D03*
X31872Y7591D02*
D03*
X33381Y10285D02*
D03*
Y10875D02*
D03*
Y11466D02*
D03*
X28274Y11991D02*
D03*
X29019Y11914D02*
D03*
X29548Y12866D02*
D03*
X29890Y12746D02*
D03*
X30408Y12174D02*
D03*
X31397Y12386D02*
D03*
X31458Y12690D02*
D03*
X32555Y12701D02*
D03*
X19890Y58651D02*
D03*
X38539Y31943D02*
D03*
X37972Y30683D02*
D03*
X38990Y36960D02*
D03*
X36892Y37017D02*
D03*
X32965Y37002D02*
D03*
X32449Y36385D02*
D03*
X31878Y35832D02*
D03*
X46063Y31496D02*
D03*
X45669Y30709D02*
D03*
X45276Y31496D02*
D03*
X44488D02*
D03*
X44095Y30709D02*
D03*
X43701Y31496D02*
D03*
X43307Y30709D02*
D03*
X44488Y33858D02*
D03*
X44095Y33071D02*
D03*
X43307Y34646D02*
D03*
X43701Y33858D02*
D03*
X43307Y33071D02*
D03*
X42014Y29735D02*
D03*
X42780Y29072D02*
D03*
X42793Y29433D02*
D03*
X42783Y29733D02*
D03*
X38722Y29165D02*
D03*
X39160Y27820D02*
D03*
X39699Y27011D02*
D03*
X51052Y19972D02*
D03*
X51067Y21253D02*
D03*
X48491Y24438D02*
D03*
X48474Y24889D02*
D03*
X48203Y25016D02*
D03*
X47889Y25011D02*
D03*
X51038Y13916D02*
D03*
X51598Y13462D02*
D03*
X51969Y11811D02*
D03*
X52362Y11024D02*
D03*
X51575Y12599D02*
D03*
X51181Y11811D02*
D03*
X50788Y11024D02*
D03*
X53708Y18955D02*
D03*
X54360Y18950D02*
D03*
X60491Y18841D02*
D03*
X62399Y18612D02*
D03*
X61265Y21055D02*
D03*
X61120Y20078D02*
D03*
X61143Y20404D02*
D03*
X57612Y17500D02*
D03*
X55881Y17453D02*
D03*
X56133Y18093D02*
D03*
X57315Y18089D02*
D03*
X58106Y20095D02*
D03*
X58004Y18303D02*
D03*
X57980Y18542D02*
D03*
X58084Y19199D02*
D03*
X58092Y20342D02*
D03*
X58093Y19548D02*
D03*
X56957Y22298D02*
D03*
X56337Y22548D02*
D03*
X57950Y21704D02*
D03*
X57780Y21049D02*
D03*
X55912Y21576D02*
D03*
X55647Y21999D02*
D03*
X58269Y23232D02*
D03*
X58281Y24343D02*
D03*
X57109Y24161D02*
D03*
Y24874D02*
D03*
X35066Y30692D02*
D03*
X31115Y30424D02*
D03*
X33071Y33071D02*
D03*
X33465Y32284D02*
D03*
X33071Y31496D02*
D03*
X33465Y30709D02*
D03*
X33071Y29921D02*
D03*
X32284Y33071D02*
D03*
X32677Y32284D02*
D03*
X32284Y29921D02*
D03*
X31890Y32284D02*
D03*
Y30709D02*
D03*
X30709Y33071D02*
D03*
X29921D02*
D03*
X30315Y32284D02*
D03*
X29134Y33071D02*
D03*
X29528Y32284D02*
D03*
X21824Y13539D02*
D03*
X21831Y14359D02*
D03*
X21811Y15185D02*
D03*
X21828Y16011D02*
D03*
X20127Y15334D02*
D03*
X18360Y14885D02*
D03*
X16495Y15421D02*
D03*
X15412Y15428D02*
D03*
X19331Y13520D02*
D03*
X16440Y11241D02*
D03*
X15371Y11235D02*
D03*
X18342Y10756D02*
D03*
X16458Y6988D02*
D03*
X15249Y7053D02*
D03*
X18101Y6502D02*
D03*
X19319Y5154D02*
D03*
X19129Y9096D02*
D03*
X25591Y61417D02*
D03*
X25197Y60630D02*
D03*
X24803Y61417D02*
D03*
X24410Y60630D02*
D03*
X24016Y61417D02*
D03*
X22047Y60630D02*
D03*
X21166Y61292D02*
D03*
X20398Y59239D02*
D03*
X19549Y58759D02*
D03*
X19612Y60211D02*
D03*
X19620Y60573D02*
D03*
X19850Y61141D02*
D03*
X19694Y61938D02*
D03*
X19683Y61510D02*
D03*
X21156Y63401D02*
D03*
X28347Y64567D02*
D03*
X28740Y63780D02*
D03*
X27559Y64567D02*
D03*
X27953Y63780D02*
D03*
X26772Y64567D02*
D03*
X27165Y63780D02*
D03*
X26772Y62992D02*
D03*
X25984Y64567D02*
D03*
X26378Y63780D02*
D03*
X25197Y64567D02*
D03*
X24410D02*
D03*
X24803Y63780D02*
D03*
X24410Y62992D02*
D03*
X23622Y64567D02*
D03*
X24016Y63780D02*
D03*
X26275Y60502D02*
D03*
X8264Y48947D02*
D03*
X9522Y42800D02*
D03*
X12983Y43776D02*
D03*
X13032Y42943D02*
D03*
X21912Y19304D02*
D03*
X21546Y19302D02*
D03*
X19388Y41566D02*
D03*
X19698Y41206D02*
D03*
X17910Y43794D02*
D03*
X17887Y44201D02*
D03*
X17849Y44925D02*
D03*
X18898Y41732D02*
D03*
Y40158D02*
D03*
X18110D02*
D03*
X17323D02*
D03*
X16536Y43307D02*
D03*
Y41732D02*
D03*
X16929Y40945D02*
D03*
X16536Y40158D02*
D03*
X15748Y43307D02*
D03*
X16142Y42520D02*
D03*
X15748Y41732D02*
D03*
X16142Y40945D02*
D03*
X15354Y42520D02*
D03*
X14961Y41732D02*
D03*
X20789Y49254D02*
D03*
X19711Y49274D02*
D03*
X20225D02*
D03*
X19172Y49254D02*
D03*
X2408Y42166D02*
D03*
X6248Y42571D02*
D03*
X7815Y38400D02*
D03*
X7806Y38759D02*
D03*
X7803Y39179D02*
D03*
X7793Y39632D02*
D03*
X5485Y39940D02*
D03*
X6061Y38233D02*
D03*
X3000Y38475D02*
D03*
X3018Y38791D02*
D03*
X3348Y38782D02*
D03*
X2231Y36052D02*
D03*
X2883Y33658D02*
D03*
X2867Y33296D02*
D03*
X2820Y32957D02*
D03*
X2892Y34188D02*
D03*
X2724Y34597D02*
D03*
X2470Y34851D02*
D03*
X1963Y34909D02*
D03*
X1579Y34712D02*
D03*
X3332Y36561D02*
D03*
X19693Y45226D02*
D03*
Y45803D02*
D03*
X20270Y45226D02*
D03*
X20559D02*
D03*
Y45803D02*
D03*
X20270Y46091D02*
D03*
X19693Y45514D02*
D03*
X20559D02*
D03*
X19982Y45226D02*
D03*
Y46091D02*
D03*
X59572Y64878D02*
D03*
X58966Y65239D02*
D03*
X59572Y65239D02*
D03*
X57001Y64549D02*
D03*
Y64807D02*
D03*
Y65065D02*
D03*
X57012Y65323D02*
D03*
X48469Y23997D02*
D03*
X31291Y12096D02*
D03*
X31536Y12070D02*
D03*
X30931Y12104D02*
D03*
X30677D02*
D03*
X41893Y11522D02*
D03*
X42200D02*
D03*
X42507D02*
D03*
Y10845D02*
D03*
X42200D02*
D03*
X41893D02*
D03*
X43410Y15039D02*
D03*
X43543Y13512D02*
D03*
X40490Y10501D02*
D03*
X45775Y14980D02*
D03*
X46133D02*
D03*
X46491D02*
D03*
X48563Y15215D02*
D03*
X48170D02*
D03*
X48563Y14822D02*
D03*
Y14428D02*
D03*
X48957D02*
D03*
X48170D02*
D03*
Y14822D02*
D03*
X48957D02*
D03*
Y15215D02*
D03*
X42911Y19606D02*
D03*
D264*
X57269Y47374D02*
X66890D01*
X55433Y39254D02*
X59734D01*
X55433Y45539D02*
X57269Y47374D01*
X62052Y41036D02*
X63366Y39723D01*
X60358Y36738D02*
X66898D01*
X59734Y39254D02*
X60203Y39723D01*
X63366D02*
X66930D01*
X60358Y25962D02*
X66949D01*
X60358D02*
Y36738D01*
X55433Y39254D02*
Y45539D01*
X60203Y39723D02*
Y41854D01*
X60753Y42403D01*
X61557D01*
X62052Y41907D01*
Y41036D02*
Y41907D01*
X46292Y25952D02*
X66929D01*
X46292Y16979D02*
Y25952D01*
Y16979D02*
X47126Y16145D01*
X48956D01*
X49795Y83D02*
Y15306D01*
X48956Y16145D02*
X49795Y15306D01*
D265*
X0Y0D02*
X66929D01*
Y70866D01*
X0D02*
X66929D01*
X0Y0D02*
Y70866D01*
D266*
X64881Y61667D02*
D03*
Y63636D02*
D03*
Y65604D02*
D03*
Y67573D02*
D03*
D267*
X5906Y68898D02*
D03*
X61024D02*
D03*
Y1969D02*
D03*
X5906D02*
D03*
D268*
X65052Y2895D02*
D03*
X64052Y3895D02*
D03*
X66052D02*
D03*
Y1895D02*
D03*
X64052D02*
D03*
X65052Y9794D02*
D03*
X64052Y10794D02*
D03*
X66052D02*
D03*
Y8794D02*
D03*
X64052D02*
D03*
X65052Y23593D02*
D03*
X64052Y24593D02*
D03*
X66052D02*
D03*
Y22593D02*
D03*
X64052D02*
D03*
Y15694D02*
D03*
X66052D02*
D03*
Y17694D02*
D03*
X64052D02*
D03*
X65052Y16694D02*
D03*
D271*
X64104Y52933D02*
D03*
Y56240D02*
D03*
D273*
X59065Y52933D02*
D03*
Y54587D02*
D03*
Y56240D02*
D03*
X61230Y52933D02*
D03*
Y54587D02*
D03*
Y56240D02*
D03*
D275*
X66146Y31699D02*
D03*
Y34455D02*
D03*
D276*
X65083Y32093D02*
D03*
Y34062D02*
D03*
D277*
X61122Y45134D02*
D03*
Y40634D02*
D03*
Y41534D02*
D03*
Y46034D02*
D03*
X63022Y41934D02*
D03*
Y42734D02*
D03*
Y43534D02*
D03*
Y44334D02*
D03*
X63722Y42334D02*
D03*
Y43134D02*
D03*
Y43934D02*
D03*
Y44734D02*
D03*
D278*
X64722Y40834D02*
D03*
Y45834D02*
D03*
D279*
X60910Y66104D02*
D03*
Y65829D02*
D03*
X60085D02*
D03*
X60360D02*
D03*
X60910Y66655D02*
D03*
Y66380D02*
D03*
Y67205D02*
D03*
X60085D02*
D03*
X60360D02*
D03*
X60635Y65829D02*
D03*
Y67205D02*
D03*
X60910Y66930D02*
D03*
X61222Y59803D02*
D03*
Y60078D02*
D03*
Y60353D02*
D03*
Y60628D02*
D03*
X61497D02*
D03*
X61237Y64506D02*
D03*
X61513D02*
D03*
X61237Y65331D02*
D03*
Y65056D02*
D03*
X62322Y60628D02*
D03*
X62047D02*
D03*
X61772D02*
D03*
X62338Y64506D02*
D03*
X61788D02*
D03*
X62063D02*
D03*
X62597Y59803D02*
D03*
Y60078D02*
D03*
Y60353D02*
D03*
Y60628D02*
D03*
X62613Y64506D02*
D03*
Y65331D02*
D03*
Y65056D02*
D03*
X65452Y58551D02*
D03*
X65177D02*
D03*
X65452Y59926D02*
D03*
X65177D02*
D03*
X66002Y59101D02*
D03*
Y58826D02*
D03*
Y58551D02*
D03*
X65727D02*
D03*
X66002Y59376D02*
D03*
Y59651D02*
D03*
Y59926D02*
D03*
X65727D02*
D03*
X61237Y64781D02*
D03*
X62613D02*
D03*
X17818Y28603D02*
D03*
X7170Y33434D02*
D03*
Y33185D02*
D03*
Y32936D02*
D03*
X9218Y33621D02*
D03*
X8969D02*
D03*
X8720D02*
D03*
X23336Y34530D02*
D03*
X25698Y33742D02*
D03*
X9070Y32654D02*
D03*
X9367Y31733D02*
D03*
X7197Y28685D02*
D03*
Y28436D02*
D03*
Y28187D02*
D03*
X7194Y29882D02*
D03*
Y29633D02*
D03*
Y29385D02*
D03*
X7180Y30972D02*
D03*
Y30723D02*
D03*
Y30474D02*
D03*
X7177Y32234D02*
D03*
Y31986D02*
D03*
Y31737D02*
D03*
X6844Y34187D02*
D03*
X6595D02*
D03*
X6346D02*
D03*
X6848Y34883D02*
D03*
X6599D02*
D03*
X6350D02*
D03*
X6832Y35495D02*
D03*
X6583D02*
D03*
X6334D02*
D03*
X6836Y36347D02*
D03*
X6587D02*
D03*
X6338D02*
D03*
X6832Y37297D02*
D03*
X6583D02*
D03*
X6334D02*
D03*
X9592Y30679D02*
D03*
X9416Y28046D02*
D03*
X10115Y29344D02*
D03*
X10274Y29459D02*
D03*
X11621Y28904D02*
D03*
X11604Y29219D02*
D03*
X11596Y29530D02*
D03*
X26880Y25868D02*
D03*
X19793Y25474D02*
D03*
X8275Y31399D02*
D03*
X8436Y31394D02*
D03*
X8100Y31402D02*
D03*
X27273Y25081D02*
D03*
X8429Y28274D02*
D03*
Y28589D02*
D03*
Y28904D02*
D03*
X11628Y31424D02*
D03*
X17824Y28230D02*
D03*
X17431D02*
D03*
X9402Y28349D02*
D03*
Y28199D02*
D03*
X17506Y26258D02*
D03*
X17356D02*
D03*
X18218Y29411D02*
D03*
X17824D02*
D03*
X9059Y31739D02*
D03*
Y32054D02*
D03*
X9059Y32369D02*
D03*
X8744Y32684D02*
D03*
Y31739D02*
D03*
Y32054D02*
D03*
Y32369D02*
D03*
X11442Y29534D02*
D03*
X11264D02*
D03*
X8429Y30794D02*
D03*
X8744Y30479D02*
D03*
Y30794D02*
D03*
X9059Y29849D02*
D03*
X8744D02*
D03*
X9064Y29225D02*
D03*
X9046Y28591D02*
D03*
X8750Y29225D02*
D03*
X9059Y27645D02*
D03*
X8429D02*
D03*
Y27959D02*
D03*
Y29219D02*
D03*
Y29534D02*
D03*
Y29849D02*
D03*
X8744Y27959D02*
D03*
X8081Y31014D02*
D03*
X8429Y32684D02*
D03*
X8072D02*
D03*
X8251D02*
D03*
X8436Y32369D02*
D03*
Y32054D02*
D03*
Y31739D02*
D03*
X8096D02*
D03*
X8266D02*
D03*
Y32369D02*
D03*
X8096D02*
D03*
X11271Y31424D02*
D03*
X11264Y27959D02*
D03*
X11442D02*
D03*
X11264Y28904D02*
D03*
X11442D02*
D03*
X11264Y28274D02*
D03*
X11434D02*
D03*
X11264Y29219D02*
D03*
X11434D02*
D03*
X11264Y32684D02*
D03*
X11621D02*
D03*
X12175Y31424D02*
D03*
X10274Y29609D02*
D03*
X10634Y28589D02*
D03*
Y28904D02*
D03*
X10949D02*
D03*
Y28589D02*
D03*
Y29219D02*
D03*
X10935Y29863D02*
D03*
X10949Y29534D02*
D03*
X10949Y32684D02*
D03*
X11250Y28603D02*
D03*
X9465Y30404D02*
D03*
Y30554D02*
D03*
X10634Y30794D02*
D03*
X11259Y30781D02*
D03*
X10949Y30479D02*
D03*
Y30794D02*
D03*
X10634Y31109D02*
D03*
X10949Y31739D02*
D03*
X10634Y32054D02*
D03*
X10634Y31424D02*
D03*
X10949Y32054D02*
D03*
X10634Y31739D02*
D03*
X10949Y31424D02*
D03*
X11604Y32369D02*
D03*
X11434Y31739D02*
D03*
X11604D02*
D03*
X11264D02*
D03*
Y32054D02*
D03*
Y32369D02*
D03*
X10634Y30479D02*
D03*
X8744Y29534D02*
D03*
X9064Y29539D02*
D03*
X10949Y27959D02*
D03*
X10634D02*
D03*
X20974Y34530D02*
D03*
X24517Y34923D02*
D03*
X50162Y41917D02*
D03*
X17037Y26262D02*
D03*
X17399Y28598D02*
D03*
X17431Y25474D02*
D03*
X17037Y28624D02*
D03*
Y29018D02*
D03*
X19006Y33349D02*
D03*
X19399Y30593D02*
D03*
X19793Y30986D02*
D03*
X20187Y26656D02*
D03*
Y25868D02*
D03*
X21368Y32955D02*
D03*
X22549Y30986D02*
D03*
X26880Y32561D02*
D03*
X25698Y25868D02*
D03*
X25305Y26262D02*
D03*
X24124Y27049D02*
D03*
Y27443D02*
D03*
X23336Y29411D02*
D03*
Y31774D02*
D03*
X17037Y28230D02*
D03*
X19006Y30986D02*
D03*
X20187Y27049D02*
D03*
X20974D02*
D03*
X21368Y31380D02*
D03*
Y27443D02*
D03*
X22943Y34923D02*
D03*
X26514Y34424D02*
D03*
X24517Y29805D02*
D03*
X23730Y25868D02*
D03*
X23336Y28624D02*
D03*
X22943Y25868D02*
D03*
Y29805D02*
D03*
X18218Y33349D02*
D03*
X17824Y33742D02*
D03*
X19399Y27443D02*
D03*
X20974Y32561D02*
D03*
X21761Y30593D02*
D03*
X22549Y29018D02*
D03*
Y26656D02*
D03*
X26880Y28230D02*
D03*
X26092Y27443D02*
D03*
X25698Y25474D02*
D03*
X24517Y32167D02*
D03*
X23730Y31774D02*
D03*
Y34136D02*
D03*
X23336Y29018D02*
D03*
X18612Y30986D02*
D03*
X17824Y31380D02*
D03*
X17431Y29018D02*
D03*
X19006Y32955D02*
D03*
X19399Y34530D02*
D03*
Y33742D02*
D03*
X20187Y29411D02*
D03*
X20580Y32167D02*
D03*
Y29805D02*
D03*
Y27049D02*
D03*
X20974Y27443D02*
D03*
X25305Y34923D02*
D03*
X24911Y25474D02*
D03*
X23336Y26656D02*
D03*
X22943Y30986D02*
D03*
X17824Y29805D02*
D03*
X17822Y26277D02*
D03*
X17431Y29805D02*
D03*
X19006Y34530D02*
D03*
Y29805D02*
D03*
X19399Y34923D02*
D03*
Y29805D02*
D03*
X19793Y30593D02*
D03*
Y26262D02*
D03*
X20187Y34136D02*
D03*
Y30593D02*
D03*
X21368D02*
D03*
Y26656D02*
D03*
X24517Y25868D02*
D03*
Y33349D02*
D03*
X23336Y30593D02*
D03*
X22943Y28624D02*
D03*
X17037Y25081D02*
D03*
X20580Y25868D02*
D03*
X20974Y31774D02*
D03*
X21368Y29018D02*
D03*
Y27049D02*
D03*
Y25868D02*
D03*
X22549Y32561D02*
D03*
Y29411D02*
D03*
X26880Y31774D02*
D03*
X27273Y35317D02*
D03*
X26092Y29805D02*
D03*
X25698Y30986D02*
D03*
X25017Y32926D02*
D03*
X23730Y27837D02*
D03*
X17824Y26656D02*
D03*
X17038Y29785D02*
D03*
X19006Y32167D02*
D03*
Y27049D02*
D03*
Y26262D02*
D03*
X19399Y30986D02*
D03*
X19793Y29411D02*
D03*
X20585Y30594D02*
D03*
X21368Y26262D02*
D03*
X26880Y34136D02*
D03*
X25305Y33742D02*
D03*
X23730Y29018D02*
D03*
X23336Y27049D02*
D03*
X22943Y29018D02*
D03*
Y30593D02*
D03*
X18612Y34530D02*
D03*
Y29018D02*
D03*
X19006Y28624D02*
D03*
X20187Y31774D02*
D03*
X20974Y29018D02*
D03*
X22549Y28230D02*
D03*
X26880Y27837D02*
D03*
X24911Y30986D02*
D03*
X23336Y26262D02*
D03*
X22943Y29411D02*
D03*
X18612Y32955D02*
D03*
X18218Y27443D02*
D03*
X17824Y30593D02*
D03*
Y35317D02*
D03*
X17431Y33349D02*
D03*
X19793Y32167D02*
D03*
X20580Y28624D02*
D03*
Y26656D02*
D03*
X21761Y34923D02*
D03*
Y29805D02*
D03*
Y29018D02*
D03*
Y26656D02*
D03*
X22549Y28624D02*
D03*
X26092Y31774D02*
D03*
X24124Y25474D02*
D03*
X23336Y27837D02*
D03*
X18612Y34923D02*
D03*
X18218Y31380D02*
D03*
X17824Y29018D02*
D03*
X17431Y27443D02*
D03*
Y32561D02*
D03*
X17037Y27443D02*
D03*
X19006Y25868D02*
D03*
X19793Y29805D02*
D03*
Y25868D02*
D03*
X20187Y26262D02*
D03*
X20580Y30986D02*
D03*
X21368Y29805D02*
D03*
Y28624D02*
D03*
X21761Y33742D02*
D03*
X25698Y25081D02*
D03*
X24517Y27049D02*
D03*
X24124Y32167D02*
D03*
X23730Y27443D02*
D03*
X23336Y29805D02*
D03*
X18218Y27837D02*
D03*
X17824Y34923D02*
D03*
X17037Y27049D02*
D03*
Y27837D02*
D03*
X19006Y25474D02*
D03*
X20187Y29805D02*
D03*
X20974Y26262D02*
D03*
X21368Y30986D02*
D03*
X22943Y32955D02*
D03*
X26880Y29412D02*
D03*
X26092Y27837D02*
D03*
X25305Y32167D02*
D03*
Y33349D02*
D03*
X24124Y25868D02*
D03*
Y32955D02*
D03*
X22943Y27837D02*
D03*
Y31380D02*
D03*
X18218Y30593D02*
D03*
X17824Y27443D02*
D03*
X17431Y27837D02*
D03*
X18612Y29805D02*
D03*
X20187Y34923D02*
D03*
X20580Y31380D02*
D03*
X20974Y30593D02*
D03*
Y27837D02*
D03*
Y25868D02*
D03*
X21368Y25474D02*
D03*
X21761Y28624D02*
D03*
X25698Y31380D02*
D03*
X24911Y26262D02*
D03*
X23730D02*
D03*
X23336Y27443D02*
D03*
X22943Y28230D02*
D03*
X18218Y32561D02*
D03*
X17431Y26656D02*
D03*
X19006Y27837D02*
D03*
X20187Y32167D02*
D03*
X20580Y32955D02*
D03*
X21761Y31774D02*
D03*
Y25868D02*
D03*
X22549Y31380D02*
D03*
Y30593D02*
D03*
X26092Y26656D02*
D03*
X24911Y27837D02*
D03*
X23336Y25868D02*
D03*
Y28230D02*
D03*
X18612Y31380D02*
D03*
X17824Y25868D02*
D03*
Y27837D02*
D03*
X17431Y34136D02*
D03*
X20974Y30986D02*
D03*
Y28624D02*
D03*
X21761Y30986D02*
D03*
X22549Y27837D02*
D03*
Y27443D02*
D03*
Y27049D02*
D03*
Y26262D02*
D03*
X22943Y33742D02*
D03*
X26092Y32561D02*
D03*
X18218Y34136D02*
D03*
X17431Y31774D02*
D03*
X17037Y29411D02*
D03*
X18612Y30593D02*
D03*
X20974Y26656D02*
D03*
X21368Y29411D02*
D03*
Y27837D02*
D03*
X21761Y28230D02*
D03*
X26880Y30986D02*
D03*
X26092Y33349D02*
D03*
X25698Y34530D02*
D03*
X25305Y27049D02*
D03*
Y28230D02*
D03*
Y29018D02*
D03*
X24124Y26656D02*
D03*
X23336Y30986D02*
D03*
X22943Y27443D02*
D03*
X20187Y28230D02*
D03*
X20580Y27443D02*
D03*
X20974Y28230D02*
D03*
X21761Y31380D02*
D03*
X22549Y29805D02*
D03*
X26880D02*
D03*
Y26656D02*
D03*
X24517Y27443D02*
D03*
X23730Y26656D02*
D03*
X23336Y31380D02*
D03*
X18218Y28230D02*
D03*
Y31774D02*
D03*
Y33742D02*
D03*
X17431Y30986D02*
D03*
X19399Y29018D02*
D03*
X20187Y30986D02*
D03*
X20580Y26262D02*
D03*
X20974Y33742D02*
D03*
Y31380D02*
D03*
Y29805D02*
D03*
X21368Y28230D02*
D03*
X22549Y25474D02*
D03*
X26880Y33349D02*
D03*
X24911Y25868D02*
D03*
Y26656D02*
D03*
X24124Y28624D02*
D03*
X23730Y27049D02*
D03*
X23336Y25474D02*
D03*
X17431Y27049D02*
D03*
Y29411D02*
D03*
X19006Y30593D02*
D03*
X20580Y25474D02*
D03*
X20974Y29411D02*
D03*
X21761D02*
D03*
Y27837D02*
D03*
Y27443D02*
D03*
Y27049D02*
D03*
X25305Y25868D02*
D03*
X24517Y26262D02*
D03*
X24124D02*
D03*
X23730Y30986D02*
D03*
X22943Y26656D02*
D03*
X18218Y29805D02*
D03*
X17037Y35317D02*
D03*
Y25868D02*
D03*
X10634Y29849D02*
D03*
X8741Y28274D02*
D03*
X10949Y27645D02*
D03*
X10634D02*
D03*
Y28274D02*
D03*
X10949D02*
D03*
X9059Y28904D02*
D03*
X9374Y30794D02*
D03*
X8744Y27645D02*
D03*
Y28904D02*
D03*
Y28589D02*
D03*
X11261Y27653D02*
D03*
X10949Y32369D02*
D03*
X10634D02*
D03*
Y32684D02*
D03*
X4985Y38919D02*
D03*
X5234D02*
D03*
Y39168D02*
D03*
X5239Y36963D02*
D03*
X4990Y37212D02*
D03*
X5239D02*
D03*
X5488D02*
D03*
X6046Y37832D02*
D03*
X6105Y37655D02*
D03*
X56031Y48963D02*
D03*
Y48688D02*
D03*
Y48413D02*
D03*
X57406Y48963D02*
D03*
Y48688D02*
D03*
Y48413D02*
D03*
Y48138D02*
D03*
X57131D02*
D03*
X56031D02*
D03*
X56306D02*
D03*
X56581D02*
D03*
X56856D02*
D03*
X47384Y43164D02*
D03*
X53011Y45137D02*
D03*
X53014Y44314D02*
D03*
X53016Y43987D02*
D03*
X53019Y43164D02*
D03*
X51934Y43997D02*
D03*
X51863Y44786D02*
D03*
X51860Y45015D02*
D03*
X51496Y44118D02*
D03*
X51293Y46299D02*
D03*
Y46526D02*
D03*
X52223D02*
D03*
Y46299D02*
D03*
X52342Y45424D02*
D03*
X50869Y45881D02*
D03*
X50497Y45885D02*
D03*
X50522Y42473D02*
D03*
X51366Y42776D02*
D03*
X51059D02*
D03*
X50944Y43029D02*
D03*
X51220D02*
D03*
X51674Y42776D02*
D03*
X54760Y39782D02*
D03*
X54448D02*
D03*
X54760Y41344D02*
D03*
X54448D02*
D03*
X58131Y42901D02*
D03*
Y45401D02*
D03*
X53155Y42901D02*
D03*
X53153Y45403D02*
D03*
X54135Y41344D02*
D03*
Y41032D02*
D03*
Y40719D02*
D03*
Y40407D02*
D03*
Y40094D02*
D03*
Y39782D02*
D03*
X51502Y41459D02*
D03*
X51502Y42235D02*
D03*
X51870Y41985D02*
D03*
X52191Y41959D02*
D03*
X51869Y41718D02*
D03*
X52810Y41698D02*
D03*
X52916Y40808D02*
D03*
X51419Y41207D02*
D03*
X48679Y46448D02*
D03*
Y46149D02*
D03*
Y45850D02*
D03*
X48380D02*
D03*
X48081D02*
D03*
X47783D02*
D03*
X49170Y44879D02*
D03*
X48942D02*
D03*
X48496Y44803D02*
D03*
Y45102D02*
D03*
X48874Y45138D02*
D03*
X59352Y42437D02*
D03*
X58993Y42433D02*
D03*
X58634Y42433D02*
D03*
X58275D02*
D03*
X51306Y43680D02*
D03*
X51476D02*
D03*
D280*
X15205Y23312D02*
D03*
X28985Y37092D02*
D03*
D281*
X51024Y51745D02*
D03*
X50424D02*
D03*
X49824D02*
D03*
X49224D02*
D03*
X49524Y52045D02*
D03*
X50724D02*
D03*
X49224Y52345D02*
D03*
X49824D02*
D03*
X50424D02*
D03*
X51024D02*
D03*
X49524Y52645D02*
D03*
X50724D02*
D03*
X49224Y52945D02*
D03*
X49824D02*
D03*
X50424D02*
D03*
X51024D02*
D03*
X49524Y53245D02*
D03*
X50724D02*
D03*
X49224Y53545D02*
D03*
X49824D02*
D03*
X50424D02*
D03*
X51024D02*
D03*
X49524Y53845D02*
D03*
X50124D02*
D03*
X50724D02*
D03*
X49224Y54145D02*
D03*
X49824D02*
D03*
X50424D02*
D03*
X49524Y54445D02*
D03*
X50124D02*
D03*
X49224Y54745D02*
D03*
X49824D02*
D03*
X50424D02*
D03*
X51024D02*
D03*
Y54145D02*
D03*
X50724Y54445D02*
D03*
X50124Y52045D02*
D03*
Y52645D02*
D03*
Y53245D02*
D03*
D282*
X45470Y20282D02*
D03*
X45076D02*
D03*
X44682D02*
D03*
Y19888D02*
D03*
X45076D02*
D03*
X45470D02*
D03*
Y19495D02*
D03*
X45076D02*
D03*
X44682D02*
D03*
M02*
